<svg width="70" height="75" viewBox="0 0 70 75" fill="none" xmlns="http://www.w3.org/2000/svg">
<path d="M68.8327 59.4989H36.1691C36.0159 59.4989 35.8641 59.4688 35.7225 59.4102C35.5809 59.3516 35.4523 59.2657 35.3439 59.1573C35.2356 59.049 35.1497 58.9204 35.0911 58.7788C35.0325 58.6372 35.0024 58.4854 35.0024 58.3322V53.6657C35.0024 53.5124 35.0325 53.3607 35.0911 53.2191C35.1497 53.0775 35.2356 52.9489 35.3439 52.8405C35.4523 52.7322 35.5809 52.6463 35.7225 52.5877C35.8641 52.5291 36.0159 52.4989 36.1691 52.499H68.8327C69.1421 52.499 69.4388 52.6219 69.6576 52.8407C69.8764 53.0595 69.9993 53.3563 69.9993 53.6657C69.9993 53.9751 69.8764 54.2718 69.6576 54.4906C69.4388 54.7094 69.1421 54.8323 68.8327 54.8323H37.3357V57.1656H68.8327C69.1421 57.1656 69.4388 57.2885 69.6576 57.5073C69.8764 57.7261 69.9993 58.0228 69.9993 58.3322C69.9993 58.6416 69.8764 58.9384 69.6576 59.1572C69.4388 59.3759 69.1421 59.4989 68.8327 59.4989Z" fill="#003c43"/>
<path d="M38.5026 74.6646C38.3493 74.6647 38.1976 74.6346 38.056 74.576C37.9144 74.5174 37.7858 74.4315 37.6774 74.3231C37.5691 74.2148 37.4832 74.0861 37.4246 73.9445C37.366 73.803 37.3359 73.6512 37.3359 73.498V58.3317C37.3359 58.0223 37.4589 57.7255 37.6776 57.5067C37.8964 57.288 38.1932 57.165 38.5026 57.165C38.812 57.165 39.1087 57.288 39.3275 57.5067C39.5463 57.7255 39.6692 58.0223 39.6692 58.3317V73.498C39.6693 73.6512 39.6392 73.803 39.5806 73.9445C39.522 74.0861 39.4361 74.2148 39.3277 74.3231C39.2194 74.4315 39.0907 74.5174 38.9491 74.576C38.8075 74.6346 38.6558 74.6647 38.5026 74.6646Z" fill="#003c43"/>
<path d="M36.1794 50.1652H1.17347C1.02024 50.1653 0.8685 50.1352 0.726918 50.0766C0.585335 50.018 0.456691 49.9321 0.348342 49.8237C0.239992 49.7154 0.154061 49.5867 0.0954631 49.4451C0.036865 49.3035 0.00674871 49.1518 0.00683613 48.9986V4.66176C0.00674871 4.50853 0.036865 4.35678 0.0954631 4.2152C0.154061 4.07362 0.239992 3.94497 0.348342 3.83662C0.456691 3.72827 0.585335 3.64234 0.726918 3.58374C0.8685 3.52515 1.02024 3.49503 1.17347 3.49512H36.1794C36.3326 3.49503 36.4844 3.52514 36.626 3.58374C36.7675 3.64234 36.8962 3.72827 37.0045 3.83662C37.1129 3.94497 37.1988 4.07361 37.2574 4.2152C37.316 4.35678 37.3461 4.50853 37.346 4.66176V48.9986C37.3461 49.1518 37.316 49.3036 37.2574 49.4451C37.1988 49.5867 37.1129 49.7154 37.0045 49.8237C36.8962 49.9321 36.7675 50.018 36.626 50.0766C36.4844 50.1352 36.3326 50.1653 36.1794 50.1652ZM2.34011 47.8319H35.0128V5.82839H2.34011V47.8319Z" fill="#003c43"/>
<path d="M32.6796 46.6654H4.67347C4.52024 46.6655 4.3685 46.6354 4.22692 46.5768C4.08534 46.5182 3.95669 46.4322 3.84834 46.3239C3.73999 46.2155 3.65406 46.0869 3.59546 45.9453C3.53686 45.8037 3.50675 45.652 3.50684 45.4987V8.16176C3.50675 8.00853 3.53686 7.85678 3.59546 7.7152C3.65406 7.57362 3.73999 7.44497 3.84834 7.33662C3.95669 7.22827 4.08534 7.14234 4.22692 7.08374C4.3685 7.02515 4.52024 6.99503 4.67347 6.99512H32.6796C32.8328 6.99503 32.9845 7.02514 33.1261 7.08374C33.2677 7.14234 33.3964 7.22827 33.5047 7.33662C33.6131 7.44497 33.699 7.57361 33.7576 7.7152C33.8162 7.85678 33.8463 8.00853 33.8462 8.16176V45.4987C33.8463 45.652 33.8162 45.8037 33.7576 45.9453C33.699 46.0869 33.6131 46.2155 33.5047 46.3239C33.3964 46.4322 33.2677 46.5182 33.1261 46.5768C32.9845 46.6354 32.8328 46.6655 32.6796 46.6654ZM5.84011 44.3321H31.5129V9.32839H5.84011V44.3321Z" fill="#003c43"/>
<path d="M10.5089 28.0005C10.3557 28.0006 10.2039 27.9705 10.0624 27.9119C9.92078 27.8533 9.79214 27.7674 9.68379 27.659C9.57544 27.5507 9.48951 27.422 9.43091 27.2805C9.37231 27.1389 9.3422 26.9871 9.34229 26.8339V23.4889C9.34229 23.1795 9.4652 22.8828 9.68399 22.664C9.90277 22.4452 10.1995 22.3223 10.5089 22.3223C10.8183 22.3223 11.1151 22.4452 11.3339 22.664C11.5526 22.8828 11.6756 23.1795 11.6756 23.4889V26.8339C11.6757 26.9871 11.6455 27.1389 11.5869 27.2805C11.5283 27.422 11.4424 27.5507 11.3341 27.659C11.2257 27.7674 11.0971 27.8533 10.9555 27.9119C10.8139 27.9705 10.6622 28.0006 10.5089 28.0005Z" fill="#003c43"/>
<path d="M26.8419 28.0005C26.6887 28.0006 26.537 27.9705 26.3954 27.9119C26.2538 27.8533 26.1251 27.7673 26.0168 27.659C25.9084 27.5506 25.8225 27.422 25.7639 27.2804C25.7053 27.1388 25.6752 26.9871 25.6753 26.8339V22.7506C25.6753 22.4412 25.7982 22.1445 26.017 21.9257C26.2358 21.7069 26.5325 21.584 26.8419 21.584C27.1513 21.584 27.4481 21.7069 27.6669 21.9257C27.8857 22.1445 28.0086 22.4412 28.0086 22.7506V26.8339C28.0087 26.9871 27.9785 27.1388 27.9199 27.2804C27.8613 27.422 27.7754 27.5506 27.6671 27.659C27.5587 27.7673 27.4301 27.8533 27.2885 27.9119C27.1469 27.9705 26.9952 28.0006 26.8419 28.0005Z" fill="#003c43"/>
<path d="M26.842 23.917C26.6888 23.9171 26.537 23.887 26.3954 23.8284C26.2539 23.7698 26.1252 23.6839 26.0169 23.5755C25.9085 23.4672 25.8226 23.3385 25.764 23.197C25.7054 23.0554 25.6753 22.9036 25.6754 22.7504C25.6754 20.7392 24.8764 18.8104 23.4543 17.3883C22.0322 15.9662 20.1034 15.1673 18.0922 15.1673C16.081 15.1673 14.1522 15.9662 12.7301 17.3883C11.308 18.8104 10.5091 20.7392 10.5091 22.7504C10.5091 23.0598 10.3861 23.3566 10.1674 23.5753C9.94857 23.7941 9.65183 23.917 9.34242 23.917C9.03301 23.917 8.73627 23.7941 8.51748 23.5753C8.29869 23.3566 8.17578 23.0598 8.17578 22.7504C8.17578 20.1204 9.22054 17.5981 11.0802 15.7384C12.9399 13.8787 15.4622 12.834 18.0922 12.834C20.7222 12.834 23.2445 13.8787 25.1042 15.7384C26.9639 17.5981 28.0086 20.1204 28.0086 22.7504C28.0087 22.9036 27.9786 23.0554 27.92 23.197C27.8614 23.3386 27.7755 23.4672 27.6671 23.5755C27.5588 23.6839 27.4301 23.7698 27.2886 23.8284C27.147 23.887 26.9952 23.9171 26.842 23.917Z" fill="#003c43"/>
<path d="M26.8427 25.5163C26.6634 25.5165 26.4864 25.4755 26.3256 25.3962C26.1647 25.317 26.0243 25.2017 25.9153 25.0594C23.6629 22.1166 23.0511 22.3593 20.7657 23.265C17.1096 24.837 13.0621 25.261 9.15966 24.4806C8.85418 24.4323 8.58041 24.2646 8.39859 24.0144C8.21676 23.7642 8.14178 23.452 8.19012 23.1465C8.23847 22.841 8.40619 22.5673 8.65638 22.3855C8.90658 22.2036 9.21875 22.1286 9.52424 22.177C13.0141 22.8889 16.6384 22.5115 19.9066 21.0958C22.7207 19.9804 24.6051 19.5088 27.7678 23.6398C27.9002 23.8126 27.9817 24.0189 28.003 24.2355C28.0243 24.4521 27.9846 24.6703 27.8883 24.8656C27.7921 25.0608 27.6432 25.2252 27.4584 25.3402C27.2736 25.4551 27.0603 25.5161 26.8427 25.5163Z" fill="#003c43"/>
<path d="M22.1742 22.7231C21.9762 22.723 21.7815 22.6725 21.6084 22.5763C21.4353 22.4801 21.2895 22.3413 21.1849 22.1732C21.0802 22.0051 21.0201 21.813 21.0102 21.6153C21.0004 21.4175 21.041 21.2204 21.1284 21.0427L23.4616 16.293C23.5289 16.155 23.6226 16.0318 23.7376 15.9301C23.8525 15.8285 23.9864 15.7506 24.1315 15.7008C24.2766 15.651 24.4302 15.6304 24.5833 15.64C24.7364 15.6496 24.8861 15.6894 25.0238 15.757C25.1616 15.8246 25.2846 15.9187 25.3859 16.0339C25.4872 16.1491 25.5648 16.2832 25.6142 16.4284C25.6636 16.5737 25.6839 16.7273 25.6738 16.8804C25.6638 17.0334 25.6236 17.183 25.5557 17.3206L23.2224 22.0703C23.1263 22.2663 22.9771 22.4314 22.7918 22.5468C22.6065 22.6623 22.3925 22.7233 22.1742 22.7231Z" fill="#003c43"/>
<path d="M8.17543 41.9932C8.0222 41.9932 7.87045 41.9631 7.72887 41.9045C7.58729 41.8459 7.45865 41.76 7.3503 41.6517C7.24195 41.5433 7.15601 41.4147 7.09742 41.2731C7.03882 41.1315 7.0087 40.9798 7.00879 40.8265C7.01026 39.5894 7.50242 38.4034 8.37729 37.5288C9.25215 36.6542 10.4383 36.1623 11.6753 36.1611C11.9848 36.1611 12.2815 36.284 12.5003 36.5028C12.7191 36.7216 12.842 37.0184 12.842 37.3278C12.842 37.6372 12.7191 37.9339 12.5003 38.1527C12.2815 38.3715 11.9848 38.4944 11.6753 38.4944C11.0569 38.495 10.4639 38.7408 10.0265 39.178C9.58906 39.6152 9.34292 40.2081 9.34207 40.8265C9.34216 40.9798 9.31204 41.1315 9.25344 41.2731C9.19484 41.4147 9.10891 41.5433 9.00056 41.6517C8.89221 41.76 8.76357 41.8459 8.62199 41.9045C8.4804 41.9631 8.32866 41.9932 8.17543 41.9932Z" fill="#003c43"/>
<path d="M15.1753 38.5012H11.6754C11.366 38.5012 11.0693 38.3783 10.8505 38.1595C10.6317 37.9408 10.5088 37.644 10.5088 37.3346C10.5088 37.0252 10.6317 36.7285 10.8505 36.5097C11.0693 36.2909 11.366 36.168 11.6754 36.168H15.1753C15.4848 36.168 15.7815 36.2909 16.0003 36.5097C16.2191 36.7285 16.342 37.0252 16.342 37.3346C16.342 37.644 16.2191 37.9408 16.0003 38.1595C15.7815 38.3783 15.4848 38.5012 15.1753 38.5012Z" fill="#003c43"/>
<path d="M8.17543 46.6657C8.0222 46.6658 7.87045 46.6356 7.72887 46.577C7.58729 46.5185 7.45865 46.4325 7.3503 46.3242C7.24195 46.2158 7.15601 46.0872 7.09742 45.9456C7.03882 45.804 7.0087 45.6523 7.00879 45.499V40.8268C7.00879 40.5174 7.1317 40.2206 7.35049 40.0019C7.56928 39.7831 7.86602 39.6602 8.17543 39.6602C8.48484 39.6602 8.78158 39.7831 9.00037 40.0019C9.21915 40.2206 9.34207 40.5174 9.34207 40.8268V45.499C9.34216 45.6523 9.31204 45.804 9.25344 45.9456C9.19484 46.0872 9.10891 46.2158 9.00056 46.3242C8.89221 46.4325 8.76357 46.5185 8.62199 46.5771C8.4804 46.6357 8.32866 46.6658 8.17543 46.6657Z" fill="#003c43"/>
<path d="M29.1749 41.9932C29.0216 41.9932 28.8699 41.9631 28.7283 41.9045C28.5867 41.8459 28.4581 41.76 28.3497 41.6517C28.2414 41.5433 28.1554 41.4147 28.0968 41.2731C28.0382 41.1315 28.0081 40.9798 28.0082 40.8265C28.0074 40.2081 27.7612 39.6152 27.3238 39.178C26.8864 38.7408 26.2934 38.495 25.6749 38.4944C25.3655 38.4944 25.0688 38.3715 24.85 38.1527C24.6312 37.9339 24.5083 37.6372 24.5083 37.3278C24.5083 37.0184 24.6312 36.7216 24.85 36.5028C25.0688 36.284 25.3655 36.1611 25.6749 36.1611C26.912 36.1623 28.0981 36.6542 28.973 37.5288C29.8479 38.4034 30.34 39.5894 30.3415 40.8265C30.3416 40.9798 30.3115 41.1315 30.2529 41.2731C30.1943 41.4147 30.1083 41.5433 30 41.6517C29.8916 41.76 29.763 41.8459 29.6214 41.9045C29.4798 41.9631 29.3281 41.9932 29.1749 41.9932Z" fill="#003c43"/>
<path d="M25.6753 38.5012H22.1754C21.866 38.5012 21.5693 38.3783 21.3505 38.1595C21.1317 37.9408 21.0088 37.644 21.0088 37.3346C21.0088 37.0252 21.1317 36.7285 21.3505 36.5097C21.5693 36.2909 21.866 36.168 22.1754 36.168H25.6753C25.9848 36.168 26.2815 36.2909 26.5003 36.5097C26.7191 36.7285 26.842 37.0252 26.842 37.3346C26.842 37.644 26.7191 37.9408 26.5003 38.1595C26.2815 38.3783 25.9848 38.5012 25.6753 38.5012Z" fill="#003c43"/>
<path d="M29.1749 46.6657C29.0217 46.6658 28.87 46.6356 28.7284 46.577C28.5868 46.5185 28.4582 46.4325 28.3498 46.3242C28.2415 46.2158 28.1555 46.0872 28.0969 45.9456C28.0383 45.804 28.0082 45.6523 28.0083 45.499V40.8268C28.0083 40.5174 28.1312 40.2206 28.35 40.0019C28.5688 39.7831 28.8655 39.6602 29.1749 39.6602C29.4844 39.6602 29.7811 39.7831 29.9999 40.0019C30.2187 40.2206 30.3416 40.5174 30.3416 40.8268V45.499C30.3417 45.6523 30.3116 45.804 30.253 45.9456C30.1944 46.0872 30.1084 46.2158 30.0001 46.3242C29.8917 46.4325 29.7631 46.5185 29.6215 46.5771C29.4799 46.6357 29.3282 46.6658 29.1749 46.6657Z" fill="#003c43"/>
<path d="M15.1754 38.5011C15.0222 38.5011 14.8705 38.471 14.7289 38.4124C14.5873 38.3538 14.4586 38.2679 14.3503 38.1596C14.2419 38.0512 14.156 37.9226 14.0974 37.781C14.0388 37.6394 14.0087 37.4876 14.0088 37.3344V34.2047C14.0088 33.8953 14.1317 33.5986 14.3505 33.3798C14.5693 33.161 14.866 33.0381 15.1754 33.0381C15.4848 33.0381 15.7816 33.161 16.0004 33.3798C16.2192 33.5986 16.3421 33.8953 16.3421 34.2047V37.3344C16.3422 37.4876 16.312 37.6394 16.2534 37.781C16.1948 37.9226 16.1089 38.0512 16.0006 38.1596C15.8922 38.2679 15.7636 38.3538 15.622 38.4124C15.4804 38.471 15.3287 38.5011 15.1754 38.5011Z" fill="#003c43"/>
<path d="M22.1754 38.493C22.0222 38.4931 21.8705 38.463 21.7289 38.4044C21.5873 38.3458 21.4586 38.2599 21.3503 38.1515C21.2419 38.0432 21.156 37.9145 21.0974 37.7729C21.0388 37.6314 21.0087 37.4796 21.0088 37.3264V34.2047C21.0088 33.8953 21.1317 33.5986 21.3505 33.3798C21.5693 33.161 21.866 33.0381 22.1754 33.0381C22.4848 33.0381 22.7816 33.161 23.0004 33.3798C23.2192 33.5986 23.3421 33.8953 23.3421 34.2047V37.3264C23.3422 37.4796 23.312 37.6314 23.2534 37.773C23.1948 37.9145 23.1089 38.0432 23.0006 38.1515C22.8922 38.2599 22.7636 38.3458 22.622 38.4044C22.4804 38.463 22.3287 38.4931 22.1754 38.493Z" fill="#003c43"/>
<path d="M18.6754 36.1575C16.2014 36.155 13.8295 35.1714 12.0798 33.4224C10.3301 31.6733 9.34564 29.3017 9.34229 26.8278C9.34229 26.5184 9.4652 26.2216 9.68399 26.0028C9.90277 25.784 10.1995 25.6611 10.5089 25.6611C10.8183 25.6611 11.1151 25.784 11.3339 26.0028C11.5526 26.2216 11.6756 26.5184 11.6756 26.8278C11.6756 28.6842 12.413 30.4647 13.7258 31.7774C15.0385 33.0901 16.8189 33.8276 18.6754 33.8276C20.5319 33.8276 22.3123 33.0901 23.625 31.7774C24.9377 30.4647 25.6752 28.6842 25.6752 26.8278C25.6752 26.5184 25.7981 26.2216 26.0169 26.0028C26.2357 25.784 26.5325 25.6611 26.8419 25.6611C27.1513 25.6611 27.448 25.784 27.6668 26.0028C27.8856 26.2216 28.0085 26.5184 28.0085 26.8278C28.0052 29.3017 27.0207 31.6733 25.271 33.4224C23.5213 35.1714 21.1493 36.155 18.6754 36.1575Z" fill="#003c43"/>
<path d="M16.3434 39.6602C16.0804 39.6605 15.8251 39.572 15.6187 39.409C15.4124 39.246 15.2672 39.0181 15.2066 38.7622C15.1461 38.5063 15.1738 38.2374 15.2852 37.9993C15.3966 37.7611 15.5852 37.5675 15.8204 37.45L18.1537 36.2833C18.4305 36.1449 18.7509 36.1222 19.0445 36.22C19.338 36.3179 19.5807 36.5284 19.7191 36.8051C19.8575 37.0819 19.8803 37.4023 19.7824 37.6959C19.6846 37.9895 19.4741 38.2321 19.1973 38.3705L16.864 39.5372C16.7023 39.6179 16.5241 39.66 16.3434 39.6602Z" fill="#003c43"/>
<path d="M21.0082 39.6599C20.7775 39.6599 20.552 39.5914 20.3602 39.4632C20.1684 39.335 20.0189 39.1528 19.9306 38.9397C19.8423 38.7265 19.8192 38.492 19.8642 38.2657C19.9092 38.0395 20.0203 37.8316 20.1834 37.6685L21.35 36.5018C21.5688 36.2831 21.8655 36.1602 22.1749 36.1602C22.4842 36.1602 22.7809 36.2831 22.9997 36.5018C23.2185 36.7206 23.3414 37.0173 23.3414 37.3267C23.3414 37.636 23.2185 37.9328 22.9997 38.1515L21.8331 39.3182C21.7249 39.4267 21.5963 39.5127 21.4547 39.5714C21.3132 39.63 21.1614 39.6601 21.0082 39.6599Z" fill="#003c43"/>
<path d="M16.3419 39.66C16.1887 39.6602 16.0369 39.63 15.8954 39.5714C15.7538 39.5127 15.6253 39.4267 15.5171 39.3182L14.3505 38.1515C14.1317 37.9328 14.0088 37.636 14.0088 37.3267C14.0088 37.0173 14.1317 36.7206 14.3505 36.5018C14.5692 36.2831 14.8659 36.1602 15.1753 36.1602C15.4847 36.1602 15.7814 36.2831 16.0001 36.5018L17.1668 37.6685C17.3299 37.8316 17.441 38.0395 17.486 38.2657C17.531 38.492 17.5079 38.7265 17.4196 38.9397C17.3313 39.1528 17.1818 39.335 16.99 39.4632C16.7982 39.5914 16.5726 39.6599 16.3419 39.66Z" fill="#003c43"/>
<path d="M21.0077 39.6602C20.827 39.66 20.6487 39.6179 20.487 39.5372L18.1538 38.3705C18.0167 38.302 17.8945 38.2072 17.7941 38.0914C17.6937 37.9756 17.6171 37.8413 17.5687 37.6959C17.5202 37.5505 17.5009 37.3971 17.5117 37.2442C17.5226 37.0914 17.5634 36.9422 17.632 36.8051C17.7005 36.6681 17.7953 36.5459 17.9111 36.4455C18.0268 36.3451 18.1612 36.2685 18.3066 36.22C18.452 36.1716 18.6054 36.1522 18.7583 36.1631C18.9111 36.174 19.0603 36.2148 19.1974 36.2833L21.5306 37.45C21.7659 37.5675 21.9545 37.7611 22.0659 37.9993C22.1773 38.2374 22.205 38.5063 22.1444 38.7622C22.0839 39.0181 21.9387 39.246 21.7323 39.409C21.526 39.572 21.2707 39.6605 21.0077 39.6602Z" fill="#003c43"/>
<path d="M20.4232 5.82863H16.9245C16.7712 5.82872 16.6195 5.7986 16.4779 5.74001C16.3363 5.68141 16.2077 5.59548 16.0993 5.48713C15.991 5.37878 15.905 5.25013 15.8464 5.10855C15.7878 4.96697 15.7577 4.81522 15.7578 4.66199V1.16664C15.7577 1.01341 15.7878 0.861665 15.8464 0.720082C15.905 0.578499 15.991 0.449856 16.0993 0.341506C16.2077 0.233156 16.3363 0.147225 16.4779 0.0886272C16.6195 0.0300291 16.7712 -8.72192e-05 16.9245 1.96474e-07H20.4232C20.5764 -8.87544e-05 20.7282 0.0300265 20.8698 0.0886241C21.0113 0.147222 21.14 0.233152 21.2483 0.341502C21.3567 0.449852 21.4426 0.578497 21.5012 0.72008C21.5598 0.861663 21.5899 1.01341 21.5898 1.16664V4.66199C21.5899 4.81522 21.5598 4.96697 21.5012 5.10855C21.4426 5.25013 21.3567 5.37878 21.2483 5.48713C21.14 5.59548 21.0113 5.68141 20.8698 5.74001C20.7282 5.7986 20.5764 5.82872 20.4232 5.82863ZM18.0911 3.49535H19.2566V2.33328H18.0911V3.49535Z" fill="#003c43"/>
<path d="M20.4232 74.6647C20.27 74.6648 20.1182 74.6347 19.9766 74.5761C19.8351 74.5175 19.7064 74.4316 19.5981 74.3232C19.4897 74.2149 19.4038 74.0862 19.3452 73.9446C19.2866 73.803 19.2565 73.6513 19.2566 73.4981V50.1653H18.0911V73.4981C18.0911 73.8075 17.9682 74.1042 17.7494 74.323C17.5306 74.5418 17.2339 74.6647 16.9245 74.6647C16.615 74.6647 16.3183 74.5418 16.0995 74.323C15.8807 74.1042 15.7578 73.8075 15.7578 73.4981V48.9987C15.7577 48.8454 15.7878 48.6937 15.8464 48.5521C15.905 48.4105 15.991 48.2819 16.0993 48.1735C16.2077 48.0652 16.3363 47.9793 16.4779 47.9207C16.6195 47.8621 16.7712 47.8319 16.9245 47.832H20.4232C20.5764 47.8319 20.7282 47.8621 20.8698 47.9207C21.0113 47.9793 21.14 48.0652 21.2483 48.1735C21.3567 48.2819 21.4426 48.4105 21.5012 48.5521C21.5598 48.6937 21.5899 48.8454 21.5898 48.9987V73.4981C21.5899 73.6513 21.5598 73.8031 21.5012 73.9446C21.4426 74.0862 21.3567 74.2149 21.2483 74.3232C21.14 74.4316 21.0113 74.5175 20.8698 74.5761C20.7282 74.6347 20.5764 74.6648 20.4232 74.6647Z" fill="#003c43"/>
<path d="M8.17329 74.6653C8.09952 74.6652 8.02592 74.6583 7.9534 74.6448C7.64946 74.5867 7.38104 74.4103 7.20713 74.1544C7.03323 73.8984 6.96808 73.5839 7.02601 73.2799L11.6926 48.7805C11.7512 48.4771 11.9277 48.2093 12.1835 48.036C12.4393 47.8626 12.7534 47.7977 13.057 47.8557C13.3605 47.9136 13.6287 48.0896 13.8026 48.345C13.9766 48.6004 14.0421 48.9143 13.9848 49.218L9.31828 73.7174C9.26717 73.9838 9.12496 74.224 8.91604 74.397C8.70711 74.57 8.44451 74.6648 8.17329 74.6653Z" fill="#003c43"/>
<path d="M4.67475 74.6649C4.60099 74.6647 4.52739 74.6579 4.45487 74.6444C4.15093 74.5863 3.8825 74.4099 3.70859 74.1539C3.53469 73.898 3.46954 73.5835 3.52748 73.2795L8.19403 48.7801C8.22276 48.6296 8.28085 48.4862 8.36499 48.3582C8.44913 48.2301 8.55766 48.1199 8.6844 48.0337C8.81114 47.9476 8.9536 47.8873 9.10365 47.8563C9.2537 47.8252 9.4084 47.824 9.55891 47.8527C9.70942 47.8814 9.8528 47.9395 9.98086 48.0237C10.1089 48.1078 10.2192 48.2163 10.3053 48.3431C10.3914 48.4698 10.4517 48.6123 10.4828 48.7623C10.5138 48.9124 10.515 49.0671 10.4863 49.2176L5.81974 73.717C5.76863 73.9834 5.62642 74.2236 5.4175 74.3966C5.20858 74.5696 4.94598 74.6644 4.67475 74.6649Z" fill="#003c43"/>
<path d="M29.1721 74.6649C28.9009 74.6644 28.6383 74.5696 28.4293 74.3966C28.2204 74.2236 28.0782 73.9834 28.0271 73.717L23.3605 49.2176C23.3025 48.9136 23.3676 48.5991 23.5416 48.3431C23.7155 48.0871 23.9839 47.9107 24.2879 47.8527C24.5919 47.7947 24.9065 47.8598 25.1624 48.0337C25.4184 48.2077 25.5948 48.4761 25.6528 48.7801L30.3193 73.2795C30.3773 73.5835 30.3121 73.898 30.1382 74.154C29.9643 74.4099 29.6959 74.5863 29.392 74.6444C29.3194 74.6579 29.2458 74.6647 29.1721 74.6649Z" fill="#003c43"/>
<path d="M32.6711 74.6653C32.3999 74.6648 32.1373 74.57 31.9284 74.397C31.7194 74.2241 31.5772 73.9838 31.5261 73.7174L26.8596 49.218C26.8023 48.9143 26.8678 48.6004 27.0418 48.345C27.2157 48.0896 27.4839 47.9136 27.7874 47.8557C28.091 47.7977 28.4051 47.8626 28.6609 48.036C28.9167 48.2093 29.0932 48.4771 29.1518 48.7805L33.8184 73.2799C33.8763 73.5839 33.8112 73.8984 33.6373 74.1544C33.4634 74.4103 33.1949 74.5867 32.891 74.6448C32.8185 74.6583 32.7449 74.6652 32.6711 74.6653Z" fill="#003c43"/>
<path d="M46.6691 54.8324H42.0026C41.8493 54.8325 41.6976 54.8023 41.556 54.7437C41.4144 54.6851 41.2858 54.5992 41.1774 54.4909C41.0691 54.3825 40.9832 54.2539 40.9246 54.1123C40.866 53.9707 40.8359 53.819 40.8359 53.6657V45.5016C40.8359 45.3484 40.866 45.1966 40.9246 45.055C40.9832 44.9135 41.0691 44.7848 41.1774 44.6765C41.2858 44.5681 41.4144 44.4822 41.556 44.4236C41.6976 44.365 41.8493 44.3349 42.0026 44.335H46.6691C46.8224 44.3349 46.9741 44.365 47.1157 44.4236C47.2573 44.4822 47.3859 44.5681 47.4943 44.6765C47.6026 44.7848 47.6885 44.9135 47.7471 45.055C47.8057 45.1966 47.8359 45.3484 47.8358 45.5016V53.6657C47.8359 53.819 47.8057 53.9707 47.7471 54.1123C47.6885 54.2539 47.6026 54.3825 47.4943 54.4909C47.3859 54.5992 47.2573 54.6851 47.1157 54.7437C46.9741 54.8023 46.8224 54.8325 46.6691 54.8324ZM43.1692 52.4991H45.5025V46.6682H43.1692V52.4991Z" fill="#003c43"/>
<path d="M44.3359 44.3325C43.4079 44.3315 42.5183 43.9624 41.8622 43.3063C41.206 42.6501 40.837 41.7605 40.8359 40.8326C40.8359 39.4735 41.9274 34.9971 44.3359 34.9971C46.7443 34.9971 47.8358 39.4735 47.8358 40.8326C47.8348 41.7605 47.4657 42.6501 46.8095 43.3063C46.1534 43.9624 45.2638 44.3315 44.3359 44.3325ZM44.3359 37.4295C43.6669 38.4477 43.2657 39.6182 43.1692 40.8326C43.1692 41.142 43.2921 41.4387 43.5109 41.6575C43.7297 41.8763 44.0264 41.9992 44.3359 41.9992C44.6453 41.9992 44.942 41.8763 45.1608 41.6575C45.3796 41.4387 45.5025 41.142 45.5025 40.8326C45.406 39.6182 45.0048 38.4477 44.3359 37.4295Z" fill="#003c43"/>
<path d="M44.3356 46.6679C44.1824 46.668 44.0306 46.6379 43.889 46.5793C43.7474 46.5207 43.6188 46.4348 43.5104 46.3264C43.4021 46.2181 43.3162 46.0894 43.2576 45.9478C43.199 45.8062 43.1689 45.6545 43.1689 45.5013V43.1657C43.1689 42.8563 43.2919 42.5595 43.5106 42.3407C43.7294 42.1219 44.0262 41.999 44.3356 41.999C44.645 41.999 44.9417 42.1219 45.1605 42.3407C45.3793 42.5595 45.5022 42.8563 45.5022 43.1657V45.5013C45.5023 45.6545 45.4722 45.8062 45.4136 45.9478C45.355 46.0894 45.2691 46.2181 45.1607 46.3264C45.0524 46.4348 44.9237 46.5207 44.7821 46.5793C44.6406 46.6379 44.4888 46.668 44.3356 46.6679Z" fill="#003c43"/>
<path d="M56.0021 54.8317H51.3356C51.1824 54.8318 51.0306 54.8017 50.889 54.7431C50.7474 54.6845 50.6188 54.5986 50.5104 54.4902C50.4021 54.3819 50.3162 54.2532 50.2576 54.1116C50.199 53.9701 50.1689 53.8183 50.1689 53.6651V40.8297C50.1689 40.6765 50.199 40.5247 50.2576 40.3832C50.3162 40.2416 50.4021 40.1129 50.5104 40.0046C50.6188 39.8962 50.7474 39.8103 50.889 39.7517C51.0306 39.6931 51.1824 39.663 51.3356 39.6631H56.0021C56.1554 39.663 56.3071 39.6931 56.4487 39.7517C56.5903 39.8103 56.7189 39.8962 56.8273 40.0046C56.9356 40.1129 57.0216 40.2416 57.0802 40.3832C57.1387 40.5247 57.1689 40.6765 57.1688 40.8297V53.6651C57.1689 53.8183 57.1387 53.9701 57.0801 54.1116C57.0215 54.2532 56.9356 54.3819 56.8273 54.4902C56.7189 54.5986 56.5903 54.6845 56.4487 54.7431C56.3071 54.8017 56.1554 54.8318 56.0021 54.8317ZM52.5022 52.4984H54.8355V41.9964H52.5022V52.4984Z" fill="#003c43"/>
<path d="M53.6689 39.6616C52.7409 39.6605 51.8513 39.2915 51.1952 38.6353C50.539 37.9792 50.17 37.0896 50.1689 36.1616C50.1689 34.8025 51.2604 30.3262 53.6689 30.3262C56.0773 30.3262 57.1688 34.8025 57.1688 36.1616C57.1678 37.0896 56.7987 37.9792 56.1426 38.6353C55.4864 39.2915 54.5968 39.6605 53.6689 39.6616ZM53.6689 32.7586C52.9999 33.7767 52.5987 34.9472 52.5022 36.1616C52.5022 36.471 52.6251 36.7678 52.8439 36.9866C53.0627 37.2054 53.3594 37.3283 53.6689 37.3283C53.9783 37.3283 54.275 37.2054 54.4938 36.9866C54.7126 36.7678 54.8355 36.471 54.8355 36.1616C54.739 34.9472 54.3378 33.7767 53.6689 32.7586Z" fill="#003c43"/>
<path d="M53.6686 41.997C53.5154 41.9971 53.3636 41.967 53.222 41.9084C53.0805 41.8498 52.9518 41.7639 52.8435 41.6555C52.7351 41.5472 52.6492 41.4185 52.5906 41.2769C52.532 41.1353 52.5019 40.9836 52.502 40.8304V38.4948C52.502 38.1854 52.6249 37.8886 52.8437 37.6698C53.0624 37.451 53.3592 37.3281 53.6686 37.3281C53.978 37.3281 54.2747 37.451 54.4935 37.6698C54.7123 37.8886 54.8352 38.1854 54.8352 38.4948V40.8304C54.8353 40.9836 54.8052 41.1353 54.7466 41.2769C54.688 41.4185 54.6021 41.5472 54.4937 41.6555C54.3854 41.7639 54.2567 41.8498 54.1151 41.9084C53.9736 41.967 53.8218 41.9971 53.6686 41.997Z" fill="#003c43"/>
<path d="M65.3351 54.8324H60.6686C60.5154 54.8325 60.3636 54.8023 60.222 54.7437C60.0805 54.6851 59.9518 54.5992 59.8435 54.4909C59.7351 54.3825 59.6492 54.2539 59.5906 54.1123C59.532 53.9707 59.5019 53.819 59.502 53.6657V45.5016C59.5019 45.3484 59.532 45.1966 59.5906 45.055C59.6492 44.9135 59.7351 44.7848 59.8435 44.6765C59.9518 44.5681 60.0805 44.4822 60.222 44.4236C60.3636 44.365 60.5154 44.3349 60.6686 44.335H65.3351C65.4884 44.3349 65.6401 44.365 65.7817 44.4236C65.9233 44.4822 66.0519 44.5681 66.1603 44.6765C66.2686 44.7848 66.3546 44.9135 66.4132 45.055C66.4718 45.1966 66.5019 45.3484 66.5018 45.5016V53.6657C66.5019 53.819 66.4718 53.9707 66.4132 54.1123C66.3546 54.2539 66.2686 54.3825 66.1603 54.4909C66.0519 54.5992 65.9233 54.6851 65.7817 54.7437C65.6401 54.8023 65.4884 54.8325 65.3351 54.8324ZM61.8352 52.4991H64.1685V46.6682H61.8352V52.4991Z" fill="#003c43"/>
<path d="M63.0019 44.3325C62.0739 44.3315 61.1843 43.9624 60.5282 43.3063C59.872 42.6501 59.503 41.7605 59.502 40.8326C59.502 39.4735 60.5934 34.9971 63.0019 34.9971C65.4103 34.9971 66.5018 39.4735 66.5018 40.8326C66.5008 41.7605 66.1317 42.6501 65.4756 43.3063C64.8194 43.9624 63.9298 44.3315 63.0019 44.3325ZM63.0019 37.4295C62.333 38.4477 61.9317 39.6182 61.8352 40.8326C61.8352 41.142 61.9581 41.4387 62.1769 41.6575C62.3957 41.8763 62.6925 41.9992 63.0019 41.9992C63.3113 41.9992 63.608 41.8763 63.8268 41.6575C64.0456 41.4387 64.1685 41.142 64.1685 40.8326C64.072 39.6182 63.6708 38.4477 63.0019 37.4295Z" fill="#003c43"/>
<path d="M63.0021 46.6679C62.8489 46.668 62.6971 46.6379 62.5555 46.5793C62.4139 46.5207 62.2853 46.4348 62.177 46.3264C62.0686 46.2181 61.9827 46.0894 61.9241 45.9478C61.8655 45.8062 61.8354 45.6545 61.8354 45.5013V43.1657C61.8354 42.8563 61.9584 42.5595 62.1771 42.3407C62.3959 42.1219 62.6927 41.999 63.0021 41.999C63.3115 41.999 63.6082 42.1219 63.827 42.3407C64.0458 42.5595 64.1687 42.8563 64.1687 43.1657V45.5013C64.1688 45.6545 64.1387 45.8062 64.0801 45.9478C64.0215 46.0894 63.9356 46.2181 63.8272 46.3264C63.7189 46.4348 63.5902 46.5207 63.4486 46.5793C63.3071 46.6379 63.1553 46.668 63.0021 46.6679Z" fill="#003c43"/>
<path d="M32.6791 9.32815C32.4484 9.3281 32.2229 9.25965 32.0311 9.13145C31.8393 9.00326 31.6898 8.82107 31.6015 8.60793C31.5132 8.39478 31.4901 8.16025 31.5351 7.93398C31.5801 7.7077 31.6912 7.49985 31.8543 7.33669L35.3542 3.83678C35.573 3.61802 35.8697 3.49512 36.179 3.49512C36.4884 3.49512 36.7851 3.61802 37.0039 3.83678C37.2227 4.05555 37.3456 4.35226 37.3456 4.66164C37.3456 4.97102 37.2226 5.26772 37.0039 5.48649L33.504 8.9864C33.3958 9.0949 33.2672 9.18095 33.1256 9.2396C32.9841 9.29825 32.8323 9.32834 32.6791 9.32815Z" fill="#003c43"/>
<path d="M36.1785 50.1655C36.0253 50.1657 35.8736 50.1356 35.732 50.0769C35.5905 50.0182 35.4619 49.9322 35.3537 49.8237L31.8538 46.3238C31.6379 46.1044 31.5174 45.8086 31.5186 45.5008C31.5198 45.193 31.6426 44.8982 31.8602 44.6805C32.0779 44.4629 32.3727 44.3401 32.6805 44.3389C32.9883 44.3377 33.2841 44.4582 33.5035 44.6741L37.0034 48.174C37.1665 48.3372 37.2776 48.5451 37.3226 48.7713C37.3675 48.9976 37.3444 49.2321 37.2562 49.4453C37.1679 49.6584 37.0184 49.8406 36.8266 49.9688C36.6348 50.097 36.4092 50.1654 36.1785 50.1655Z" fill="#003c43"/>
<path d="M1.17323 50.1657C0.942523 50.1657 0.717013 50.0972 0.525207 49.969C0.3334 49.8408 0.183907 49.6587 0.0956274 49.4455C0.00734783 49.2324 -0.0157549 48.9978 0.0292395 48.7716C0.0742339 48.5453 0.185305 48.3374 0.348412 48.1743L3.84833 44.6744C3.95629 44.5644 4.08495 44.477 4.2269 44.417C4.36884 44.3571 4.52125 44.3259 4.67533 44.3252C4.8294 44.3245 4.98209 44.3543 5.12457 44.413C5.26706 44.4716 5.39651 44.5579 5.50546 44.6669C5.61441 44.7758 5.70069 44.9053 5.75933 45.0477C5.81797 45.1902 5.84781 45.3429 5.84711 45.497C5.84641 45.6511 5.8152 45.8035 5.75527 45.9454C5.69534 46.0874 5.60789 46.216 5.49795 46.324L1.99804 49.8239C1.88986 49.9324 1.7613 50.0185 1.61975 50.0771C1.4782 50.1358 1.32645 50.1659 1.17323 50.1657Z" fill="#003c43"/>
<path d="M4.67286 9.32877C4.51963 9.32895 4.36789 9.29884 4.22634 9.24017C4.08479 9.18151 3.95623 9.09545 3.84804 8.98695L0.348129 5.48703C0.238421 5.37902 0.151177 5.25037 0.0914294 5.10848C0.0316815 4.96659 0.000610852 4.81428 8.91699e-06 4.66033C-0.000593018 4.50638 0.0292856 4.35383 0.0879223 4.21148C0.146559 4.06913 0.232794 3.93979 0.341654 3.83093C0.450515 3.72207 0.579848 3.63583 0.722197 3.57719C0.864545 3.51855 1.01709 3.48867 1.17105 3.48927C1.325 3.48987 1.47731 3.52093 1.6192 3.58068C1.76109 3.64042 1.88975 3.72766 1.99776 3.83737L5.49767 7.33728C5.66078 7.50044 5.77185 7.70829 5.81684 7.93457C5.86184 8.16084 5.83874 8.39537 5.75046 8.60852C5.66218 8.82166 5.51268 9.00385 5.32088 9.13204C5.12907 9.26024 4.90356 9.32872 4.67286 9.32877Z" fill="#003c43"/>
</svg>
