<svg width="45" height="68" viewBox="0 0 45 68" fill="none" xmlns="http://www.w3.org/2000/svg">
<path d="M44.9437 63.6429L41.7487 42.8013C42.8747 42.7108 43.7657 41.7758 43.7657 40.6268V37.3666C43.7657 34.5945 41.8198 32.2775 39.2232 31.688L40.4286 3.88436C40.5188 1.83881 38.9254 0.100424 36.8728 0.0044677C34.8612 -0.0969854 33.0792 1.54272 32.9863 3.56631L32.9644 4.09277C26.0195 2.50517 18.9925 2.50517 12.0369 4.09277L12.0151 3.56357C11.9194 1.5098 10.203 -0.0750704 8.1231 0.00446068C7.13368 0.0510752 6.2208 0.478826 5.54848 1.20817C4.8734 1.94304 4.52631 2.89447 4.57277 3.88436L5.77811 31.688C3.18439 32.2775 1.23564 34.5945 1.23564 37.3666V40.6268C1.23564 41.7757 2.12662 42.7135 3.25268 42.8013L0.0576568 63.6183C-0.114528 64.5972 0.101387 65.5871 0.672614 66.4014C1.24384 67.2186 2.09934 67.7669 3.07231 67.9369C4.03983 68.1179 5.03198 67.9013 5.85194 67.3255C6.66644 66.7551 7.21303 65.9052 7.39341 64.9207L7.95643 61.7592H37.045L37.6053 64.9207V64.9262C37.9278 66.7086 39.4693 68 41.2677 68C41.5164 68 41.7433 67.9781 41.9182 67.9397C42.9021 67.7669 43.7576 67.2186 44.3288 66.3987C44.8973 65.5815 45.1132 64.5944 44.9437 63.6429ZM36.7714 2.19477C37.6214 2.23316 38.2801 2.9488 38.2446 3.78785L37.042 31.5339H33.9672L35.1726 3.6643C35.2081 2.84169 36.0088 2.1537 36.7714 2.19477ZM12.8157 22.2193H32.1773L32.0625 24.8818H12.9304L12.8157 22.2193ZM32.2732 20.0257H12.7234L12.5075 14.9969C19.1462 13.4778 25.8616 13.4778 32.4946 14.9996L32.2732 20.0257ZM13.218 31.5314L13.0267 27.0729H31.9699L31.7786 31.5314H13.218ZM32.8665 6.31593L32.5877 12.7761C25.8916 11.2981 19.1161 11.2954 12.4089 12.7733L12.1301 6.31592C19.0231 4.68171 25.9872 4.68171 32.8665 6.31593ZM7.1532 2.69371C7.43198 2.38936 7.81189 2.21387 8.21909 2.19467C9.05815 2.1508 9.79065 2.83081 9.82892 3.66161L11.0315 31.534H7.95678L6.75417 3.78234C6.73504 3.37927 6.87715 2.99261 7.1532 2.69371ZM3.41977 37.3666C3.41977 35.3595 5.05415 33.7252 7.06028 33.7252H37.9337C39.9426 33.7252 41.577 35.3595 41.577 37.3666V40.6241C41.577 40.6268 41.5742 40.6268 41.5715 40.6268H3.41997L3.41977 37.3666ZM8.34217 59.5686L8.79313 57.0378H36.2039L36.6521 59.5686H8.34217ZM9.18396 54.8442L10.5478 47.1718C14.0353 47.117 27.7529 47.1554 34.4545 47.1883L35.8129 54.8438L9.18396 54.8442ZM42.5364 65.1432C42.3013 65.4805 41.946 65.708 41.4978 65.7876C41.4349 65.8013 41.3584 65.8068 41.2682 65.8068C40.5275 65.8068 39.8907 65.2721 39.754 64.5345L36.4469 45.9026C36.354 45.3816 35.9057 45.0004 35.3783 44.9977C31.1337 44.9757 9.93575 44.8661 9.30953 45.0553C8.91596 45.1759 8.62352 45.5049 8.54975 45.9135L5.23991 64.5293C5.16611 64.9351 4.93653 65.2888 4.59762 65.5274C4.26144 65.7632 3.86512 65.851 3.45518 65.7769C3.05068 65.7056 2.69539 65.4808 2.4603 65.1435C2.22525 64.809 2.13779 64.4032 2.21159 63.9781L5.45853 42.8206H39.5379L42.7876 64.0055C42.8587 64.4031 42.7687 64.8086 42.5364 65.1432Z" fill="#003C43"/>
</svg>
