<svg width="96" height="60" viewBox="0 0 96 60" fill="none" xmlns="http://www.w3.org/2000/svg">
<path d="M83.3313 8.41182L83.386 8.73434L83.7035 8.81331C90.5156 10.5078 95.4922 16.7803 95.4922 24.0001V36.0001C95.4922 43.2199 90.5156 49.4923 83.6996 51.1869L83.382 51.2658L83.3272 51.5884C82.5661 56.0734 78.6829 59.5002 73.9921 59.5002H21.9961C17.3092 59.5002 13.422 56.0695 12.6609 51.5884L12.6062 51.266L12.289 51.1869C5.47651 49.4885 0.5 43.2159 0.5 36.0001V24.0001C0.5 16.7842 5.47651 10.5116 12.2889 8.81325L12.6062 8.73415L12.661 8.41176C13.4221 3.92678 17.3053 0.5 21.9961 0.5H73.9961C78.683 0.5 82.5702 3.93064 83.3313 8.41182ZM12.5002 12.5661V11.8552L11.8312 12.0955C6.94727 13.8501 3.5002 18.5915 3.5002 24.0001V36.0001C3.5002 41.4084 6.94733 46.1494 11.8305 47.9114L12.5002 48.1531V47.4411V43.1325V42.8052L12.2002 42.6742C8.78072 41.1817 6.5002 37.8044 6.5002 34.0036V26.0036C6.5002 22.1987 8.78086 18.8217 12.1998 17.3331L12.5002 17.2023V16.8747V12.5661ZM12.5002 21.5661V20.4494L11.6672 21.1931C10.3275 22.3892 9.5002 24.1164 9.5002 25.9995V33.9995C9.5002 35.8826 10.3274 37.61 11.6672 38.8061L12.5002 39.5497V38.4331V21.5661ZM80.4962 50.0001V49.5001H80.4922V10.0001C80.4922 6.41536 77.5769 3.5001 73.9922 3.5001H21.9962C18.4115 3.5001 15.4962 6.41536 15.4962 10.0001V50.0001C15.4962 53.5848 18.4115 56.5001 21.9962 56.5001H73.9962C77.5809 56.5001 80.4962 53.5848 80.4962 50.0001ZM84.3253 21.1891L83.4923 20.4455V21.5621V38.4371V39.5564L84.3259 38.8095C85.6648 37.61 86.4923 35.8869 86.4923 33.9996V25.9996C86.4923 24.1128 85.6652 22.3853 84.3253 21.1891ZM83.4923 47.4341V48.145L84.1614 47.9047C89.0452 46.1501 92.4923 41.4086 92.4923 36.0001V23.9931C92.4923 18.5842 89.0452 13.8427 84.1613 12.0885L83.4923 11.8482V12.5591V16.8677V17.195L83.7923 17.326C87.2118 18.8185 89.4923 22.1958 89.4923 25.9966V33.9966C89.4923 37.8015 87.2116 41.1785 83.7927 42.6671L83.4923 42.7979V43.1255V47.4341ZM77.4923 9.99921V10.0001V49.9961C77.4923 51.9231 75.9193 53.4961 73.9923 53.4961H21.9963C20.0693 53.4961 18.4963 51.9231 18.4963 49.9961V10.0001C18.4963 8.07314 20.0693 6.5001 21.9963 6.5001H73.9963C75.9234 6.5001 77.4957 8.0731 77.4923 9.99921ZM21.4963 50L21.4963 50.5001H21.9963H73.4923H73.9923H73.9963V50.0001L74.4923 50.0001L74.4962 10.0041L74.4963 9.5041H73.9962H22.0002H21.5003L21.5002 10.0041L21.4963 50Z" fill="black" stroke="black"/>
</svg>
