<svg width="65" height="75" viewBox="0 0 70 80" fill="none" xmlns="http://www.w3.org/2000/svg">
<path d="M35.8456 16.8943C35.8456 17.3088 35.4879 17.6822 34.9995 17.6822C34.5111 17.6822 34.1533 17.3088 34.1533 16.8943C34.1533 16.4798 34.5111 16.1064 34.9995 16.1064C35.4879 16.1064 35.8456 16.4798 35.8456 16.8943Z" fill="#555555" stroke="#555555"/>
<path d="M47.9609 19.4705C47.9609 19.885 47.6031 20.2584 47.1147 20.2584C46.6263 20.2584 46.2686 19.885 46.2686 19.4705C46.2686 19.056 46.6263 18.6826 47.1147 18.6826C47.6031 18.6826 47.9609 19.056 47.9609 19.4705Z" fill="#555555" stroke="#555555"/>
<path d="M23.7314 19.4705C23.7314 19.885 23.3736 20.2584 22.8852 20.2584C22.3968 20.2584 22.0391 19.885 22.0391 19.4705C22.0391 19.056 22.3968 18.6826 22.8852 18.6826C23.3736 18.6826 23.7314 19.056 23.7314 19.4705Z" fill="#555555" stroke="#555555"/>
<mask id="path-4-inside-1_918_1818" fill="white">
<path d="M70 34.9245C70 32.6009 68.9283 30.4448 67.0893 28.9852C67.2343 28.4016 67.3077 27.8032 67.3077 27.1973C67.3077 24.982 66.3334 22.923 64.6521 21.4711C65.4826 20.1285 65.9615 18.5642 65.9615 16.8943V15.8386L62.3029 15.1384C61.2298 14.9332 60.1493 14.8599 59.0797 14.9121C59.5002 12.3983 59.0539 9.88087 57.7729 7.78567L57.0515 6.60598L55.6379 6.59181C53.5789 6.57088 51.5412 7.19341 49.7713 8.33124C49.6408 6.75762 49.1637 5.25307 48.35 3.92237L47.6288 2.74236L46.2148 2.72819C44.2016 2.70823 42.1957 3.30114 40.4302 4.41643C39.4662 2.78824 38.0044 1.43694 36.1706 0.559741L35 0L33.8295 0.559902C31.9959 1.43694 30.5341 2.78824 29.5701 4.41627C27.8056 3.30081 25.8022 2.70775 23.785 2.72836L22.3716 2.74252L21.6502 3.92237C20.8364 5.25339 20.3592 6.75811 20.2287 8.33188C18.4869 7.21224 16.4855 6.59165 14.4604 6.59165C14.4277 6.59165 14.3946 6.59181 14.3619 6.59213L12.9485 6.6063L12.2271 7.78615C10.9461 9.88087 10.5 12.3985 10.9203 14.9123C9.85065 14.8599 8.77002 14.9332 7.69697 15.1384L4.03846 15.8386V16.8943C4.03846 18.5642 4.51719 20.1285 5.34776 21.4711C3.66659 22.923 2.69231 24.982 2.69231 27.1973C2.69231 27.8032 2.76567 28.4014 2.91072 28.9852C1.07171 30.4448 0 32.6009 0 34.9245C0 36.7377 0.676947 38.4985 1.8831 39.8807C1.53024 40.7618 1.34615 41.7045 1.34615 42.6517C1.34615 45.9809 3.55115 48.8752 6.74373 49.9427C6.73514 50.0882 6.73077 50.2337 6.73077 50.379C6.73077 54.3042 9.80623 57.5534 13.7728 58.0411L4.75562 80H14.3789L21.2563 63.2522C21.35 63.2554 21.4441 63.2577 21.5385 63.2577C22.5516 63.2577 23.5516 63.0756 24.4862 62.7251C25.9961 64.668 28.3766 65.8334 30.9615 65.8334V80H39.0385V65.8334C41.6234 65.8334 44.0041 64.668 45.5138 62.7251C46.4484 63.0756 47.4482 63.2577 48.4615 63.2577C48.5559 63.2577 48.65 63.2554 48.7437 63.2522L55.6211 80H65.2444L56.2273 58.0411C60.1938 57.5534 63.2692 54.3042 63.2692 50.379C63.2692 50.2337 63.2649 50.0881 63.2563 49.9427C66.4488 48.8754 68.6538 45.9809 68.6538 42.6517C68.6538 41.7043 68.4698 40.7618 68.1169 39.8809C69.3231 38.4987 70 36.7378 70 34.9245ZM61.7748 17.6643L63.1816 17.9334C62.6608 20.9918 59.8801 23.3338 56.5385 23.3338H55.0296C55.0415 23.0052 55.0249 22.6739 54.9734 22.3431C56.137 21.1873 56.6944 19.5811 56.4988 17.9785C58.1932 17.4349 59.9971 17.3241 61.7748 17.6643ZM22.4402 47.8509C21.8536 46.2412 20.7155 44.8694 19.2525 43.9396H26.2939L24.4891 48.3348C23.8382 48.0911 23.1506 47.9264 22.4402 47.8509ZM29.1868 43.9396H30.9615V50.379C29.9484 50.379 28.9485 50.561 28.0138 50.9115C27.6626 50.4596 27.2631 50.051 26.826 49.688L29.1868 43.9396ZM33.6538 43.9396H36.3462V50.8197C35.8812 50.977 35.4304 51.1734 35 51.4123C34.5696 51.1734 34.1188 50.977 33.6538 50.8197V43.9396ZM39.0385 43.9396H40.8132L43.1738 49.688C42.7367 50.0509 42.3374 50.4595 41.986 50.9115C41.0513 50.561 40.0514 50.379 39.0383 50.379V43.9396H39.0385ZM45.5109 48.3348L43.7061 43.9396H50.7475C49.2844 44.8694 48.1464 46.2412 47.5598 47.8509C46.8493 47.9264 46.1618 48.0911 45.5109 48.3348ZM52.6153 41.3639H17.3847C17.2229 40.4562 16.8932 39.5831 16.4137 38.7881H53.5863C53.1069 39.5831 52.7771 40.4564 52.6153 41.3639ZM53.9614 36.2124H16.0386C16.1138 35.7875 16.1538 35.3567 16.1538 34.9245C16.1538 34.3186 16.0805 33.7203 15.9354 33.1366C17.4987 31.8957 18.5047 30.151 18.7719 28.2285C20.1206 28.654 21.5953 28.5573 22.8844 27.9323C23.6512 28.304 24.4842 28.4898 25.3169 28.4898C26.4514 28.4898 27.5859 28.145 28.5543 27.4555C29.3095 26.9176 29.8944 26.2183 30.2784 25.4223C31.7803 26.0979 33.5135 26.077 34.9998 25.3566C35.7668 25.7283 36.5996 25.9141 37.4323 25.9141C38.2134 25.9141 38.9932 25.7465 39.72 25.4197C40.1039 26.2167 40.6894 26.9172 41.4454 27.4555C43.1244 28.6511 45.3035 28.8103 47.115 27.9322C47.8818 28.3039 48.7148 28.4896 49.5476 28.4896C50.1146 28.4896 50.6817 28.4035 51.2281 28.2313C51.4961 30.1526 52.5017 31.8962 54.0642 33.1365C53.9192 33.72 53.8458 34.3184 53.8458 34.9243C53.8462 35.3567 53.8864 35.7877 53.9614 36.2124ZM20.231 14.9353C20.6084 13.796 21.6748 13.0307 22.8846 13.0307C23.9748 13.0307 25.2136 13.8544 25.7137 14.8572C25.3023 16.6345 25.8462 18.48 27.142 19.7671C26.9295 21.1285 27.2685 22.5036 28.0631 23.6152C27.9403 24.3281 27.549 24.9606 26.947 25.3894C25.9722 26.0834 24.6629 26.0839 23.6888 25.3897L22.8846 24.817L22.0806 25.3897C21.1069 26.0839 19.7974 26.0836 18.8226 25.3896C17.8271 24.6806 17.4154 23.4293 17.7978 22.2758L18.0881 21.401L17.3186 20.8532C16.3236 20.1449 15.9122 18.8936 16.2947 17.7395C16.6725 16.5997 17.7384 15.8342 18.9475 15.8342H18.948L19.9335 15.8344L20.231 14.9353ZM31.0628 13.2583H31.0632L32.0487 13.2585L32.3466 12.3595C32.724 11.2203 33.7903 10.4549 35.0002 10.4549C36.21 10.4549 37.2762 11.2203 37.6538 12.3595L37.9516 13.2585L38.9372 13.2583H38.9375C40.1467 13.2583 41.2127 14.024 41.5904 15.1634C41.9729 16.3175 41.5615 17.5688 40.5665 18.2771L39.797 18.825L40.0873 19.6998C40.4698 20.8532 40.058 22.1045 39.0625 22.8134C38.0879 23.5075 36.7784 23.5077 35.8045 22.8137L35 22.2412L34.196 22.814C33.2222 23.5082 31.9129 23.508 30.9378 22.8137C29.9425 22.1049 29.5307 20.8535 29.9132 19.7001L30.2035 18.8253L29.434 18.2775C28.439 17.5691 28.0276 16.3178 28.4101 15.1636C28.7877 14.024 29.8537 13.2583 31.0628 13.2583ZM47.1154 13.0307C48.3251 13.0307 49.3914 13.796 49.769 14.9353L50.0668 15.8342L51.0524 15.8341H51.0529C52.2619 15.8341 53.3279 16.5997 53.7057 17.7393C54.0881 18.8934 53.6767 20.1447 52.6817 20.8531L51.9121 21.4009L52.2023 22.2758C52.5848 23.4293 52.1732 24.6806 51.1779 25.3894C50.2031 26.0834 48.8938 26.0839 47.9197 25.3897L47.1154 24.817L46.3114 25.3897C45.3374 26.0839 44.028 26.0836 43.0534 25.3896C42.4511 24.9607 42.0599 24.3282 41.9371 23.6154C42.7316 22.5038 43.0707 21.1288 42.8582 19.7672C44.1542 18.48 44.6979 16.6345 44.2864 14.8574C44.7862 13.8544 46.025 13.0307 47.1154 13.0307ZM56.2351 15.3601C56.0096 15.4211 55.786 15.4897 55.5633 15.5628C54.7319 14.3876 53.447 13.578 51.9841 13.3351C51.5483 12.5144 50.9073 11.8334 50.1372 11.3384C51.662 9.96796 53.5722 9.17818 55.4979 9.16723C56.5637 10.9635 56.8206 13.1827 56.2351 15.3601ZM46.0746 5.30362C46.9653 6.80447 47.2943 8.60878 47.0264 10.457C45.5076 10.4846 43.9738 11.2143 42.8871 12.3188C42.4786 11.9048 42.0045 11.5586 41.4829 11.2927C41.6476 10.5976 41.7308 9.88651 41.7308 9.16707C41.7308 8.38356 41.6328 7.61728 41.4466 6.88013C42.8434 5.86642 44.4572 5.31263 46.0746 5.30362ZM35 2.87984C37.4922 4.08674 39.0385 6.49248 39.0385 9.16707C39.0385 9.30793 39.0326 9.44799 39.0238 9.58772C38.0102 8.52088 36.5679 7.8792 35 7.8792C33.4321 7.8792 31.9898 8.52088 30.9762 9.58772C30.9674 9.44799 30.9615 9.30777 30.9615 9.16707C30.9615 6.49248 32.5078 4.08674 35 2.87984ZM23.9254 5.30362C25.5426 5.31279 27.1568 5.86674 28.5536 6.88013C28.3672 7.61728 28.2692 8.38356 28.2692 9.16707C28.2692 9.88651 28.3525 10.5976 28.5173 11.2929C27.9956 11.5588 27.5216 11.9049 27.1131 12.3188C26.0264 11.2141 24.4926 10.4846 22.9738 10.4569C22.7056 8.60878 23.0345 6.80447 23.9254 5.30362ZM14.5023 9.16723C16.428 9.17834 18.3381 9.96796 19.863 11.3384C19.0928 11.8333 18.4519 12.5144 18.0161 13.3351C16.5533 13.5784 15.2684 14.3878 14.4368 15.5628C14.2142 15.4897 13.9904 15.4213 13.7649 15.3601C13.1794 13.1827 13.4363 10.9633 14.5023 9.16723ZM8.225 17.6643C10.0031 17.324 11.8066 17.4349 13.5013 17.9785C13.3056 19.5811 13.8629 21.1873 15.0266 22.3431C14.975 22.6739 14.9583 23.0054 14.9702 23.3338H13.4615C10.1199 23.3338 7.33906 20.9918 6.81844 17.9334L8.225 17.6643ZM12.5441 77.4243H8.70591L15.5642 60.7228C16.395 61.5945 17.428 62.2802 18.5831 62.7174L12.5441 77.4243ZM36.3462 77.4243H33.6538V65.3926C34.1188 65.2354 34.5696 65.039 35 64.8001C35.4304 65.039 35.8812 65.2354 36.3462 65.3926V77.4243ZM57.4559 77.4243L51.4167 62.7174C52.5719 62.2803 53.6049 61.5945 54.4358 60.7228L61.2941 77.4243H57.4559ZM65.5996 38.6864L64.8456 39.3611L65.3314 40.2328C65.7495 40.9833 65.9617 41.7972 65.9617 42.6519C65.9617 45.1516 64.0973 47.2837 61.5283 47.7214L60.1483 47.9565L60.4497 49.2662C60.5342 49.6336 60.5771 50.0081 60.5771 50.3791C60.5771 53.2197 58.1616 55.5306 55.1932 55.5306L53.9614 55.5079L53.739 56.5596C53.2335 58.9483 51.0142 60.6819 48.4619 60.6819C47.4906 60.6819 46.5381 60.4313 45.7076 59.957L44.48 59.2559L43.8224 60.4706C42.8915 62.1899 41.0585 63.2578 39.0388 63.2578C37.8631 63.2578 36.7461 62.9017 35.8089 62.2282L35 61.647L34.1915 62.228C33.2542 62.9016 32.1372 63.2577 30.9615 63.2577C28.9418 63.2577 27.1088 62.1897 26.178 60.4704L25.5204 59.2558L24.2927 59.9569C23.4621 60.4311 22.5097 60.6818 21.5385 60.6818C18.9862 60.6818 16.7669 58.948 16.2614 56.5595L16.0389 55.5077L14.9174 55.5274L14.8077 55.5304C11.8386 55.5304 9.42308 53.2195 9.42308 50.379C9.42308 50.0079 9.46599 49.6336 9.55046 49.2661L9.85183 47.9563L8.47185 47.7213C5.90288 47.2837 4.03846 45.1516 4.03846 42.6517C4.03846 41.7971 4.25065 40.9831 4.6688 40.2326L5.15459 39.3611L4.40058 38.6862C3.29892 37.7005 2.69231 36.3645 2.69231 34.9245C2.69231 33.1516 3.62906 31.5245 5.19834 30.5721L6.12567 30.0092L5.73562 29.027C5.50257 28.4414 5.38462 27.8258 5.38462 27.1973C5.38462 25.7724 5.98921 24.4438 7.0387 23.4824C8.72308 24.9863 10.9811 25.9094 13.4615 25.9094H15.7601C15.8791 26.1005 16.0098 26.2853 16.1538 26.4619V27.1973C16.1538 28.9702 15.2171 30.5972 13.6478 31.5496L12.7205 32.1126L13.1107 33.0948C13.3434 33.6806 13.4614 34.2962 13.4614 34.9247C13.4614 35.7793 13.2492 36.5933 12.831 37.3438L12.3452 38.2155L13.0993 38.8902C14.2011 39.8759 14.8077 41.2117 14.8077 42.6517C14.8077 43.0228 14.7648 43.3971 14.6803 43.7646L14.3789 45.0744L15.7589 45.3094C17.9124 45.6763 19.6508 47.3001 20.0848 49.3499L20.3074 50.4017L21.4288 50.382L21.5383 50.379C23.558 50.379 25.391 51.4469 26.3219 53.1662L26.9794 54.3809L28.2071 53.6798C29.0377 53.2055 29.9901 52.9549 30.9614 52.9549C32.1371 52.9549 33.254 53.311 34.1913 53.9845L34.9998 54.5655L35.8084 53.9845C36.7456 53.311 37.8626 52.9549 39.0383 52.9549C40.0095 52.9549 40.9621 53.2055 41.7925 53.6798L43.0202 54.3809L43.6778 53.1662C44.6087 51.4469 46.4416 50.379 48.4607 50.379L49.6923 50.4017L49.9149 49.3499C50.3488 47.3001 52.0872 45.6763 54.2407 45.3094L55.6207 45.0744L55.3194 43.7646C55.2349 43.3972 55.192 43.0228 55.192 42.6517C55.192 41.2117 55.7986 39.8757 56.9001 38.89L57.6541 38.2153L57.1683 37.3436C56.7501 36.5931 56.538 35.7792 56.538 34.9245C56.538 34.2962 56.6559 33.6804 56.8886 33.0946L57.2788 32.1124L56.3515 31.5495C54.7829 30.5973 53.8462 28.9702 53.8462 27.1973V26.4617C53.9902 26.2851 54.1208 26.1003 54.2397 25.9094H56.5385C59.0188 25.9094 61.2769 24.9863 62.9613 23.4824C64.0108 24.444 64.6154 25.7724 64.6154 27.1973C64.6154 27.8256 64.4974 28.4414 64.2645 29.0272L63.8745 30.0093L64.8018 30.5723C66.3709 31.5247 67.3079 33.1517 67.3079 34.9247C67.3077 36.3647 66.7011 37.7005 65.5996 38.6864Z"/>
</mask>
<path d="M70 34.9245C70 32.6009 68.9283 30.4448 67.0893 28.9852C67.2343 28.4016 67.3077 27.8032 67.3077 27.1973C67.3077 24.982 66.3334 22.923 64.6521 21.4711C65.4826 20.1285 65.9615 18.5642 65.9615 16.8943V15.8386L62.3029 15.1384C61.2298 14.9332 60.1493 14.8599 59.0797 14.9121C59.5002 12.3983 59.0539 9.88087 57.7729 7.78567L57.0515 6.60598L55.6379 6.59181C53.5789 6.57088 51.5412 7.19341 49.7713 8.33124C49.6408 6.75762 49.1637 5.25307 48.35 3.92237L47.6288 2.74236L46.2148 2.72819C44.2016 2.70823 42.1957 3.30114 40.4302 4.41643C39.4662 2.78824 38.0044 1.43694 36.1706 0.559741L35 0L33.8295 0.559902C31.9959 1.43694 30.5341 2.78824 29.5701 4.41627C27.8056 3.30081 25.8022 2.70775 23.785 2.72836L22.3716 2.74252L21.6502 3.92237C20.8364 5.25339 20.3592 6.75811 20.2287 8.33188C18.4869 7.21224 16.4855 6.59165 14.4604 6.59165C14.4277 6.59165 14.3946 6.59181 14.3619 6.59213L12.9485 6.6063L12.2271 7.78615C10.9461 9.88087 10.5 12.3985 10.9203 14.9123C9.85065 14.8599 8.77002 14.9332 7.69697 15.1384L4.03846 15.8386V16.8943C4.03846 18.5642 4.51719 20.1285 5.34776 21.4711C3.66659 22.923 2.69231 24.982 2.69231 27.1973C2.69231 27.8032 2.76567 28.4014 2.91072 28.9852C1.07171 30.4448 0 32.6009 0 34.9245C0 36.7377 0.676947 38.4985 1.8831 39.8807C1.53024 40.7618 1.34615 41.7045 1.34615 42.6517C1.34615 45.9809 3.55115 48.8752 6.74373 49.9427C6.73514 50.0882 6.73077 50.2337 6.73077 50.379C6.73077 54.3042 9.80623 57.5534 13.7728 58.0411L4.75562 80H14.3789L21.2563 63.2522C21.35 63.2554 21.4441 63.2577 21.5385 63.2577C22.5516 63.2577 23.5516 63.0756 24.4862 62.7251C25.9961 64.668 28.3766 65.8334 30.9615 65.8334V80H39.0385V65.8334C41.6234 65.8334 44.0041 64.668 45.5138 62.7251C46.4484 63.0756 47.4482 63.2577 48.4615 63.2577C48.5559 63.2577 48.65 63.2554 48.7437 63.2522L55.6211 80H65.2444L56.2273 58.0411C60.1938 57.5534 63.2692 54.3042 63.2692 50.379C63.2692 50.2337 63.2649 50.0881 63.2563 49.9427C66.4488 48.8754 68.6538 45.9809 68.6538 42.6517C68.6538 41.7043 68.4698 40.7618 68.1169 39.8809C69.3231 38.4987 70 36.7378 70 34.9245ZM61.7748 17.6643L63.1816 17.9334C62.6608 20.9918 59.8801 23.3338 56.5385 23.3338H55.0296C55.0415 23.0052 55.0249 22.6739 54.9734 22.3431C56.137 21.1873 56.6944 19.5811 56.4988 17.9785C58.1932 17.4349 59.9971 17.3241 61.7748 17.6643ZM22.4402 47.8509C21.8536 46.2412 20.7155 44.8694 19.2525 43.9396H26.2939L24.4891 48.3348C23.8382 48.0911 23.1506 47.9264 22.4402 47.8509ZM29.1868 43.9396H30.9615V50.379C29.9484 50.379 28.9485 50.561 28.0138 50.9115C27.6626 50.4596 27.2631 50.051 26.826 49.688L29.1868 43.9396ZM33.6538 43.9396H36.3462V50.8197C35.8812 50.977 35.4304 51.1734 35 51.4123C34.5696 51.1734 34.1188 50.977 33.6538 50.8197V43.9396ZM39.0385 43.9396H40.8132L43.1738 49.688C42.7367 50.0509 42.3374 50.4595 41.986 50.9115C41.0513 50.561 40.0514 50.379 39.0383 50.379V43.9396H39.0385ZM45.5109 48.3348L43.7061 43.9396H50.7475C49.2844 44.8694 48.1464 46.2412 47.5598 47.8509C46.8493 47.9264 46.1618 48.0911 45.5109 48.3348ZM52.6153 41.3639H17.3847C17.2229 40.4562 16.8932 39.5831 16.4137 38.7881H53.5863C53.1069 39.5831 52.7771 40.4564 52.6153 41.3639ZM53.9614 36.2124H16.0386C16.1138 35.7875 16.1538 35.3567 16.1538 34.9245C16.1538 34.3186 16.0805 33.7203 15.9354 33.1366C17.4987 31.8957 18.5047 30.151 18.7719 28.2285C20.1206 28.654 21.5953 28.5573 22.8844 27.9323C23.6512 28.304 24.4842 28.4898 25.3169 28.4898C26.4514 28.4898 27.5859 28.145 28.5543 27.4555C29.3095 26.9176 29.8944 26.2183 30.2784 25.4223C31.7803 26.0979 33.5135 26.077 34.9998 25.3566C35.7668 25.7283 36.5996 25.9141 37.4323 25.9141C38.2134 25.9141 38.9932 25.7465 39.72 25.4197C40.1039 26.2167 40.6894 26.9172 41.4454 27.4555C43.1244 28.6511 45.3035 28.8103 47.115 27.9322C47.8818 28.3039 48.7148 28.4896 49.5476 28.4896C50.1146 28.4896 50.6817 28.4035 51.2281 28.2313C51.4961 30.1526 52.5017 31.8962 54.0642 33.1365C53.9192 33.72 53.8458 34.3184 53.8458 34.9243C53.8462 35.3567 53.8864 35.7877 53.9614 36.2124ZM20.231 14.9353C20.6084 13.796 21.6748 13.0307 22.8846 13.0307C23.9748 13.0307 25.2136 13.8544 25.7137 14.8572C25.3023 16.6345 25.8462 18.48 27.142 19.7671C26.9295 21.1285 27.2685 22.5036 28.0631 23.6152C27.9403 24.3281 27.549 24.9606 26.947 25.3894C25.9722 26.0834 24.6629 26.0839 23.6888 25.3897L22.8846 24.817L22.0806 25.3897C21.1069 26.0839 19.7974 26.0836 18.8226 25.3896C17.8271 24.6806 17.4154 23.4293 17.7978 22.2758L18.0881 21.401L17.3186 20.8532C16.3236 20.1449 15.9122 18.8936 16.2947 17.7395C16.6725 16.5997 17.7384 15.8342 18.9475 15.8342H18.948L19.9335 15.8344L20.231 14.9353ZM31.0628 13.2583H31.0632L32.0487 13.2585L32.3466 12.3595C32.724 11.2203 33.7903 10.4549 35.0002 10.4549C36.21 10.4549 37.2762 11.2203 37.6538 12.3595L37.9516 13.2585L38.9372 13.2583H38.9375C40.1467 13.2583 41.2127 14.024 41.5904 15.1634C41.9729 16.3175 41.5615 17.5688 40.5665 18.2771L39.797 18.825L40.0873 19.6998C40.4698 20.8532 40.058 22.1045 39.0625 22.8134C38.0879 23.5075 36.7784 23.5077 35.8045 22.8137L35 22.2412L34.196 22.814C33.2222 23.5082 31.9129 23.508 30.9378 22.8137C29.9425 22.1049 29.5307 20.8535 29.9132 19.7001L30.2035 18.8253L29.434 18.2775C28.439 17.5691 28.0276 16.3178 28.4101 15.1636C28.7877 14.024 29.8537 13.2583 31.0628 13.2583ZM47.1154 13.0307C48.3251 13.0307 49.3914 13.796 49.769 14.9353L50.0668 15.8342L51.0524 15.8341H51.0529C52.2619 15.8341 53.3279 16.5997 53.7057 17.7393C54.0881 18.8934 53.6767 20.1447 52.6817 20.8531L51.9121 21.4009L52.2023 22.2758C52.5848 23.4293 52.1732 24.6806 51.1779 25.3894C50.2031 26.0834 48.8938 26.0839 47.9197 25.3897L47.1154 24.817L46.3114 25.3897C45.3374 26.0839 44.028 26.0836 43.0534 25.3896C42.4511 24.9607 42.0599 24.3282 41.9371 23.6154C42.7316 22.5038 43.0707 21.1288 42.8582 19.7672C44.1542 18.48 44.6979 16.6345 44.2864 14.8574C44.7862 13.8544 46.025 13.0307 47.1154 13.0307ZM56.2351 15.3601C56.0096 15.4211 55.786 15.4897 55.5633 15.5628C54.7319 14.3876 53.447 13.578 51.9841 13.3351C51.5483 12.5144 50.9073 11.8334 50.1372 11.3384C51.662 9.96796 53.5722 9.17818 55.4979 9.16723C56.5637 10.9635 56.8206 13.1827 56.2351 15.3601ZM46.0746 5.30362C46.9653 6.80447 47.2943 8.60878 47.0264 10.457C45.5076 10.4846 43.9738 11.2143 42.8871 12.3188C42.4786 11.9048 42.0045 11.5586 41.4829 11.2927C41.6476 10.5976 41.7308 9.88651 41.7308 9.16707C41.7308 8.38356 41.6328 7.61728 41.4466 6.88013C42.8434 5.86642 44.4572 5.31263 46.0746 5.30362ZM35 2.87984C37.4922 4.08674 39.0385 6.49248 39.0385 9.16707C39.0385 9.30793 39.0326 9.44799 39.0238 9.58772C38.0102 8.52088 36.5679 7.8792 35 7.8792C33.4321 7.8792 31.9898 8.52088 30.9762 9.58772C30.9674 9.44799 30.9615 9.30777 30.9615 9.16707C30.9615 6.49248 32.5078 4.08674 35 2.87984ZM23.9254 5.30362C25.5426 5.31279 27.1568 5.86674 28.5536 6.88013C28.3672 7.61728 28.2692 8.38356 28.2692 9.16707C28.2692 9.88651 28.3525 10.5976 28.5173 11.2929C27.9956 11.5588 27.5216 11.9049 27.1131 12.3188C26.0264 11.2141 24.4926 10.4846 22.9738 10.4569C22.7056 8.60878 23.0345 6.80447 23.9254 5.30362ZM14.5023 9.16723C16.428 9.17834 18.3381 9.96796 19.863 11.3384C19.0928 11.8333 18.4519 12.5144 18.0161 13.3351C16.5533 13.5784 15.2684 14.3878 14.4368 15.5628C14.2142 15.4897 13.9904 15.4213 13.7649 15.3601C13.1794 13.1827 13.4363 10.9633 14.5023 9.16723ZM8.225 17.6643C10.0031 17.324 11.8066 17.4349 13.5013 17.9785C13.3056 19.5811 13.8629 21.1873 15.0266 22.3431C14.975 22.6739 14.9583 23.0054 14.9702 23.3338H13.4615C10.1199 23.3338 7.33906 20.9918 6.81844 17.9334L8.225 17.6643ZM12.5441 77.4243H8.70591L15.5642 60.7228C16.395 61.5945 17.428 62.2802 18.5831 62.7174L12.5441 77.4243ZM36.3462 77.4243H33.6538V65.3926C34.1188 65.2354 34.5696 65.039 35 64.8001C35.4304 65.039 35.8812 65.2354 36.3462 65.3926V77.4243ZM57.4559 77.4243L51.4167 62.7174C52.5719 62.2803 53.6049 61.5945 54.4358 60.7228L61.2941 77.4243H57.4559ZM65.5996 38.6864L64.8456 39.3611L65.3314 40.2328C65.7495 40.9833 65.9617 41.7972 65.9617 42.6519C65.9617 45.1516 64.0973 47.2837 61.5283 47.7214L60.1483 47.9565L60.4497 49.2662C60.5342 49.6336 60.5771 50.0081 60.5771 50.3791C60.5771 53.2197 58.1616 55.5306 55.1932 55.5306L53.9614 55.5079L53.739 56.5596C53.2335 58.9483 51.0142 60.6819 48.4619 60.6819C47.4906 60.6819 46.5381 60.4313 45.7076 59.957L44.48 59.2559L43.8224 60.4706C42.8915 62.1899 41.0585 63.2578 39.0388 63.2578C37.8631 63.2578 36.7461 62.9017 35.8089 62.2282L35 61.647L34.1915 62.228C33.2542 62.9016 32.1372 63.2577 30.9615 63.2577C28.9418 63.2577 27.1088 62.1897 26.178 60.4704L25.5204 59.2558L24.2927 59.9569C23.4621 60.4311 22.5097 60.6818 21.5385 60.6818C18.9862 60.6818 16.7669 58.948 16.2614 56.5595L16.0389 55.5077L14.9174 55.5274L14.8077 55.5304C11.8386 55.5304 9.42308 53.2195 9.42308 50.379C9.42308 50.0079 9.46599 49.6336 9.55046 49.2661L9.85183 47.9563L8.47185 47.7213C5.90288 47.2837 4.03846 45.1516 4.03846 42.6517C4.03846 41.7971 4.25065 40.9831 4.6688 40.2326L5.15459 39.3611L4.40058 38.6862C3.29892 37.7005 2.69231 36.3645 2.69231 34.9245C2.69231 33.1516 3.62906 31.5245 5.19834 30.5721L6.12567 30.0092L5.73562 29.027C5.50257 28.4414 5.38462 27.8258 5.38462 27.1973C5.38462 25.7724 5.98921 24.4438 7.0387 23.4824C8.72308 24.9863 10.9811 25.9094 13.4615 25.9094H15.7601C15.8791 26.1005 16.0098 26.2853 16.1538 26.4619V27.1973C16.1538 28.9702 15.2171 30.5972 13.6478 31.5496L12.7205 32.1126L13.1107 33.0948C13.3434 33.6806 13.4614 34.2962 13.4614 34.9247C13.4614 35.7793 13.2492 36.5933 12.831 37.3438L12.3452 38.2155L13.0993 38.8902C14.2011 39.8759 14.8077 41.2117 14.8077 42.6517C14.8077 43.0228 14.7648 43.3971 14.6803 43.7646L14.3789 45.0744L15.7589 45.3094C17.9124 45.6763 19.6508 47.3001 20.0848 49.3499L20.3074 50.4017L21.4288 50.382L21.5383 50.379C23.558 50.379 25.391 51.4469 26.3219 53.1662L26.9794 54.3809L28.2071 53.6798C29.0377 53.2055 29.9901 52.9549 30.9614 52.9549C32.1371 52.9549 33.254 53.311 34.1913 53.9845L34.9998 54.5655L35.8084 53.9845C36.7456 53.311 37.8626 52.9549 39.0383 52.9549C40.0095 52.9549 40.9621 53.2055 41.7925 53.6798L43.0202 54.3809L43.6778 53.1662C44.6087 51.4469 46.4416 50.379 48.4607 50.379L49.6923 50.4017L49.9149 49.3499C50.3488 47.3001 52.0872 45.6763 54.2407 45.3094L55.6207 45.0744L55.3194 43.7646C55.2349 43.3972 55.192 43.0228 55.192 42.6517C55.192 41.2117 55.7986 39.8757 56.9001 38.89L57.6541 38.2153L57.1683 37.3436C56.7501 36.5931 56.538 35.7792 56.538 34.9245C56.538 34.2962 56.6559 33.6804 56.8886 33.0946L57.2788 32.1124L56.3515 31.5495C54.7829 30.5973 53.8462 28.9702 53.8462 27.1973V26.4617C53.9902 26.2851 54.1208 26.1003 54.2397 25.9094H56.5385C59.0188 25.9094 61.2769 24.9863 62.9613 23.4824C64.0108 24.444 64.6154 25.7724 64.6154 27.1973C64.6154 27.8256 64.4974 28.4414 64.2645 29.0272L63.8745 30.0093L64.8018 30.5723C66.3709 31.5247 67.3079 33.1517 67.3079 34.9247C67.3077 36.3647 66.7011 37.7005 65.5996 38.6864Z" fill="#555555" stroke="#555555" stroke-width="2" mask="url(#path-4-inside-1_918_1818)"/>
<path d="M7.57707 34.9246C7.57707 35.3391 7.21932 35.7125 6.73092 35.7125C6.24251 35.7125 5.88477 35.3391 5.88477 34.9246C5.88477 34.5101 6.24251 34.1367 6.73092 34.1367C7.21932 34.1367 7.57707 34.5101 7.57707 34.9246Z" fill="#555555" stroke="#555555"/>
<path d="M11.6161 42.6521C11.6161 43.0666 11.2584 43.44 10.77 43.44C10.2816 43.44 9.92383 43.0666 9.92383 42.6521C9.92383 42.2376 10.2816 41.8643 10.77 41.8643C11.2584 41.8643 11.6161 42.2376 11.6161 42.6521Z" fill="#555555" stroke="#555555"/>
<path d="M14.3075 51.6668C14.3075 52.0813 13.9498 52.4546 13.4614 52.4546C12.973 52.4546 12.6152 52.0813 12.6152 51.6668C12.6152 51.2523 12.973 50.8789 13.4614 50.8789C13.9498 50.8789 14.3075 51.2523 14.3075 51.6668Z" fill="#555555" stroke="#555555"/>
<path d="M22.3847 54.2429C22.3847 54.6575 22.0269 55.0308 21.5385 55.0308C21.0501 55.0308 20.6924 54.6575 20.6924 54.2429C20.6924 53.8284 21.0501 53.4551 21.5385 53.4551C22.0269 53.4551 22.3847 53.8284 22.3847 54.2429Z" fill="#555555" stroke="#555555"/>
<path d="M31.8075 59.3943C31.8075 59.8088 31.4498 60.1822 30.9614 60.1822C30.473 60.1822 30.1152 59.8088 30.1152 59.3943C30.1152 58.9798 30.473 58.6064 30.9614 58.6064C31.4498 58.6064 31.8075 58.9798 31.8075 59.3943Z" fill="#555555" stroke="#555555"/>
<path d="M39.8847 56.8181C39.8847 57.2326 39.5269 57.606 39.0385 57.606C38.5501 57.606 38.1924 57.2326 38.1924 56.8181C38.1924 56.4036 38.5501 56.0303 39.0385 56.0303C39.5269 56.0303 39.8847 56.4036 39.8847 56.8181Z" fill="#555555" stroke="#555555"/>
<path d="M50.6532 56.8181C50.6532 57.2326 50.2955 57.606 49.8071 57.606C49.3187 57.606 48.9609 57.2326 48.9609 56.8181C48.9609 56.4036 49.3187 56.0303 49.8071 56.0303C50.2955 56.0303 50.6532 56.4036 50.6532 56.8181Z" fill="#555555" stroke="#555555"/>
<path d="M54.6923 49.0906C54.6923 49.5051 54.3346 49.8785 53.8462 49.8785C53.3577 49.8785 53 49.5051 53 49.0906C53 48.6761 53.3577 48.3027 53.8462 48.3027C54.3346 48.3027 54.6923 48.6761 54.6923 49.0906Z" fill="#555555" stroke="#555555"/>
<path d="M62.7685 43.9392C62.7685 44.3537 62.4107 44.7271 61.9223 44.7271C61.4339 44.7271 61.0762 44.3537 61.0762 43.9392C61.0762 43.5247 61.4339 43.1514 61.9223 43.1514C62.4107 43.1514 62.7685 43.5247 62.7685 43.9392Z" fill="#555555" stroke="#555555"/>
<path d="M61.4238 34.9246C61.4238 35.3391 61.066 35.7125 60.5776 35.7125C60.0892 35.7125 59.7314 35.3391 59.7314 34.9246C59.7314 34.5101 60.0892 34.1367 60.5776 34.1367C61.066 34.1367 61.4238 34.5101 61.4238 34.9246Z" fill="#555555" stroke="#555555"/>
</svg>
