<svg width="60" height="82" viewBox="0 0 80 101" fill="none" xmlns="http://www.w3.org/2000/svg">
<path d="M0.526253 86.5812C0.977437 90.8378 5.77718 93.9344 10.9658 96.6806C15.8569 98.9249 21.0647 100.317 26.4456 100.819C26.4936 100.824 26.5368 100.828 26.5848 100.828C26.6472 100.828 26.7096 100.824 26.772 100.819L76.8815 94.4174C77.3855 94.3511 77.7695 94.0339 77.9855 93.6172C80.8509 90.0566 80.1502 76.4766 78.9934 65.3166C76.9776 45.8705 72.893 29.616 66.5094 15.6245L65.5062 1.35418C65.4534 0.591867 64.791 0.0332121 64.0279 0C55.1243 0.0473491 46.1054 0.435612 37.2301 1.1553C28.4849 1.86553 19.648 2.9119 10.9706 4.27081C10.1978 4.38918 9.65543 5.08521 9.73702 5.857C10.0106 8.47057 10.5674 16.7377 10.721 20.3128C10.649 20.5211 10.6106 20.7389 10.6394 20.9614C8.19147 27.5476 -2.46882 58.4224 0.526253 86.5812ZM12.2857 94.0812C9.31942 92.5092 5.99799 90.5489 4.40443 88.423L14.2584 83.4561L23.594 97.5191C19.6582 96.8752 15.8567 95.7146 12.2857 94.0812ZM25.5046 95.0897L16.217 81.103L13.9995 28.3661C17.3498 36.4485 22.4232 51.4157 24.6503 71.9697C25.855 83.0824 25.759 90.7951 25.5046 95.0897ZM75.8636 91.6096L28.2742 97.6891C28.6246 94.1001 29.0854 85.4964 27.583 71.6612C24.5495 43.6636 16.4956 26.14 14.0717 21.3776C23.0282 19.583 31.9844 18.5035 41.4114 18.1247C44.2144 18.0111 46.8879 17.8359 49.4702 17.6607C54.6396 17.3151 59.545 16.9884 64.0665 17.3293C70.1767 30.9135 74.1077 46.7135 76.0612 65.6008C77.5588 80.0614 77.1356 89.9708 75.8636 91.6096ZM37.4652 4.05805C45.8073 3.38097 54.2745 3.00218 62.6546 2.92168L63.4657 14.4179C58.9732 14.1528 54.2501 14.4369 49.2676 14.7683C46.7045 14.9388 44.055 15.114 41.2903 15.2276C31.7387 15.6111 22.6576 16.7049 13.5759 18.5183C13.3887 15.0761 13.0383 9.86771 12.7887 6.9368C20.9531 5.68686 29.2486 4.72096 37.4652 4.05805ZM11.0668 28.7974L13.2507 80.6956L3.40632 85.6578C1.2608 63.996 7.28449 40.7247 11.0668 28.7974Z" fill="black"/>
<path d="M58.7135 31.117L33.5143 33.6881C33.1111 33.7307 32.7463 33.9296 32.5015 34.2468C32.2567 34.564 32.1511 34.9617 32.2087 35.3547L36.0486 60.3596C36.159 61.0793 36.783 61.5953 37.5029 61.5953C37.5509 61.5953 37.6037 61.5906 37.6517 61.5859L62.7784 59.0717C63.1816 59.0338 63.5463 58.8302 63.7959 58.5177C64.0455 58.2052 64.1511 57.8028 64.0887 57.4098L60.3209 32.348C60.2057 31.5809 59.4814 31.0507 58.7135 31.117ZM38.7512 58.551L35.353 36.4249L57.6142 34.1569L60.95 56.3351L38.7512 58.551Z" fill="black"/>
<path d="M40.5025 71.704L62.5868 69.4691C63.3979 69.3886 63.9883 68.6736 63.9067 67.8734C63.8251 67.0732 63.0811 66.5003 62.2892 66.5714L40.2049 68.8063C39.3937 68.8868 38.8034 69.6017 38.8897 70.4019C38.9665 71.15 39.6097 71.7087 40.3537 71.7087C40.4017 71.7134 40.4497 71.7087 40.5025 71.704Z" fill="black"/>
<path d="M62.9425 76.4152L40.8582 78.6501C40.047 78.7306 39.4567 79.4455 39.5431 80.2457C39.6199 80.9938 40.263 81.5525 41.007 81.5525C41.055 81.5525 41.1078 81.5478 41.1606 81.543L63.2449 79.3081C64.056 79.2277 64.6464 78.5127 64.5648 77.7125C64.4736 76.9123 63.7392 76.3442 62.9425 76.4152Z" fill="black"/>
</svg>
