<svg width="50" height="50" viewBox="0 0 60 60" fill="none" xmlns="http://www.w3.org/2000/svg">
<path d="M30.4586 21.7345L30.9693 22.2918L54.3648 47.819L54.37 47.8246L54.3699 47.8246L54.3845 47.8403L54.3854 47.8413C54.3922 47.8486 54.4032 47.8602 54.4149 47.8733L56.1405 49.7547L56.141 49.7552C56.6134 50.2717 56.6201 51.0643 56.1563 51.588L56.1561 51.5883L52.3005 55.9358L52.3005 55.9358C52.0081 56.2655 51.5935 56.4659 51.1521 56.4892M30.4586 21.7345L51.1505 56.4893C51.151 56.4893 51.1515 56.4892 51.1521 56.4892M30.4586 21.7345L30.1456 22.4226M30.4586 21.7345L30.1456 22.4226M51.1521 56.4892C50.709 56.5147 50.276 56.3591 49.9496 56.0614M51.1521 56.4892L49.9496 56.0614M30.1456 22.4226C28.6015 25.8169 25.8712 28.5588 22.4846 30.1164L21.7985 30.432M30.1456 22.4226L21.7985 30.432M21.7985 30.432L22.357 30.9404M21.7985 30.432L22.357 30.9404M22.357 30.9404L49.9496 56.0614M22.357 30.9404L49.9496 56.0614M31.0919 28.9393L31.0917 28.9392C30.5109 28.3539 29.5595 28.3498 28.971 28.932C28.3848 29.5159 28.3809 30.4669 28.9637 31.0543C28.9638 31.0543 28.9638 31.0544 28.9638 31.0544L32.931 35.0496L32.9313 35.0499M31.0919 28.9393L35.4062 35.4122C34.6223 36.1901 33.3544 36.1841 32.5765 35.4022L32.9313 35.0499M31.0919 28.9393L35.0613 32.9367L35.4162 32.5845L35.0614 32.9368C35.6427 33.5228 35.64 34.4743 35.0536 35.0578M31.0919 28.9393L35.0536 35.0578M32.9313 35.0499C33.515 35.6362 34.466 35.6403 35.0536 35.0578M32.9313 35.0499L35.0536 35.0578M18.5287 31.5108L18.3557 31.3533L18.1239 31.3852C17.4348 31.4801 16.7296 31.5286 16.0143 31.5286C7.45137 31.5286 0.5 24.5772 0.5 16.0143C0.5 7.45137 7.45137 0.5 16.0143 0.5C24.5772 0.5 31.5286 7.45137 31.5286 16.0143C31.5286 16.7046 31.484 17.3845 31.395 18.052L31.3641 18.2836L31.522 18.4559L54.2776 43.2812L54.9412 44.0053L55.1362 43.0426C55.8965 39.2885 55.8668 32.7501 49.0438 27.1564L49.0437 27.1563C42.7849 22.028 41.4394 17.4007 41.7497 13.8703L41.7497 13.8701C41.9928 11.0934 43.3271 8.82158 44.6232 7.23C45.2695 6.43639 45.9005 5.81919 46.3689 5.40136C46.6028 5.19264 46.7955 5.03422 46.9284 4.92896C46.9948 4.87634 47.0462 4.83705 47.0803 4.81144C47.0973 4.79864 47.11 4.78926 47.1181 4.78335L47.1267 4.77709L47.1268 4.777C47.1271 4.77674 47.1275 4.77647 47.1279 4.7762C47.8026 4.29734 48.7391 4.45677 49.2168 5.13062L49.2172 5.13122C49.697 5.80599 49.5378 6.74332 48.8636 7.22128L48.8606 7.22342L48.8506 7.23056L48.8159 7.25585C48.7864 7.27757 48.7446 7.30898 48.692 7.34986C48.5869 7.4316 48.4387 7.55135 48.2608 7.70728C47.9055 8.01875 47.4293 8.4768 46.9413 9.06688C45.9691 10.2426 44.926 11.9723 44.737 14.1309L44.737 14.1311C44.4689 17.2105 46.0353 20.8114 50.9455 24.838L50.9455 24.838C55.9427 28.9346 57.841 33.4226 58.3507 37.3033C58.8624 41.1995 57.9776 44.5164 57.3553 46.2457L57.2531 46.53L57.4571 46.7527L58.351 47.7286L58.3513 47.7289C59.8639 49.3779 59.8854 51.9043 58.3997 53.5784L58.3996 53.5785L54.544 57.926L54.5438 57.9262C53.7187 58.8578 52.5543 59.4193 51.3124 59.4842L51.3116 59.4843C50.0692 59.5511 48.8503 59.1177 47.9295 58.28C47.9295 58.28 47.9294 58.2799 47.9294 58.2799L18.5287 31.5108ZM26.4748 9.14599L25.5595 7.75611L25.5572 9.42031C25.5456 17.9715 18.5981 24.9113 10.0429 24.9113C9.5162 24.9113 8.9951 24.8841 8.47958 24.8318L6.82151 24.6635L8.1131 25.7168C10.2687 27.4746 13.0191 28.529 16.0143 28.529C22.9217 28.529 28.529 22.9217 28.529 16.0143C28.529 13.4798 27.7727 11.1169 26.4748 9.14599ZM21.7847 5.05801L21.7155 4.87099L21.5366 4.78288C19.8699 3.96201 17.9947 3.49957 16.0143 3.49957C9.10684 3.49957 3.49957 9.10684 3.49957 16.0143C3.49957 17.5382 3.77235 19.0009 4.27467 20.3557L4.35031 20.5597L4.55049 20.6431C4.55087 20.6433 4.55379 20.6446 4.56292 20.649L4.56479 20.6499C4.573 20.6538 4.58785 20.6609 4.60535 20.6686C6.24937 21.4658 8.0961 21.9117 10.0429 21.9117C16.9504 21.9117 22.5576 16.3024 22.5576 9.397C22.5576 7.8711 22.2848 6.41056 21.7847 5.05801Z" fill="#003c43" stroke="#003c43"/>
</svg>
