<svg width="75" height="67" viewBox="0 0 75 67" fill="none" xmlns="http://www.w3.org/2000/svg">
<mask id="path-1-inside-1_918_2013" fill="white">
<path d="M6.77966 58.6733H12.7538V53.3439C12.7538 51.7448 13.4109 50.2927 14.4625 49.2349C15.5234 48.174 16.9786 47.52 18.5777 47.52C20.1768 47.52 21.632 48.1771 22.6867 49.2286C23.7476 50.2896 24.4017 51.7448 24.4017 53.3439V58.6733H27.4529V45.2102C27.4529 43.6111 28.11 42.159 29.1616 41.1012C30.2225 40.0403 31.6777 39.3862 33.2768 39.3862C34.876 39.3862 36.3312 40.0434 37.3858 41.0949L37.4984 41.2107L37.6048 41.1012C38.6658 40.0403 40.121 39.3862 41.7201 39.3862C43.3192 39.3862 44.7744 40.0434 45.8291 41.0949C46.89 42.1558 47.5441 43.611 47.5441 45.2102V58.6733H50.5953V53.3439C50.5953 51.7448 51.2524 50.2927 52.304 49.2349C53.3649 48.174 54.8201 47.5199 56.4192 47.5199C58.0183 47.5199 59.4735 48.1771 60.5282 49.2286C61.5891 50.2895 62.2432 51.7448 62.2432 53.3439V58.6733H68.2173V34.5704C68.2173 34.27 68.0952 33.9946 67.9012 33.7974C67.7072 33.6034 67.4286 33.4813 67.1282 33.4813H7.86526C7.56484 33.4813 7.28944 33.6034 7.0923 33.7974C6.89827 33.9946 6.77622 34.27 6.77622 34.5704V58.6733L6.77966 58.6733ZM24.6237 19.1044H50.2602C49.3526 15.2645 46.5267 13.0552 43.6382 10.8019C41.4225 9.07761 39.1787 7.32512 37.4982 4.90294C35.8052 7.3314 33.5395 9.08703 31.2988 10.8176C28.3947 13.0646 25.5469 15.2677 24.6206 19.1014L24.6237 19.1044ZM50.5539 22.309H24.3199C24.3544 23.3761 24.5077 24.5434 24.8019 25.8359H50.0658C50.3631 24.5466 50.5196 23.3761 50.5571 22.309H50.5539ZM57.1946 41.0229C56.309 41.0229 55.5923 40.3063 55.5923 39.4206C55.5923 38.535 56.309 37.8184 57.1946 37.8184H63.6851C64.5708 37.8184 65.2874 38.535 65.2874 39.4206C65.2874 40.3063 64.5708 41.0229 63.6851 41.0229H57.1946ZM11.3167 41.0229C10.4311 41.0229 9.71443 40.3063 9.71443 39.4206C9.71443 38.535 10.4311 37.8184 11.3167 37.8184H17.8072C18.6929 37.8184 19.4095 38.535 19.4095 39.4206C19.4095 40.3063 18.6929 41.0229 17.8072 41.0229H11.3167ZM15.9608 58.6693H21.2026V53.3399C21.2026 52.6201 20.9085 51.9598 20.4359 51.4873C19.9634 51.0147 19.3031 50.7206 18.5833 50.7206C17.8636 50.7206 17.2032 51.0147 16.7307 51.4873C16.2581 51.9598 15.964 52.6201 15.964 53.3399V58.6693H15.9608ZM53.8019 58.6693H59.0438V53.3399C59.0438 52.6201 58.7496 51.9598 58.2771 51.4873C57.8046 51.0147 57.1442 50.7206 56.4245 50.7206C55.7047 50.7206 55.0444 51.0147 54.5718 51.4873C54.0993 51.9598 53.8051 52.6201 53.8051 53.3399V58.6693H53.8019ZM39.1057 45.2062V58.6693H44.3476V45.2062C44.3476 44.4864 44.0534 43.8261 43.5809 43.3536C43.1083 42.881 42.448 42.5869 41.7282 42.5869C41.0085 42.5869 40.3481 42.881 39.8756 43.3536C39.403 43.8261 39.1089 44.4864 39.1089 45.2062H39.1057ZM30.659 58.6693H35.9009V45.2062C35.9009 44.4864 35.6067 43.8261 35.1342 43.3536C34.6616 42.881 34.0013 42.5869 33.2815 42.5869C32.5618 42.5869 31.9015 42.881 31.4289 43.3536C30.9564 43.8261 30.6622 44.4864 30.6622 45.2062V58.6693H30.659ZM49.7048 30.273V29.0306H25.1665V30.273H49.7048ZM21.962 30.273V27.6255C18.9014 16.3748 24.0462 12.3911 29.3505 8.28863C32.0043 6.23571 34.7018 4.14834 36.0256 0.990915C36.3636 0.177224 37.2993 -0.210794 38.116 0.127153C38.5229 0.29614 38.8233 0.612216 38.9798 0.990915C40.3035 4.14854 42.9792 6.23898 45.6048 8.28596C50.8717 12.3918 55.9702 16.3728 52.9092 27.6261V30.2736H57.0495V15.9319C56.4299 15.7097 55.9854 15.1182 55.9854 14.4235V10.1706C54.8901 5.94897 56.7991 4.45618 58.7707 2.92293C59.5092 2.34711 60.2634 1.75874 60.5826 0.99205C60.9206 0.178359 61.8563 -0.20966 62.6731 0.128288C63.0799 0.297275 63.3804 0.613351 63.5368 0.99205C63.856 1.75567 64.6102 2.34397 65.352 2.92293C67.3235 4.45951 69.2325 5.95224 68.1372 10.1706V14.4235C68.1372 15.1182 67.6928 15.7128 67.0731 15.9319V30.2736H67.1295C68.3061 30.2736 69.3795 30.7556 70.1556 31.5317C70.938 32.3141 71.423 33.3875 71.423 34.5673V58.733C72.3149 58.8863 73.1161 59.3182 73.7326 59.9284C74.515 60.7045 75 61.7779 75 62.9608V64.8103C75 65.696 74.2834 66.4126 73.3977 66.4126H1.60228C0.716619 66.4126 0 65.696 0 64.8103V62.9608C0 61.7779 0.481939 60.7045 1.25806 59.9284C1.87456 59.3119 2.67881 58.8832 3.57388 58.7298V34.5641C3.57388 33.3875 4.05582 32.3109 4.83194 31.5348C5.61432 30.7524 6.68771 30.2674 7.86439 30.2674H7.92072V15.9257C7.30109 15.7035 6.85667 15.112 6.85667 14.4173V10.1644C5.76138 5.94276 7.67036 4.44997 9.6419 2.91672C10.3804 2.3409 11.1378 1.75253 11.457 0.985841C11.795 0.17215 12.7307 -0.215868 13.5475 0.122079C13.9543 0.291066 14.2547 0.607142 14.4112 0.985841C14.7304 1.74946 15.4846 2.33776 16.2232 2.91672C18.1947 4.45331 20.1037 5.94603 19.0084 10.1644V14.4173C19.0084 15.112 18.5672 15.7035 17.9475 15.9257V30.2674H21.9563L21.962 30.273ZM65.1921 8.37315C65.2359 6.87415 64.3253 6.1606 63.3896 5.43457C62.9389 5.08407 62.4851 4.73043 62.0627 4.32045C61.6402 4.72728 61.1864 5.08093 60.7358 5.43457C59.8001 6.16374 58.8894 6.87408 58.9332 8.37315H65.1921ZM64.9355 12.8201V11.5777H59.1899V12.8201H64.9355ZM63.8715 16.0246H60.2507V30.2762H63.8715V16.0246ZM16.0661 8.37308C16.11 6.87408 15.1993 6.16053 14.2636 5.4345C13.8129 5.084 13.3592 4.73037 12.9367 4.32038C12.5142 4.72721 12.0604 5.08086 11.6098 5.4345C10.6741 6.16367 9.76345 6.87401 9.80724 8.37308H16.0661ZM15.8095 12.82V11.5776H10.0639V12.82H15.8095ZM14.7486 16.0246H11.1279V30.2762H14.7486V16.0246ZM70.7095 61.8738H4.29642C3.99912 61.8738 3.72373 61.9989 3.52659 62.193C3.32944 62.3901 3.20739 62.6655 3.20739 62.9628V63.2132H71.7983V62.9628C71.7983 62.6655 71.6731 62.3901 71.4791 62.193C71.2882 61.9958 71.0131 61.8738 70.7095 61.8738Z"/>
</mask>
<path d="M6.77966 58.6733H12.7538V53.3439C12.7538 51.7448 13.4109 50.2927 14.4625 49.2349C15.5234 48.174 16.9786 47.52 18.5777 47.52C20.1768 47.52 21.632 48.1771 22.6867 49.2286C23.7476 50.2896 24.4017 51.7448 24.4017 53.3439V58.6733H27.4529V45.2102C27.4529 43.6111 28.11 42.159 29.1616 41.1012C30.2225 40.0403 31.6777 39.3862 33.2768 39.3862C34.876 39.3862 36.3312 40.0434 37.3858 41.0949L37.4984 41.2107L37.6048 41.1012C38.6658 40.0403 40.121 39.3862 41.7201 39.3862C43.3192 39.3862 44.7744 40.0434 45.8291 41.0949C46.89 42.1558 47.5441 43.611 47.5441 45.2102V58.6733H50.5953V53.3439C50.5953 51.7448 51.2524 50.2927 52.304 49.2349C53.3649 48.174 54.8201 47.5199 56.4192 47.5199C58.0183 47.5199 59.4735 48.1771 60.5282 49.2286C61.5891 50.2895 62.2432 51.7448 62.2432 53.3439V58.6733H68.2173V34.5704C68.2173 34.27 68.0952 33.9946 67.9012 33.7974C67.7072 33.6034 67.4286 33.4813 67.1282 33.4813H7.86526C7.56484 33.4813 7.28944 33.6034 7.0923 33.7974C6.89827 33.9946 6.77622 34.27 6.77622 34.5704V58.6733L6.77966 58.6733ZM24.6237 19.1044H50.2602C49.3526 15.2645 46.5267 13.0552 43.6382 10.8019C41.4225 9.07761 39.1787 7.32512 37.4982 4.90294C35.8052 7.3314 33.5395 9.08703 31.2988 10.8176C28.3947 13.0646 25.5469 15.2677 24.6206 19.1014L24.6237 19.1044ZM50.5539 22.309H24.3199C24.3544 23.3761 24.5077 24.5434 24.8019 25.8359H50.0658C50.3631 24.5466 50.5196 23.3761 50.5571 22.309H50.5539ZM57.1946 41.0229C56.309 41.0229 55.5923 40.3063 55.5923 39.4206C55.5923 38.535 56.309 37.8184 57.1946 37.8184H63.6851C64.5708 37.8184 65.2874 38.535 65.2874 39.4206C65.2874 40.3063 64.5708 41.0229 63.6851 41.0229H57.1946ZM11.3167 41.0229C10.4311 41.0229 9.71443 40.3063 9.71443 39.4206C9.71443 38.535 10.4311 37.8184 11.3167 37.8184H17.8072C18.6929 37.8184 19.4095 38.535 19.4095 39.4206C19.4095 40.3063 18.6929 41.0229 17.8072 41.0229H11.3167ZM15.9608 58.6693H21.2026V53.3399C21.2026 52.6201 20.9085 51.9598 20.4359 51.4873C19.9634 51.0147 19.3031 50.7206 18.5833 50.7206C17.8636 50.7206 17.2032 51.0147 16.7307 51.4873C16.2581 51.9598 15.964 52.6201 15.964 53.3399V58.6693H15.9608ZM53.8019 58.6693H59.0438V53.3399C59.0438 52.6201 58.7496 51.9598 58.2771 51.4873C57.8046 51.0147 57.1442 50.7206 56.4245 50.7206C55.7047 50.7206 55.0444 51.0147 54.5718 51.4873C54.0993 51.9598 53.8051 52.6201 53.8051 53.3399V58.6693H53.8019ZM39.1057 45.2062V58.6693H44.3476V45.2062C44.3476 44.4864 44.0534 43.8261 43.5809 43.3536C43.1083 42.881 42.448 42.5869 41.7282 42.5869C41.0085 42.5869 40.3481 42.881 39.8756 43.3536C39.403 43.8261 39.1089 44.4864 39.1089 45.2062H39.1057ZM30.659 58.6693H35.9009V45.2062C35.9009 44.4864 35.6067 43.8261 35.1342 43.3536C34.6616 42.881 34.0013 42.5869 33.2815 42.5869C32.5618 42.5869 31.9015 42.881 31.4289 43.3536C30.9564 43.8261 30.6622 44.4864 30.6622 45.2062V58.6693H30.659ZM49.7048 30.273V29.0306H25.1665V30.273H49.7048ZM21.962 30.273V27.6255C18.9014 16.3748 24.0462 12.3911 29.3505 8.28863C32.0043 6.23571 34.7018 4.14834 36.0256 0.990915C36.3636 0.177224 37.2993 -0.210794 38.116 0.127153C38.5229 0.29614 38.8233 0.612216 38.9798 0.990915C40.3035 4.14854 42.9792 6.23898 45.6048 8.28596C50.8717 12.3918 55.9702 16.3728 52.9092 27.6261V30.2736H57.0495V15.9319C56.4299 15.7097 55.9854 15.1182 55.9854 14.4235V10.1706C54.8901 5.94897 56.7991 4.45618 58.7707 2.92293C59.5092 2.34711 60.2634 1.75874 60.5826 0.99205C60.9206 0.178359 61.8563 -0.20966 62.6731 0.128288C63.0799 0.297275 63.3804 0.613351 63.5368 0.99205C63.856 1.75567 64.6102 2.34397 65.352 2.92293C67.3235 4.45951 69.2325 5.95224 68.1372 10.1706V14.4235C68.1372 15.1182 67.6928 15.7128 67.0731 15.9319V30.2736H67.1295C68.3061 30.2736 69.3795 30.7556 70.1556 31.5317C70.938 32.3141 71.423 33.3875 71.423 34.5673V58.733C72.3149 58.8863 73.1161 59.3182 73.7326 59.9284C74.515 60.7045 75 61.7779 75 62.9608V64.8103C75 65.696 74.2834 66.4126 73.3977 66.4126H1.60228C0.716619 66.4126 0 65.696 0 64.8103V62.9608C0 61.7779 0.481939 60.7045 1.25806 59.9284C1.87456 59.3119 2.67881 58.8832 3.57388 58.7298V34.5641C3.57388 33.3875 4.05582 32.3109 4.83194 31.5348C5.61432 30.7524 6.68771 30.2674 7.86439 30.2674H7.92072V15.9257C7.30109 15.7035 6.85667 15.112 6.85667 14.4173V10.1644C5.76138 5.94276 7.67036 4.44997 9.6419 2.91672C10.3804 2.3409 11.1378 1.75253 11.457 0.985841C11.795 0.17215 12.7307 -0.215868 13.5475 0.122079C13.9543 0.291066 14.2547 0.607142 14.4112 0.985841C14.7304 1.74946 15.4846 2.33776 16.2232 2.91672C18.1947 4.45331 20.1037 5.94603 19.0084 10.1644V14.4173C19.0084 15.112 18.5672 15.7035 17.9475 15.9257V30.2674H21.9563L21.962 30.273ZM65.1921 8.37315C65.2359 6.87415 64.3253 6.1606 63.3896 5.43457C62.9389 5.08407 62.4851 4.73043 62.0627 4.32045C61.6402 4.72728 61.1864 5.08093 60.7358 5.43457C59.8001 6.16374 58.8894 6.87408 58.9332 8.37315H65.1921ZM64.9355 12.8201V11.5777H59.1899V12.8201H64.9355ZM63.8715 16.0246H60.2507V30.2762H63.8715V16.0246ZM16.0661 8.37308C16.11 6.87408 15.1993 6.16053 14.2636 5.4345C13.8129 5.084 13.3592 4.73037 12.9367 4.32038C12.5142 4.72721 12.0604 5.08086 11.6098 5.4345C10.6741 6.16367 9.76345 6.87401 9.80724 8.37308H16.0661ZM15.8095 12.82V11.5776H10.0639V12.82H15.8095ZM14.7486 16.0246H11.1279V30.2762H14.7486V16.0246ZM70.7095 61.8738H4.29642C3.99912 61.8738 3.72373 61.9989 3.52659 62.193C3.32944 62.3901 3.20739 62.6655 3.20739 62.9628V63.2132H71.7983V62.9628C71.7983 62.6655 71.6731 62.3901 71.4791 62.193C71.2882 61.9958 71.0131 61.8738 70.7095 61.8738Z" fill="black" stroke="black" stroke-width="2.66667" mask="url(#path-1-inside-1_918_2013)"/>
</svg>
