<svg width="13" height="17" viewBox="0 0 15 20" fill="none" xmlns="http://www.w3.org/2000/svg">
<path d="M7.50051 4.32952C9.41883 4.32952 10.9744 5.88523 10.9744 7.80346C10.9744 9.72272 9.41874 11.2774 7.50051 11.2774C5.58124 11.2774 4.02657 9.72265 4.02657 7.80346C4.02657 5.88513 5.58132 4.32952 7.50051 4.32952ZM7.50051 3.39479C5.06454 3.39479 3.09081 5.36853 3.09081 7.80353C3.09081 10.2385 5.06548 12.2132 7.50051 12.2132C9.93553 12.2132 11.9092 10.2386 11.9092 7.80353C11.9092 5.3685 9.93551 3.39479 7.50051 3.39479ZM7.50051 1.23881V1.23975C11.1257 1.23975 14.0653 4.17835 14.0653 7.80356C14.0653 9.36208 13.5251 10.7919 12.6176 11.9172L7.49966 18.4697L2.33 11.8506C1.45634 10.7346 0.934946 9.33021 0.934946 7.80356C0.934946 4.17835 3.87434 1.23881 7.50051 1.23881ZM7.50051 0.304083H7.49957C3.35754 0.304083 0 3.66162 0 7.80365C0 9.57636 0.61439 11.2045 1.64212 12.4878L7.13596 19.5203C7.22145 19.6274 7.35297 19.696 7.5014 19.696C7.65264 19.696 7.78698 19.6236 7.87248 19.5118L13.3767 12.4651C14.3931 11.1847 15 9.56499 15 7.80361C15 3.66159 11.6425 0.304083 7.50051 0.304083Z" fill="#003c43"/>
</svg>
