<svg width="13" height="17" viewBox="0 0 19 20" fill="none" xmlns="http://www.w3.org/2000/svg">
<path fill-rule="evenodd" clip-rule="evenodd" d="M17.1 0.5C18.149 0.5 19 1.35103 19 2.39999V13.1666C19 14.2156 18.149 15.0666 17.1 15.0666H16.15V18.55C16.15 19.0749 15.7249 19.5 15.2 19.5H13.3C12.7751 19.5 12.35 19.0749 12.35 18.55V15.0666H6.65V18.55C6.65 19.0749 6.22487 19.5 5.7 19.5H3.8C3.27513 19.5 2.85 19.0749 2.85 18.55V15.0666H1.9C0.851038 15.0666 0 14.2156 0 13.1666V2.39999C0 1.35103 0.851038 0.5 1.9 0.5H17.1ZM17.1 13.7999C17.4499 13.7999 17.7333 13.5165 17.7333 13.1666V2.39999C17.7333 2.05007 17.4499 1.76666 17.1 1.76666H1.9C1.55008 1.76666 1.26667 2.05007 1.26667 2.39999V13.1666C1.26667 13.5165 1.55008 13.7999 1.9 13.7999H17.1ZM13.6166 15.0666V18.2332H14.8832V15.0666H13.6166ZM4.11657 15.0666H5.38323V18.2332H4.11657V15.0666Z" fill="#003c43"/>
</svg>
