<svg width="17" height="18" viewBox="0 0 21 24" fill="none" xmlns="http://www.w3.org/2000/svg">
<path d="M10.4995 5.7274C10.7226 5.7274 10.9034 5.56163 10.9034 5.35714C10.9034 5.15265 10.7226 4.98688 10.4995 4.98688C10.2765 4.98688 10.0957 5.15265 10.0957 5.35714C10.0957 5.56163 10.2765 5.7274 10.4995 5.7274Z" fill="#003c43"/>
<path d="M14.1343 6.46794C14.3574 6.46794 14.5382 6.30217 14.5382 6.09768C14.5382 5.89319 14.3574 5.72742 14.1343 5.72742C13.9113 5.72742 13.7305 5.89319 13.7305 6.09768C13.7305 6.30217 13.9113 6.46794 14.1343 6.46794Z" fill="#003c43"/>
<path d="M6.86478 6.46794C7.08782 6.46794 7.26863 6.30217 7.26863 6.09768C7.26863 5.89319 7.08782 5.72742 6.86478 5.72742C6.64175 5.72742 6.46094 5.89319 6.46094 6.09768C6.46094 6.30217 6.64175 6.46794 6.86478 6.46794Z" fill="#003c43"/>
<path d="M21 10.5408C21 9.87275 20.6785 9.25288 20.1268 8.83323C20.1703 8.66546 20.1923 8.49342 20.1923 8.31921C20.1923 7.68232 19.9 7.09036 19.3956 6.67293C19.6448 6.28693 19.7885 5.8372 19.7885 5.35711V5.05359L18.6909 4.8523C18.3689 4.79329 18.0448 4.77223 17.7239 4.78723C17.85 4.06452 17.7162 3.34075 17.3319 2.73838L17.1155 2.39922L16.6914 2.39515C16.0737 2.38913 15.4624 2.5681 14.9314 2.89523C14.8922 2.44282 14.7491 2.01026 14.505 1.62768L14.2886 1.28843L13.8644 1.28436C13.2605 1.27862 12.6587 1.44908 12.1291 1.76972C11.8399 1.30162 11.4013 0.913121 10.8512 0.660926L10.5 0.5L10.1489 0.660972C9.59877 0.913121 9.16024 1.30162 8.87104 1.76968C8.34169 1.44898 7.74067 1.27848 7.13551 1.2844L6.71147 1.28848L6.49506 1.62768C6.25093 2.01035 6.10777 2.44296 6.0686 2.89542C5.54607 2.57352 4.94565 2.3951 4.33812 2.3951C4.32832 2.3951 4.31838 2.39515 4.30858 2.39524L3.88455 2.39931L3.66813 2.73852C3.28382 3.34075 3.15 4.06457 3.2761 4.78728C2.95519 4.77223 2.63101 4.79329 2.30909 4.8523L1.21154 5.05359V5.35711C1.21154 5.8372 1.35516 6.28693 1.60433 6.67293C1.09998 7.09036 0.807692 7.68232 0.807692 8.31921C0.807692 8.49342 0.829702 8.66541 0.873216 8.83323C0.321512 9.25288 0 9.87275 0 10.5408C0 11.0621 0.203084 11.5683 0.56493 11.9657C0.459072 12.219 0.403846 12.49 0.403846 12.7624C0.403846 13.7195 1.06535 14.5516 2.02312 14.8585C2.02054 14.9004 2.01923 14.9422 2.01923 14.9839C2.01923 16.1125 2.94187 17.0466 4.13185 17.1868L1.42669 23.5H4.31368L6.37688 18.685C6.405 18.6859 6.43322 18.6866 6.46154 18.6866C6.76548 18.6866 7.06549 18.6342 7.34586 18.5335C7.79882 19.0921 8.51298 19.4271 9.28846 19.4271V23.5H11.7115V19.4271C12.487 19.4271 13.2012 19.0921 13.6541 18.5335C13.9345 18.6342 14.2345 18.6866 14.5385 18.6866C14.5668 18.6866 14.595 18.6859 14.6231 18.685L16.6863 23.5H19.5733L16.8682 17.1868C18.0581 17.0466 18.9808 16.1125 18.9808 14.9839C18.9808 14.9422 18.9795 14.9003 18.9769 14.8585C19.9347 14.5517 20.5962 13.7195 20.5962 12.7624C20.5962 12.49 20.5409 12.219 20.4351 11.9657C20.7969 11.5684 21 11.0621 21 10.5408ZM18.5324 5.57848L18.9545 5.65587C18.7982 6.53515 17.964 7.20847 16.9615 7.20847H16.5089C16.5125 7.11401 16.5075 7.01876 16.492 6.92365C16.8411 6.59134 17.0083 6.12957 16.9496 5.66883C17.458 5.51253 17.9991 5.48069 18.5324 5.57848ZM6.73206 14.2571C6.55609 13.7943 6.21464 13.4 5.77576 13.1326H7.88818L7.34672 14.3962C7.15146 14.3262 6.94519 14.2788 6.73206 14.2571ZM8.75604 13.1326H9.28846V14.9839C8.98452 14.9839 8.68456 15.0363 8.40414 15.1371C8.29879 15.0071 8.17894 14.8897 8.0478 14.7853L8.75604 13.1326ZM10.0962 13.1326H10.9038V15.1107C10.7644 15.1559 10.6291 15.2124 10.5 15.281C10.3709 15.2124 10.2356 15.1559 10.0962 15.1107V13.1326ZM11.7115 13.1326H12.244L12.9522 14.7853C12.821 14.8896 12.7012 15.0071 12.5958 15.1371C12.3154 15.0363 12.0154 14.9839 11.7115 14.9839V13.1326H11.7115ZM13.6533 14.3962L13.1118 13.1326H15.2242C14.7853 13.4 14.4439 13.7943 14.2679 14.2571C14.0548 14.2788 13.8485 14.3262 13.6533 14.3962ZM15.7846 12.3921H5.21542C5.16686 12.1312 5.06797 11.8801 4.9241 11.6516H16.0759C15.9321 11.8801 15.8331 12.1312 15.7846 12.3921ZM16.1884 10.9111H4.81157C4.83414 10.7889 4.84615 10.6651 4.84615 10.5408C4.84615 10.3666 4.82414 10.1946 4.78063 10.0268C5.2496 9.67003 5.55142 9.16841 5.63158 8.6157C6.03619 8.73803 6.4786 8.71021 6.86533 8.53054C7.09537 8.63741 7.34525 8.69082 7.59508 8.69082C7.93543 8.69082 8.27577 8.59168 8.56628 8.39345C8.79284 8.23882 8.96831 8.03777 9.08351 7.8089C9.5341 8.00315 10.0541 7.99713 10.4999 7.79002C10.73 7.89688 10.9799 7.95029 11.2297 7.95029C11.464 7.95029 11.698 7.90211 11.916 7.80816C12.0312 8.03731 12.2068 8.23868 12.4336 8.39345C12.9373 8.7372 13.591 8.78297 14.1345 8.5305C14.3646 8.63736 14.6144 8.69077 14.8643 8.69077C15.0344 8.69077 15.2045 8.66601 15.3684 8.61649C15.4488 9.16888 15.7505 9.67017 16.2193 10.0267C16.1758 10.1945 16.1537 10.3665 16.1537 10.5407C16.1538 10.6651 16.1659 10.789 16.1884 10.9111ZM6.0693 4.79389C6.18253 4.46635 6.50243 4.24632 6.86538 4.24632C7.19245 4.24632 7.56409 4.48315 7.71412 4.77145C7.59069 5.28241 7.75385 5.813 8.1426 6.18303C8.07884 6.57444 8.18056 6.96979 8.41893 7.28937C8.38208 7.49431 8.26471 7.67616 8.08409 7.79946C7.79166 7.99898 7.39887 7.99912 7.10663 7.79955L6.86538 7.63488L6.62419 7.79955C6.33206 7.99912 5.93921 7.99903 5.64678 7.7995C5.34813 7.59567 5.22461 7.23592 5.33935 6.9043L5.42643 6.6528L5.19558 6.4953C4.89709 6.29165 4.77366 5.9319 4.88841 5.6001C5.00174 5.27241 5.32153 5.05234 5.68424 5.05234H5.68439L5.98005 5.05238L6.0693 4.79389ZM9.31885 4.31177H9.31895L9.61462 4.31181L9.70397 4.05337C9.8172 3.72582 10.1371 3.5058 10.5001 3.5058C10.863 3.5058 11.1829 3.72582 11.2961 4.05337L11.3855 4.31181L11.6811 4.31177H11.6812C12.044 4.31177 12.3638 4.53189 12.4771 4.85948C12.5919 5.19128 12.4684 5.55104 12.17 5.75468L11.9391 5.91218L12.0262 6.16368C12.1409 6.4953 12.0174 6.85506 11.7188 7.05884C11.4264 7.25841 11.0335 7.25846 10.7413 7.05893L10.5 6.89435L10.2588 7.05902C9.96667 7.2586 9.57388 7.25855 9.28134 7.05893C8.98275 6.85515 8.85922 6.49539 8.97397 6.16377L9.06105 5.91227L8.8302 5.75477C8.5317 5.55113 8.40828 5.19137 8.52302 4.85952C8.6363 4.53189 8.9561 4.31177 9.31885 4.31177ZM14.1346 4.24632C14.4975 4.24632 14.8174 4.46635 14.9307 4.79389L15.02 5.05234L15.3157 5.05229H15.3159C15.6786 5.05229 15.9984 5.27241 16.1117 5.60005C16.2264 5.93185 16.103 6.29161 15.8045 6.49525L15.5736 6.65275L15.6607 6.9043C15.7754 7.23592 15.652 7.59567 15.3534 7.79946C15.0609 7.99898 14.6681 7.99912 14.3759 7.79955L14.1346 7.63488L13.8934 7.79955C13.6012 7.99912 13.2084 7.99903 12.916 7.7995C12.7353 7.67621 12.618 7.49436 12.5811 7.28942C12.8195 6.96984 12.9212 6.57454 12.8575 6.18307C13.2463 5.813 13.4094 5.28241 13.2859 4.77149C13.4359 4.48315 13.8075 4.24632 14.1346 4.24632ZM16.8705 4.91603C16.8029 4.93358 16.7358 4.95329 16.669 4.9743C16.4196 4.63644 16.0341 4.40368 15.5952 4.33384C15.4645 4.09789 15.2722 3.90212 15.0411 3.7598C15.4986 3.36579 16.0717 3.13873 16.6494 3.13558C16.9691 3.652 17.0462 4.29001 16.8705 4.91603ZM13.8224 2.02479C14.0896 2.45628 14.1883 2.97502 14.1079 3.5064C13.6523 3.51431 13.1921 3.72411 12.8661 4.04166C12.7436 3.92262 12.6014 3.82311 12.4449 3.74665C12.4943 3.5468 12.5192 3.34237 12.5192 3.13553C12.5192 2.91027 12.4899 2.68997 12.434 2.47804C12.853 2.18659 13.3372 2.02738 13.8224 2.02479ZM10.5 1.32795C11.2477 1.67494 11.7115 2.36659 11.7115 3.13553C11.7115 3.17603 11.7098 3.2163 11.7071 3.25647C11.403 2.94975 10.9704 2.76527 10.5 2.76527C10.0296 2.76527 9.59695 2.94975 9.29285 3.25647C9.29023 3.2163 9.28846 3.17598 9.28846 3.13553C9.28846 2.36659 9.75233 1.67494 10.5 1.32795ZM7.17761 2.02479C7.66278 2.02743 8.14704 2.18669 8.56608 2.47804C8.51015 2.68997 8.48077 2.91027 8.48077 3.13553C8.48077 3.34237 8.50576 3.5468 8.55518 3.7467C8.39869 3.82316 8.25648 3.92267 8.13392 4.04166C7.80791 3.72407 7.34778 3.51431 6.89214 3.50635C6.81167 2.97502 6.91036 2.45628 7.17761 2.02479ZM4.35068 3.13558C4.92839 3.13877 5.50144 3.36579 5.9589 3.7598C5.72785 3.90207 5.53557 4.09789 5.40482 4.33384C4.966 4.40378 4.58052 4.63649 4.33105 4.9743C4.26426 4.95329 4.19712 4.93362 4.12948 4.91603C3.95381 4.29001 4.03089 3.65196 4.35068 3.13558ZM2.4675 5.57848C3.00093 5.48064 3.54198 5.51253 4.05037 5.66883C3.99167 6.12957 4.15886 6.59134 4.50798 6.92365C4.49249 7.01876 4.48749 7.11406 4.49107 7.20847H4.03846C3.03596 7.20847 2.20172 6.53515 2.04553 5.65587L2.4675 5.57848ZM3.76324 22.7595H2.61177L4.66927 17.9578C4.91849 18.2084 5.22839 18.4056 5.57494 18.5313L3.76324 22.7595ZM10.9038 22.7595H10.0962V19.3004C10.2356 19.2552 10.3709 19.1987 10.5 19.13C10.6291 19.1987 10.7644 19.2552 10.9038 19.3004V22.7595ZM17.2368 22.7595L15.425 18.5313C15.7716 18.4056 16.0815 18.2084 16.3307 17.9578L18.3882 22.7595H17.2368ZM19.6799 11.6223L19.4537 11.8163L19.5994 12.0669C19.7249 12.2827 19.7885 12.5167 19.7885 12.7624C19.7885 13.4811 19.2292 14.0941 18.4585 14.2199L18.0445 14.2875L18.1349 14.664C18.1603 14.7697 18.1731 14.8773 18.1731 14.984C18.1731 15.8007 17.4485 16.465 16.5579 16.465L16.1884 16.4585L16.1217 16.7609C15.97 17.4476 15.3043 17.9461 14.5386 17.9461C14.2472 17.9461 13.9614 17.874 13.7123 17.7376L13.344 17.5361L13.1467 17.8853C12.8674 18.3796 12.3176 18.6866 11.7116 18.6866C11.3589 18.6866 11.0238 18.5842 10.7427 18.3906L10.5 18.2235L10.2574 18.3906C9.97626 18.5842 9.64117 18.6866 9.28846 18.6866C8.68254 18.6866 8.13265 18.3795 7.85339 17.8852L7.65612 17.536L7.28781 17.7376C7.03863 17.8739 6.75291 17.946 6.46154 17.946C5.69585 17.946 5.03006 17.4475 4.87841 16.7608L4.81168 16.4585L4.47522 16.4641L4.44231 16.465C3.55157 16.465 2.82692 15.8006 2.82692 14.9839C2.82692 14.8773 2.8398 14.7697 2.86514 14.664L2.95555 14.2874L2.54156 14.2199C1.77087 14.0941 1.21154 13.4811 1.21154 12.7624C1.21154 12.5167 1.27519 12.2826 1.40064 12.0669L1.54638 11.8163L1.32017 11.6223C0.989675 11.3389 0.807692 10.9548 0.807692 10.5408C0.807692 10.0311 1.08872 9.5633 1.5595 9.28949L1.8377 9.12764L1.72069 8.84527C1.65077 8.67689 1.61538 8.4999 1.61538 8.31921C1.61538 7.90956 1.79676 7.52759 2.11161 7.25119C2.61692 7.68357 3.29432 7.94895 4.03846 7.94895H4.72803C4.76372 8.00389 4.80294 8.05702 4.84615 8.1078V8.31921C4.84615 8.82893 4.56513 9.29671 4.09434 9.57052L3.81614 9.73237L3.93321 10.0147C4.00302 10.1832 4.03841 10.3602 4.03841 10.5408C4.03841 10.7866 3.97475 11.0206 3.84931 11.2363L3.70357 11.487L3.92978 11.6809C4.26032 11.9643 4.44231 12.3484 4.44231 12.7624C4.44231 12.8691 4.42943 12.9767 4.40409 13.0823L4.31368 13.4589L4.72768 13.5265C5.37373 13.6319 5.89525 14.0988 6.02543 14.6881L6.09222 14.9905L6.42862 14.9848L6.46149 14.9839C7.06741 14.9839 7.6173 15.291 7.89656 15.7853L8.09383 16.1345L8.46214 15.9329C8.71131 15.7966 8.99704 15.7245 9.28841 15.7245C9.64112 15.7245 9.97621 15.8269 10.2574 16.0205L10.4999 16.1876L10.7425 16.0205C11.0237 15.8269 11.3588 15.7245 11.7115 15.7245C12.0029 15.7245 12.2886 15.7966 12.5378 15.9329L12.9061 16.1345L13.1033 15.7853C13.3826 15.291 13.9325 14.9839 14.5382 14.9839L14.9077 14.9905L14.9745 14.6881C15.1047 14.0988 15.6262 13.6319 16.2722 13.5265L16.6862 13.4589L16.5958 13.0823C16.5705 12.9767 16.5576 12.8691 16.5576 12.7624C16.5576 12.3484 16.7396 11.9643 17.07 11.6809L17.2962 11.4869L17.1505 11.2363C17.025 11.0205 16.9614 10.7865 16.9614 10.5408C16.9614 10.3602 16.9968 10.1831 17.0666 10.0147L17.1837 9.73232L16.9055 9.57047C16.4349 9.29671 16.1538 8.82893 16.1538 8.31921V8.10775C16.1971 8.05698 16.2362 8.00384 16.2719 7.94895H16.9615C17.7056 7.94895 18.3831 7.68357 18.8884 7.25119C19.2032 7.52764 19.3846 7.90956 19.3846 8.31921C19.3846 8.49986 19.3492 8.67689 19.2794 8.84531L19.1623 9.12768L19.4405 9.28954C19.9113 9.56334 20.1924 10.0311 20.1924 10.5408C20.1923 10.9548 20.0103 11.3389 19.6799 11.6223Z" fill="#003c43"/>
<path d="M2.01908 10.9111C2.24212 10.9111 2.42293 10.7453 2.42293 10.5408C2.42293 10.3363 2.24212 10.1705 2.01908 10.1705C1.79604 10.1705 1.61523 10.3363 1.61523 10.5408C1.61523 10.7453 1.79604 10.9111 2.01908 10.9111Z" fill="#003c43"/>
<path d="M3.23197 13.1326C3.45501 13.1326 3.63582 12.9668 3.63582 12.7624C3.63582 12.5579 3.45501 12.3921 3.23197 12.3921C3.00893 12.3921 2.82812 12.5579 2.82812 12.7624C2.82812 12.9668 3.00893 13.1326 3.23197 13.1326Z" fill="#003c43"/>
<path d="M4.03861 15.7245C4.26165 15.7245 4.44246 15.5587 4.44246 15.3542C4.44246 15.1497 4.26165 14.9839 4.03861 14.9839C3.81557 14.9839 3.63477 15.1497 3.63477 15.3542C3.63477 15.5587 3.81557 15.7245 4.03861 15.7245Z" fill="#003c43"/>
<path d="M6.46049 16.465C6.68352 16.465 6.86433 16.2992 6.86433 16.0948C6.86433 15.8903 6.68352 15.7245 6.46049 15.7245C6.23745 15.7245 6.05664 15.8903 6.05664 16.0948C6.05664 16.2992 6.23745 16.465 6.46049 16.465Z" fill="#003c43"/>
<path d="M9.28861 17.946C9.51165 17.946 9.69246 17.7803 9.69246 17.5758C9.69246 17.3713 9.51165 17.2055 9.28861 17.2055C9.06557 17.2055 8.88477 17.3713 8.88477 17.5758C8.88477 17.7803 9.06557 17.946 9.28861 17.946Z" fill="#003c43"/>
<path d="M11.7105 17.2055C11.9335 17.2055 12.1143 17.0397 12.1143 16.8352C12.1143 16.6307 11.9335 16.465 11.7105 16.465C11.4874 16.465 11.3066 16.6307 11.3066 16.8352C11.3066 17.0397 11.4874 17.2055 11.7105 17.2055Z" fill="#003c43"/>
<path d="M14.9429 17.2055C15.1659 17.2055 15.3468 17.0397 15.3468 16.8352C15.3468 16.6307 15.1659 16.465 14.9429 16.465C14.7199 16.465 14.5391 16.6307 14.5391 16.8352C14.5391 17.0397 14.7199 17.2055 14.9429 17.2055Z" fill="#003c43"/>
<path d="M16.1538 14.9839C16.3769 14.9839 16.5577 14.8182 16.5577 14.6137C16.5577 14.4092 16.3769 14.2434 16.1538 14.2434C15.9308 14.2434 15.75 14.4092 15.75 14.6137C15.75 14.8182 15.9308 14.9839 16.1538 14.9839Z" fill="#003c43"/>
<path d="M18.5757 13.5029C18.7988 13.5029 18.9796 13.3371 18.9796 13.1327C18.9796 12.9282 18.7988 12.7624 18.5757 12.7624C18.3527 12.7624 18.1719 12.9282 18.1719 13.1327C18.1719 13.3371 18.3527 13.5029 18.5757 13.5029Z" fill="#003c43"/>
<path d="M18.1734 10.9111C18.3964 10.9111 18.5772 10.7453 18.5772 10.5408C18.5772 10.3363 18.3964 10.1705 18.1734 10.1705C17.9503 10.1705 17.7695 10.3363 17.7695 10.5408C17.7695 10.7453 17.9503 10.9111 18.1734 10.9111Z" fill="#003c43"/>
</svg>
