<svg width="13" height="17" viewBox="0 0 22 22" fill="none" xmlns="http://www.w3.org/2000/svg">
<path d="M21.3878 9.15042C21.0925 7.19244 20.2624 5.35399 18.9889 3.83771C17.7154 2.32143 16.048 1.18619 14.1705 0.557124C12.2929 -0.0719451 10.2782 -0.170419 8.34822 0.272555C6.41828 0.715528 4.64812 1.68275 3.23283 3.06761C1.81755 4.45248 0.812095 6.20121 0.327296 8.12107C-0.157503 10.0409 -0.102825 12.0574 0.485304 13.9481C1.07343 15.8389 2.17218 17.5306 3.66043 18.8367C5.14868 20.1428 6.96866 21.0127 8.91977 21.3504C9.5266 21.4507 10.1407 21.5005 10.7558 21.4994C12.3072 21.5015 13.8407 21.1675 15.2508 20.5204C15.4828 20.4051 15.7466 20.3699 16.0008 20.4204L18.9618 21.1034C19.2566 21.171 19.5639 21.1611 19.8538 21.0746C20.1437 20.9881 20.4062 20.828 20.6157 20.6098C20.8253 20.3917 20.9748 20.123 21.0496 19.8299C21.1245 19.5368 21.1221 19.2293 21.0428 18.9374L20.3178 16.2724C20.2493 15.9951 20.2849 15.7023 20.4178 15.4494C21.3716 13.4965 21.7099 11.2999 21.3878 9.15042ZM18.8658 16.6704L19.5918 19.3334C19.6035 19.3754 19.604 19.4198 19.5933 19.462C19.5825 19.5043 19.5609 19.543 19.5306 19.5744C19.5003 19.6057 19.4623 19.6286 19.4204 19.6407C19.3785 19.6528 19.3341 19.6537 19.2918 19.6434L16.3318 18.9604C15.7538 18.8329 15.1498 18.9033 14.6168 19.1604C12.6725 20.0553 10.4781 20.2482 8.40756 19.7064C6.33699 19.1645 4.51839 17.9214 3.26171 16.1889C2.00503 14.4564 1.38803 12.3417 1.51586 10.2052C1.6437 8.06875 2.50846 6.04272 3.96277 4.47242C4.82714 3.53316 5.8774 2.78392 7.04683 2.27229C8.21626 1.76065 9.47931 1.4978 10.7558 1.50042C11.0268 1.50042 11.2998 1.51242 11.5728 1.53542C13.0658 1.66663 14.5046 2.15912 15.7648 2.9704C17.0251 3.78168 18.0691 4.8874 18.8067 6.19215C19.5443 7.49691 19.9534 8.96153 19.9987 10.4597C20.044 11.9578 19.7242 13.4445 19.0668 14.7914C18.7735 15.3725 18.702 16.0405 18.8658 16.6704Z" fill="#003c43"/>
<path d="M12.2559 15.0004H11.5059V8.75043C11.5059 8.55151 11.4268 8.36075 11.2862 8.2201C11.1455 8.07945 10.9548 8.00043 10.7559 8.00043H10.2559C10.0793 8.00119 9.90856 8.06418 9.77379 8.17831C9.63901 8.29245 9.54877 8.45043 9.51892 8.6245C9.48908 8.79857 9.52153 8.97759 9.61059 9.1301C9.69964 9.28262 9.83959 9.39887 10.0059 9.45843V15.0004H9.25586C9.05695 15.0004 8.86618 15.0794 8.72553 15.2201C8.58488 15.3607 8.50586 15.5515 8.50586 15.7504C8.50586 15.9493 8.58488 16.1401 8.72553 16.2808C8.86618 16.4214 9.05695 16.5004 9.25586 16.5004H12.2559C12.4548 16.5004 12.6455 16.4214 12.7862 16.2808C12.9268 16.1401 13.0059 15.9493 13.0059 15.7504C13.0059 15.5515 12.9268 15.3607 12.7862 15.2201C12.6455 15.0794 12.4548 15.0004 12.2559 15.0004Z" fill="#003c43"/>
<path d="M10.7559 6.75043C11.3081 6.75043 11.7559 6.30271 11.7559 5.75043C11.7559 5.19814 11.3081 4.75043 10.7559 4.75043C10.2036 4.75043 9.75586 5.19814 9.75586 5.75043C9.75586 6.30271 10.2036 6.75043 10.7559 6.75043Z" fill="#003c43"/>
</svg>
