<svg width="16" height="25" viewBox="0 0 16 28" fill="none" xmlns="http://www.w3.org/2000/svg">
<path d="M14.3287 9.09462C13.9807 7.74604 12.7703 6.80557 11.3843 6.80557H4.80838C3.42244 6.80557 2.212 7.74757 1.86854 9.0839L0.0559034 15.5919C-0.441907 17.6938 2.52822 18.6021 3.28931 16.6183L4.37871 13.892C4.43771 16.0476 4.19562 23.7707 4.13208 26.0554C4.12754 28.6237 7.86174 28.6529 7.93286 26.1091V17.4008H8.25816V26.1091C8.32625 28.659 12.0605 28.6191 12.0589 26.0554C12.0014 23.8952 11.7563 16.1979 11.8138 14.1835L12.7035 16.629C13.1014 17.8809 14.8914 18.1648 15.6494 17.0954C15.9687 16.675 16.0761 16.1411 15.946 15.6287L14.3285 9.09749L14.3287 9.09462ZM14.6903 16.3438C14.4724 16.6292 13.9625 16.554 13.84 16.2072L11.7762 10.5307C11.6748 10.2515 11.3904 10.0858 11.1014 10.1395C10.8124 10.1916 10.602 10.4463 10.602 10.744C10.5385 14.4169 10.7155 22.3673 10.8487 26.0891C10.8577 26.9989 9.48692 27.0234 9.46876 26.1075V16.7857C9.46876 16.4467 9.19792 16.1721 8.86354 16.1721H7.32781C6.99342 16.1721 6.72259 16.4467 6.72259 16.7857V26.1075C6.70897 27.0112 5.33513 27.0096 5.34268 26.0891C5.47432 22.3472 5.65135 14.4335 5.5878 10.744C5.59839 10.0858 4.6588 9.89398 4.42124 10.5138L2.15619 16.1814C1.96706 16.6861 1.08647 16.5312 1.22111 15.9144L3.03375 9.40636C3.24255 8.59782 3.97185 8.03323 4.80552 8.03323H11.3814C12.2166 8.03323 12.9459 8.59782 13.1532 9.40023L14.7691 15.9283C14.8221 16.1216 14.7419 16.275 14.6874 16.3441L14.6903 16.3438Z" fill="#003c43"/>
<path d="M8.09649 6.47412C9.87888 6.47412 11.3284 5.01663 11.3284 3.22466C11.1771 -1.07567 5.01434 -1.0741 4.86328 3.22466C4.86328 5.01663 6.31279 6.47412 8.09518 6.47412H8.09649ZM8.09649 1.20407C10.7685 1.28998 10.7685 5.1623 8.09649 5.24675C5.42446 5.16083 5.42446 1.28851 8.09649 1.20407Z" fill="#003c43"/>
</svg>
