<svg width="20" height="17" viewBox="0 0 24 20" fill="none" xmlns="http://www.w3.org/2000/svg">
<path d="M6.00661 14.1079L4.50481 13.693C4.26923 13.6376 4.03365 13.6653 3.85697 13.8036C3.68029 13.9419 3.5625 14.1356 3.5625 14.3569V14.8825C3.5625 15.2697 3.88642 15.574 4.29868 15.574H5.80048C6.21274 15.574 6.53665 15.2697 6.53665 14.8825V14.7718C6.53665 14.4675 6.33052 14.1909 6.00661 14.1079Z" fill="#003c43"/>
<path d="M16.8437 11.0926H15.4303L14.753 9.51588C14.2818 8.43705 13.1628 7.74548 11.9261 7.74548H5.74218C4.5054 7.74548 3.38641 8.43705 2.91526 9.51588L2.23798 11.0926H0.824518C0.353365 11.0926 0 11.4523 0 11.8672V12.1438C0 12.5864 0.382812 12.9184 0.824518 12.9184H1.5018C1.47235 13.0843 1.44291 13.278 1.44291 13.444V15.9336V19.0595C1.44291 19.5574 1.88461 19.9723 2.41466 19.9723H3.5042C4.03425 19.9723 4.47595 19.5574 4.47595 19.0595V17.87H13.1923V19.0595C13.1923 19.5574 13.634 19.9723 14.164 19.9723H15.2536C15.7836 19.9723 16.2253 19.5574 16.2253 19.0595V15.9336V13.444C16.2253 13.278 16.1959 13.0843 16.1664 12.9184H16.8437C17.3149 12.9184 17.6682 12.5588 17.6682 12.1438V11.8672C17.6682 11.4246 17.3149 11.0926 16.8437 11.0926ZM15.283 15.9336C15.283 16.5145 14.7824 16.9848 14.164 16.9848H3.5042C2.88581 16.9848 2.38521 16.5145 2.38521 15.9336V13.444C2.38521 13.195 2.44411 12.9184 2.53245 12.6971L3.76922 9.84783C4.09314 9.10095 4.85877 8.60302 5.74218 8.60302H11.9261C12.78 8.60302 13.5751 9.10095 13.899 9.84783L15.1358 12.6971C15.2536 12.946 15.283 13.195 15.283 13.444V15.9336Z" fill="#003c43"/>
<path d="M13.8398 13.8036C13.6632 13.6653 13.4276 13.6376 13.192 13.693L11.6902 14.1079C11.3663 14.1909 11.1602 14.4675 11.1602 14.7718V14.8825C11.1602 15.2697 11.4841 15.574 11.8963 15.574H13.3981C13.8104 15.574 14.1343 15.2697 14.1343 14.8825V14.3569C14.1343 14.1356 14.0165 13.9419 13.8398 13.8036Z" fill="#003c43"/>
<path d="M13.8405 11.7566L12.9571 9.84785C12.8098 9.5159 12.4565 9.32227 12.0737 9.32227H5.59531C5.2125 9.32227 4.85913 9.5159 4.7119 9.84785L3.82849 11.7566C3.7107 12.0055 3.74014 12.3098 3.91683 12.5311C4.09351 12.7801 4.38798 12.9184 4.7119 12.9184H12.9571C13.281 12.9184 13.5755 12.7801 13.7521 12.5311C13.9288 12.2822 13.9583 12.0055 13.8405 11.7566Z" fill="#003c43"/>
<path d="M22.4973 0H18.4336C17.5796 0 16.9023 0.636238 16.9023 1.43845V6.47303C16.9023 7.27524 17.5796 7.91148 18.4336 7.91148H19.9943V19.1148H18.4925C18.2864 19.1148 18.0802 19.2808 18.0802 19.5021V20H22.8212V19.5021C22.8212 19.3084 22.6445 19.1148 22.4089 19.1148H20.9071V7.88382H22.4678C23.3218 7.88382 23.9991 7.24758 23.9991 6.44537V1.43845C24.0285 0.636238 23.3513 0 22.4973 0ZM23.0862 6.44537C23.0862 6.74965 22.8212 6.99862 22.4973 6.99862H18.4336C18.1097 6.99862 17.8447 6.74965 17.8447 6.44537V1.43845C17.8447 1.13416 18.1097 0.885201 18.4336 0.885201H22.5267C22.8507 0.885201 23.1157 1.13416 23.1157 1.43845V6.44537H23.0862Z" fill="#003c43"/>
<path d="M20.9671 2.01941H18.9941V5.94749H19.9364V4.64735H20.9671C21.4971 4.64735 21.9094 4.26007 21.9094 3.76215V2.90461C21.9094 2.40668 21.4971 2.01941 20.9671 2.01941ZM20.9671 3.76215H19.9364V2.90461H20.9671V3.76215Z" fill="#003c43"/>
</svg>
