<svg width="15" height="20" viewBox="0 0 15 24" fill="none" xmlns="http://www.w3.org/2000/svg">
<path d="M0.595031 7.9558C0.962582 8.208 1.43193 8.26229 1.84586 8.10056C1.98723 8.04514 2.12973 7.99651 2.27112 7.94675V10.6135C0.968256 11.1112 0.0386226 12.371 0.0386226 13.8446C0.0386226 14.8003 0.814461 15.5784 1.77238 15.5784H2.07323V22.4488C2.07323 23.0742 2.58328 23.5809 3.20532 23.5809H3.70067C4.3261 23.5809 4.83277 23.0742 4.83277 22.4488V19.5762H10.1719V22.4488C10.1719 23.0742 10.6786 23.5809 11.304 23.5809H11.7993C12.4248 23.5809 12.9314 23.0742 12.9314 22.4488V15.5784H13.2323C14.1879 15.5784 14.966 14.8025 14.966 13.8446C14.966 12.371 14.0364 11.1111 12.7335 10.6135V7.94675C12.8749 7.99877 13.0174 8.04514 13.1588 8.10056C13.3183 8.16163 13.4834 8.1933 13.6485 8.1933C13.9177 8.1933 14.1846 8.11187 14.4096 7.9558C14.7806 7.70359 15 7.28401 15 6.83502V2.75012C15 2.15072 14.6155 1.62934 14.0387 1.4529C9.53977 0.0776637 5.13003 0.0742762 0.931921 1.44386C0.375484 1.62594 0 2.14167 0 2.73201V6.83515C0 7.28414 0.220537 7.70033 0.590369 7.95593L0.595031 7.9558ZM2.94629 7.7183C3.37719 7.58258 3.80922 7.46949 4.24011 7.3711V10.3816H3.5016C3.31046 10.3816 3.12837 10.4019 2.94516 10.4313V7.71818L2.94629 7.7183ZM4.91529 10.3817V7.23775C6.64111 6.93351 8.36931 6.93351 10.0917 7.23775V10.3817H4.91529ZM4.1598 22.4468C4.1598 22.699 3.95397 22.9037 3.7029 22.9037H3.20755C2.95535 22.9037 2.75066 22.6978 2.75066 22.4468V15.5763H4.16322V22.4468H4.1598ZM10.1732 16.9493H4.8341V15.5774H10.1732V16.9493ZM4.8341 18.9002V17.6233H10.1732V18.9002H4.8341ZM12.2598 22.4468C12.2598 22.699 12.054 22.9037 11.8029 22.9037H11.3076C11.0554 22.9037 10.8507 22.6979 10.8507 22.4468V15.5764H12.2632V22.4468H12.2598ZM14.2955 13.8448C14.2955 14.4295 13.8205 14.9045 13.2358 14.9045H1.77007C1.18537 14.9045 0.710348 14.4295 0.710348 13.8448C0.710348 12.3078 1.96118 11.057 3.49815 11.057H11.5029C13.0399 11.057 14.2907 12.3078 14.2907 13.8448H14.2955ZM12.063 10.4316C11.881 10.4022 11.6955 10.3818 11.5066 10.3818H10.7681V7.37134C11.199 7.46634 11.631 7.58283 12.0619 7.71853V10.4317L12.063 10.4316ZM14.032 7.40054C13.8443 7.52834 13.6181 7.55435 13.4066 7.47293C13.1171 7.35983 12.8276 7.25918 12.5346 7.16305C12.529 7.16305 12.5233 7.15965 12.5177 7.15739C9.18467 6.06036 5.82127 6.06036 2.48826 7.15739C2.48261 7.15739 2.47695 7.16079 2.4713 7.16305C2.18177 7.25805 1.88886 7.35983 1.59934 7.47293C1.38785 7.55435 1.16166 7.52834 0.973906 7.40054C0.786166 7.27048 0.675348 7.06805 0.675348 6.83846V5.25511C1.25778 5.06398 2.93613 4.56071 5.08712 4.28248C7.53337 3.96696 11.1095 3.89116 14.25 5.32182C14.2726 5.33313 14.2998 5.33313 14.3258 5.33878V6.84182C14.3258 7.07027 14.2183 7.2761 14.0272 7.4039L14.032 7.40054ZM1.14472 2.08951C5.20936 0.764036 9.48331 0.766295 13.8464 2.10082C14.136 2.1879 14.3305 2.4514 14.3305 2.75225V4.61719C11.0904 3.21253 7.47688 3.29172 4.98987 3.61289C2.98581 3.87301 1.41366 4.31409 0.678559 4.54481V2.73867C0.678559 2.4435 0.866298 2.18223 1.14452 2.09289L1.14472 2.08951Z" fill="#003c43"/>
</svg>
