<svg width="16" height="25" viewBox="0 0 16 28" fill="none" xmlns="http://www.w3.org/2000/svg">
<path d="M15.8098 14.4196L12.5421 8.06476C12.0864 7.178 11.2084 6.6272 10.2508 6.6272H5.75223C4.79608 6.6272 3.91804 7.17796 3.46093 8.06476L0.193224 14.4196C-0.686265 16.1655 1.65999 17.6951 2.74489 16.0964L3.74877 14.6006L2.69134 19.7677C2.60745 20.1374 2.8982 20.521 3.25692 20.5118H4.44306V26.2067C4.50093 28.5939 7.82071 28.6016 7.88148 26.2067V20.7435H8.1216V26.2067C8.17802 28.5924 11.4993 28.6016 11.5585 26.2067V20.5118H12.7447C13.102 20.521 13.3942 20.1374 13.3103 19.7677L12.2528 14.6006L13.2567 16.0964C14.3546 17.692 16.6806 16.1793 15.8084 14.4211L15.8098 14.4196ZM14.6641 15.4889C14.5064 15.5825 14.3039 15.538 14.2012 15.3846L11.5627 11.4523C11.2112 10.9153 10.3867 11.2989 10.5256 11.9387L12.0285 19.2844H10.9812C10.6616 19.2844 10.4026 19.559 10.4026 19.8981V26.2065C10.3911 26.9705 9.29459 26.9813 9.28014 26.2065V20.1294C9.28014 19.7903 9.02122 19.5157 8.70153 19.5157H7.3042C6.98452 19.5157 6.72559 19.7903 6.72559 20.1294V26.2065C6.72559 26.5302 6.47389 26.7926 6.16435 26.7926C5.85479 26.7926 5.6031 26.5302 5.6031 26.2065V19.8981C5.6031 19.559 5.34417 19.2844 5.02449 19.2844H3.97721L5.48016 11.9387C5.53802 11.6533 5.4006 11.3649 5.1489 11.2467C4.89576 11.1286 4.6021 11.2145 4.44302 11.4523L1.80455 15.3846C1.56876 15.7467 1.00608 15.4061 1.2129 15.0072L4.4806 8.65397C4.73375 8.16149 5.22267 7.8562 5.75499 7.8562H10.2535C10.7859 7.8562 11.2748 8.16151 11.5279 8.65397L14.7956 15.0088C14.8839 15.1806 14.826 15.3908 14.6669 15.4905L14.6641 15.4889Z" fill="#003c43"/>
<path d="M8.00174 6.35114C9.66958 6.35114 11.0264 4.92128 11.0264 3.16306C10.8847 -1.05435 5.11886 -1.05435 4.97852 3.16306C4.97852 4.92128 6.33537 6.35114 8.00322 6.35114H8.00174ZM8.00174 1.20407C10.4695 1.28692 10.4681 5.04264 8.00174 5.12398C5.53539 5.04113 5.53394 1.28541 8.00174 1.20407Z" fill="#003c43"/>
</svg>
