<svg width="45" height="46" viewBox="0 0 45 46" fill="none" xmlns="http://www.w3.org/2000/svg">
<path d="M19.4201 1.31511L15.2772 0.234907C14.3923 -0.00085179 13.4696 -0.0598971 12.5619 0.0611472C11.6542 0.182191 10.7793 0.480952 9.98711 0.940348C9.19494 1.39974 8.50108 2.01077 7.9452 2.73849C7.38933 3.46621 6.98233 4.29635 6.74748 5.18146L5.71338 9.08732C9.12355 4.84294 14.027 2.06249 19.4201 1.31511Z" fill="white"/>
<path d="M1.24763 25.9031L0.233289 29.7299C-0.240863 31.5161 0.0138983 33.4175 0.941538 35.0158C1.86918 36.6142 3.39372 37.7786 5.17984 38.253L9.13181 39.3068C4.91199 35.9891 2.09699 31.2034 1.24763 25.9031Z" fill="white"/>
<path d="M39.8189 6.74907L35.3861 5.57007C37.626 7.29305 39.5014 9.44374 40.9035 11.8973C42.3055 14.3509 43.2063 17.0585 43.5535 19.863L44.772 15.2524C45.24 13.4681 44.9814 11.571 44.0529 9.97703C43.1245 8.38306 41.6019 7.22225 39.8189 6.74907Z" fill="white"/>
<path d="M25.4798 43.6407L29.7282 44.7868C31.5143 45.2609 33.4157 45.0061 35.0141 44.0785C36.6124 43.1509 37.7769 41.6263 38.2513 39.8402L39.45 35.335C36.0701 39.8367 31.0493 42.8218 25.4798 43.6407Z" fill="white"/>
<path d="M22.5027 2.98804C18.6425 2.98674 14.8686 4.13023 11.6583 6.2739C8.448 8.41757 5.94554 11.4651 4.4674 15.0311C2.98926 18.5971 2.60183 22.5214 3.35412 26.3076C4.10641 30.0938 5.96463 33.5718 8.69375 36.3019C11.4229 39.0319 14.9003 40.8913 18.6862 41.6449C22.4722 42.3984 26.3966 42.0123 29.9631 40.5354C33.5296 39.0585 36.578 36.557 38.7227 33.3475C40.8675 30.1379 42.0122 26.3644 42.0122 22.5042C42.0122 17.3293 39.957 12.3663 36.2984 8.70652C32.6399 5.04672 27.6775 2.98978 22.5027 2.98804ZM11.4503 12.7231C11.659 11.6411 12.1838 10.6452 12.9584 9.86143C13.733 9.07765 14.7225 8.54113 15.802 8.31969C16.8815 8.09825 18.0024 8.20183 19.023 8.61735C20.0436 9.03287 20.918 9.74166 21.5359 10.6541C22.1537 11.5666 22.4871 12.6417 22.4939 13.7437C22.5008 14.8456 22.1808 15.9248 21.5743 16.8449C20.9679 17.7649 20.1023 18.4845 19.087 18.9127C18.0716 19.3409 16.9521 19.4584 15.8699 19.2504C15.1511 19.1122 14.4664 18.8337 13.8552 18.4309C13.244 18.028 12.7181 17.5086 12.3077 16.9025C11.8972 16.2963 11.6103 15.6152 11.4632 14.8981C11.3161 14.1809 11.3117 13.4419 11.4503 12.7231ZM19.5585 29.5848C19.3483 30.6664 18.8222 31.6615 18.0467 32.4441C17.2711 33.2268 16.2809 33.762 15.2013 33.982C14.1216 34.2021 13.001 34.0971 11.981 33.6804C10.961 33.2637 10.0875 32.5539 9.47075 31.6408C8.85405 30.7277 8.52189 29.6523 8.51626 28.5505C8.51062 27.4487 8.83177 26.3699 9.43911 25.4506C10.0464 24.5312 10.9127 23.8126 11.9284 23.3854C12.9441 22.9583 14.0636 22.8419 15.1454 23.0509C15.8644 23.1898 16.5489 23.469 17.1599 23.8726C17.7709 24.2763 18.2963 24.7964 18.7062 25.4032C19.116 26.01 19.4023 26.6917 19.5485 27.4092C19.6947 28.1267 19.6981 28.866 19.5585 29.5848ZM21.923 25.073C21.4428 24.9801 21.0008 24.747 20.6528 24.4032C20.3048 24.0594 20.0665 23.6202 19.9678 23.1411C19.8691 22.662 19.9145 22.1644 20.0983 21.711C20.2821 21.2577 20.596 20.8689 21.0004 20.5938C21.4049 20.3187 21.8818 20.1695 22.3709 20.165C22.8601 20.1606 23.3396 20.3011 23.749 20.5689C24.1584 20.8366 24.4793 21.2196 24.6713 21.6695C24.8633 22.1195 24.9177 22.6162 24.8277 23.097C24.7677 23.4179 24.6448 23.7238 24.4661 23.9971C24.2873 24.2703 24.0564 24.5055 23.7864 24.6892C23.5164 24.8728 23.2128 25.0013 22.8931 25.0671C22.5733 25.133 22.2436 25.135 21.923 25.073ZM33.5484 32.2722C33.3398 33.3542 32.815 34.35 32.0404 35.1338C31.2658 35.9176 30.2762 36.4541 29.1968 36.6755C28.1173 36.897 26.9964 36.7934 25.9758 36.3779C24.9552 35.9623 24.0807 35.2536 23.4629 34.3411C22.8451 33.4286 22.5117 32.3535 22.5048 31.2516C22.498 30.1496 22.818 29.0704 23.4244 28.1503C24.0308 27.2303 24.8964 26.5107 25.9118 26.0825C26.9272 25.6543 28.0467 25.5368 29.1288 25.7448C29.8477 25.883 30.5323 26.1615 31.1436 26.5643C31.7548 26.9672 32.2806 27.4866 32.6911 28.0927C33.1015 28.6989 33.3885 29.38 33.5356 30.0971C33.6827 30.8143 33.6871 31.5533 33.5484 32.2722ZM29.8599 21.9443C28.7779 21.7357 27.7821 21.2109 26.9983 20.4363C26.2145 19.6617 25.678 18.6721 25.4565 17.5927C25.2351 16.5132 25.3387 15.3923 25.7542 14.3717C26.1697 13.3511 26.8785 12.4766 27.791 11.8588C28.7034 11.241 29.7786 10.9076 30.8805 10.9007C31.9824 10.8939 33.0617 11.2139 33.9817 11.8203C34.9018 12.4267 35.6214 13.2923 36.0496 14.3077C36.4778 15.3231 36.5953 16.4426 36.3873 17.5247C36.2498 18.2442 35.9719 18.9295 35.5694 19.5415C35.1668 20.1535 34.6476 20.6801 34.0413 21.0912C33.4351 21.5023 32.7537 21.7898 32.0362 21.9373C31.3187 22.0849 30.5792 22.0895 29.8599 21.9509V21.9443Z" fill="#ED145B"/>
</svg>
