<svg width="94" height="81" viewBox="0 0 94 81" fill="none" xmlns="http://www.w3.org/2000/svg">
<path d="M91.5778 35.409C90.1985 34.0746 89.4195 32.2374 89.4195 30.3182V25.6908C89.4195 25.5121 89.3414 25.3423 89.2057 25.226L85.2311 21.8186C83.7351 20.5361 82.8152 18.7079 82.6767 16.7423C82.4151 13.0291 79.425 10.0941 75.7076 9.90166L74.1552 9.82128C72.1414 9.71701 70.2188 8.94861 68.6879 7.63614L67.3316 6.47345C65.5191 4.91958 63.2104 4.06545 60.823 4.06545H58.5238C56.4285 4.06545 54.3908 3.37923 52.7223 2.11172C49.2929 -0.493526 44.5472 -0.493122 41.1182 2.11256C39.4494 3.38059 37.4112 4.06714 35.3154 4.06714H33.017C30.6296 4.06714 28.3209 4.92128 26.5084 6.47514L25.1522 7.63784C23.6212 8.95031 21.6986 9.7187 19.6848 9.82298L18.1324 9.90335C14.415 10.0958 11.4249 13.0308 11.1633 16.744C11.0248 18.7096 10.1049 20.5378 8.60893 21.8203L4.63428 25.2277C4.49862 25.344 4.42054 25.5138 4.42054 25.6925V30.3202C4.42054 32.2391 3.64173 34.0759 2.26241 35.41C-0.615131 38.1933 -0.614178 42.8076 2.2634 45.5908C3.64311 46.9252 4.42252 48.7628 4.42252 50.6823V55.3092C4.42252 55.4879 4.5006 55.6577 4.63626 55.774L8.61091 59.1814C10.1069 60.4639 11.0268 62.2921 11.1653 64.2577C11.4269 67.9709 14.4169 70.9059 18.1344 71.0983L19.6868 71.1787C21.7006 71.283 23.6232 72.0514 25.1541 73.3638L26.5104 74.5265C28.3229 76.0804 30.6315 76.9345 33.019 76.9345H35.3185C37.4136 76.9345 39.4511 77.6208 41.1192 78.8884C44.5477 81.4935 49.2933 81.4927 52.7217 78.8876C54.3903 77.6196 56.4287 76.9329 58.5243 76.9329H60.823C63.2104 76.9329 65.5191 76.0787 67.3316 74.5248L68.6879 73.3622C70.2188 72.0497 72.1414 71.2813 74.1552 71.177L75.7076 71.0966C79.425 70.9042 82.4151 67.9692 82.6767 64.256C82.8152 62.2904 83.7351 60.4622 85.2311 59.1797L89.2057 55.7723C89.3414 55.656 89.4195 55.4862 89.4195 55.3075V50.6801C89.4195 48.761 90.1983 46.924 91.5778 45.5897C94.4554 42.8065 94.455 38.1926 91.5778 35.409ZM80.0229 60.2106C76.3874 60.2106 74.0799 56.3162 75.8261 53.1274L77.2349 50.5548C78.3019 48.6063 80.4121 47.4642 82.627 47.6366L83.1835 47.6799C85.8099 47.8843 87.8368 50.0751 87.8368 52.7094C87.8368 54.1819 87.1935 55.581 86.0755 56.5394L83.1372 59.0584C82.2699 59.8019 81.1653 60.2106 80.0229 60.2106ZM13.8171 20.7894C17.4526 20.7894 19.7601 24.6838 18.0139 27.8725L16.6051 30.4452C15.5381 32.3937 13.4279 33.5358 11.2131 33.3634L10.6565 33.3201C8.03013 33.1157 6.00317 30.9249 6.00317 28.2906C6.00317 26.8181 6.64655 25.419 7.76449 24.4606L10.7028 21.9416C11.5701 21.1981 12.6748 20.7894 13.8171 20.7894ZM31.9906 45.9559C30.688 45.9559 29.4285 45.4899 28.4396 44.6421C25.8997 42.4647 25.8997 38.5353 28.4396 36.3578C29.4285 35.5101 30.688 35.0441 31.9906 35.0441H37.4176C38.7202 35.0441 39.9797 35.5101 40.9686 36.3578C43.5085 38.5353 43.5085 42.4647 40.9686 44.6421C39.9797 45.4899 38.7202 45.9559 37.4176 45.9559H31.9906ZM25.6756 36.8067C23.8416 38.3794 21.1346 38.3797 19.3004 36.8072C17.5425 35.3002 17.0803 32.7679 18.1925 30.7371L18.3289 30.488C20.2857 26.9149 25.4802 27.1042 27.1717 30.8102C28.0873 32.8164 27.5651 35.1863 25.8912 36.6218L25.6756 36.8067ZM53.2841 31.1574C53.2841 33.015 52.4725 34.78 51.0622 35.989C48.6787 38.0324 45.1613 38.0324 42.7779 35.989C41.3675 34.78 40.5559 33.015 40.5559 31.1574V28.8974C40.5559 27.0397 41.3675 25.2748 42.7779 24.0657C45.1613 22.0224 48.6787 22.0224 51.0622 24.0657C52.4725 25.2748 53.2841 27.0397 53.2841 28.8974V31.1574ZM40.5559 49.8426C40.5559 47.985 41.3675 46.22 42.7779 45.011C45.1613 42.9676 48.6787 42.9676 51.0622 45.011C52.4725 46.22 53.2841 47.985 53.2841 49.8426V52.1026C53.2841 53.9603 52.4725 55.7252 51.0622 56.9343C48.6787 58.9776 45.1613 58.9776 42.7779 56.9343C41.3675 55.7252 40.5559 53.9603 40.5559 52.1026V49.8426ZM56.4224 45.9559C55.1198 45.9559 53.8603 45.4899 52.8714 44.6421C50.3315 42.4647 50.3315 38.5353 52.8714 36.3578C53.8603 35.5101 55.1198 35.0441 56.4224 35.0441H61.8494C63.152 35.0441 64.4115 35.5101 65.4005 36.3578C67.9403 38.5353 67.9403 42.4647 65.4005 44.6421C64.4115 45.4899 63.152 45.9559 61.8494 45.9559H56.4224ZM68.1644 44.1933C69.9984 42.6205 72.7054 42.6203 74.5396 44.1928C76.2975 45.6998 76.7597 48.2321 75.6475 50.2629L75.5111 50.512C73.5543 54.0851 68.3598 53.8958 66.6683 50.1897C65.7527 48.1836 66.2749 45.8137 67.9488 44.3782L68.1644 44.1933ZM67.9488 36.6235C66.2749 35.188 65.7527 32.8181 66.6683 30.8119C68.3598 27.1059 73.5543 26.9166 75.5111 30.4897L75.6475 30.7388C76.7597 32.7696 76.2975 35.3019 74.5396 36.8089C72.7054 38.3814 69.9984 38.3811 68.1644 36.8084L67.9488 36.6235ZM64.8887 30.987C64.138 32.6319 62.4962 33.6873 60.6881 33.6873H59.2495C56.829 33.6873 54.8668 31.7251 54.8668 29.3046C54.8668 27.4212 56.07 25.7484 57.8556 25.1495L59.2195 24.692C63.0493 23.4073 66.566 27.3122 64.8887 30.987ZM56.7657 24.0581C55.2174 24.5774 53.5101 24.2445 52.2703 23.1816L52.1198 23.0526C49.975 21.2139 49.975 17.8956 52.1198 16.0569C53.4248 14.9381 55.2441 14.6389 56.8387 15.2807L57.0227 15.3547C61.0239 16.9652 60.8549 22.6866 56.7657 24.0581ZM53.4086 12.2179C53.3477 12.7931 53.0692 13.3231 52.6301 13.6996L51.2883 14.8499C48.7747 17.0048 45.0653 17.0048 42.5517 14.8499L41.21 13.6996C40.7708 13.3232 40.4923 12.793 40.4315 12.2178C40.2158 10.179 42.6032 8.92492 44.1596 10.2595L45.1185 11.0819C46.1551 11.9708 47.685 11.9709 48.7217 11.0821L49.6811 10.2596C51.2374 8.92545 53.6242 10.1794 53.4086 12.2179ZM37.0032 15.2808C38.5979 14.6389 40.4172 14.9382 41.7223 16.057C43.867 17.8957 43.867 21.2138 41.7223 23.0525L41.5717 23.1816C40.3319 24.2445 38.6246 24.5773 37.0763 24.058C32.9873 22.6864 32.8184 16.9654 36.8192 15.3549L37.0032 15.2808ZM35.9844 25.1495C37.77 25.7484 38.9732 27.4212 38.9732 29.3046C38.9732 31.7251 37.0111 33.6873 34.5906 33.6873H33.1519C31.3438 33.6873 29.702 32.6319 28.9513 30.987C27.274 27.3122 30.7907 23.4073 34.6205 24.692L35.9844 25.1495ZM14.2373 34.9613C14.7164 34.9985 15.1713 35.1872 15.5362 35.5L16.3729 36.2173C18.9989 38.4686 18.9989 42.5314 16.3729 44.7827L15.5363 45.4999C15.1714 45.8128 14.7164 46.0015 14.2372 46.0387L14.0591 46.0525C11.9303 46.218 10.8303 43.5653 12.4516 42.1758C13.4794 41.2949 13.4795 39.705 12.4519 38.824C10.8309 37.4343 11.9309 34.782 14.0597 34.9475L14.2373 34.9613ZM19.3011 44.1913C21.1351 42.6196 23.8411 42.6198 25.6749 44.1918L25.8905 44.3767C27.5648 45.8121 28.0872 48.1822 27.1715 50.1885C25.4801 53.8943 20.2858 54.0836 18.3291 50.5107L18.1927 50.2616C17.0805 48.2306 17.5429 45.6982 19.3011 44.1913ZM28.9513 50.013C29.702 48.3681 31.3438 47.3127 33.152 47.3127H34.5906C37.0111 47.3127 38.9732 49.2749 38.9732 51.6954C38.9732 53.5788 37.77 55.2515 35.9844 55.8505L34.6205 56.308C30.7907 57.5927 27.274 53.6878 28.9513 50.013ZM37.0743 56.9419C38.6226 56.4226 40.3299 56.7555 41.5697 57.8183L41.7202 57.9474C43.865 59.7861 43.865 63.1044 41.7202 64.9431C40.4152 66.0619 38.5959 66.3611 37.0013 65.7193L36.8173 65.6453C32.8161 64.0348 32.9851 58.3134 37.0743 56.9419ZM40.4314 68.7821C40.4923 68.2069 40.7708 67.6769 41.2099 67.3004L42.5517 66.1501C45.0653 63.9952 48.7747 63.9952 51.2883 66.1501L52.6301 67.3004C53.0692 67.6768 53.3477 68.207 53.4086 68.7822C53.6242 70.821 51.2368 72.0751 49.6805 70.7405L48.7215 69.9181C47.6849 69.0292 46.155 69.0291 45.1183 69.9179L44.1589 70.7404C42.6026 72.0745 40.2158 70.8205 40.4314 68.7821ZM56.8368 65.7191C55.2422 66.3611 53.4228 66.0618 52.1178 64.943C49.973 63.1043 49.973 59.7862 52.1178 57.9475L52.2683 57.8184C53.5081 56.7555 55.2155 56.4227 56.7637 56.942C60.8527 58.3136 61.0216 64.0346 57.0208 65.6451L56.8368 65.7191ZM57.8556 55.8505C56.07 55.2515 54.8668 53.5788 54.8668 51.6954C54.8668 49.2749 56.829 47.3127 59.2494 47.3127H60.6881C62.4962 47.3127 64.138 48.3681 64.8887 50.013C66.566 53.6878 63.0493 57.5927 59.2195 56.308L57.8556 55.8505ZM79.6027 46.0387C79.1236 46.0015 78.6687 45.8128 78.3038 45.5L77.4671 44.7827C74.8411 42.5314 74.8411 38.4686 77.4671 36.2173L78.3038 35.5C78.6687 35.1872 79.1236 34.9985 79.6028 34.9613L79.7809 34.9474C81.9098 34.782 83.0097 37.4347 81.3884 38.8242C80.3606 39.7051 80.3605 41.295 81.3881 42.176C83.0091 43.5657 81.9091 46.218 79.7804 46.0525L79.6027 46.0387ZM85.5583 43.8313C83.5157 42.0801 83.5157 38.9199 85.5583 37.1687C87.278 35.6945 89.8371 35.7714 91.4651 37.3462C93.2478 39.0708 93.2478 41.9292 91.4651 43.6538C89.8371 45.2286 87.278 45.3055 85.5583 43.8313ZM87.8368 28.2906C87.8368 30.9249 85.8099 33.1157 83.1835 33.3201L82.627 33.3634C80.4121 33.5358 78.3019 32.3937 77.2349 30.4452L75.8261 27.8725C74.0799 24.6838 76.3874 20.7894 80.0229 20.7894C81.1653 20.7894 82.2699 21.1981 83.1372 21.9416L86.0755 24.4606C87.1935 25.419 87.8368 26.8181 87.8368 28.2906ZM80.9762 15.0969C81.1409 17.4407 79.2839 19.4326 76.9343 19.4326H75.581C73.324 19.4326 71.4942 17.6029 71.4942 15.3459C71.4942 13.006 73.455 11.1439 75.7917 11.2645L77.1433 11.3343C79.1881 11.4399 80.8328 13.0544 80.9762 15.0969ZM68.3928 9.3013C69.3568 10.1278 69.9116 11.3342 69.9116 12.604C69.9116 15.6856 66.7959 17.7903 63.9371 16.6397L58.1437 14.308C56.2326 13.5389 55.0639 11.5951 55.2808 9.54648C55.529 7.20166 57.5068 5.42222 59.8647 5.42222H61.493C63.0255 5.42222 64.5075 5.97052 65.6711 6.968L68.3928 9.3013ZM49.5509 1.5157C51.7573 3.19203 51.8543 6.47675 49.7505 8.28027C48.1218 9.67657 45.7182 9.67657 44.0895 8.28027C41.9857 6.47675 42.0827 3.19203 44.2891 1.5157C45.8441 0.334281 47.9959 0.33428 49.5509 1.5157ZM28.169 6.968C29.3325 5.97052 30.8145 5.42222 32.347 5.42222H33.9753C36.3332 5.42222 38.311 7.20166 38.5592 9.54647C38.7761 11.5951 37.6074 13.5389 35.6963 14.308L29.9029 16.6397C27.0441 17.7903 23.9284 15.6856 23.9284 12.604C23.9284 11.3342 24.4832 10.1278 25.4473 9.3013L28.169 6.968ZM18.0483 11.2645C20.385 11.1439 22.3458 13.006 22.3458 15.3459C22.3458 17.6029 20.5161 19.4326 18.259 19.4326H16.9057C14.5561 19.4326 12.6991 17.4407 12.8638 15.0969C13.0073 13.0544 14.652 11.4399 16.6968 11.3343L18.0483 11.2645ZM2.37496 37.3462C4.00293 35.7714 6.56206 35.6945 8.28168 37.1687C10.3243 38.9199 10.3243 42.0801 8.28168 43.8313C6.56206 45.3055 4.00293 45.2286 2.37496 43.6538C0.592178 41.9292 0.592178 39.0708 2.37496 37.3462ZM6.00317 52.7094C6.00317 50.0751 8.03013 47.8843 10.6565 47.6799L11.2131 47.6366C13.4279 47.4642 15.5381 48.6063 16.6051 50.5548L18.0139 53.1274C19.7601 56.3162 17.4526 60.2106 13.8171 60.2106C12.6748 60.2106 11.5701 59.8019 10.7028 59.0584L7.7645 56.5394C6.64655 55.581 6.00317 54.1819 6.00317 52.7094ZM12.8638 65.9031C12.6991 63.5593 14.5561 61.5674 16.9057 61.5674H18.259C20.5161 61.5674 22.3458 63.3971 22.3458 65.6541C22.3458 67.9939 20.385 69.8561 18.0483 69.7355L16.6968 69.6657C14.652 69.5601 13.0073 67.9456 12.8638 65.9031ZM25.4473 71.6987C24.4832 70.8722 23.9284 69.6658 23.9284 68.396C23.9284 65.3144 27.0441 63.2097 29.9029 64.3603L35.6963 66.6919C37.6074 67.4611 38.7761 69.4049 38.5592 71.4535C38.311 73.7983 36.3332 75.5778 33.9753 75.5778H32.347C30.8145 75.5778 29.3325 75.0295 28.169 74.032L25.4473 71.6987ZM44.2891 79.4843C42.0827 77.808 41.9857 74.5232 44.0895 72.7197C45.7182 71.3234 48.1218 71.3234 49.7505 72.7197C51.8543 74.5232 51.7573 77.808 49.5509 79.4843C47.9959 80.6657 45.8441 80.6657 44.2891 79.4843ZM65.6711 74.032C64.5075 75.0295 63.0255 75.5778 61.493 75.5778H59.8647C57.5068 75.5778 55.529 73.7983 55.2808 71.4535C55.0639 69.4049 56.2326 67.4611 58.1437 66.6919L63.9371 64.3603C66.7959 63.2097 69.9116 65.3144 69.9116 68.396C69.9116 69.6658 69.3568 70.8722 68.3928 71.6987L65.6711 74.032ZM75.7917 69.7355C73.455 69.8561 71.4942 67.9939 71.4942 65.6541C71.4942 63.3971 73.324 61.5674 75.581 61.5674H76.9343C79.2839 61.5674 81.1409 63.5593 80.9762 65.9031C80.8328 67.9456 79.188 69.5601 77.1432 69.6657L75.7917 69.7355Z" fill="#CC8A21" fill-opacity="0.18"/>
</svg>
