<svg width="52" height="52" viewBox="0 0 52 52" fill="none" xmlns="http://www.w3.org/2000/svg">
<path d="M40.5 19.9655V21.2488C39.5352 21.4817 38.8333 22.3741 38.8333 23.4138V40.6552C38.8333 41.497 39.2915 42.2395 39.9776 42.6167C39.3332 43.73 38.1613 44.4655 36.8333 44.4655H32.6389C31.8632 42.9351 30.3063 41.8793 28.5 41.8793H25.1667C22.5735 41.8793 20.5 44.0491 20.5 46.6897C20.5 49.3302 22.5735 51.5 25.1667 51.5H28.5C30.3063 51.5 31.8632 50.4442 32.6389 48.9138H36.8333C40.5926 48.9138 43.7296 46.2424 44.5956 42.6611C48.5571 41.7501 51.5 38.1008 51.5 33.7586V30.3103C51.5 26.0553 48.6743 22.466 44.8333 21.4661V19.9655C44.8333 9.23109 36.4172 0.5 26 0.5C15.5828 0.5 7.16667 9.23109 7.16667 19.9655V21.4661C3.32575 22.466 0.5 26.0553 0.5 30.3103V33.7586C0.5 38.7797 4.43897 42.8793 9.33333 42.8793H11C12.2125 42.8793 13.1667 41.8674 13.1667 40.6552V23.4138C13.1667 22.3741 12.4648 21.4817 11.5 21.2488V19.9655C11.5 11.6556 18.0077 4.94828 26 4.94828C33.9923 4.94828 40.5 11.6556 40.5 19.9655ZM47.1667 33.7586C47.1667 36.1776 45.4043 38.1447 43.1667 38.4024V25.6666C45.4043 25.9243 47.1667 27.8913 47.1667 30.3103V33.7586ZM8.83333 38.4024C6.59564 38.1447 4.83333 36.1776 4.83333 33.7586V30.3103C4.83333 27.8913 6.59564 25.9243 8.83333 25.6666V38.4024ZM28.5 46.3276C28.6683 46.3276 28.8333 46.4736 28.8333 46.6897C28.8333 46.9057 28.6683 47.0517 28.5 47.0517H25.1667C24.9984 47.0517 24.8333 46.9057 24.8333 46.6897C24.8333 46.4736 24.9984 46.3276 25.1667 46.3276H28.5Z" fill="#003C43" stroke="#003C43"/>
</svg>
