<svg width="80" height="80" viewBox="0 0 80 80" fill="none" xmlns="http://www.w3.org/2000/svg">
<path d="M16.1613 46.3235L16.8214 47.4954L16.8918 47.6165C18.7551 50.179 21.7238 51.7063 24.8918 51.7337H27.9816V55.2454C28.0128 58.4173 29.5441 61.386 32.1144 63.2454L32.2237 63.3235L33.4737 64.0227V64.0266C35.9425 65.1672 37.919 67.1594 39.044 69.636C39.044 69.6946 39.1143 69.7376 39.1456 69.7845V69.8431L39.1417 69.847C39.2237 69.9329 39.3175 70.0071 39.4229 70.0657H39.6222C39.7042 70.0735 39.7901 70.0735 39.8722 70.0657C39.9542 70.0735 40.0401 70.0735 40.1222 70.0657H40.3214C40.4269 70.0071 40.5206 69.9329 40.6026 69.847V69.7884C40.6026 69.7376 40.6729 69.6985 40.7042 69.6399V69.636C41.8761 67.1126 43.9347 65.1087 46.4815 63.9954L47.6534 63.3353L47.7628 63.2571C50.3292 61.3938 51.8605 58.4251 51.8917 55.2571V51.7337H54.9425C58.1105 51.7064 61.0792 50.179 62.9425 47.6165L63.0128 47.4955L63.712 46.2572C64.8565 43.7845 66.8526 41.808 69.3331 40.6869C69.4347 40.6283 69.5245 40.554 69.6026 40.4642V40.4056C69.6026 40.4056 69.6729 40.3158 69.7042 40.2572V40.1868C69.7901 40.1361 69.8721 40.0697 69.9425 39.9954C69.9464 39.9329 69.9464 39.8704 69.9425 39.804C69.9464 39.7454 69.9464 39.6868 69.9425 39.6243C69.9464 39.5618 69.9464 39.4993 69.9425 39.4368V39.3665C69.9229 39.3353 69.8995 39.304 69.8722 39.2767C69.8331 39.2181 69.7901 39.1634 69.7432 39.1165C69.6964 39.0657 69.6456 39.0228 69.5909 38.9837C69.5597 38.9642 69.5323 38.9407 69.5011 38.9173C66.9972 37.7728 64.9894 35.7689 63.8409 33.265L63.1807 32.1048L62.9932 31.9954C61.1299 29.4329 58.1612 27.9016 54.9932 27.8743H51.9424V24.7727V24.7766C51.9111 21.6047 50.3799 18.636 47.8135 16.7766L47.7041 16.6985L46.4033 15.9954C43.9345 14.8548 41.9541 12.8626 40.833 10.386C40.8096 10.3547 40.79 10.3235 40.7627 10.2961C40.7275 10.2375 40.6885 10.1829 40.6416 10.136C40.5947 10.0852 40.5401 10.0461 40.4815 10.0149L40.3916 9.93677H40.3213L40.1221 9.87817H39.7627V9.87427C39.6924 9.88989 39.626 9.90942 39.5635 9.93677H39.4932L39.4033 10.0071L39.2432 10.136C39.1963 10.1829 39.1572 10.2376 39.1221 10.2962C39.0947 10.3235 39.0752 10.3547 39.0518 10.386C37.9034 12.8743 35.8995 14.8626 33.4034 15.9954L32.2315 16.6556L32.1221 16.7337C29.5557 18.597 28.0244 21.5657 27.9932 24.7337V27.8353H24.9424C21.7666 27.8743 18.7979 29.4173 16.9424 31.9955L16.8721 32.1166L16.1729 33.3549C15.0284 35.8276 13.0323 37.8041 10.5518 38.9252C10.5244 38.9525 10.4932 38.9759 10.4619 38.9955C10.4072 39.0345 10.3564 39.0775 10.3135 39.1244C10.2627 39.1752 10.2197 39.2259 10.1807 39.2845C10.1572 39.3119 10.1338 39.3431 10.1143 39.3744C10.1104 39.3978 10.1104 39.4213 10.1143 39.4447C10.0908 39.5072 10.0713 39.5697 10.0635 39.6361C10.0557 39.6947 10.0557 39.7572 10.0635 39.8158C10.0557 39.8783 10.0557 39.9408 10.0635 40.0072C10.0713 40.0697 10.0908 40.1322 10.1143 40.1947C10.1104 40.2182 10.1104 40.2416 10.1143 40.265C10.1143 40.3236 10.1846 40.3666 10.2158 40.4135L10.2666 40.4721L10.2627 40.476C10.3408 40.5619 10.4307 40.6361 10.5322 40.6947C13.0205 41.8392 15.0207 43.8352 16.1613 46.3235ZM17.9425 34.2335L18.5636 33.1241C20.0519 31.0811 22.4152 29.8624 24.9425 29.835H29.0323C29.2979 29.835 29.5518 29.7295 29.7393 29.542C29.9268 29.3545 30.0323 29.1006 30.0323 28.835V24.7452C30.0596 22.2179 31.2784 19.8546 33.3214 18.3663L34.3214 17.7882V17.7843C36.6573 16.714 38.6222 14.9757 39.962 12.7843C41.2901 14.9405 43.2237 16.6593 45.5206 17.7257L46.6222 18.3468C48.6808 19.8312 49.9152 22.2062 49.9425 24.7452V28.8349C49.9425 29.1006 50.0479 29.3545 50.2354 29.542C50.4229 29.7295 50.6769 29.8349 50.9425 29.8349H54.9425C57.4698 29.8623 59.8331 31.0811 61.3214 33.1241L61.8995 34.1241H61.9034C62.9698 36.4561 64.712 38.4171 66.9034 39.7569C64.7315 41.085 63.005 43.0302 61.9425 45.3466L61.3214 46.4561C59.8331 48.4991 57.4698 49.7178 54.9425 49.7452H50.9425C50.3917 49.7452 49.9425 50.1944 49.9425 50.7452C49.9347 50.8272 49.9347 50.9131 49.9425 50.9952C49.9386 51.0655 49.9386 51.1358 49.9425 51.2061V55.2959C49.9152 57.8232 48.6964 60.1865 46.6534 61.6748L45.6534 62.2529V62.2568C43.3175 63.3271 41.3565 65.0654 40.0128 67.2568C38.6847 65.1006 36.7511 63.3818 34.4542 62.3154L33.3526 61.6943C31.3096 60.206 30.0909 57.8427 30.0635 55.3154V51.1552C30.0284 51.1005 29.9854 51.0458 29.9424 50.9951C29.9463 50.9248 29.9463 50.8544 29.9424 50.7841C29.9424 50.5185 29.837 50.2646 29.6495 50.0771C29.462 49.8896 29.208 49.7841 28.9424 49.7841H24.9424C22.4151 49.7568 20.0518 48.538 18.5635 46.495L17.9854 45.495H17.9815C16.9112 43.163 15.169 41.1981 12.9815 39.8544C15.1612 38.5185 16.8878 36.5616 17.9425 34.2335Z" fill="black" fill-opacity="0.1"/>
<path d="M0.294556 40.6676C0.329713 40.6871 0.368774 40.7105 0.403935 40.734L11.1929 51.527V67.715C11.1968 67.8868 11.2476 68.0509 11.3336 68.1954C11.4898 68.5665 11.8531 68.8048 12.2515 68.8048H28.4425L39.2315 79.5978C39.255 79.633 39.2784 79.672 39.3018 79.7072C39.4893 79.8947 39.7471 79.9963 40.0128 79.9963C40.2784 79.9963 40.5362 79.8869 40.7237 79.6955L51.5007 68.8245L67.6997 68.7464H67.7036C67.9653 68.7464 68.2232 68.6409 68.4107 68.4534C68.5982 68.2659 68.7036 68.012 68.7036 67.7464V51.5274L79.4806 40.7344C79.5158 40.7109 79.5549 40.6875 79.59 40.6679C79.7814 40.4765 79.8869 40.2226 79.8869 39.957C79.8869 39.6914 79.7814 39.4336 79.59 39.2461L68.703 28.4651L68.6327 12.5351C68.6679 12.4413 68.6874 12.3437 68.6913 12.246C68.6913 11.9804 68.5858 11.7265 68.3983 11.539C68.2108 11.3515 67.9569 11.246 67.6913 11.246L51.4923 11.1679L40.7223 0.29688C40.5348 0.10547 40.277 0 40.0113 0C39.7457 0 39.4879 0.10547 39.3004 0.29688C39.277 0.332037 39.2535 0.367193 39.2301 0.40626L28.4411 11.1873H12.2501C11.6993 11.1873 11.2501 11.6326 11.2501 12.1873V12.238L11.1798 28.437L0.30078 39.246C0.10937 39.4335 0.0039 39.6875 0 39.9531C0 40.2187 0.101561 40.4765 0.292971 40.6679L0.294556 40.6676ZM12.8846 29.5976C13.0721 29.4062 13.1736 29.1522 13.1736 28.8866L13.2439 13.1756H28.8649C29.1266 13.1756 29.3766 13.0702 29.5641 12.8866L40.0211 2.42556L50.3731 12.8666C50.5606 13.058 50.8146 13.1634 51.0841 13.1673L66.6431 13.2377L66.7134 28.8857C66.7134 29.1513 66.815 29.4052 67.0025 29.5966L77.4435 39.9946L66.9945 50.4046C66.807 50.5882 66.6976 50.8421 66.6937 51.1038V66.7558L51.0847 66.8261V66.8222C50.8151 66.8261 50.5612 66.9316 50.3737 67.123L40.0217 77.564L29.5647 67.103C29.3772 66.9194 29.1272 66.8139 28.8655 66.8139H13.1935V51.1029C13.1896 50.8412 13.0802 50.5873 12.8927 50.4037L2.44374 39.9937L12.8846 29.5976Z" fill="black" fill-opacity="0.1"/>
</svg>
