<svg width="1367" height="348" viewBox="0 0 1367 348" fill="none" xmlns="http://www.w3.org/2000/svg">
<g filter="url(#filter0_d_543_1557)">
<rect x="22" y="10" width="1329" height="310" rx="15" fill="white" shape-rendering="crispEdges"/>
<path d="M153.759 268.746C153.408 269.065 152.994 269.456 152.519 269.918C152.278 270.153 151.914 270.566 151.425 271.158C151.048 270.703 150.667 270.267 150.283 269.85C150.081 269.635 149.655 269.277 149.004 268.776C149.407 268.437 149.814 268.066 150.224 267.662C150.452 267.441 150.826 266.998 151.347 266.334C151.731 266.79 152.08 267.187 152.392 267.526C152.633 267.786 153.089 268.193 153.759 268.746Z" fill="black"/>
<path d="M240.102 269.869C240.102 270.97 240.004 271.953 239.809 272.819C239.594 273.776 239.321 274.254 238.988 274.254C238.78 274.254 238.65 274.039 238.598 273.61C238.578 273.447 238.569 273.063 238.569 272.457C238.569 269.111 237.725 266.233 236.039 263.824C236.228 263.512 236.742 262.714 237.582 261.432C237.966 261.692 238.422 262.451 238.949 263.707C239.718 265.53 240.102 267.584 240.102 269.869Z" fill="black"/>
<path d="M330.324 261.949C330.324 263.05 330.034 263.968 329.455 264.703C328.823 265.498 327.97 265.895 326.896 265.895C326.779 265.895 326.665 265.888 326.554 265.875C326.964 267.431 327.17 269.134 327.17 270.983C327.17 273.138 326.854 274.215 326.222 274.215C325.994 274.215 325.848 273.886 325.783 273.229C325.77 272.819 325.754 272.405 325.734 271.989C325.662 271.071 325.48 270.058 325.187 268.951C324.77 267.376 323.953 265.641 322.736 263.746L324.152 261.334C324.328 261.543 324.647 261.914 325.109 262.448C325.61 262.994 326.278 263.268 327.111 263.268C327.768 263.268 328.296 263.102 328.693 262.77C328.921 262.581 329.145 262.278 329.367 261.862C329.543 261.53 329.699 261.364 329.836 261.364C330.161 261.364 330.324 261.559 330.324 261.949Z" fill="black"/>
<path d="M418.523 262.242C418.523 262.991 418.367 263.717 418.054 264.42C417.657 265.319 417.117 265.768 416.433 265.768C416.069 265.768 415.795 265.729 415.613 265.651C415.437 265.566 415.235 265.384 415.007 265.104C414.578 265.748 413.982 266.087 413.22 266.119C413.657 267.415 413.875 268.994 413.875 270.856C413.875 271.696 413.81 272.421 413.679 273.033C413.51 273.828 413.269 274.225 412.957 274.225C412.703 274.225 412.543 273.909 412.478 273.278C412.459 272.861 412.442 272.444 412.429 272.028C412.358 271.097 412.156 270.022 411.824 268.805C411.29 266.839 410.47 265.182 409.363 263.834L410.798 261.305C410.961 261.435 411.166 261.712 411.414 262.135C411.681 262.584 411.889 262.88 412.039 263.024C412.338 263.317 412.677 263.463 413.054 263.463C413.556 263.463 413.914 263.284 414.129 262.926C414.22 262.776 414.321 262.448 414.431 261.94C414.509 261.582 414.646 261.403 414.841 261.403C415.102 261.403 415.265 261.565 415.33 261.891C415.44 262.457 415.502 262.753 415.515 262.78C415.671 263.105 415.987 263.268 416.463 263.268C416.834 263.268 417.117 263.102 417.312 262.77C417.384 262.653 417.494 262.35 417.644 261.862C417.748 261.53 417.875 261.364 418.025 261.364C418.357 261.364 418.523 261.656 418.523 262.242Z" fill="black"/>
<path d="M506.761 264.606C506.761 265.224 506.446 265.852 505.814 266.49C505.091 267.226 504.229 267.594 503.226 267.594C503.005 267.594 502.78 267.574 502.552 267.535C502.8 268.929 502.923 269.798 502.923 270.143C502.923 270.989 502.881 271.77 502.796 272.487C502.647 273.763 502.386 274.401 502.015 274.401C501.696 274.401 501.511 273.961 501.459 273.082C501.354 271.455 501.237 270.306 501.107 269.635C500.703 267.584 499.932 265.82 498.793 264.342C499.092 263.776 499.574 262.926 500.238 261.793C500.589 262.08 501.035 262.659 501.576 263.531C502.253 262.229 503.171 261.578 504.33 261.578C504.818 261.578 505.27 261.774 505.687 262.164C506.032 262.49 506.205 262.74 506.205 262.916C506.205 263.183 506.12 263.317 505.951 263.317C505.801 263.317 505.541 263.261 505.17 263.151C504.798 263.04 504.512 262.985 504.31 262.985C503.77 262.985 503.35 263.157 503.05 263.502C502.816 263.776 502.699 264.078 502.699 264.41C502.699 264.489 502.712 264.563 502.738 264.635C502.959 265.24 503.513 265.543 504.398 265.543C504.997 265.543 505.531 265.348 506 264.957C506.41 264.612 506.631 264.44 506.664 264.44C506.729 264.44 506.761 264.495 506.761 264.606Z" fill="black"/>
<path d="M594.98 270.631C594.98 271.562 594.788 272.337 594.404 272.955C593.948 273.691 593.281 274.059 592.402 274.059C591.692 274.059 591.155 273.714 590.791 273.024C590.276 273.818 589.609 274.215 588.789 274.215C588.046 274.215 587.467 273.951 587.05 273.424C586.673 272.942 586.484 272.321 586.484 271.559C586.484 270.726 586.855 269.453 587.597 267.74C588.17 266.419 588.74 265.289 589.306 264.352L588.925 263.912L589.941 261.559C590 261.416 590.058 261.344 590.117 261.344C590.162 261.344 590.231 261.403 590.322 261.52C591.865 263.473 592.981 265.078 593.671 266.334C594.544 267.929 594.98 269.362 594.98 270.631ZM593.691 270.719C593.691 270.166 593.213 269.202 592.255 267.828C591.448 266.67 590.713 265.755 590.048 265.084C589.664 265.781 589.248 266.715 588.798 267.887C588.304 269.176 588.056 270.039 588.056 270.475C588.056 271.25 588.414 271.637 589.13 271.637C589.599 271.637 589.928 271.49 590.117 271.198C590.188 271.093 590.283 270.82 590.4 270.377C590.478 270.084 590.621 269.938 590.83 269.938C591.09 269.938 591.259 270.078 591.338 270.358C591.468 270.826 591.549 271.087 591.582 271.139C591.764 271.419 592.112 271.559 592.627 271.559C593.336 271.559 593.691 271.279 593.691 270.719Z" fill="black"/>
<path d="M683.17 265.162C683.13 265.429 683.023 265.895 682.847 266.559C682.652 267.321 682.512 267.734 682.427 267.799C682.278 267.851 682.007 267.949 681.617 268.092C680.504 268.522 679.267 269.606 677.906 271.344C677.372 272.021 676.864 272.75 676.382 273.531C676.142 273.922 675.936 274.117 675.767 274.117C675.611 274.117 675.533 273.948 675.533 273.61C675.533 273.571 675.539 273.486 675.552 273.356C675.637 272.516 675.979 271.51 676.578 270.338C676.851 269.804 677.372 269.062 678.14 268.112C676.695 267.76 675.972 266.923 675.972 265.602C675.972 264.944 676.35 264.173 677.105 263.287C678.166 262.05 679.088 261.432 679.869 261.432C680.331 261.432 680.793 261.621 681.255 261.998C681.737 262.395 681.978 262.819 681.978 263.268C681.978 263.515 681.913 263.639 681.783 263.639C681.633 263.639 681.314 263.561 680.826 263.405C680.338 263.248 679.963 263.17 679.703 263.17C679.052 263.17 678.508 263.365 678.072 263.756C677.707 264.082 677.525 264.41 677.525 264.742C677.525 265.198 677.795 265.573 678.336 265.865C678.791 266.113 679.263 266.237 679.752 266.237C680.064 266.237 680.666 265.983 681.558 265.475C682.45 264.967 682.951 264.713 683.062 264.713C683.179 264.713 683.215 264.863 683.17 265.162Z" fill="black"/>
<path d="M770.626 264.235C769.421 265.739 768.507 267.343 767.882 269.049C767.647 269.687 767.351 270.813 766.993 272.428C766.752 273.522 766.521 274.069 766.3 274.069C766.033 274.069 765.805 273.665 765.616 272.858C765.252 271.321 764.906 270.101 764.581 269.196C763.884 267.281 762.94 265.66 761.749 264.332L762.647 261.588C762.706 261.406 762.758 261.315 762.804 261.315C762.843 261.315 762.918 261.377 763.028 261.5C763.738 262.295 764.412 263.505 765.05 265.133C765.59 266.513 765.994 267.864 766.261 269.186C766.475 267.916 766.817 266.627 767.286 265.319C767.885 263.645 768.559 262.366 769.308 261.481C769.399 261.37 769.467 261.315 769.513 261.315C769.552 261.315 769.604 261.406 769.669 261.588L770.626 264.235Z" fill="black"/>
<path d="M850.76 271.168C851.965 269.671 852.879 268.069 853.504 266.364C853.739 265.719 854.035 264.589 854.393 262.975C854.634 261.881 854.865 261.334 855.087 261.334C855.353 261.334 855.581 261.741 855.77 262.555C856.122 264.065 856.467 265.283 856.805 266.207C857.515 268.141 858.459 269.765 859.637 271.08L858.739 273.824C858.68 274.007 858.628 274.098 858.583 274.098C858.544 274.098 858.465 274.033 858.348 273.903C857.639 273.108 856.965 271.897 856.327 270.27C855.793 268.896 855.393 267.548 855.126 266.227C854.911 267.49 854.566 268.776 854.09 270.084C853.491 271.744 852.818 273.024 852.069 273.922C851.978 274.033 851.913 274.088 851.874 274.088C851.828 274.088 851.773 274 851.708 273.824L850.76 271.168Z" fill="black"/>
<path d="M947.827 271.51L947.026 274.254C945.926 273.44 945.213 272.321 944.887 270.895C944.744 270.263 944.676 269.316 944.682 268.053C944.142 268.105 943.706 268.131 943.374 268.131C941.362 268.131 940.356 267.461 940.356 266.119C940.356 265.442 940.571 264.583 941.001 263.541C941.593 262.102 942.368 261.383 943.325 261.383C945.232 261.383 946.186 262.929 946.186 266.022C946.186 267.799 946.372 269.13 946.743 270.016C946.932 270.465 947.293 270.963 947.827 271.51ZM944.409 265.455C944.402 265.045 944.246 264.694 943.94 264.401C943.634 264.108 943.276 263.961 942.866 263.961C942.521 263.961 942.247 264.072 942.046 264.293C941.896 264.462 941.821 264.638 941.821 264.821C941.821 265.315 942.212 265.563 942.993 265.563C943.768 265.563 944.24 265.527 944.409 265.455Z" fill="black"/>
<path d="M1033.39 269.869C1033.39 270.97 1033.3 271.953 1033.1 272.819C1032.89 273.776 1032.61 274.254 1032.28 274.254C1032.07 274.254 1031.94 274.039 1031.89 273.61C1031.87 273.447 1031.86 273.063 1031.86 272.457C1031.86 269.111 1031.02 266.233 1029.33 263.824C1029.52 263.512 1030.03 262.714 1030.87 261.432C1031.26 261.692 1031.71 262.451 1032.24 263.707C1033.01 265.53 1033.39 267.584 1033.39 269.869ZM1040.82 268.746C1040.46 269.065 1040.05 269.456 1039.58 269.918C1039.34 270.153 1038.97 270.566 1038.48 271.158C1038.1 270.703 1037.72 270.267 1037.34 269.85C1037.14 269.635 1036.71 269.277 1036.06 268.776C1036.46 268.437 1036.87 268.066 1037.28 267.662C1037.51 267.441 1037.88 266.998 1038.4 266.334C1038.79 266.79 1039.14 267.187 1039.45 267.526C1039.69 267.786 1040.15 268.193 1040.82 268.746Z" fill="black"/>
<path d="M1115.87 269.869C1115.87 270.97 1115.77 271.953 1115.58 272.819C1115.36 273.776 1115.09 274.254 1114.76 274.254C1114.55 274.254 1114.42 274.039 1114.37 273.61C1114.35 273.447 1114.34 273.063 1114.34 272.457C1114.34 269.111 1113.5 266.233 1111.81 263.824C1112 263.512 1112.51 262.714 1113.35 261.432C1113.74 261.692 1114.19 262.451 1114.72 263.707C1115.49 265.53 1115.87 267.584 1115.87 269.869ZM1122.77 269.869C1122.77 270.97 1122.67 271.953 1122.47 272.819C1122.26 273.776 1121.99 274.254 1121.65 274.254C1121.45 274.254 1121.32 274.039 1121.26 273.61C1121.24 273.447 1121.23 273.063 1121.23 272.457C1121.23 269.111 1120.39 266.233 1118.7 263.824C1118.89 263.512 1119.41 262.714 1120.25 261.432C1120.63 261.692 1121.09 262.451 1121.61 263.707C1122.38 265.53 1122.77 267.584 1122.77 269.869Z" fill="black"/>
<path d="M148.479 51V243" stroke="black"/>
<path d="M138.742 243H148.479" stroke="black"/>
<path d="M129.418 242.034C129.066 242.353 128.653 242.744 128.177 243.206C127.936 243.44 127.572 243.854 127.084 244.446C126.706 243.991 126.325 243.554 125.941 243.138C125.739 242.923 125.313 242.565 124.662 242.063C125.065 241.725 125.472 241.354 125.882 240.95C126.11 240.729 126.485 240.286 127.005 239.622C127.39 240.078 127.738 240.475 128.05 240.813C128.291 241.074 128.747 241.481 129.418 242.034Z" fill="black"/>
<path d="M138.743 195H148.48" stroke="black"/>
<path d="M115.209 195.919C115.209 196.85 115.017 197.625 114.633 198.243C114.177 198.979 113.51 199.347 112.631 199.347C111.921 199.347 111.384 199.002 111.02 198.312C110.505 199.106 109.838 199.503 109.018 199.503C108.276 199.503 107.696 199.239 107.279 198.712C106.902 198.23 106.713 197.608 106.713 196.847C106.713 196.013 107.084 194.741 107.826 193.028C108.399 191.707 108.969 190.577 109.535 189.64L109.154 189.2L110.17 186.847C110.229 186.703 110.287 186.632 110.346 186.632C110.391 186.632 110.46 186.69 110.551 186.808C112.094 188.761 113.21 190.366 113.901 191.622C114.773 193.217 115.209 194.649 115.209 195.919ZM113.92 196.007C113.92 195.453 113.442 194.49 112.484 193.116C111.677 191.957 110.942 191.043 110.277 190.372C109.893 191.069 109.477 192.003 109.027 193.175C108.533 194.464 108.285 195.326 108.285 195.763C108.285 196.537 108.643 196.925 109.359 196.925C109.828 196.925 110.157 196.778 110.346 196.485C110.417 196.381 110.512 196.108 110.629 195.665C110.707 195.372 110.85 195.226 111.059 195.226C111.319 195.226 111.488 195.366 111.567 195.646C111.697 196.114 111.778 196.375 111.811 196.427C111.993 196.707 112.341 196.847 112.856 196.847C113.565 196.847 113.92 196.567 113.92 196.007ZM122.25 194.034C121.899 194.353 121.485 194.744 121.01 195.206C120.769 195.44 120.404 195.854 119.916 196.446C119.539 195.991 119.158 195.554 118.774 195.138C118.572 194.923 118.145 194.565 117.494 194.063C117.898 193.725 118.305 193.354 118.715 192.95C118.943 192.729 119.317 192.286 119.838 191.622C120.222 192.078 120.57 192.475 120.883 192.813C121.124 193.074 121.58 193.481 122.25 194.034ZM129.418 194.034C129.067 194.353 128.653 194.744 128.178 195.206C127.937 195.44 127.572 195.854 127.084 196.446C126.706 195.991 126.326 195.554 125.942 195.138C125.74 194.923 125.313 194.565 124.662 194.063C125.066 193.725 125.473 193.354 125.883 192.95C126.111 192.729 126.485 192.286 127.006 191.622C127.39 192.078 127.738 192.475 128.051 192.813C128.292 193.074 128.748 193.481 129.418 194.034Z" fill="black"/>
<path d="M138.743 147H148.48" stroke="black"/>
<path d="M107.66 147.157C107.66 148.257 107.563 149.241 107.367 150.106C107.153 151.063 106.879 151.542 106.547 151.542C106.339 151.542 106.209 151.327 106.157 150.897C106.137 150.735 106.127 150.351 106.127 149.745C106.127 146.399 105.284 143.521 103.598 141.112C103.787 140.8 104.301 140.002 105.141 138.72C105.525 138.98 105.981 139.739 106.508 140.995C107.276 142.818 107.66 144.872 107.66 147.157ZM115.082 146.034C114.731 146.353 114.317 146.744 113.842 147.206C113.601 147.44 113.237 147.854 112.748 148.446C112.371 147.991 111.99 147.554 111.606 147.138C111.404 146.923 110.978 146.565 110.326 146.063C110.73 145.725 111.137 145.354 111.547 144.95C111.775 144.729 112.149 144.286 112.67 143.622C113.054 144.078 113.403 144.475 113.715 144.813C113.956 145.074 114.412 145.481 115.082 146.034ZM122.25 146.034C121.899 146.353 121.485 146.744 121.01 147.206C120.769 147.44 120.405 147.854 119.916 148.446C119.539 147.991 119.158 147.554 118.774 147.138C118.572 146.923 118.145 146.565 117.494 146.063C117.898 145.725 118.305 145.354 118.715 144.95C118.943 144.729 119.317 144.286 119.838 143.622C120.222 144.078 120.571 144.475 120.883 144.813C121.124 145.074 121.58 145.481 122.25 146.034ZM129.418 146.034C129.067 146.353 128.653 146.744 128.178 147.206C127.937 147.44 127.573 147.854 127.084 148.446C126.707 147.991 126.326 147.554 125.942 147.138C125.74 146.923 125.313 146.565 124.662 146.063C125.066 145.725 125.473 145.354 125.883 144.95C126.111 144.729 126.485 144.286 127.006 143.622C127.39 144.078 127.739 144.475 128.051 144.813C128.292 145.074 128.748 145.481 129.418 146.034Z" fill="black"/>
<path d="M138.742 99H148.479" stroke="black"/>
<path d="M104.066 99.1572C104.066 100.257 103.968 101.241 103.773 102.106C103.558 103.063 103.285 103.542 102.953 103.542C102.744 103.542 102.614 103.327 102.562 102.897C102.543 102.735 102.533 102.351 102.533 101.745C102.533 98.3988 101.69 95.5212 100.004 93.1123C100.192 92.7998 100.707 92.0023 101.547 90.7197C101.931 90.9801 102.386 91.7386 102.914 92.9951C103.682 94.818 104.066 96.8721 104.066 99.1572ZM115.209 99.9189C115.209 100.85 115.017 101.625 114.632 102.243C114.177 102.979 113.509 103.347 112.63 103.347C111.921 103.347 111.384 103.002 111.019 102.312C110.505 103.106 109.838 103.503 109.017 103.503C108.275 103.503 107.696 103.239 107.279 102.712C106.901 102.23 106.713 101.608 106.713 100.847C106.713 100.013 107.084 98.7406 107.826 97.0283C108.399 95.7067 108.968 94.5771 109.535 93.6396L109.154 93.2002L110.17 90.8467C110.228 90.7035 110.287 90.6318 110.345 90.6318C110.391 90.6318 110.459 90.6904 110.55 90.8076C112.093 92.7607 113.21 94.3656 113.9 95.6221C114.772 97.2171 115.209 98.6494 115.209 99.9189ZM113.92 100.007C113.92 99.4535 113.441 98.4899 112.484 97.1162C111.677 95.9574 110.941 95.0426 110.277 94.3721C109.893 95.0687 109.476 96.0029 109.027 97.1748C108.532 98.4639 108.285 99.3265 108.285 99.7627C108.285 100.537 108.643 100.925 109.359 100.925C109.828 100.925 110.157 100.778 110.345 100.485C110.417 100.381 110.511 100.108 110.629 99.665C110.707 99.3721 110.85 99.2256 111.058 99.2256C111.319 99.2256 111.488 99.3656 111.566 99.6455C111.696 100.114 111.778 100.375 111.81 100.427C111.992 100.707 112.341 100.847 112.855 100.847C113.565 100.847 113.92 100.567 113.92 100.007ZM122.25 98.0342C121.898 98.3532 121.485 98.7438 121.009 99.2061C120.769 99.4404 120.404 99.8538 119.916 100.446C119.538 99.9906 119.157 99.5544 118.773 99.1377C118.571 98.9229 118.145 98.5648 117.494 98.0635C117.897 97.7249 118.304 97.3538 118.714 96.9502C118.942 96.7288 119.317 96.2861 119.838 95.6221C120.222 96.0778 120.57 96.4749 120.882 96.8135C121.123 97.0739 121.579 97.4808 122.25 98.0342ZM129.418 98.0342C129.066 98.3532 128.653 98.7438 128.177 99.2061C127.936 99.4404 127.572 99.8538 127.084 100.446C126.706 99.9906 126.325 99.5544 125.941 99.1377C125.739 98.9229 125.313 98.5648 124.662 98.0635C125.065 97.7249 125.472 97.3538 125.882 96.9502C126.11 96.7288 126.485 96.2861 127.005 95.6221C127.39 96.0778 127.738 96.4749 128.05 96.8135C128.291 97.0739 128.747 97.4808 129.418 98.0342Z" fill="black"/>
<path d="M138.743 51H148.48" stroke="black"/>
<path d="M108.041 48.2773C108.041 49.3776 107.751 50.2956 107.172 51.0312C106.54 51.8255 105.688 52.2227 104.613 52.2227C104.496 52.2227 104.382 52.2161 104.271 52.2031C104.682 53.7591 104.887 55.4616 104.887 57.3105C104.887 59.4655 104.571 60.543 103.939 60.543C103.712 60.543 103.565 60.2142 103.5 59.5566C103.487 59.1465 103.471 58.7331 103.451 58.3164C103.38 57.3984 103.197 56.3861 102.904 55.2793C102.488 53.7038 101.671 51.9688 100.453 50.0742L101.869 47.6621C102.045 47.8704 102.364 48.2415 102.826 48.7754C103.327 49.3223 103.995 49.5957 104.828 49.5957C105.486 49.5957 106.013 49.4297 106.41 49.0977C106.638 48.9089 106.863 48.6061 107.084 48.1895C107.26 47.8574 107.416 47.6914 107.553 47.6914C107.878 47.6914 108.041 47.8867 108.041 48.2773ZM115.082 55.0742C114.73 55.3932 114.317 55.7839 113.842 56.2461C113.601 56.4805 113.236 56.8939 112.748 57.4863C112.37 57.0306 111.99 56.5944 111.605 56.1777C111.404 55.9629 110.977 55.6048 110.326 55.1035C110.73 54.765 111.137 54.3939 111.547 53.9902C111.775 53.7689 112.149 53.3262 112.67 52.6621C113.054 53.1178 113.402 53.515 113.715 53.8535C113.956 54.1139 114.411 54.5208 115.082 55.0742ZM122.25 55.0742C121.898 55.3932 121.485 55.7839 121.01 56.2461C120.769 56.4805 120.404 56.8939 119.916 57.4863C119.538 57.0306 119.158 56.5944 118.773 56.1777C118.572 55.9629 118.145 55.6048 117.494 55.1035C117.898 54.765 118.305 54.3939 118.715 53.9902C118.943 53.7689 119.317 53.3262 119.838 52.6621C120.222 53.1178 120.57 53.515 120.883 53.8535C121.124 54.1139 121.579 54.5208 122.25 55.0742ZM129.418 55.0742C129.066 55.3932 128.653 55.7839 128.178 56.2461C127.937 56.4805 127.572 56.8939 127.084 57.4863C126.706 57.0306 126.326 56.5944 125.941 56.1777C125.74 55.9629 125.313 55.6048 124.662 55.1035C125.066 54.765 125.473 54.3939 125.883 53.9902C126.111 53.7689 126.485 53.3262 127.006 52.6621C127.39 53.1178 127.738 53.515 128.051 53.8535C128.292 54.1139 128.747 54.5208 129.418 55.0742Z" fill="black"/>
<path d="M148.479 243H1118.89" stroke="#CCCCCC"/>
<path d="M148.479 195H1118.89" stroke="#CCCCCC"/>
<path d="M148.479 147H1118.89" stroke="#CCCCCC"/>
<path d="M148.479 99H1118.89" stroke="#CCCCCC"/>
<path d="M148.479 51H1118.89" stroke="#CCCCCC"/>
<path d="M148.479 51V243" stroke="#CCCCCC"/>
<path d="M236.698 51V243" stroke="#CCCCCC"/>
<path d="M324.917 51V243" stroke="#CCCCCC"/>
<path d="M413.136 51V243" stroke="#CCCCCC"/>
<path d="M501.354 51V243" stroke="#CCCCCC"/>
<path d="M589.573 51V243" stroke="#CCCCCC"/>
<path d="M677.793 51V243" stroke="#CCCCCC"/>
<path d="M766.012 51V243" stroke="#CCCCCC"/>
<path d="M854.23 51V243" stroke="#CCCCCC"/>
<path d="M942.449 51V243" stroke="#CCCCCC"/>
<path d="M1030.67 51V243" stroke="#CCCCCC"/>
<path d="M1118.89 51V243" stroke="#CCCCCC"/>
<path d="M148.479 90.84L236.698 56.76L324.917 210.648L413.136 158.424L501.355 192.696L589.574 123.192L677.792 125.784L766.011 179.448L854.23 169.944L942.449 88.536L1030.67 127.992L1118.89 91.224" stroke="#A9A9A9"/>
<path d="M148.479 76.536L236.698 120.12L324.917 57.144L413.136 184.824L501.355 130.104L589.574 138.072L677.792 79.992L766.011 108.984L854.23 184.824L942.449 163.8L1030.67 218.712L1118.89 106.584" stroke="#CC8A21"/>
</g>
<defs>
<filter id="filter0_d_543_1557" x="0.700001" y="0.700001" width="1365.6" height="346.6" filterUnits="userSpaceOnUse" color-interpolation-filters="sRGB">
<feFlood flood-opacity="0" result="BackgroundImageFix"/>
<feColorMatrix in="SourceAlpha" type="matrix" values="0 0 0 0 0 0 0 0 0 0 0 0 0 0 0 0 0 0 127 0" result="hardAlpha"/>
<feOffset dx="-3" dy="9"/>
<feGaussianBlur stdDeviation="9.15"/>
<feComposite in2="hardAlpha" operator="out"/>
<feColorMatrix type="matrix" values="0 0 0 0 0 0 0 0 0 0 0 0 0 0 0 0 0 0 0.25 0"/>
<feBlend mode="normal" in2="BackgroundImageFix" result="effect1_dropShadow_543_1557"/>
<feBlend mode="normal" in="SourceGraphic" in2="effect1_dropShadow_543_1557" result="shape"/>
</filter>
</defs>
</svg>
