<svg width="595" height="115" viewBox="0 0 595 115" fill="none" xmlns="http://www.w3.org/2000/svg">
<rect x="241.5" y="1.5" width="112" height="112" rx="56" stroke="#003C43" stroke-width="3"/>
<path fill-rule="evenodd" clip-rule="evenodd" d="M277.525 40.5C277.525 39.9 277.86 39.5 278.363 39.5H293.438C293.941 39.5 294.276 39.9 294.276 40.5C294.276 41.1 293.941 41.5 293.438 41.5H278.363C277.86 41.5 277.525 41.1 277.525 40.5ZM278.363 49.5H299.301C299.803 49.5 300.138 49.1 300.138 48.5C300.138 47.9 299.803 47.5 299.301 47.5H278.363C277.86 47.5 277.525 47.9 277.525 48.5C277.525 49.1 277.86 49.5 278.363 49.5ZM278.363 57.5H299.301C299.803 57.5 300.138 57.1 300.138 56.5C300.138 55.9 299.803 55.5 299.301 55.5H278.363C277.86 55.5 277.525 55.9 277.525 56.5C277.525 57.1 277.86 57.5 278.363 57.5ZM278.363 65.5H299.301C299.803 65.5 300.138 65.1 300.138 64.5C300.138 63.9 299.803 63.5 299.301 63.5H278.363C277.86 63.5 277.525 63.9 277.525 64.5C277.525 65.1 277.86 65.5 278.363 65.5ZM292.182 81H291.26C291.093 81 290.925 80.9 290.842 80.7L290.674 80.4C290.004 79.1 288.497 78.9 287.659 80C287.492 80.2 287.324 80.1 287.24 79.9L285.733 76.1C284.812 73.8 281.964 73.8 281.126 76.2L279.703 80.4C279.535 80.8 279.284 81 278.949 81H276.688C276.185 81 275.85 81.4 275.85 82C275.85 82.6 276.185 83 276.688 83H278.949C279.954 83 280.875 82.3 281.294 81.2L282.718 77C282.969 76.2 283.974 76.2 284.225 77L285.733 80.8C286.319 82.2 287.91 82.6 288.832 81.4C288.915 81.3 289.167 81.3 289.25 81.5L289.418 81.8C289.837 82.6 290.507 83.1 291.26 83.1H292.182C292.684 83.1 293.019 82.7 293.019 82.1C293.019 81.5 292.684 81 292.182 81ZM321.83 53L321.579 53.3C321.746 53.7 321.83 54.2 321.83 54.6C321.83 55.5 321.579 56.4 321.076 57L315.046 64.5H315.214V84.5C315.214 86.2 314.125 87.5 312.701 87.5H275.013C273.589 87.5 272.5 86.2 272.5 84.5V30.5C272.5 28.8 273.589 27.5 275.013 27.5H303.656C304.326 27.5 304.996 27.8 305.415 28.4L314.46 39.2C314.962 39.8 315.214 40.5 315.214 41.3V48.3C315.632 48.5 316.051 48.7 316.386 49.1C316.554 49.1 316.721 49 316.889 49C317.307 49 317.726 49.1 318.145 49.3L318.396 49C318.815 48.5 319.401 48.2 320.071 48.1C320.657 48.1 321.327 48.4 321.746 48.9C322.165 49.4 322.416 50.1 322.5 50.9C322.5 51.7 322.249 52.4 321.83 53ZM305.163 38.5C305.163 39.1 305.498 39.5 306.001 39.5H312.366L305.163 30.9V38.5ZM313.539 66.4L310.021 70.8L309.937 70.9C307.341 73.1 305.08 75.9 303.321 79.1C303.237 79.4 303.07 79.6 302.902 79.7L298.212 82.4C297.877 82.6 297.458 82.7 297.123 82.6C296.788 82.5 296.537 82.4 296.286 82.2L295.783 82.8C295.448 83.2 294.946 83.2 294.611 82.8C294.276 82.4 294.276 81.8 294.611 81.4L295.113 80.8C294.946 80.5 294.862 80.2 294.778 79.9C294.694 79.5 294.778 79 294.862 78.6L296.872 73.1C296.872 72.8 297.039 72.6 297.207 72.4C299.887 70.2 302.148 67.3 303.907 64C303.907 63.9 303.991 63.9 303.991 63.8L314.879 50.3C314.711 50.2 314.544 50.2 314.376 50.2C314.041 50.2 313.706 50.4 313.539 50.7L308.765 56.7C308.43 57.1 307.927 57.1 307.592 56.7C307.257 56.3 307.257 55.7 307.592 55.3L312.366 49.3C312.701 48.9 313.12 48.6 313.622 48.4V41.5H306.085C304.661 41.5 303.572 40.2 303.572 38.5V29.5H275.013C274.51 29.5 274.175 29.9 274.175 30.5V84.5C274.175 85.1 274.51 85.5 275.013 85.5H312.701C313.204 85.5 313.539 85.1 313.539 84.5V66.4ZM302.316 77.2C303.907 74.4 305.833 72 308.095 70L304.745 66.1C303.153 68.9 301.227 71.3 298.966 73.3L302.316 77.2ZM297.961 75L296.369 79.4V79.5C296.369 79.5 296.369 79.6 296.453 79.6L297.291 80.5L297.374 80.6H297.458L301.059 78.5L297.961 75ZM320.155 54.7C320.155 54.3 319.987 54 319.82 53.7L317.81 51.5C317.559 51.2 317.307 51.1 316.972 51.1C316.637 51.1 316.386 51.3 316.135 51.5L305.75 64.5L309.351 68.7L319.736 55.7C319.987 55.4 320.155 55.1 320.155 54.7ZM320.825 51C320.825 50.8 320.741 50.6 320.657 50.4C320.49 50.3 320.322 50.2 320.155 50.2C319.987 50.2 319.82 50.3 319.736 50.4L320.657 51.5C320.741 51.4 320.825 51.2 320.825 51Z" fill="#003C43"/>
<path d="M355 57H593" stroke="#003C43" stroke-width="4" stroke-linecap="round" stroke-linejoin="round"/>
<path d="M2 57L240 57" stroke="#003C43" stroke-width="4" stroke-linecap="round" stroke-linejoin="round"/>
</svg>
