<svg width="15" height="15" viewBox="0 0 15 15" fill="none" xmlns="http://www.w3.org/2000/svg">
<path d="M10.6937 8.85711H14.524C14.7874 8.85711 15 8.63854 15 8.36777V0.489343C15 0.218573 14.7874 0 14.524 0H10.6937C10.4303 0 10.2177 0.218573 10.2177 0.489343V1.31144H8.93248C8.49773 1.01131 7.14586 0.247935 4.53417 0.247935H4.52147C3.94709 0.247935 2.3953 0.521967 1.72889 0.691606C1.17989 0.831884 0.853035 1.38974 0.729273 1.86277C0.659458 2.14006 0.681672 2.41736 0.805435 2.72727C0.542043 2.98499 0.367507 3.35037 0.323079 3.75163C0.272305 4.21814 0.405588 4.66507 0.68802 5.02066C0.129503 5.79709 0.139023 6.22771 0.7261 7.00413C0.161237 7.59787 -0.0767676 8.16877 0.0216074 8.71031C0.167583 9.52588 0.992664 9.84885 1.08787 9.88147C1.13864 9.90105 1.19259 9.91083 1.24654 9.91083H3.35049C3.32193 10.0185 3.2902 10.1327 3.25846 10.2468C2.96016 11.3038 2.58888 12.6185 3.32828 13.868C3.79794 14.664 4.4707 15 5.06412 15C5.32434 15 5.56869 14.9348 5.77496 14.8173C6.19702 14.5759 6.36204 14.1388 6.17481 13.7571C6.08278 13.5744 6.1399 12.9806 6.17481 12.5892C6.20019 12.3184 6.22558 12.0639 6.22558 11.8388C6.22558 11.5289 7.03162 10.4654 7.8567 9.80318C8.44378 9.33341 9.31329 8.28295 9.64967 7.86538L10.2177 7.8458V8.36124C10.2177 8.63201 10.4303 8.85059 10.6937 8.85059V8.85711ZM11.1697 7.34667V0.978686H14.048V7.87843H11.1697V7.34667ZM9.39897 6.903C9.26251 6.90953 9.1324 6.97477 9.04672 7.08569C9.03403 7.09874 7.91065 8.52762 7.26963 9.04306C6.84756 9.38234 5.27039 10.8504 5.27039 11.8486C5.27039 12.0281 5.24818 12.2597 5.22596 12.5043C5.17519 13.0328 5.12442 13.5776 5.24183 13.9985C5.17519 14.0181 5.07999 14.0344 4.96575 14.0213C4.65793 13.9822 4.3628 13.7505 4.13749 13.3689C3.61706 12.4848 3.89631 11.4898 4.16923 10.5274C4.27077 10.1686 4.36598 9.83254 4.41675 9.50631C4.43896 9.36603 4.40088 9.21923 4.30886 9.11157C4.21683 9.00392 4.08672 8.93867 3.94709 8.93867H1.34491C1.21163 8.87343 0.992665 8.72662 0.960931 8.53741C0.938717 8.4167 0.970451 8.06438 1.69398 7.42823C1.78918 7.34341 1.84948 7.22271 1.859 7.09221C1.86852 6.96172 1.82727 6.83449 1.74476 6.73336C1.55753 6.51153 1.24019 6.13636 1.23702 6.00587C1.23384 5.87212 1.55435 5.47738 1.70668 5.28817C1.79236 5.18051 1.83044 5.0435 1.8114 4.90648C1.79236 4.76947 1.71937 4.6455 1.60513 4.57046C1.2751 4.3421 1.25606 4.03219 1.27192 3.86907C1.29731 3.62766 1.43059 3.42214 1.60195 3.35363C1.73524 3.30144 1.83679 3.19052 1.88121 3.05024C1.92564 2.90996 1.9066 2.7599 1.83044 2.63593C1.61148 2.28034 1.64004 2.1629 1.65273 2.12375C1.7162 1.87582 1.86535 1.67355 1.96055 1.65072C2.68725 1.46477 4.10259 1.23641 4.52465 1.23641H4.53734C7.32992 1.23641 8.46282 2.17268 8.46917 2.17921C8.55485 2.2575 8.66592 2.29665 8.78016 2.29665H10.2209V6.8769L9.40214 6.90626L9.39897 6.903Z" fill="#9A9A9A"/>
</svg>
