<svg width="43" height="50" viewBox="0 0 43 50" fill="none" xmlns="http://www.w3.org/2000/svg">
<path fill-rule="evenodd" clip-rule="evenodd" d="M6.36066 31.9272H1.28255C0.575111 31.9315 0.00216666 32.5045 0 33.2119V48.7174C0.00217 49.4249 0.575111 49.9978 1.28255 50H6.36066C7.06594 49.9935 7.63671 49.4227 7.63888 48.7174V33.2119C7.63671 32.5045 7.06377 31.9315 6.35633 31.9272H6.36066ZM25.8768 18.9994H36.0678C36.2132 18.9994 36.3565 18.9408 36.4606 18.8367C36.5648 18.7325 36.6234 18.5914 36.6234 18.4439V0.555555C36.6234 0.407988 36.5648 0.266928 36.4606 0.162761C36.3565 0.0585945 36.2132 0 36.0678 0H9.6551C9.34911 0 9.09955 0.249566 9.09955 0.555555V18.4655C9.09955 18.6131 9.15814 18.7542 9.26231 18.8583C9.36647 18.9625 9.50753 19.0211 9.6551 19.0211H12.0835C12.2983 19.0211 12.5045 19.1079 12.6542 19.2598C12.8061 19.4117 12.8908 19.6179 12.8886 19.8327V22.3392L17.4329 19.2055C17.5349 19.1252 17.652 19.0688 17.7779 19.0384C17.9841 16.7055 18.8608 14.6439 21.7623 15.0997C23.85 15.347 25.5253 16.9464 25.866 19.0211L25.8768 18.9994ZM25.2886 25.4489C25.7986 23.8885 26.059 22.2588 26.0612 20.616H36.0612C37.2417 20.6051 38.1922 19.6459 38.1944 18.4654V9.12704H42.6388C42.8385 9.12704 43.0034 9.28763 43.0056 9.48729V25.0884C43.0034 25.288 42.8385 25.4486 42.6388 25.4486H40.5728C40.128 25.4486 39.7656 25.811 39.7656 26.2559V28.2394L35.9722 25.6331C35.829 25.5137 35.6488 25.4486 35.46 25.4486L25.2886 25.4489ZM23.3876 26.0435H23.3898C23.0534 26.9701 22.6302 27.862 22.1224 28.7062C21.9705 28.9536 21.9618 29.264 22.1051 29.52C22.2461 29.7739 22.5152 29.9323 22.806 29.9323H28.7499C29.7438 29.9367 30.5468 30.7396 30.5489 31.7336C30.5489 32.4063 30.0498 33.5956 29.4943 33.895C29.2295 34.0382 29.0668 34.3182 29.0733 34.6198C29.0798 34.9237 29.2556 35.195 29.5268 35.3273C29.835 35.477 30.0932 35.7071 30.2777 35.9935C31.0828 37.2717 29.95 38.9666 28.7998 39.0317V39.0339C28.4439 39.0686 28.1531 39.3377 28.0902 39.6893C28.0251 40.043 28.2009 40.3946 28.5221 40.5552C28.8129 40.7093 29.0581 40.9371 29.2339 41.2171C30.0238 42.4953 28.8845 44.1771 27.7777 44.2618C27.4109 44.2857 27.1071 44.5547 27.0399 44.915C26.9704 45.2774 27.1549 45.6377 27.4891 45.7939C27.7777 45.9458 28.0229 46.1715 28.1944 46.4493C28.5242 47.007 28.5329 47.6971 28.2139 48.2613C27.8949 48.8256 27.2981 49.1749 26.6492 49.1771H17.7603C17.1353 49.1511 16.5125 49.0729 15.9005 48.9384C15.4057 48.8407 14.9283 48.678 14.4769 48.4545C13.4982 47.951 12.4109 47.6927 11.3107 47.7057H9.25557V33.8169C10.5381 32.7535 11.5755 31.4275 12.3003 29.928C12.4652 29.5959 12.6801 29.2921 12.9383 29.0274C14.822 27.0894 16.5928 25.1385 18.4938 22.9552C19.0385 22.3237 19.3272 21.5098 19.3054 20.6765V19.765C19.3011 18.949 19.453 18.1396 19.7547 17.3822C20.0324 16.8267 20.5554 16.5207 21.4821 16.666H21.4843C21.9682 16.7355 22.4348 16.9004 22.8558 17.15C24.6006 18.2611 24.5225 20.8718 24.2664 22.6556C24.082 23.7646 23.7934 24.854 23.4049 25.9109C23.3854 25.9543 23.3658 25.9977 23.3506 26.0432L23.3876 26.0435ZM13.2898 5.15572C13.062 5.17308 12.8384 5.09712 12.6713 4.94304C12.5064 4.78897 12.4109 4.57412 12.4109 4.34627C12.4109 4.12057 12.5064 3.90356 12.6713 3.74949C12.8384 3.59541 13.0619 3.51946 13.2898 3.53898H32.4392C32.8603 3.57371 33.1836 3.92527 33.1836 4.34626C33.1836 4.76944 32.8602 5.12098 32.4392 5.15571L13.2898 5.15572ZM13.2898 10.3054C12.8449 10.3054 12.4825 9.94519 12.4825 9.50032C12.4825 9.05544 12.845 8.69305 13.2898 8.69305H32.4392C32.8841 8.69305 33.2444 9.05546 33.2444 9.50032C33.2444 9.9452 32.8841 10.3054 32.4392 10.3054H13.2898ZM27.2115 15.4616V15.4595C26.7666 15.4595 26.4064 15.0992 26.4064 14.6544C26.4064 14.2095 26.7666 13.8493 27.2115 13.8493H32.4394C32.8842 13.8493 33.2445 14.2095 33.2445 14.6544C33.2445 15.0992 32.8842 15.4595 32.4394 15.4595L27.2115 15.4616Z" fill="#003C43"/>
</svg>
