<svg width="123" height="123" viewBox="0 0 123 123" fill="none" xmlns="http://www.w3.org/2000/svg">
<g filter="url(#filter0_d_1169_1823)">
<rect x="5.5" y="1.5" width="112" height="112" rx="56" stroke="#003C43" stroke-width="3" shape-rendering="crispEdges"/>
<path fill-rule="evenodd" clip-rule="evenodd" d="M54.0624 76.7677C54.0312 77.3824 54.3046 77.9643 54.7656 78.2747C55.138 78.6537 55.6276 78.8477 56.1224 78.8089L56.375 78.7313C56.5208 78.5493 56.1536 77.7943 55.9375 77.6092C55.2734 77.466 54.638 77.1795 54.0624 76.7707L54.0624 76.7677ZM63.5832 85.3138C63.8984 85.5555 64.2681 85.6778 64.6458 85.6629C64.8385 85.5704 65.0052 85.4212 65.1302 85.2332C65.1015 85.0601 65.0156 84.908 64.8932 84.8035C64.7161 84.6841 64.5234 84.6006 64.3229 84.5558C64.1067 84.8453 63.8567 85.1019 63.5832 85.3138ZM61.953 84.2604C62.2447 84.15 62.5155 83.9799 62.7499 83.7561C63.0832 83.4667 63.315 83.1951 63.2499 82.6878C63.2004 82.2999 62.9478 82.1537 62.5468 81.9567V81.9538C61.9764 82.5625 61.3306 83.0728 60.6327 83.4697C60.8748 83.7353 61.3488 84.2665 61.7004 84.2903L61.9504 84.2605L61.953 84.2604ZM83.9534 56.4071L81.1591 57.6455V57.6425C80.6096 57.8931 80.3361 58.6033 80.5445 59.2389L85.0342 72.548C85.2529 73.1776 85.8701 73.4939 86.4248 73.2522L89.2191 72.0168C89.7686 71.7661 90.0447 71.0559 89.8363 70.4204L85.3466 57.1113C85.1279 56.4817 84.5081 56.1683 83.9534 56.4071ZM57.8489 81.6493C57.5547 81.3062 57.3021 80.9212 57.0989 80.5035C57.4349 80.3751 57.7812 80.2737 58.1302 80.1961L59.1901 79.8917C59.7995 79.6381 60.4609 79.5903 61.0964 79.7485C61.3907 79.8619 61.6251 80.1931 61.5157 80.4945C61.3334 80.9958 59.1953 82.4819 58.5703 82.3595C58.4062 82.3297 58.0156 81.8254 57.8515 81.6434L57.8489 81.6493ZM70.9272 63.1869C71.8621 62.9571 72.8074 62.784 73.758 62.6706C75.7163 62.4558 77.6408 61.9455 79.482 61.1517L82.8258 71.0651C82.1721 71.1606 81.3909 71.2889 80.8388 71.4352C79.1174 71.8887 79.1565 72.5333 78.3205 73.3658C77.8674 73.7597 77.3648 74.076 76.8335 74.3088C75.3881 72.3572 73.8048 70.5459 72.099 68.8897C71.1458 67.902 70.2864 66.9082 69.3307 66.8486C68.6094 66.8814 67.9349 67.2843 67.5 67.9467C66.9922 68.5226 65.8724 69.7044 65.1484 69.7551C64.7187 69.7461 64.2995 69.6208 63.9219 69.388C63.6588 69.2358 63.8125 69.3343 63.8177 69.2896C64.0078 68.5256 64.276 67.7855 64.6172 67.0933C64.9583 66.3622 65.4088 65.7087 65.9505 65.1626C66.3281 64.7389 66.7969 64.4345 67.3099 64.2824C68.1954 63.9899 68.8803 63.7482 69.9089 63.4528L70.9219 63.1842L70.9272 63.1869ZM41.6613 35.1662L39.0154 38.3412H41.6613V35.1662ZM44.3958 46.3951H44.3932C43.953 46.3951 43.5937 45.9833 43.5937 45.479C43.5937 44.9717 43.9531 44.5629 44.3932 44.5629H63.4768C63.917 44.5629 64.2763 44.9717 64.2763 45.479C64.2763 45.9833 63.9169 46.3951 63.4768 46.3951H44.3958ZM54.4399 74.7679C54.1431 74.4755 53.828 74.2069 53.4972 73.9652C52.729 73.3714 51.9008 72.891 51.031 72.5328L54.8124 62.2589L55.6978 62.617C56.9035 63.1034 57.4765 63.3212 58.6718 62.9542C60.0468 62.5334 62.362 61.3487 63.9089 60.7191L63.9115 60.7221C64.5547 60.367 65.2761 60.2386 65.9844 60.352C66.8152 60.8205 67.5991 61.3935 68.3256 62.053C68.0313 62.1485 67.7423 62.244 67.4715 62.3335H67.4688C66.5027 62.5364 65.6094 63.0497 64.8881 63.8136C63.8516 64.9058 63.0573 66.2725 62.5755 67.7913C62.0807 69.1789 61.9323 70.283 63.2031 71.0201H63.2057C64.1563 71.6706 65.3256 71.7542 66.3386 71.2439C67.1042 70.7695 67.8047 70.1727 68.4219 69.4714C68.6225 69.2536 69.1016 68.6657 69.2553 68.6746C69.5626 68.6925 70.4558 69.6444 71.0392 70.2442C71.9715 71.214 75.8908 75.1113 76.1721 76.654H76.1695C76.245 77.2956 75.9611 77.9253 75.4585 78.2266C74.9012 78.3669 73.3648 76.839 72.8596 76.3675V76.3646C72.6955 76.2064 72.4845 76.1318 72.271 76.1557C72.0601 76.1766 71.8647 76.2959 71.7293 76.4869C71.5939 76.6779 71.5314 76.9196 71.5548 77.1643C71.5783 77.406 71.6877 77.6298 71.8543 77.779C72.5445 78.4653 73.2814 79.083 74.0601 79.6291C74.1018 79.841 74.1148 80.0588 74.1018 80.2737C74.021 80.5512 73.8648 80.79 73.6591 80.963C73.2814 81.2614 72.7788 81.2614 72.4012 80.963C71.5809 80.3602 70.8283 79.647 70.159 78.8384C70.0053 78.6653 69.797 78.5728 69.5835 78.5788C69.3673 78.5818 69.1642 78.6862 69.0183 78.8653C68.8699 79.0473 68.7944 79.286 68.8048 79.5337C68.8126 79.7784 68.909 80.0082 69.0704 80.1723C69.7033 80.8914 70.3777 81.5599 71.0887 82.1776L71.0991 82.1865C71.06 82.5685 70.8543 82.8997 70.5496 83.0668C70.2319 83.1742 69.8881 83.1504 69.5808 82.9982C68.8282 82.4909 68.1329 81.8792 67.5079 81.1779C67.1745 80.8496 66.6719 80.8914 66.3829 81.2704C66.0964 81.6524 66.1328 82.2283 66.4662 82.5595C67.099 83.2309 67.7761 83.8516 68.4897 84.4126C68.5131 84.6275 68.4871 84.8483 68.4116 85.0482C68.284 85.272 68.06 85.3944 67.8256 85.3705C67.3777 85.2034 66.9662 84.9289 66.6199 84.5648C66.5782 84.4216 66.5261 84.2813 66.461 84.15C66.1146 83.4667 65.5287 82.9893 64.8542 82.831C64.8542 81.4972 64.1667 80.7511 63.1328 80.2588V80.2617C63.1198 79.9574 63.0573 79.656 62.9453 79.3815C62.5156 78.4057 61.6301 77.8059 60.6797 77.8387C59.763 77.8447 58.8541 78.0238 57.9869 78.3669C57.9218 77.8268 57.7447 77.3136 57.4712 76.866C56.6874 75.541 56.0051 75.8723 55.3384 75.5112C55.0077 75.3173 54.7056 75.0666 54.4425 74.7682L54.4399 74.7679ZM44.3931 51.9962C43.9504 51.9962 43.5936 51.5844 43.5936 51.0801C43.5936 50.5728 43.9504 50.164 44.3931 50.164H63.4768C63.9169 50.164 64.2763 50.5728 64.2763 51.0801C64.2763 51.5844 63.9169 51.9962 63.4768 51.9962H44.3931ZM49.4219 57.2929C49.3125 57.4093 49.2265 57.5495 49.1692 57.7077L44.328 70.8556L44.3306 70.8526C44.1041 71.4822 44.3593 72.2014 44.9036 72.47L47.664 73.8038C48.2109 74.0634 48.8385 73.771 49.0755 73.1473L53.6146 60.8199C53.823 60.1784 54.1537 59.7188 53.9167 59.0563H53.9141C53.81 58.7549 53.6042 58.5103 53.3412 58.3849L50.5807 57.051C50.1875 56.863 49.7344 56.9587 49.4219 57.2929ZM44.3931 57.5973H47.4817L42.8644 70.1455C42.5884 70.8915 42.5831 71.733 42.8514 72.485C43.117 73.237 43.6327 73.8367 44.2863 74.1501L47.0467 75.484C48.2811 76.0838 49.7134 75.5347 50.3879 74.2038C51.1483 74.5052 51.8697 74.914 52.5416 75.4243C52.3489 76.4986 52.4687 77.6176 52.8776 78.6113C53.4896 79.6348 54.4219 80.348 55.4792 80.6107C55.5182 80.8882 55.5989 81.1538 55.7135 81.4015H37.9479V40.1703H42.4584C42.8985 40.1703 43.2578 39.7615 43.2578 39.2542V33.7994H69.925V61.1187L67.9666 59.5342C66.826 58.6449 66.0421 58.2122 64.6046 58.5734C63.0342 58.9702 59.9586 60.6682 58.2607 61.1874C57.9873 61.2919 57.6982 61.3277 57.4092 61.2948C56.7373 61.1068 56.0758 60.8621 55.4299 60.5697C55.7502 59.5611 55.5888 58.4361 54.9976 57.6006H63.4771C63.9172 57.6006 64.2766 57.1888 64.2766 56.6845C64.2766 56.1772 63.9172 55.7684 63.4771 55.7684H52.0262L51.1981 55.3685C50.3101 54.9418 49.2918 55.094 48.5288 55.7684H44.3959C43.9532 55.7684 43.5964 56.1772 43.5964 56.6845C43.5964 57.1888 43.9532 57.6006 44.3959 57.6006L44.3931 57.5973ZM65.0708 31.967L42.4584 31.9699C42.2266 31.9699 42.0053 32.0833 41.8542 32.2862L36.6145 38.5767H36.6119C36.4453 38.7498 36.3515 38.9974 36.3515 39.2541V76.9307H33.0988V29.3315H65.0734V31.9694L65.0708 31.967ZM36.3516 78.7633H32.2995C31.8594 78.7633 31.5 78.3515 31.5 77.8472V28.4161C31.5 27.9088 31.8594 27.5 32.2995 27.5H65.8701C66.3128 27.5 66.6696 27.9088 66.6696 28.4161V31.9701H70.7191C71.1618 31.9701 71.5212 32.3819 71.5212 32.8862V61.1902C74.0838 60.665 74.9978 60.8948 77.9406 59.8205C78.2479 59.7101 78.5838 59.5788 78.9406 59.4386V59.4356C78.6671 57.9674 79.3651 56.4843 80.5891 55.9413L83.3834 54.7029L83.3808 54.7059C84.7558 54.0971 86.3027 54.8789 86.834 56.4545L91.3211 69.7636C91.8497 71.3392 91.1674 73.1057 89.795 73.7175L87.0007 74.9559H86.9981C86.3392 75.2483 85.6048 75.2274 84.9564 74.8992C84.3105 74.5709 83.8027 73.9622 83.5475 73.2042L83.4173 72.8222H83.4199C82.4068 72.8968 81.4068 73.1296 80.4485 73.5116C79.9901 73.8159 79.774 74.6933 78.2245 75.5855C78.0162 75.7048 77.8234 75.8093 77.6385 75.9018H77.6359C77.9719 77.155 77.6412 78.5188 76.7896 79.3931C76.4875 79.7214 76.1099 79.9392 75.701 80.0228C75.7115 80.9538 75.3234 81.8311 74.662 82.3712C74.0812 82.9262 73.3078 83.1381 72.5682 82.9471C72.3651 83.7289 71.878 84.3705 71.2296 84.7107C70.8676 84.9047 70.4692 84.9912 70.0707 84.9614C70.0082 85.6298 69.7114 86.2416 69.2478 86.6593C68.7868 87.0741 68.1957 87.2591 67.6124 87.1726C67.128 87.0741 66.667 86.8503 66.2686 86.5191C65.2868 87.7754 64.0524 87.7217 62.8571 86.9398C62.5211 86.7101 62.2112 86.4266 61.943 86.0983C60.6774 86.2326 59.8284 85.0986 58.9794 84.1677H58.9768C58.3258 84.287 57.6642 84.0274 57.2112 83.4813C57.1383 83.4067 57.0601 83.3232 56.9742 83.2277H37.1485C36.7084 83.2277 36.349 82.8159 36.349 82.3086V78.7635L36.3516 78.7633ZM62.6774 38.5199H52.0106V40.4416H62.6774V38.5199ZM51.2112 36.6877V36.6847C50.7685 36.6847 50.4117 37.0965 50.4117 37.6008V41.3548C50.4117 41.8591 50.7685 42.2709 51.2112 42.2709H63.4768C63.9195 42.2709 64.2763 41.8591 64.2763 41.3548V37.6038C64.2763 37.0965 63.9195 36.6877 63.4768 36.6877L51.2112 36.6877Z" fill="#003C43"/>
</g>
<defs>
<filter id="filter0_d_1169_1823" x="0" y="0" width="123" height="123" filterUnits="userSpaceOnUse" color-interpolation-filters="sRGB">
<feFlood flood-opacity="0" result="BackgroundImageFix"/>
<feColorMatrix in="SourceAlpha" type="matrix" values="0 0 0 0 0 0 0 0 0 0 0 0 0 0 0 0 0 0 127 0" result="hardAlpha"/>
<feOffset dy="4"/>
<feGaussianBlur stdDeviation="2"/>
<feComposite in2="hardAlpha" operator="out"/>
<feColorMatrix type="matrix" values="0 0 0 0 0 0 0 0 0 0 0 0 0 0 0 0 0 0 0.1 0"/>
<feBlend mode="normal" in2="BackgroundImageFix" result="effect1_dropShadow_1169_1823"/>
<feBlend mode="normal" in="SourceGraphic" in2="effect1_dropShadow_1169_1823" result="shape"/>
</filter>
</defs>
</svg>
