<svg width="36" height="31" viewBox="0 0 36 31" fill="none" xmlns="http://www.w3.org/2000/svg">
<path d="M30.0566 12.8893L18.6925 5.28491C18.4873 5.14736 18.2459 5.07391 17.9989 5.07391C17.7519 5.07391 17.5104 5.14736 17.3053 5.28491L5.94118 12.8893C5.4298 13.2308 5.01065 13.6933 4.72097 14.2357C4.43128 14.7781 4.28001 15.3837 4.2806 15.9986V26.8987C4.28168 27.8906 4.67621 28.8416 5.37761 29.543C6.07901 30.2444 7.03001 30.6389 8.02194 30.64H27.9758C28.9677 30.6389 29.9187 30.2444 30.6201 29.543C31.3215 28.8416 31.7161 27.8906 31.7171 26.8987V15.9986C31.7177 15.3837 31.5665 14.7781 31.2768 14.2357C30.9871 13.6933 30.5679 13.2308 30.0566 12.8893ZM15.5046 28.1458V23.1573C15.5046 22.8266 15.636 22.5094 15.8699 22.2755C16.1038 22.0416 16.421 21.9102 16.7518 21.9102H19.246C19.5767 21.9102 19.8939 22.0416 20.1278 22.2755C20.3617 22.5094 20.4931 22.8266 20.4931 23.1573V28.1458H15.5046ZM29.2229 26.8987C29.2225 27.2293 29.0909 27.5463 28.8572 27.78C28.6234 28.0138 28.3064 28.1454 27.9758 28.1458H22.9873V23.1573C22.9873 22.1651 22.5932 21.2134 21.8915 20.5118C21.1899 19.8102 20.2382 19.416 19.246 19.416H16.7518C15.7595 19.416 14.8079 19.8102 14.1062 20.5118C13.4046 21.2134 13.0104 22.1651 13.0104 23.1573V28.1458H8.02194C7.69132 28.1454 7.37436 28.0138 7.14057 27.78C6.90679 27.5463 6.77526 27.2293 6.77483 26.8987V15.9986C6.77466 15.7936 6.82509 15.5918 6.92165 15.411C7.01821 15.2302 7.15792 15.076 7.32836 14.9622L17.9989 7.8217L28.6694 14.9622C28.8398 15.076 28.9795 15.2302 29.0761 15.411C29.1726 15.5918 29.2231 15.7936 29.2229 15.9986V26.8987ZM34.8989 11.261L31.7171 9.05824V3.20348C31.7171 2.54197 31.4544 1.90755 30.9866 1.43979C30.5188 0.972031 29.8844 0.709247 29.2229 0.709247H27.9758C27.3143 0.709247 26.6799 0.972031 26.2121 1.43979C25.7443 1.90755 25.4816 2.54197 25.4816 3.20348V4.74117L20.1083 1.02103C19.4809 0.589872 18.7374 0.359321 17.9762 0.359864C17.2149 0.360408 16.4718 0.59202 15.845 1.02407L1.09765 11.2622C0.826691 11.4511 0.641757 11.7398 0.583438 12.065C0.525118 12.3901 0.598178 12.7251 0.786581 12.9964C0.974984 13.2677 1.26334 13.4532 1.58835 13.5121C1.91336 13.571 2.24848 13.4986 2.52015 13.3107L17.2675 3.07253C17.4764 2.92848 17.7241 2.85129 17.9778 2.85118C18.2315 2.85107 18.4792 2.92805 18.6882 3.07192L33.4788 13.3119C33.6135 13.4052 33.7652 13.471 33.9253 13.5056C34.0854 13.5402 34.2507 13.5429 34.4119 13.5136C34.573 13.4844 34.7268 13.4236 34.8645 13.3349C35.0022 13.2461 35.1211 13.1312 35.2143 12.9965C35.3075 12.8618 35.3733 12.7101 35.408 12.55C35.4426 12.3899 35.4453 12.2246 35.416 12.0634C35.3867 11.9023 35.326 11.7485 35.2372 11.6108C35.1485 11.4731 35.0335 11.3543 34.8989 11.261ZM27.9758 3.20348H29.2229V7.33136L27.9758 6.46794V3.20348Z" fill="black"/>
</svg>
