<svg width="50" height="50" viewBox="0 0 50 50" fill="none" xmlns="http://www.w3.org/2000/svg">
<path d="M48.675 47.5215H42.9371V1.56573C42.9371 0.882475 42.345 0.328125 41.6153 0.328125H35.8532C35.1234 0.328125 34.5314 0.882475 34.5314 1.56573V47.5215H29.1995L29.203 17.7611C29.203 17.0778 28.6109 16.5235 27.8812 16.5235H22.1191C21.3893 16.5235 20.7973 17.0778 20.7973 17.7611V47.5215H15.4654V28.8187C15.4654 28.1355 14.8734 27.5811 14.1437 27.5811H8.38153C7.65181 27.5811 7.05976 28.1355 7.05976 28.8187V47.5248H1.32177C0.592048 47.5248 0 48.0791 0 48.7624C0 49.4456 0.592048 50 1.32177 50H48.6782C49.408 50 50 49.4456 50 48.7624C49.9966 48.0759 49.4082 47.5215 48.675 47.5215ZM12.8119 47.5248V38.7905V30.0563V47.5248ZM40.2872 47.5215V26V7.5V2.80334V47.5215Z" fill="#003C43"/>
<path d="M6.16851 19.4533C6.46797 19.4533 6.76744 19.3631 7.01528 19.1633L25.6954 4.56689L24.9554 7.55456C24.7867 8.22171 25.2376 8.88244 25.9433 9.04036C26.6661 9.19828 27.3615 8.77608 27.5301 8.11537L29.1513 1.56313L29.1616 1.5309C29.172 1.48256 29.172 1.44066 29.172 1.38909C29.1823 1.31496 29.1995 1.24083 29.1892 1.15704C29.1788 1.08291 29.1616 1.01522 29.1375 0.9411C29.1203 0.892757 29.1203 0.841191 29.1031 0.792842C29.1031 0.783173 29.0928 0.783173 29.0928 0.776727C29.0584 0.692933 29.0033 0.6188 28.9517 0.544675C28.9241 0.512446 28.9172 0.480218 28.8897 0.454438C28.8105 0.364191 28.7038 0.280396 28.5902 0.206271C28.5799 0.196603 28.573 0.190157 28.5627 0.180488C28.456 0.122475 28.3424 0.0805797 28.2288 0.0483441H28.2185C28.1221 0.0225606 28.0154 0.0161147 27.919 0.0161147C27.8846 0.0161147 27.8502 0 27.8054 0L20.5976 0.322289C19.8679 0.354519 19.3034 0.931425 19.3378 1.6179C19.3722 2.30116 19.9712 2.8136 20.7215 2.79751L23.9915 2.64925L5.31135 17.2456C4.74684 17.6839 4.678 18.4671 5.14268 18.986C5.41805 19.2954 5.78985 19.4533 6.16851 19.4533Z" fill="#003C43"/>
</svg>
