<svg width="107" height="14" viewBox="0 0 107 14" fill="none" xmlns="http://www.w3.org/2000/svg">
<path d="M14.6518 7.31279C14.7942 9.44901 15.6121 9.203 16.0329 8.89549C17.4635 7.84993 20.8664 7.30869 22.4654 7.73512C26.3776 8.77248 25.9892 12.9711 25.9892 12.9711C25.9892 12.9711 21.4491 8.72736 18.3828 11.6795C16.3781 13.6107 14.859 15.6568 9.39529 11.8887C9.39529 11.8887 2.91094 7.83353 0 6.96018V7.03807C2.91094 6.16472 9.39529 2.10959 9.39529 2.10959C14.859 -1.65443 16.3781 0.387497 18.3828 2.31871C21.4512 5.27498 25.9892 1.03122 25.9892 1.03122C25.9892 1.03122 26.3798 5.22577 22.4654 6.26723C20.8664 6.69365 17.4635 6.14832 16.0329 5.10276C15.5926 4.78294 14.7122 4.52463 14.6367 7.02577L14.6518 7.31279ZM12.986 6.99297C12.986 5.6563 13.424 4.51642 14.0433 4.049C13.8534 3.90549 13.6484 3.81938 13.4326 3.81938C12.5091 3.81938 11.7646 5.24218 11.7646 6.98888C11.7646 8.74378 12.5112 10.1584 13.4326 10.1584C13.6506 10.1584 13.8534 10.0722 14.0433 9.92874C13.424 9.47362 12.986 8.33375 12.986 6.99297ZM9.43413 6.99297C9.43413 6.08272 9.73407 5.31188 10.1527 4.99616C10.0232 4.90186 9.88513 4.84444 9.73839 4.84444C9.11262 4.84444 8.60767 5.80801 8.60767 6.99297C8.60767 8.18204 9.11262 9.14559 9.73839 9.14559C9.88513 9.14559 10.0254 9.08819 10.1527 8.98979C9.73407 8.67407 9.43413 7.89913 9.43413 6.99297ZM11.1324 6.98888C11.1324 5.91872 11.4841 5.00846 11.9782 4.63943C11.8293 4.52873 11.6632 4.45903 11.4884 4.45903C10.7526 4.45903 10.1549 5.5948 10.1549 6.98888C10.1549 8.39526 10.7526 9.52692 11.4884 9.52692C11.6632 9.52692 11.8272 9.45722 11.9782 9.34652C11.4841 8.97339 11.1324 8.05904 11.1324 6.98888Z" fill="#CC8A21"/>
<path d="M107 6.45827V6.5584C107 6.5584 92.3146 6.73777 77.6314 6.92133C73.9611 6.96721 70.2887 7.03814 66.8477 7.02145C65.1272 7.00894 63.4623 7.04231 61.8865 7.00059C60.3085 6.97139 58.8172 6.94219 57.4417 6.91299C54.9533 6.85041 52.8456 6.77533 51.2742 6.70441C46.7916 9.26996 42.3089 9.88319 37.8241 10C33.2168 9.89571 28.6073 9.26579 24 6.5C28.6073 3.73421 33.2168 3.10846 37.8241 3C42.3067 3.11263 46.7893 3.73004 51.272 6.29976C52.8433 6.22884 54.9511 6.14957 57.4417 6.087C58.8172 6.06197 60.3085 6.03277 61.8865 5.99939C63.4646 5.95768 65.1272 5.99106 66.8477 5.98272C70.2887 5.96186 73.9589 6.04111 77.6314 6.08283C92.3168 6.27472 107 6.45827 107 6.45827ZM37.9843 4.53933C35.053 4.59773 32.1173 4.94815 29.186 6.50834C32.1173 8.06853 35.053 8.41895 37.9843 8.47735C40.9156 8.41477 43.8491 8.06018 46.7804 6.50834C43.8469 4.95232 40.9156 4.6019 37.9843 4.53933Z" fill="#CC8A21"/>
</svg>
