<svg width="107" height="14" viewBox="0 0 107 14" fill="none" xmlns="http://www.w3.org/2000/svg">
<path d="M92.3503 6.68483C92.2079 4.54842 91.3879 4.79855 90.9671 5.10199C89.5365 6.14764 86.1336 6.69302 84.5346 6.26656C80.6224 5.22501 81.0108 1.0301 81.0108 1.0301C81.0108 1.0301 85.5509 5.27421 88.6172 2.31768C90.6219 0.390403 92.141 -1.65579 97.6047 2.10856C97.6047 2.10856 104.089 6.16404 107 7.04157V6.95955C104.089 7.83298 97.6047 11.8885 97.6047 11.8885C92.141 15.6569 90.6219 13.6107 88.6172 11.6793C85.5488 8.72691 81.0108 12.971 81.0108 12.971C81.0108 12.971 80.6202 8.77201 84.5346 7.73456C86.1336 7.3081 89.5365 7.85348 90.9671 8.89913C91.4073 9.21898 92.2878 9.47323 92.3633 6.97187L92.3503 6.68483ZM94.014 7.00877C94.014 8.34966 93.576 9.48963 92.9567 9.9571C93.1466 10.0965 93.3516 10.1826 93.5674 10.1826C94.4909 10.1826 95.2354 8.75972 95.2354 7.01286C95.2354 5.26601 94.4888 3.84311 93.5674 3.84311C93.3494 3.84311 93.1466 3.92922 92.9567 4.07274C93.576 4.52791 94.014 5.66787 94.014 7.00877ZM97.5659 7.00877C97.5659 7.9191 97.2659 8.69411 96.8473 9.00575C96.9768 9.10007 97.1149 9.16158 97.2616 9.16158C97.8874 9.16158 98.3923 8.19794 98.3923 7.00877C98.3923 5.81959 97.8874 4.86006 97.2616 4.86006C97.1149 4.86006 96.9746 4.91747 96.8473 5.01178C97.2659 5.32342 97.5659 6.09843 97.5659 7.00877ZM95.8676 7.00877C95.8676 8.08312 95.5159 8.98936 95.0218 9.36251C95.1728 9.47323 95.3368 9.53884 95.5116 9.53884C96.2474 9.53884 96.8451 8.40707 96.8451 7.00877C96.8451 5.60636 96.2474 4.4705 95.5116 4.4705C95.3368 4.4705 95.175 4.5402 95.0218 4.65502C95.5159 5.02407 95.8676 5.93851 95.8676 7.00877Z" fill="#CC8A21"/>
<path d="M0 7.0501V6.9356C0 6.9356 14.6854 6.72571 29.3686 6.52058C33.0389 6.46811 36.7113 6.387 40.1523 6.40608C41.8728 6.41562 43.5377 6.37747 45.1135 6.42517C46.6915 6.46333 48.1828 6.49673 49.5583 6.52535C52.0467 6.60168 54.1544 6.68754 55.7258 6.76863C60.2084 3.83483 64.6911 3.13357 69.1759 3C73.7832 3.11926 78.3927 3.8396 83 6.99762C78.3927 10.1604 73.7832 10.8807 69.1759 11C64.6933 10.8712 60.2107 10.1652 55.728 7.23137C54.1567 7.31246 52.0489 7.39833 49.5583 7.46988C48.1828 7.50328 46.6915 7.53667 45.1135 7.57006C43.5354 7.61777 41.8728 7.58438 40.1523 7.59392C36.7113 7.613 33.0411 7.52714 29.3686 7.47944C14.6854 7.25523 0 7.0501 0 7.0501ZM69.0179 9.24449C71.9492 9.1777 74.885 8.77699 77.8163 6.98808C74.885 5.20871 71.9492 4.808 69.0179 4.74121C66.0866 4.81277 63.1531 5.21348 60.2218 6.98808C63.1553 8.77222 66.0866 9.17293 69.0179 9.24449Z" fill="#CC8A21"/>
</svg>
