<svg width="15" height="15" viewBox="0 0 15 15" fill="none" xmlns="http://www.w3.org/2000/svg">
<path d="M0 6.63325V14.5107C0 14.7815 0.212617 15 0.476008 15H4.30629C4.56968 15 4.7823 14.7815 4.7823 14.5107V13.6887H6.06752C6.50227 13.9888 7.85414 14.7521 10.4658 14.7521H10.4785C11.0529 14.7521 12.6047 14.4781 13.2711 14.3085C13.8201 14.1682 14.147 13.6104 14.2707 13.1375C14.3405 12.8602 14.3183 12.5829 14.1946 12.2731C14.458 12.0154 14.6325 11.65 14.6769 11.2488C14.7277 10.7824 14.5944 10.3355 14.312 9.97995C14.8705 9.20362 14.861 8.77305 14.2739 7.99672C14.8388 7.40306 15.0768 6.83223 14.9784 6.29076C14.8324 5.47528 14.0073 5.15236 13.9121 5.11974C13.8614 5.10017 13.8074 5.09038 13.7535 5.09038H11.6495C11.6781 4.98274 11.7098 4.86857 11.7415 4.75441C12.0398 3.69755 12.4111 2.38301 11.6717 1.13371C10.999 -0.00795248 9.90732 -0.206928 9.22504 0.181237C8.80298 0.422617 8.63796 0.85971 8.82519 1.24135C8.91722 1.42728 8.8601 2.01768 8.82519 2.40911C8.7998 2.67984 8.77442 2.93427 8.77442 3.15934C8.77442 3.46922 7.96838 4.5326 7.1433 5.19476C6.55622 5.66447 5.68671 6.7148 5.35033 7.13232L4.7823 7.15189V6.63652C4.7823 6.36578 4.56968 6.14723 4.30629 6.14723H0.476008C0.212617 6.14723 0 6.36578 0 6.63652V6.63325ZM4.7823 8.1272L5.60103 8.09784C5.73749 8.09132 5.86759 8.02608 5.95328 7.91518C6.26744 7.51723 7.19724 6.38535 7.73037 5.96131C8.15243 5.62207 9.72961 4.15422 9.72961 3.15608C9.72961 2.97668 9.75182 2.74508 9.77404 2.50044C9.82481 1.97201 9.87558 1.42728 9.75817 1.0065C9.82481 0.986924 9.92001 0.970614 10.0343 0.983662C10.3421 1.0228 10.6372 1.2544 10.8625 1.63604C11.3829 2.52001 11.1037 3.51489 10.8308 4.47714C10.7292 4.83595 10.634 5.17193 10.5832 5.49812C10.561 5.63838 10.5991 5.78516 10.6911 5.89281C10.7832 6.00045 10.9133 6.06569 11.0529 6.06569H13.6551C13.7884 6.13092 14.0073 6.27771 14.0391 6.4669C14.0613 6.58759 14.0295 6.93987 13.306 7.57594C13.2108 7.66075 13.1505 7.78144 13.141 7.91191C13.1315 8.04239 13.1727 8.1696 13.2552 8.27072C13.4425 8.49253 13.7598 8.86765 13.763 8.99812C13.7662 9.13186 13.4456 9.52655 13.2933 9.71574C13.2076 9.82338 13.1696 9.96038 13.1886 10.0974C13.2076 10.2344 13.2806 10.3583 13.3949 10.4334C13.7249 10.6617 13.7439 10.9716 13.7281 11.1347C13.7027 11.376 13.5694 11.5815 13.398 11.65C13.2648 11.7022 13.1632 11.8131 13.1188 11.9534C13.0744 12.0937 13.0934 12.2437 13.1696 12.3677C13.3885 12.7232 13.36 12.8406 13.3473 12.8798C13.2838 13.1277 13.1347 13.3299 13.0395 13.3527C12.3127 13.5387 10.8974 13.767 10.4754 13.767H10.4627C7.67008 13.767 6.53718 12.8308 6.53083 12.8243C6.44515 12.746 6.33408 12.7069 6.21984 12.7069H4.77912V8.1272H4.7823ZM0.952016 7.12254H3.83028V14.0214H0.952016V7.12254Z" fill="#9A9A9A"/>
</svg>
