<svg width="45" height="45" viewBox="0 0 45 45" fill="none" xmlns="http://www.w3.org/2000/svg">
<path d="M10.4748 14.4275H1.44102C1.04008 14.4275 0.71521 14.7525 0.71521 15.1533V44.1751C0.71521 44.576 1.04008 44.9009 1.44102 44.9009H10.4748C10.8758 44.9009 11.2006 44.576 11.2006 44.1751V15.1533C11.2006 14.7525 10.8758 14.4275 10.4748 14.4275Z" fill="white"/>
<path d="M5.96119 0C2.67416 0 0 2.67126 0 5.95466C0 9.23951 2.67416 11.9118 5.96119 11.9118C9.24561 11.9118 11.9176 9.23937 11.9176 5.95466C11.9177 2.67126 9.24561 0 5.96119 0Z" fill="white"/>
<path d="M33.453 13.7061C29.8246 13.7061 27.1425 15.2658 25.5157 17.0381V15.1532C25.5157 14.7524 25.1908 14.4274 24.7899 14.4274H16.1384C15.7375 14.4274 15.4126 14.7524 15.4126 15.1532V44.175C15.4126 44.5759 15.7375 44.9008 16.1384 44.9008H25.1525C25.5534 44.9008 25.8783 44.5759 25.8783 44.175V29.8159C25.8783 24.9772 27.1926 23.0922 30.5656 23.0922C34.239 23.0922 34.5309 26.1142 34.5309 30.0649V44.1751C34.5309 44.5761 34.8558 44.9009 35.2567 44.9009H44.2741C44.6751 44.9009 45 44.5761 45 44.1751V28.2562C45 21.0612 43.628 13.7061 33.453 13.7061Z" fill="white"/>
</svg>
