<svg width="220" height="72" viewBox="0 0 220 72" fill="none" xmlns="http://www.w3.org/2000/svg">
<g filter="url(#filter0_d_642_1661)">
<path d="M4.92969 60.25V59.459C5.04688 59.3027 5.14453 59.1855 5.22266 59.1074C5.75 58.5605 6.48242 58.0625 7.41992 57.6133C8.12305 57.2812 8.77734 56.7344 9.38281 55.9727C9.92969 55.2891 10.2031 54.7422 10.2031 54.332H11.3164C11.7656 54.8984 12.2637 55.3379 12.8105 55.6504C13.7676 56.2168 14.8906 56.5 16.1797 56.5H27.4004C28.4551 56.5 29.3438 56.1387 30.0664 55.416C30.7891 54.6934 31.1504 53.8047 31.1504 52.75V44.6641C31.1504 43.5312 30.8672 42.457 30.3008 41.4414C29.9102 40.7383 29.4707 40.1914 28.9824 39.8008V38.6875C29.3926 38.6875 29.9492 38.4043 30.6523 37.8379C31.375 37.2715 31.9121 36.6172 32.2637 35.875C32.6152 35.1328 33.0352 34.498 33.5234 33.9707C33.6797 33.8145 33.875 33.6289 34.1094 33.4141H34.9004V52.75C34.9004 54.957 34.1973 56.7539 32.791 58.1406C31.4043 59.5469 29.6074 60.25 27.4004 60.25H4.92969ZM22.7422 31.1582C22.7422 31.9395 22.459 32.6133 21.8926 33.1797C21.3457 33.7266 20.6816 34 19.9004 34C19.1191 34 18.4453 33.7266 17.8789 33.1797C17.332 32.6133 17.0586 31.9395 17.0586 31.1582C17.0586 30.377 17.332 29.7129 17.8789 29.166C18.4453 28.5996 19.1191 28.3164 19.9004 28.3164C20.6816 28.3164 21.3457 28.5996 21.8926 29.166C22.459 29.7129 22.7422 30.377 22.7422 31.1582ZM43.707 6.63672C43.1406 7.08594 42.7012 7.58398 42.3887 8.13086C41.8223 9.08789 41.5391 10.2109 41.5391 11.5V12.877C40.7188 12.877 39.9668 13.082 39.2832 13.4922C38.5996 13.9023 38.1016 14.4395 37.7891 15.1035V0.25H38.5801C38.7363 0.367188 38.8535 0.464844 38.9316 0.542969C39.4785 1.07031 39.9766 1.80273 40.4258 2.74023C40.7578 3.44336 41.3047 4.09766 42.0664 4.70312C42.75 5.25 43.2969 5.52344 43.707 5.52344V6.63672ZM50.0059 49H37.7891V19.5273C37.7891 17.8867 38.1602 16.5391 38.9023 15.4844C39.6641 14.4297 40.7773 13.9023 42.2422 13.9023C43.4727 13.9023 44.459 14.4785 45.2012 15.6309C45.6895 16.3926 46.0508 17.3301 46.2852 18.4434L45.9336 18.707C45.4453 18.082 45.0645 17.6523 44.791 17.418C44.2441 16.9492 43.668 16.7148 43.0625 16.7148C42.3789 16.7148 41.9199 17.2031 41.6855 18.1797C41.5879 18.6094 41.5391 19.0586 41.5391 19.5273V45.1621C42.0273 45.0449 42.4668 44.7324 42.8574 44.2246C43.1113 43.8535 43.3652 43.4727 43.6191 43.082H44.7324C44.7324 43.4922 45.0156 44.0586 45.582 44.7812C46.1484 45.4844 46.8027 46.0117 47.5449 46.3633C48.2871 46.7148 48.9219 47.1348 49.4492 47.623C49.6055 47.7793 49.791 47.9746 50.0059 48.209V49ZM69.8867 49H67.8945C67.8945 52.9648 67.2598 56.1582 65.9902 58.5801C64.9355 60.5918 63.4707 62.0469 61.5957 62.9453C60.1309 63.6484 58.4805 64 56.6445 64V62.6816C57.6211 62.6816 58.6465 62.252 59.7207 61.3926C60.9512 60.416 61.957 59.0293 62.7383 57.2324C63.6758 55.084 64.1445 52.6328 64.1445 49.8789V49H52.8945V45.8066C52.8945 43.8145 53.168 42.0859 53.7148 40.6211C54.2812 39.1562 55.2578 37.8281 56.6445 36.6367C57.6211 35.7969 58.9199 35.0156 60.541 34.293C62.748 33.3164 63.9297 32.7793 64.0859 32.6816C65.2383 32.0176 66 31.207 66.3711 30.25H67.8945V45.25H69.8867V49ZM64.1445 45.25V36.7539C62.8945 37.2227 61.8984 37.6328 61.1562 37.9844C60.4141 38.3164 59.7402 38.7656 59.1348 39.332C57.4746 40.9336 56.6445 42.9062 56.6445 45.25H64.1445ZM92.2285 27.4082C92.2285 28.1895 91.9453 28.8633 91.3789 29.4297C90.832 29.9766 90.168 30.25 89.3867 30.25C88.6055 30.25 87.9316 29.9766 87.3652 29.4297C86.8184 28.8633 86.5449 28.1895 86.5449 27.4082C86.5449 26.627 86.8184 25.9629 87.3652 25.416C87.9316 24.8496 88.6055 24.5664 89.3867 24.5664C90.168 24.5664 90.832 24.8496 91.3789 25.416C91.9453 25.9629 92.2285 26.627 92.2285 27.4082ZM108.137 49C108.137 51.4023 107.756 53.1992 106.994 54.3906C106.096 55.7969 104.602 56.5 102.512 56.5C100.441 56.5 98.957 55.8066 98.0586 54.4199C97.2773 53.209 96.8867 51.4023 96.8867 49H66.8867V45.25H71.2812V44.6641C71.2812 43.5312 70.998 42.457 70.4316 41.4414C70.041 40.7383 69.6016 40.1914 69.1133 39.8008V38.6875C69.5234 38.6875 70.0801 38.4043 70.7832 37.8379C71.5059 37.2715 72.043 36.6172 72.3945 35.875C72.7461 35.1328 73.166 34.498 73.6543 33.9707C73.8105 33.8145 74.0059 33.6289 74.2402 33.4141H75.0312V45.25H76.5547C77.0039 45.25 77.6582 44.6055 78.5176 43.3164C79.6895 41.5391 80.5977 40.3379 81.2422 39.7129C82.5898 38.4043 84.0547 37.75 85.6367 37.75H108.137V49ZM104.387 49V41.5H85.6367C84.7969 41.5 83.918 42.125 83 43.375C82.707 43.7852 82.3359 44.4102 81.8867 45.25H100.637V49C100.637 50.25 100.773 51.1875 101.047 51.8125C101.32 52.4375 101.809 52.75 102.512 52.75C103.195 52.75 103.674 52.4277 103.947 51.7832C104.24 51.1582 104.387 50.2305 104.387 49ZM122.188 49C122.188 52.9844 121.562 56.1777 120.312 58.5801C119.277 60.5723 117.812 62.0273 115.918 62.9453C114.453 63.6484 112.812 64 110.996 64V62.6816C111.973 62.6816 112.988 62.252 114.043 61.3926C115.293 60.377 116.299 58.9902 117.061 57.2324C117.979 55.1035 118.438 52.6523 118.438 49.8789V38.9219C118.438 37.7109 118.154 36.8809 117.588 36.4316C117.139 36.2168 116.699 35.9922 116.27 35.7578V34.6445C116.68 34.6445 117.236 34.3613 117.939 33.7949C118.662 33.2285 119.199 32.5742 119.551 31.832C119.902 31.0898 120.322 30.4551 120.811 29.9277C120.967 29.7715 121.162 29.5859 121.396 29.3711H122.188V49ZM149.352 49H147.359C147.359 52.9453 146.734 56.1387 145.484 58.5801C144.449 60.5918 143.004 62.0469 141.148 62.9453C139.703 63.6484 138.062 64 136.227 64V62.6816C137.848 62.6816 139.391 61.6855 140.855 59.6934C142.691 57.2129 143.609 53.9414 143.609 49.8789V38.9219C143.609 37.7109 143.326 36.8809 142.76 36.4316C142.311 36.2168 141.871 35.9922 141.441 35.7578V34.6445C141.852 34.6445 142.408 34.3613 143.111 33.7949C143.834 33.2285 144.371 32.5742 144.723 31.832C145.074 31.0898 145.494 30.4551 145.982 29.9277C146.139 29.7715 146.334 29.5859 146.568 29.3711H147.359V45.25H149.352V49ZM157.895 17.2422C157.895 18.0234 157.611 18.6973 157.045 19.2637C156.498 19.8105 155.834 20.084 155.053 20.084C154.271 20.084 153.598 19.8105 153.031 19.2637C152.484 18.6973 152.211 18.0234 152.211 17.2422C152.211 16.4609 152.484 15.7969 153.031 15.25C153.598 14.6836 154.271 14.4004 155.053 14.4004C155.834 14.4004 156.498 14.6836 157.045 15.25C157.611 15.7969 157.895 16.4609 157.895 17.2422ZM161.615 23.6582C161.615 24.4395 161.332 25.1133 160.766 25.6797C160.219 26.2266 159.555 26.5 158.773 26.5C157.992 26.5 157.318 26.2266 156.752 25.6797C156.205 25.1133 155.932 24.4395 155.932 23.6582C155.932 22.877 156.205 22.2129 156.752 21.666C157.318 21.0996 157.992 20.8164 158.773 20.8164C159.555 20.8164 160.219 21.0996 160.766 21.666C161.332 22.2129 161.615 22.877 161.615 23.6582ZM154.115 23.6582C154.115 24.4395 153.832 25.1133 153.266 25.6797C152.719 26.2266 152.055 26.5 151.273 26.5C150.492 26.5 149.818 26.2266 149.252 25.6797C148.705 25.1133 148.432 24.4395 148.432 23.6582C148.432 22.877 148.705 22.2129 149.252 21.666C149.818 21.0996 150.492 20.8164 151.273 20.8164C152.055 20.8164 152.719 21.0996 153.266 21.666C153.832 22.2129 154.115 22.877 154.115 23.6582ZM161.352 49C161.352 51.4023 160.971 53.1992 160.209 54.3906C159.311 55.7969 157.816 56.5 155.727 56.5C153.656 56.5 152.172 55.8066 151.273 54.4199C150.492 53.209 150.102 51.4023 150.102 49H146.352V45.25H153.852V49C153.852 50.25 153.988 51.1875 154.262 51.8125C154.535 52.4375 155.023 52.75 155.727 52.75C156.41 52.75 156.889 52.4277 157.162 51.7832C157.455 51.1582 157.602 50.2305 157.602 49V41.5C157.602 40.5234 157.416 39.6152 157.045 38.7754C156.693 37.9355 156.156 37.2227 155.434 36.6367V35.5234C155.844 35.5234 156.4 35.2402 157.104 34.6738C157.826 34.1074 158.363 33.4531 158.715 32.7109C159.066 31.9688 159.486 31.334 159.975 30.8066C160.131 30.6504 160.326 30.4648 160.561 30.25H161.352V49ZM181.496 49H179.504C179.504 52.9648 178.869 56.1582 177.6 58.5801C176.545 60.5918 175.08 62.0469 173.205 62.9453C171.74 63.6484 170.09 64 168.254 64V62.6816C169.23 62.6816 170.256 62.252 171.33 61.3926C172.561 60.416 173.566 59.0293 174.348 57.2324C175.285 55.084 175.754 52.6328 175.754 49.8789V49H164.504V45.8066C164.504 43.8145 164.777 42.0859 165.324 40.6211C165.891 39.1562 166.867 37.8281 168.254 36.6367C169.23 35.7969 170.529 35.0156 172.15 34.293C174.357 33.3164 175.539 32.7793 175.695 32.6816C176.848 32.0176 177.609 31.207 177.98 30.25H179.504V45.25H181.496V49ZM175.754 45.25V36.7539C174.504 37.2227 173.508 37.6328 172.766 37.9844C172.023 38.3164 171.35 38.7656 170.744 39.332C169.084 40.9336 168.254 42.9062 168.254 45.25H175.754ZM210.547 7.75C210.547 9.09766 210.42 10.4551 210.166 11.8223C209.932 13.1699 209.502 14.791 208.877 16.6855H208.701C208.701 15.6895 208.418 14.7715 207.852 13.9316C207.305 13.0918 206.738 12.5547 206.152 12.3203C206.426 11.5586 206.641 10.8164 206.797 10.0938C206.953 9.37109 207.031 8.58984 207.031 7.75C207.031 6.48047 206.348 5.43555 204.98 4.61523C203.516 3.73633 201.494 3.29688 198.916 3.29688H198.594C197.637 3.29688 196.846 3.7168 196.221 4.55664C196.025 4.83008 195.801 5.25977 195.547 5.8457H195.166C194.893 5.65039 194.697 5.49414 194.58 5.37695C194.17 4.9668 193.965 4.54688 193.965 4.11719C193.965 3.82422 194.082 3.51172 194.316 3.17969C193.75 3.17969 193.066 2.91602 192.266 2.38867C191.484 1.8418 190.723 1.30469 189.98 0.777344V0.25H199.268C202.705 0.25 205.41 0.865234 207.383 2.0957C209.492 3.42383 210.547 5.30859 210.547 7.75ZM215.996 49H178.496V45.25H212.246V37.75C212.246 36.6172 211.992 35.709 211.484 35.0254C210.996 34.3418 210.391 34 209.668 34C208.906 34 208.281 34.3418 207.793 35.0254C207.324 35.6895 207.09 36.5977 207.09 37.75V41.5H184.238L180.488 37.75H180.811C181.553 37.75 182.803 37.3203 184.561 36.4609C186.475 35.5234 188.467 34.332 190.537 32.8867C192.939 31.207 195.088 29.4199 196.982 27.5254C198.096 26.4121 199.17 25.2402 200.205 24.0098C201.24 22.7793 202.119 21.6074 202.842 20.4941C203.096 20.0449 203.281 19.6934 203.398 19.4395C203.789 18.6191 203.984 17.9844 203.984 17.5352C203.984 16.9883 203.721 16.4414 203.193 15.8945C202.666 15.3477 202.051 15.0742 201.348 15.0742C200.488 15.0742 199.727 15.2988 199.062 15.748C198.398 16.1777 197.891 16.7734 197.539 17.5352L197.246 17.5645C197.246 16.0605 197.686 14.7715 198.564 13.6973C199.463 12.623 200.664 12.0859 202.168 12.0859C203.73 12.0859 205.039 12.5937 206.094 13.6094C207.168 14.6055 207.705 15.875 207.705 17.418C207.705 18.1016 207.637 18.668 207.5 19.1172C207.383 19.5469 207.207 19.9961 206.973 20.4648C206.504 21.4219 205.596 22.8086 204.248 24.625C202.666 26.7539 201.074 28.6191 199.473 30.2207C197.598 32.0957 195.742 33.7461 193.906 35.1719C192.09 36.5781 190.713 37.4375 189.775 37.75H203.34C203.34 35.4453 203.838 33.6484 204.834 32.3594C205.928 30.9531 207.539 30.25 209.668 30.25C211.777 30.25 213.379 30.9434 214.473 32.3301C215.488 33.6191 215.996 35.4258 215.996 37.75V49Z" fill="url(#paint0_linear_642_1661)"/>
</g>
<defs>
<filter id="filter0_d_642_1661" x="0.929688" y="0.25" width="219.066" height="71.75" filterUnits="userSpaceOnUse" color-interpolation-filters="sRGB">
<feFlood flood-opacity="0" result="BackgroundImageFix"/>
<feColorMatrix in="SourceAlpha" type="matrix" values="0 0 0 0 0 0 0 0 0 0 0 0 0 0 0 0 0 0 127 0" result="hardAlpha"/>
<feOffset dy="4"/>
<feGaussianBlur stdDeviation="2"/>
<feComposite in2="hardAlpha" operator="out"/>
<feColorMatrix type="matrix" values="0 0 0 0 0 0 0 0 0 0 0 0 0 0 0 0 0 0 0.5 0"/>
<feBlend mode="normal" in2="BackgroundImageFix" result="effect1_dropShadow_642_1661"/>
<feBlend mode="normal" in="SourceGraphic" in2="effect1_dropShadow_642_1661" result="shape"/>
</filter>
<linearGradient id="paint0_linear_642_1661" x1="224" y1="33.5" x2="2" y2="33.5" gradientUnits="userSpaceOnUse">
<stop stop-color="#65CCE3"/>
<stop offset="0.0001" stop-color="#6BC8D7"/>
<stop offset="1" stop-color="#CC8A21"/>
</linearGradient>
</defs>
</svg>
