<svg width="37" height="27" viewBox="0 0 37 27" fill="none" xmlns="http://www.w3.org/2000/svg">
<path d="M36.5092 2.88032C36.2449 2.36223 35.8673 1.92385 35.4143 1.56518C34.7347 1.04709 33.9418 0.728271 33.0357 0.728271H3.96429C3.05816 0.728271 2.26531 1.04709 1.58572 1.56518C1.13266 1.92385 0.755097 2.36223 0.490812 2.88032C0.151016 3.47812 0 4.15564 0 4.91285V22.6475C0 23.4445 0.226531 24.1619 0.566326 24.7995C0.868367 25.3176 1.24592 25.7162 1.69898 26.0749C2.34082 26.5531 3.13367 26.832 3.96429 26.832H33.0357C33.8663 26.832 34.6592 26.5531 35.301 26.0749C35.7541 25.756 36.1316 25.3176 36.4337 24.7995C36.8112 24.1619 37 23.4445 37 22.6475V4.91285C37 4.19549 36.8112 3.51797 36.5092 2.88032ZM3.96429 2.48179H33.0357C33.4133 2.48179 33.7531 2.56151 34.0551 2.72093L19.4816 14.6769C19.2173 14.916 18.8775 15.0355 18.5377 15.0355C18.198 15.0355 17.8582 14.916 17.5939 14.6769L3.02041 2.72093C3.24694 2.56151 3.58673 2.48179 3.96429 2.48179ZM1.62346 22.6873V4.95269C1.62346 4.63387 1.69897 4.2752 1.81224 3.99623L12.799 13.003L1.81224 23.6438C1.69897 23.325 1.62346 23.0061 1.62346 22.6873ZM33.0357 25.1184H3.96429C3.58673 25.1184 3.24693 25.0387 2.94489 24.8793L14.0826 14.0392L16.499 16.0318C17.0653 16.4702 17.7449 16.7492 18.4623 16.7492C19.1796 16.7492 19.8592 16.5101 20.4255 16.0318L22.8418 14.0392L33.9796 24.8793C33.7531 25.0387 33.4133 25.1184 33.0357 25.1184ZM24.201 12.9632L35.1878 3.95636C35.301 4.23533 35.3765 4.55417 35.3765 4.91285V22.6475C35.3765 22.9663 35.301 23.325 35.1878 23.6039L24.201 12.9632Z" fill="#c4c4c4"/>
</svg>
