<svg width="45" height="45" viewBox="0 0 45 45" fill="none" xmlns="http://www.w3.org/2000/svg">
<path d="M31.5005 0H13.4996C6.05591 0 0 6.05591 0 13.4996V31.4983C0 38.942 6.05591 44.9979 13.4996 44.9979H31.4983C38.942 44.9979 44.9979 38.942 44.9979 31.4983L45 13.4996C45 6.05591 38.9441 0 31.5005 0ZM40.4987 31.5005C40.4987 36.4637 36.4615 40.5009 31.4983 40.5009L13.4996 40.4988C8.53638 40.4988 4.49914 36.4616 4.49914 31.4984L4.50125 13.4996C4.50125 8.53643 8.53849 4.49919 13.5017 4.49919H31.5004C36.4636 4.49919 40.5009 8.53643 40.5009 13.4996L40.4987 31.5005ZM22.5 11.2511C16.2967 11.2511 11.2511 16.2987 11.2511 22.5C11.2511 28.7034 16.2987 33.749 22.5 33.749C28.7034 33.749 33.749 28.7014 33.749 22.5C33.749 16.2967 28.7035 11.2511 22.5 11.2511ZM22.5 29.2498C18.7771 29.2498 15.7502 26.2229 15.7502 22.5C15.7502 18.7771 18.7771 15.7502 22.5 15.7502C26.2229 15.7502 29.2498 18.7771 29.2498 22.5C29.2498 26.2229 26.2229 29.2498 22.5 29.2498ZM35.3478 9.6522C35.7507 10.0804 35.9996 10.6647 35.9996 11.251C35.9996 11.8353 35.7507 12.4217 35.3478 12.8478C34.9197 13.2528 34.3333 13.4995 33.749 13.4995C33.1626 13.4995 32.5783 13.2506 32.1523 12.8478C31.7473 12.4196 31.5005 11.8353 31.5005 11.251C31.5005 10.6647 31.7473 10.0804 32.1523 9.65431C33.0065 8.82111 34.4914 8.82112 35.3478 9.6522Z" fill="white"/>
</svg>
