<svg width="60" height="60" viewBox="0 0 60 60" fill="none" xmlns="http://www.w3.org/2000/svg">
<circle cx="30" cy="30" r="30" fill="#003C43"/>
<path d="M43.5 44.1433L43.5 44.144C43.5026 45.2727 42.7066 46.2369 41.6179 46.4396C37.7836 47.1428 33.8959 47.4984 30.0001 47.5C26.107 47.4984 22.2204 47.1459 18.3905 46.4443L18.3904 46.4442C17.296 46.2442 16.496 45.2773 16.5 44.1446L16.5 44.1433C16.5031 40.8655 17.7943 37.7245 20.0876 35.4079L20.0876 35.4079C22.3808 33.0913 25.4877 31.7889 28.7277 31.7857H31.2722C34.5123 31.7888 37.6193 33.0913 39.9123 35.4078L39.9123 35.4079C42.2057 37.7246 43.4969 40.8656 43.5 44.1433ZM16.0008 44.1429L16 44.1429L16.0008 44.1429ZM35.9448 27.0126C34.3678 28.6056 32.2288 29.4999 30.0008 29.5001L30.0001 29.5001C27.7717 29.4968 25.6356 28.6025 24.0586 27.0094C22.4813 25.4158 21.5941 23.2556 21.591 20.9997C21.5911 18.744 22.4781 16.5806 24.0553 14.9875C25.6326 13.3943 27.7717 12.5 30.0001 12.5C32.2285 12.5 34.3678 13.3942 35.9448 14.9874C37.522 16.5809 38.4092 18.7443 38.4092 21C38.4092 23.2558 37.5222 25.4194 35.9448 27.0126Z" fill="#D9D9D9" stroke="#003C43"/>
</svg>
