<svg width="50" height="51" viewBox="0 0 50 51" fill="none" xmlns="http://www.w3.org/2000/svg">
<path d="M28.853 7.37977L30.0979 16.4718H38.2272L34.4818 7.37977H28.853ZM29.0681 16.4718L27.8233 7.37977H22.1772L20.9302 16.4718H29.0681ZM19.9004 16.4718L21.1453 7.37977H15.5164L11.771 16.4718H19.9004ZM35.5879 7.37977L39.3311 16.4718H47.3064L41.078 7.37977H35.5879ZM10.6671 16.4718L14.4125 7.37977H8.92263L2.69201 16.4718H10.6671ZM8.23177 6.58057L8.23394 4.55149C8.23394 3.63473 8.60978 2.79832 9.21373 2.19434C9.82205 1.58824 10.6563 1.21022 11.5752 1.21022H38.4226C39.3393 1.21022 40.1757 1.58606 40.7797 2.19C41.3858 2.79832 41.7638 3.63256 41.7638 4.55149L41.766 6.57841L48.6985 16.6977C48.7528 16.7802 48.7854 16.878 48.7854 16.9844V20.3626C48.8093 21.1056 48.6203 21.8486 48.1727 22.5004C47.7752 23.0783 47.1755 23.5779 46.35 23.9299C45.77 24.1797 45.1334 24.3427 44.4839 24.4187C44.5012 24.4687 44.5099 24.523 44.5099 24.5816V43.8296H45.2725C45.67 43.8296 46.035 43.9926 46.2979 44.2576C46.563 44.5248 46.7281 44.8876 46.7281 45.2852V47.3926C46.7281 47.7901 46.563 48.1551 46.3001 48.4202C46.0394 48.6852 45.6744 48.8481 45.2725 48.8481H4.72534C4.32561 48.8481 3.9628 48.6852 3.6999 48.4223C3.43486 48.1595 3.27192 47.7945 3.27192 47.3947V45.2874C3.27192 44.8877 3.43486 44.5227 3.69773 44.2598C3.9606 43.9969 4.32557 43.8318 4.72534 43.8318H5.48788V24.4164C4.84703 24.3382 4.22135 24.1774 3.64779 23.9319C2.82223 23.5778 2.22264 23.0804 1.82726 22.5024C1.37756 21.8529 1.18857 21.1099 1.2146 20.3669L1.21243 17.017C1.20591 16.9083 1.23415 16.7975 1.29933 16.6998L8.23182 6.58275L8.23177 6.58057ZM43.4999 24.4688C42.5961 24.4536 41.6924 24.2754 40.8885 23.9322C40.063 23.5781 39.4634 23.0806 39.0659 22.5005L38.9637 22.3441L38.8616 22.5005C38.4641 23.0784 37.8645 23.5781 37.039 23.93C36.2026 24.2885 35.2532 24.4688 34.3081 24.4688C33.363 24.4688 32.4137 24.2885 31.5773 23.93C30.7517 23.5759 30.1521 23.0784 29.7546 22.4984L29.6525 22.3419L29.5504 22.4984C29.1528 23.0763 28.5532 23.5759 27.7277 23.93C26.8913 24.2885 25.9419 24.4688 24.9968 24.4688C24.0518 24.4688 23.1025 24.2885 22.2638 23.93C21.4383 23.5759 20.8409 23.0784 20.4433 22.4984L20.3412 22.3419L20.2391 22.4984C19.8415 23.0763 19.2419 23.5759 18.4164 23.93C17.58 24.2885 16.6307 24.4688 15.6856 24.4688C14.7406 24.4688 13.7912 24.2885 12.9547 23.93C12.1292 23.5759 11.5296 23.0784 11.132 22.5005L11.0299 22.3441L10.9278 22.5005C10.5303 23.0784 9.93065 23.5781 9.10732 23.93C8.31001 24.2711 7.40843 24.4514 6.50901 24.4666V43.8275H9.58745V30.1516C9.58745 29.4912 9.85684 28.8894 10.3087 28.4397C10.7563 28.0096 11.3428 27.7532 11.9859 27.7532H17.5192C18.1796 27.7532 18.7792 28.0248 19.2289 28.4745C19.6591 28.9242 19.9176 29.5108 19.9176 30.1516V43.8275H43.4847V24.5795C43.4847 24.5404 43.4891 24.5035 43.4978 24.4666L43.4999 24.4688ZM2.23363 17.4974V20.3954C2.21625 20.9299 2.35094 21.4621 2.66812 21.9205C2.95924 22.3442 3.41326 22.7178 4.04984 22.9894C4.75371 23.2914 5.56625 23.4435 6.38091 23.4435C7.19557 23.4435 8.00594 23.2914 8.71198 22.9894C9.3485 22.7179 9.80255 22.342 10.0937 21.9205C10.3696 21.5208 10.5065 21.0689 10.526 20.6062V20.4041L10.5238 17.4952H2.23378L2.23363 17.4974ZM11.547 20.4302V20.6083C11.5644 21.0711 11.7013 21.5229 11.9772 21.9227C12.2705 22.3463 12.7223 22.72 13.3589 22.9916C14.0628 23.2936 14.8753 23.4456 15.69 23.4456C16.5046 23.4456 17.315 23.2936 18.021 22.9916C18.6576 22.72 19.1116 22.3442 19.4027 21.9205C19.6765 21.523 19.8155 21.0711 19.8329 20.6105V20.4041L19.8307 17.4952H11.5468L11.5446 20.428L11.547 20.4302ZM20.856 20.4302V20.6105C20.8755 21.0711 21.0124 21.5229 21.2883 21.9205C21.5794 22.3442 22.0334 22.7178 22.67 22.9916C23.3739 23.2936 24.1864 23.4456 25.0011 23.4456C25.8157 23.4456 26.6261 23.2936 27.3321 22.9916C27.9687 22.7179 28.4227 22.3463 28.7139 21.9205C28.9876 21.523 29.1266 21.0711 29.144 20.6105V20.4041L29.1418 17.4952H20.8579L20.8557 20.428L20.856 20.4302ZM30.1649 20.4302V20.6105C30.1845 21.0711 30.3213 21.5229 30.5951 21.9205C30.8883 22.3442 31.3402 22.7178 31.9789 22.9916C32.6828 23.2936 33.4954 23.4456 34.31 23.4456C35.1247 23.4456 35.935 23.2936 36.6411 22.9916C37.2776 22.72 37.7317 22.3442 38.0228 21.9227C38.2965 21.5252 38.4356 21.0733 38.453 20.6127V20.4063L38.4508 17.4973H30.1668L30.1649 20.4302ZM39.4738 20.4302V20.6105C39.4934 21.0711 39.6303 21.5229 39.904 21.9205C40.1973 22.3442 40.6491 22.7178 41.2879 22.9916C41.9939 23.2936 42.8043 23.4456 43.619 23.4456C44.4336 23.4456 45.244 23.2936 45.95 22.9916C46.5866 22.72 47.0406 22.3442 47.3317 21.9227C47.6489 21.4643 47.7815 20.9321 47.7641 20.3976L47.7662 17.4995H39.4762L39.474 20.4324L39.4738 20.4302ZM45.2723 44.8555H4.72076C4.60344 44.8555 4.49482 44.9054 4.41661 44.9836C4.34057 45.0619 4.29061 45.1683 4.29061 45.2856V47.393C4.29061 47.5103 4.34058 47.6189 4.41661 47.6971C4.49265 47.7753 4.60127 47.8231 4.72076 47.8231H45.2679C45.3852 47.8231 45.4938 47.7731 45.572 47.6971C45.6502 47.6211 45.7002 47.5124 45.7002 47.393V45.2856C45.7002 45.1661 45.6524 45.0597 45.5764 44.9836C45.4982 44.9054 45.3895 44.8555 45.2701 44.8555H45.2723ZM38.4227 2.23555H11.5754C10.9389 2.23555 10.3588 2.49625 9.9395 2.91556C9.52021 3.33702 9.25949 3.91709 9.25949 4.55361V6.35895H40.7407V4.55361C40.7407 3.91709 40.48 3.33702 40.0607 2.91556C39.6414 2.49627 39.0613 2.23555 38.4248 2.23555H38.4227ZM23.7825 38.2355H39.3832V30.1602C39.3832 29.7626 39.2485 29.4063 39.0356 29.1543C38.8379 28.924 38.5729 28.7806 38.2882 28.7806H24.8799C24.5931 28.7806 24.3281 28.924 24.1217 29.1673C23.9088 29.4302 23.7849 29.7756 23.7849 30.1579V38.2333L23.7825 38.2355ZM39.896 39.261H23.2697C22.9873 39.261 22.757 39.0307 22.757 38.7483V30.1607C22.757 29.5372 22.9742 28.9615 23.337 28.5139C23.7368 28.0403 24.2799 27.7579 24.8773 27.7579H38.2857C38.8853 27.7579 39.4263 28.0403 39.8108 28.4965C40.1779 28.9289 40.406 29.5198 40.406 30.1628V38.7504C40.406 39.0329 40.1758 39.2632 39.8933 39.2632L39.896 39.261ZM17.5218 28.783H11.9885C11.6235 28.783 11.289 28.9286 11.0304 29.174C10.7697 29.4347 10.6155 29.7801 10.6155 30.156V43.8319H18.895V30.156C18.895 29.791 18.7516 29.4565 18.5039 29.1979C18.241 28.9372 17.8978 28.7808 17.522 28.7808L17.5218 28.783ZM3.53726 25.1897L3.88051 25.307C4.10862 25.3592 4.28025 25.5634 4.28025 25.8067V42.2567C4.28025 42.474 4.13903 42.6782 3.92179 42.7455C3.37649 42.9193 2.90508 43.2647 2.57483 43.7145C2.2533 44.1533 2.06212 44.6964 2.06212 45.2851V47.3925C2.06212 48.1268 2.35976 48.7937 2.84202 49.2738C3.32432 49.7583 3.99126 50.0559 4.72556 50.0559H45.2727C46.007 50.0559 46.6739 49.7561 47.1562 49.2738C47.6385 48.7916 47.9383 48.1246 47.9383 47.3925V45.2851C47.9383 44.6986 47.7471 44.1533 47.4278 43.7145C47.0997 43.2669 46.6348 42.9258 46.096 42.7499C45.881 42.689 45.7202 42.4913 45.7202 42.2567V25.8067C45.7224 25.5873 45.8658 25.3853 46.0852 25.3179L46.4632 25.1897L46.8303 25.0442C47.834 24.6162 48.6574 23.9558 49.2092 23.1324C49.7393 22.3438 50.0282 21.4009 49.9978 20.3581L50 16.452L43.0825 6.35665C43.0152 6.26975 42.9739 6.15895 42.9739 6.03947V4.54914C42.9739 3.29345 42.4634 2.15722 41.6422 1.33389C40.8188 0.508327 39.6804 0 38.4247 0H11.5774C10.3239 0 9.18545 0.510535 8.36429 1.33172C7.53873 2.15511 7.02824 3.29345 7.02824 4.54919V6.04169C7.02606 6.14163 6.99782 6.24156 6.93916 6.32846L0 16.4499L0.00434524 20.3561C-0.0238975 21.3988 0.265044 22.3439 0.795144 23.1303C1.34913 23.9537 2.17252 24.612 3.17399 25.0421L3.54114 25.1877L3.53726 25.1897Z" fill="#003C43"/>
</svg>
