<svg width="35" height="27" viewBox="0 0 35 27" fill="none" xmlns="http://www.w3.org/2000/svg">
<path fill-rule="evenodd" clip-rule="evenodd" d="M5.71562 18.7522H9.18676C9.46505 18.7522 9.72089 18.92 9.84958 19.1887C9.97825 19.4573 9.9603 19.7814 9.8017 20.0305L5.58233 26.6499C5.44319 26.8697 5.21278 27 4.96739 27C4.722 27 4.49309 26.8697 4.35245 26.6499L0.133077 20.0305C-0.025517 19.7814 -0.043473 19.4573 0.0851994 19.1887C0.213872 18.92 0.469715 18.7522 0.748019 18.7522H4.21916V0.814177C4.21916 0.364756 4.5543 0 4.96724 0C5.38017 0 5.71532 0.364756 5.71532 0.814177L5.71562 18.7522ZM7.7579 20.3806H2.17727H4.96758H7.7579ZM12.954 24.7331C12.541 24.7331 12.2059 24.3683 12.2059 23.9189C12.2059 23.4695 12.541 23.1047 12.954 23.1047H20.7071C21.12 23.1047 21.4552 23.4695 21.4552 23.9189C21.4552 24.3683 21.12 24.7331 20.7071 24.7331H12.954ZM12.954 17.7881C12.541 17.7881 12.2059 17.4234 12.2059 16.9739C12.2059 16.5245 12.541 16.1598 12.954 16.1598H25.8748C26.2878 16.1598 26.6229 16.5245 26.6229 16.9739C26.6229 17.4234 26.2878 17.7881 25.8748 17.7881H12.954ZM12.954 10.8432C12.541 10.8432 12.2059 10.4784 12.2059 10.029C12.2059 9.57957 12.541 9.21482 12.954 9.21482H29.9923C30.4053 9.21482 30.7404 9.57957 30.7404 10.029C30.7404 10.4784 30.4053 10.8432 29.9923 10.8432H12.954ZM12.954 3.89822C12.541 3.89822 12.2059 3.53346 12.2059 3.08404C12.2059 2.63462 12.541 2.26987 12.954 2.26987H34.2519C34.6649 2.26987 35 2.63462 35 3.08404C35 3.53346 34.6649 3.89822 34.2519 3.89822H12.954Z" fill="black"/>
</svg>
