<svg width="51" height="50" viewBox="0 0 51 50" fill="#003c43" xmlns="http://www.w3.org/2000/svg">
<path d="M37.5441 48.1332L37.5453 48.1504L37.547 48.1676C37.5892 48.5763 37.2355 49 36.7529 49H14.3397C13.8917 49 13.5272 48.6526 13.5493 48.1222C13.7007 45.9221 14.203 43.755 14.9185 41.6137C15.8169 39.0011 17.6771 37.0006 20.0254 35.9201C21.6363 36.9189 23.551 37.4553 25.5463 37.4553C27.5554 37.4553 29.4261 36.9119 31.0605 35.9171C33.4131 36.9973 35.2766 39.0006 36.1755 41.6175L36.1754 41.6176L36.1798 41.6298C36.9383 43.7478 37.3926 45.9148 37.5441 48.1332Z" stroke="#003c43" stroke-width="2"/>
<path d="M32.0174 26.3506C32.0174 30.0338 29.1001 32.983 25.5463 32.983C21.9924 32.983 19.0752 30.0338 19.0752 26.3506C19.0752 22.6674 21.9924 19.7183 25.5463 19.7183C29.1001 19.7183 32.0174 22.6674 32.0174 26.3506Z" stroke="#003c43" stroke-width="2"/>
<path d="M22.0073 10.0721L22.0982 9.54185L21.7058 9.17384L18.4963 6.1639L18.4958 6.16339C18.4952 6.16281 18.4946 6.16228 18.4942 6.1618C18.4942 6.15766 18.4949 6.15035 18.4981 6.14052C18.5035 6.12451 18.5113 6.11513 18.5146 6.11203C18.5153 6.11188 18.5164 6.11171 18.5177 6.11154L18.5301 6.10995L18.5425 6.10805L22.7515 5.46307L23.2684 5.38386L23.4983 4.91421L25.3923 1.04428L25.3982 1.03231L25.4037 1.02018C25.4087 1.0094 25.4128 1.00338 25.4149 1.00059C25.417 1.00338 25.4211 1.0094 25.426 1.02018L25.4316 1.03231L25.4374 1.04428L27.3315 4.91421L27.5614 5.38386L28.0782 5.46307L32.2873 6.10805L32.2997 6.10995L32.3121 6.11154C32.3134 6.11171 32.3144 6.11188 32.3152 6.11203C32.3185 6.11513 32.3263 6.12451 32.3316 6.14052C32.3349 6.15035 32.3356 6.15766 32.3356 6.1618C32.3351 6.16228 32.3346 6.16281 32.334 6.16339L32.3245 6.17225L32.3153 6.18136L29.2637 9.19131L28.8922 9.55775L28.9803 10.0721L29.7169 14.372L29.7168 14.372L29.7189 14.3837C29.7212 14.3962 29.721 14.4044 29.7205 14.4095C29.7199 14.415 29.7186 14.4202 29.7163 14.4258C29.7129 14.4341 29.7074 14.4426 29.7008 14.45L25.9735 12.412L25.4938 12.1497L25.0141 12.412L21.304 14.4406C21.3 14.4393 21.2935 14.4365 21.2858 14.4308C21.2743 14.4221 21.2694 14.4136 21.2681 14.4105C21.2676 14.4093 21.2672 14.4081 21.267 14.4059C21.2668 14.4039 21.2662 14.397 21.2687 14.3837L21.2687 14.3837L21.2707 14.372L22.0073 10.0721ZM25.4149 0.999492C25.4146 0.999354 25.4143 0.999189 25.414 0.998992C25.4132 0.998462 25.4127 0.998069 25.4127 0.998072C25.4127 0.998074 25.413 0.998301 25.4135 0.998867C25.4136 0.999054 25.4139 0.999361 25.4143 0.999802C25.4129 1.00043 25.413 1 25.4149 1C25.4151 1 25.4152 1 25.4153 1.00001C25.4154 0.999937 25.4155 0.999868 25.4155 0.999802L25.4149 0.999492Z" stroke="#003c43" stroke-width="2"/>
<path d="M12.7227 21.3056L12.7227 21.3056L12.7248 21.3173C12.7263 21.3256 12.7267 21.331 12.7266 21.3341C12.7247 21.3365 12.7205 21.3409 12.7127 21.3464C12.6885 21.3634 12.6175 21.3957 12.5 21.3568L8.82156 19.3456L8.34183 19.0833L7.86209 19.3456L4.15199 21.3742C4.14804 21.3729 4.1415 21.3701 4.13386 21.3644C4.12228 21.3557 4.11745 21.3472 4.11614 21.3441C4.11564 21.3429 4.11526 21.3417 4.11502 21.3395C4.11481 21.3375 4.11423 21.3306 4.11668 21.3173L4.11675 21.3173L4.11875 21.3056L4.85534 17.0057L4.94345 16.4913L4.57193 16.1249L1.52036 13.115L1.51113 13.1058L1.50166 13.097C1.50104 13.0964 1.5005 13.0959 1.50001 13.0954C1.50006 13.0913 1.50073 13.0839 1.504 13.0741C1.50932 13.0581 1.51716 13.0487 1.52046 13.0456C1.5212 13.0455 1.52221 13.0453 1.52354 13.0451L1.53596 13.0435L1.54834 13.0416L5.75741 12.3967L6.27426 12.3175L6.50413 11.8478L8.3982 7.97788L8.40406 7.9659L8.4096 7.95378C8.41453 7.94299 8.41861 7.93697 8.42075 7.93418C8.42288 7.93697 8.42696 7.94299 8.43189 7.95378L8.43743 7.9659L8.44329 7.97788L10.3374 11.8478L10.5672 12.3175L11.0841 12.3967L15.2931 13.0416L15.3055 13.0435L15.3179 13.0451C15.3193 13.0453 15.3203 13.0455 15.321 13.0456C15.3243 13.0487 15.3322 13.0581 15.3375 13.0741C15.3408 13.0839 15.3414 13.0913 15.3415 13.0954C15.341 13.0959 15.3404 13.0964 15.3398 13.097L15.3304 13.1058L15.3211 13.115L12.2696 16.1249L11.898 16.4913L11.9862 17.0057L12.7227 21.3056ZM12.7263 21.3373C12.7263 21.3373 12.7263 21.3368 12.7266 21.3359L12.7263 21.3373ZM8.42075 7.93309C8.42049 7.93295 8.4202 7.93278 8.41989 7.93259C8.41904 7.93206 8.41861 7.93166 8.41861 7.93167C8.41861 7.93167 8.41885 7.9319 8.41934 7.93246C8.41951 7.93265 8.41977 7.93295 8.42013 7.9334C8.41877 7.93402 8.41884 7.93359 8.42075 7.93359C8.42091 7.93359 8.42106 7.9336 8.4212 7.9336L8.42075 7.93309Z" stroke="#003c43" stroke-width="2"/>
<path d="M44.5361 11.7941L44.766 12.2637L45.2828 12.3429L49.4501 12.9815L49.4265 12.9976L49.362 13.0612L46.3105 16.0712L45.9389 16.4376L46.027 16.952L46.7636 21.2519L46.7636 21.2519L46.7657 21.2636C46.768 21.2761 46.7678 21.2843 46.7672 21.2894C46.7666 21.2948 46.7653 21.3001 46.7631 21.3056C46.7597 21.314 46.7542 21.3225 46.7475 21.3298L43.0203 19.2919L42.5406 19.0296L42.0608 19.2919L38.3507 21.3205C38.3468 21.3192 38.3402 21.3164 38.3326 21.3107C38.321 21.302 38.3162 21.2935 38.3149 21.2904C38.3144 21.2892 38.314 21.2879 38.3138 21.2858C38.3135 21.2838 38.313 21.2769 38.3154 21.2636L38.3155 21.2636L38.3175 21.2519L39.0541 16.952L39.1422 16.4376L38.7707 16.0712L35.7191 13.0612L35.7099 13.0521L35.7004 13.0433C35.6998 13.0427 35.6992 13.0422 35.6987 13.0417C35.6988 13.0375 35.6995 13.0302 35.7027 13.0204C35.708 13.0044 35.7159 12.995 35.7192 12.9919C35.7199 12.9918 35.7209 12.9916 35.7223 12.9914L35.7347 12.9898L35.7471 12.9879L39.9561 12.3429L40.473 12.2637L40.7029 11.7941L42.5969 7.92416L42.6028 7.91219L42.6083 7.90007C42.6133 7.88928 42.6173 7.88326 42.6195 7.88047C42.6216 7.88326 42.6257 7.88928 42.6306 7.90007L42.6362 7.91219L42.642 7.92417L44.5361 11.7941ZM42.6195 7.87938C42.6192 7.87924 42.6189 7.87907 42.6186 7.87887C42.6178 7.87834 42.6173 7.87795 42.6173 7.87795C42.6173 7.87796 42.6176 7.87818 42.6181 7.87875C42.6182 7.87894 42.6185 7.87924 42.6189 7.87968C42.6175 7.88031 42.6176 7.87988 42.6195 7.87988C42.6196 7.87988 42.6198 7.87989 42.6199 7.87989C42.62 7.87982 42.62 7.87975 42.6201 7.87968L42.6195 7.87938Z" stroke="#003c43" stroke-width="2"/>
</svg>
