<svg width="98" height="20" viewBox="0 0 98 20" fill="none" xmlns="http://www.w3.org/2000/svg">
<path d="M71.2331 1.58411C70.9497 1.38486 70.9534 1.06377 71.2423 0.868331C71.5313 0.67289 71.997 0.675434 72.2805 0.874682C77.3993 4.45989 80.5854 3.10322 83.8379 1.71736C87.6093 0.110681 91.4581 -1.52772 97.7715 2.60573C98.066 2.79863 98.0771 3.11845 97.7973 3.3215C97.5175 3.52456 97.0537 3.53218 96.7592 3.33928C91.2667 -0.25735 87.9039 1.17419 84.6091 2.57781C80.8523 4.17814 77.1747 5.74421 71.2331 1.58411ZM54.8459 8.39282C56.4528 7.65674 58.1314 7.24683 59.6757 7.12119C61.6655 6.95874 63.4564 7.26713 64.6381 7.95625C64.8976 8.10854 65.1277 8.27099 65.3265 8.44359C65.9413 8.97407 66.2155 9.55532 66.199 10.1175C66.1824 10.6874 65.875 11.2305 65.3265 11.676C65.1609 11.8105 64.9694 11.9387 64.7504 12.0592C64.6031 12.1405 64.4614 12.2103 64.3252 12.2687C62.8232 12.9134 60.8814 12.8956 59.0665 12.4895C57.3087 12.096 55.6429 11.3308 54.6305 10.4564C54.4722 10.3193 54.3342 10.1873 54.2201 10.0604C53.6789 9.46014 53.3936 8.80909 53.3218 8.14281C53.2077 7.08692 53.6384 5.9993 54.4317 5.03352C55.2159 4.08042 56.3589 3.24155 57.6823 2.67299C58.6928 2.23896 59.8138 1.95976 60.9697 1.89885C64.2718 1.71102 67.1046 2.99154 70.0257 4.3114C74.4211 6.29754 79.0301 8.3814 85.4595 4.86219C85.7779 4.68832 86.2399 4.72386 86.4921 4.94341C86.7442 5.16297 86.6927 5.48151 86.3743 5.65538C79.1111 9.6302 74.0475 7.34201 69.2213 5.16043C66.5156 3.93702 63.8908 2.75168 61.0912 2.91032H61.082C60.1727 2.95727 59.2782 3.18191 58.4591 3.53345C57.34 4.01317 56.3736 4.72387 55.7073 5.53228C55.052 6.32928 54.695 7.2189 54.787 8.07047C54.798 8.17834 54.8183 8.28495 54.844 8.39155L54.8459 8.39282ZM59.8469 8.12885C58.4186 8.24561 56.8467 8.64918 55.3484 9.38526C55.387 9.43222 55.4257 9.47917 55.468 9.52613C55.5656 9.63527 55.6687 9.73553 55.7754 9.82691C56.6166 10.5516 58.0192 11.1925 59.5156 11.5262C60.955 11.8473 62.4533 11.879 63.5503 11.4082C63.6607 11.3612 63.7564 11.3156 63.8374 11.2711C63.97 11.1975 64.0933 11.115 64.2074 11.0224C64.5387 10.7521 64.7246 10.4323 64.7338 10.1023C64.743 9.76472 64.57 9.40937 64.1835 9.07433C64.0509 8.96011 63.8871 8.84462 63.6902 8.7304C62.8196 8.22276 61.4335 8.00067 59.8488 8.13012L59.8469 8.12885ZM25.7195 0.874682C26.003 0.675434 26.4687 0.67289 26.7577 0.868331C27.0466 1.06377 27.0503 1.38486 26.7669 1.58411C20.8271 5.74421 17.1477 4.17687 13.3909 2.57781C10.0962 1.17419 6.7333 -0.25735 1.24082 3.33928C0.946312 3.53218 0.48247 3.52456 0.202692 3.3215C-0.0770858 3.11845 -0.066042 2.79863 0.228461 2.60573C6.54003 -1.52772 10.3907 0.110681 14.1621 1.71736C17.4146 3.10322 20.6007 4.45989 25.7195 0.874682ZM52.6739 10.5439C52.9243 10.7635 52.869 11.0833 52.5506 11.2559C52.2322 11.4285 51.7683 11.3904 51.518 11.1709C49.9608 9.8066 49.5688 8.2418 49.8117 6.75442C50.1394 4.74797 51.6413 2.87732 52.9592 1.85696C53.2298 1.64756 53.6936 1.62853 53.9973 1.81509C54.3011 2.00164 54.3287 2.32146 54.0581 2.53086C52.8911 3.43319 51.5622 5.08936 51.2732 6.86482C51.0689 8.11362 51.391 9.41825 52.6758 10.5439H52.6739ZM46.4802 11.1709C46.2298 11.3904 45.7678 11.4298 45.4476 11.2559C45.1291 11.0833 45.0721 10.7648 45.3242 10.5439C46.609 9.41825 46.9293 8.11362 46.7268 6.86482C46.4378 5.08936 45.1089 3.43319 43.9419 2.53086C43.6713 2.32146 43.6989 2.00164 44.0027 1.81509C44.3064 1.62853 44.7702 1.64756 45.0408 1.85696C46.3605 2.87732 47.8625 4.74797 48.1883 6.75442C48.4312 8.2418 48.0392 9.8066 46.482 11.1709H46.4802ZM42.6516 9.38526C41.1515 8.64918 39.5814 8.24561 38.1531 8.12885C36.5683 7.9994 35.1841 8.22149 34.3117 8.72913C34.1147 8.84462 33.9509 8.95884 33.8184 9.07306C33.43 9.4081 33.2588 9.76345 33.268 10.101C33.2772 10.431 33.4631 10.7508 33.7944 11.0211C33.9067 11.1138 34.03 11.1963 34.1644 11.2699C34.2454 11.3143 34.3411 11.36 34.4516 11.4069C35.5486 11.8778 37.0469 11.846 38.4862 11.525C39.9827 11.1912 41.3871 10.5503 42.2264 9.82564C42.3332 9.73426 42.4363 9.634 42.5338 9.52486C42.5762 9.4779 42.6166 9.43094 42.6535 9.38398L42.6516 9.38526ZM38.3243 7.12119C39.8686 7.24683 41.5472 7.65674 43.1541 8.39282C43.1799 8.28621 43.2001 8.17961 43.2112 8.07174C43.3032 7.22017 42.9461 6.33181 42.2909 5.53355C41.6264 4.72513 40.6582 4.01444 39.5391 3.53472C38.72 3.18318 37.8255 2.95728 36.9162 2.91159H36.907C34.1074 2.75168 31.4826 3.93829 28.7768 5.1617C23.9488 7.34328 18.8871 9.63274 11.6239 5.65665C11.3055 5.48278 11.2539 5.16424 11.5061 4.94468C11.7583 4.72513 12.2203 4.68959 12.5387 4.86346C18.9681 8.38267 23.577 6.29881 27.9725 4.31267C30.8917 2.99281 33.7263 1.71229 37.0285 1.90011C38.1844 1.95976 39.3053 2.24024 40.3158 2.67427C41.6411 3.24283 42.7841 4.08042 43.5664 5.03479C44.3597 6.00057 44.7904 7.08819 44.6763 8.14408C44.6045 8.81036 44.3192 9.46267 43.7781 10.0617C43.664 10.1886 43.5259 10.3206 43.3676 10.4576C42.3534 11.3321 40.6895 12.0973 38.9317 12.4907C37.115 12.8969 35.1749 12.9134 33.673 12.2699C33.5386 12.2115 33.3969 12.143 33.2478 12.0605C33.0287 11.94 32.8373 11.8118 32.6716 11.6773C32.125 11.2305 31.8158 10.6886 31.7992 10.1188C31.7826 9.55659 32.0569 8.97534 32.6716 8.44486C32.8704 8.27226 33.1005 8.10981 33.3601 7.95752C34.5417 7.2684 36.3327 6.96001 38.3224 7.12246L38.3243 7.12119ZM44.5475 15.6457L49.0847 18.7741L53.6219 15.6457L49.0847 12.5174L44.5475 15.6457ZM48.5638 19.8515L42.9848 16.0049C42.6976 15.8069 42.6976 15.4858 42.9848 15.2866L48.5638 11.4399C48.8509 11.242 49.3166 11.242 49.6056 11.4399L55.1846 15.2866C55.4717 15.4846 55.4717 15.8056 55.1846 16.0049L49.6056 19.8515C49.3184 20.0495 48.8528 20.0495 48.5638 19.8515Z" fill="#CC8A21"/>
</svg>