<svg width="115" height="115" viewBox="0 0 115 115" fill="none" xmlns="http://www.w3.org/2000/svg">
<rect x="1.5" y="1.5" width="112" height="112" rx="56" stroke="#003C43" stroke-width="3"/>
<path d="M58.6852 33.0723L68.6788 44.5992C69.3288 45.3515 69.3288 46.5676 68.6788 47.32C68.0267 48.0699 66.9726 48.0699 66.3205 47.32L59.1663 39.0639V69.9948C59.1663 71.0572 58.4205 71.9176 57.4997 71.9176C56.5788 71.9176 55.833 71.0572 55.833 69.9948V39.0639L48.6789 47.32C48.0268 48.0699 46.9726 48.0699 46.3205 47.32C45.6705 46.5676 45.6705 45.3515 46.3205 44.5992L56.3205 33.0624C56.3226 33.06 56.3247 33.06 56.3268 33.0576C56.4851 32.8749 56.6664 32.7379 56.8622 32.6466C57.058 32.5529 57.2747 32.5 57.4997 32.5C57.9559 32.5 58.3705 32.7115 58.6705 33.0552" fill="#003C43"/>
<path fill-rule="evenodd" clip-rule="evenodd" d="M44.4417 61.462C43.8625 60.2098 42.7313 59.4263 41.5 59.4263H35.8333C33.9917 59.4263 32.5 61.1472 32.5 63.2719V78.6542C32.5 80.7789 33.9917 82.4998 35.8333 82.4998H79.1667C81.0083 82.4998 82.5 80.7789 82.5 78.6542V63.2719C82.5 61.1472 81.0083 59.4263 79.1667 59.4263H73.5C72.2687 59.4263 71.1375 60.2098 70.5584 61.462L68.4417 66.0431C67.8625 67.2953 66.7313 68.0789 65.5 68.0789H49.5C48.2687 68.0789 47.1375 67.2953 46.5583 66.0431L44.4417 61.462ZM35.8331 63.2719H41.4998L43.6165 67.8529C44.7769 70.3598 47.0373 71.9244 49.4997 71.9244H65.4997C67.9622 71.9244 70.2226 70.3598 71.3829 67.8529L73.4996 63.2719H79.1662V78.6542H35.8329L35.8331 63.2719Z" fill="#003C43"/>
</svg>
