<svg width="60" height="60" viewBox="0 0 60 60" fill="none" xmlns="http://www.w3.org/2000/svg">
<circle cx="30" cy="30" r="30" fill="#003C43"/>
<path fill-rule="evenodd" clip-rule="evenodd" d="M12.0016 39.4074C12.0016 37.8383 13.2743 36.5656 14.845 36.5656C16.4156 36.5656 17.6883 37.8383 17.6883 39.4074V42.3134H42.3178V39.4074C42.3178 37.8383 43.5906 36.5656 45.1566 36.5656C46.7242 36.5656 48 37.8383 48 39.4074V45.1552C47.9694 45.8305 47.8014 46.4065 47.369 46.9397C46.8373 47.5937 46.0321 47.9955 45.1566 47.9955L15.097 47.997C14.4049 47.9573 14.0748 47.9772 13.427 47.6196C12.5531 47.1368 12 46.1468 12 45.1552V39.4074L12.0016 39.4074ZM25.0542 38.8299H34.8311V26.0643H39.9816C40.2153 26.0643 40.4476 25.9849 40.6431 25.8229C41.0755 25.4593 41.1336 24.8115 40.77 24.3776L30.7533 12.3959C30.3454 11.8901 29.5769 11.855 29.1491 12.3714L19.2623 24.3437C18.645 25.0542 19.166 26.0641 20.0201 26.0641H25.0544L25.0542 38.8299Z" fill="#E9EFEC"/>
</svg>
