<svg width="60" height="60" viewBox="0 0 60 60" fill="none" xmlns="http://www.w3.org/2000/svg">
<circle cx="30" cy="30" r="28.5" fill="#5F5F5F" stroke="#5F5F5F" stroke-width="3"/>
<path d="M12.5 39.9111V45.1552C12.5 45.9745 12.9625 46.7917 13.6686 47.1819L12.5 39.9111ZM12.5 39.9111L12.5016 39.9111V39.4074C12.5016 38.1146 13.5503 37.0656 14.845 37.0656C16.1397 37.0656 17.1883 38.1146 17.1883 39.4074V42.3134V42.8134H17.6883H42.3178H42.8178V42.3134V39.4074C42.8178 38.1141 43.8671 37.0656 45.1566 37.0656C46.4486 37.0656 47.5 38.115 47.5 39.4074V45.1436C47.4718 45.7341 47.3281 46.1963 46.9806 46.6248C46.5411 47.1651 45.877 47.4955 45.1566 47.4955L15.1113 47.497C15.0359 47.4927 14.9674 47.4892 14.9043 47.4859C14.662 47.4733 14.4988 47.4649 14.3334 47.4353C14.1455 47.4017 13.9527 47.3386 13.6688 47.182L12.5 39.9111ZM34.3311 26.0643V38.3299H25.5542L25.5544 26.0641L25.5544 25.5641H25.0544H20.0201C19.5782 25.5641 19.3145 25.046 19.6397 24.6716L19.6398 24.6717L19.6478 24.6621L29.5341 12.6904C29.7479 12.4323 30.1423 12.4347 30.3642 12.7098L30.3641 12.7098L30.3697 12.7166L40.3864 24.6982L40.3867 24.6987C40.5722 24.92 40.5435 25.252 40.3228 25.439C40.2179 25.5253 40.0992 25.5643 39.9816 25.5643H34.8311H34.3311V26.0643Z" fill="#E9EFEC" stroke="#5F5F5F"/>
</svg>
