
<svg width="98" height="20" viewBox="0 0 98 20" fill="none" xmlns="http://www.w3.org/2000/svg">
<path d="M26.7669 18.4159C27.0503 18.6151 27.0466 18.9362 26.7577 19.1317C26.4687 19.3271 26.003 19.3246 25.7195 19.1253C20.6007 15.5401 17.4146 16.8968 14.1621 18.2826C10.3907 19.8893 6.54187 21.5277 0.228462 17.3943C-0.06604 17.2014 -0.0770874 16.8816 0.20269 16.6785C0.482468 16.4754 0.94632 16.4678 1.24082 16.6607C6.73331 20.2573 10.0961 18.8258 13.3909 17.4222C17.1477 15.8219 20.8253 14.2558 26.7669 18.4159ZM43.1541 11.6072C41.5472 12.3433 39.8686 12.7532 38.3243 12.8788C36.3345 13.0413 34.5436 12.7329 33.3619 12.0438C33.1024 11.8915 32.8723 11.729 32.6735 11.5564C32.0587 11.0259 31.7845 10.4447 31.801 9.88247C31.8176 9.31265 32.125 8.76947 32.6735 8.32402C32.8391 8.18949 33.0306 8.06131 33.2496 7.94075C33.3969 7.85953 33.5386 7.78972 33.6748 7.73135C35.1768 7.08664 37.1186 7.10442 38.9335 7.51053C40.6913 7.90395 42.3571 8.66921 43.3695 9.54362C43.5278 9.68068 43.6658 9.81267 43.7799 9.93958C44.3211 10.5399 44.6064 11.1909 44.6782 11.8572C44.7923 12.9131 44.3616 14.0007 43.5683 14.9665C42.7841 15.9196 41.6411 16.7585 40.3177 17.327C39.3072 17.761 38.1862 18.0402 37.0303 18.1012C33.7282 18.289 30.8954 17.0085 27.9743 15.6886C23.5789 13.7025 18.9699 11.6186 12.5405 15.1378C12.2221 15.3117 11.7601 15.2761 11.5079 15.0566C11.2558 14.837 11.3073 14.5185 11.6257 14.3446C18.8889 10.3698 23.9525 12.658 28.7787 14.8396C31.4844 16.063 34.1092 17.2483 36.9088 17.0897H36.918C37.8273 17.0427 38.7218 16.8181 39.5409 16.4666C40.66 15.9868 41.6264 15.2761 42.2927 14.4677C42.948 13.6707 43.305 12.7811 43.213 11.9295C43.202 11.8217 43.1817 11.7151 43.156 11.6084L43.1541 11.6072ZM38.1531 11.8711C39.5814 11.7544 41.1533 11.3508 42.6516 10.6147C42.613 10.5678 42.5743 10.5208 42.532 10.4739C42.4344 10.3647 42.3313 10.2645 42.2246 10.1731C41.3834 9.44844 39.9808 8.80755 38.4844 8.47377C37.045 8.15269 35.5467 8.12096 34.4497 8.5918C34.3393 8.63875 34.2436 8.68444 34.1626 8.72886C34.03 8.80247 33.9067 8.88496 33.7926 8.9776C33.4613 9.24792 33.2754 9.56774 33.2662 9.8977C33.257 10.2353 33.43 10.5906 33.8165 10.9257C33.9491 11.0399 34.1129 11.1554 34.3098 11.2696C35.1804 11.7772 36.5665 11.9993 38.1512 11.8699L38.1531 11.8711ZM72.2805 19.1253C71.997 19.3246 71.5313 19.3271 71.2423 19.1317C70.9534 18.9362 70.9497 18.6151 71.2331 18.4159C77.1729 14.2558 80.8523 15.8231 84.6091 17.4222C87.9038 18.8258 91.2667 20.2573 96.7592 16.6607C97.0537 16.4678 97.5175 16.4754 97.7973 16.6785C98.0771 16.8816 98.066 17.2014 97.7715 17.3943C91.46 21.5277 87.6093 19.8893 83.8379 18.2826C80.5854 16.8968 77.3993 15.5401 72.2805 19.1253ZM45.3261 9.45605C45.0757 9.2365 45.131 8.91669 45.4494 8.74409C45.7678 8.57149 46.2317 8.60957 46.482 8.82912C48.0392 10.1934 48.4312 11.7582 48.1883 13.2456C47.8606 15.252 46.3587 17.1227 45.0408 18.143C44.7702 18.3524 44.3064 18.3715 44.0027 18.1849C43.6989 17.9984 43.6713 17.6785 43.9419 17.4691C45.1089 16.5668 46.4378 14.9106 46.7268 13.1352C46.9311 11.8864 46.609 10.5817 45.3242 9.45605H45.3261ZM51.5198 8.82912C51.7702 8.60957 52.2322 8.57022 52.5524 8.74409C52.8709 8.91669 52.9279 9.23523 52.6758 9.45605C51.391 10.5817 51.0707 11.8864 51.2732 13.1352C51.5622 14.9106 52.8911 16.5668 54.0581 17.4691C54.3287 17.6785 54.3011 17.9984 53.9973 18.1849C53.6936 18.3715 53.2298 18.3524 52.9592 18.143C51.6395 17.1227 50.1375 15.252 49.8117 13.2456C49.5688 11.7582 49.9608 10.1934 51.518 8.82912H51.5198ZM55.3484 10.6147C56.8485 11.3508 58.4186 11.7544 59.8469 11.8711C61.4317 12.0006 62.8159 11.7785 63.6883 11.2709C63.8853 11.1554 64.0491 11.0412 64.1816 10.9269C64.57 10.5919 64.7412 10.2366 64.732 9.89897C64.7228 9.56901 64.5369 9.24919 64.2056 8.97887C64.0933 8.88623 63.97 8.80374 63.8356 8.73013C63.7546 8.68571 63.6589 8.64002 63.5484 8.59306C62.4514 8.12223 60.9531 8.15396 59.5138 8.47504C58.0173 8.80882 56.6129 9.44971 55.7736 10.1744C55.6668 10.2657 55.5637 10.366 55.4662 10.4751C55.4238 10.5221 55.3834 10.5691 55.3465 10.616L55.3484 10.6147ZM59.6757 12.8788C58.1314 12.7532 56.4528 12.3433 54.8459 11.6072C54.8201 11.7138 54.7999 11.8204 54.7888 11.9283C54.6968 12.7798 55.0539 13.6682 55.7091 14.4665C56.3736 15.2749 57.3418 15.9856 58.4609 16.4653C59.28 16.8168 60.1745 17.0427 61.0838 17.0884H61.093C63.8926 17.2483 66.5174 16.0617 69.2232 14.8383C74.0512 12.6567 79.1129 10.3673 86.3761 14.3434C86.6945 14.5172 86.7461 14.8358 86.4939 15.0553C86.2417 15.2749 85.7797 15.3104 85.4613 15.1365C79.0319 11.6173 74.423 13.7012 70.0275 15.6873C67.1083 17.0072 64.2737 18.2877 60.9715 18.0999C59.8156 18.0402 58.6947 17.7598 57.6842 17.3257C56.3589 16.7572 55.2159 15.9196 54.4336 14.9652C53.6403 13.9994 53.2096 12.9118 53.3237 11.8559C53.3955 11.1896 53.6808 10.5373 54.2219 9.93831C54.336 9.8114 54.4741 9.67941 54.6324 9.54235C55.6466 8.66794 57.3105 7.90268 59.0683 7.50926C60.885 7.10315 62.8251 7.08665 64.327 7.73008C64.4614 7.78846 64.6031 7.85699 64.7522 7.93948C64.9713 8.06004 65.1627 8.18822 65.3284 8.32275C65.875 8.76947 66.1842 9.31138 66.2008 9.8812C66.2174 10.4434 65.9431 11.0247 65.3284 11.5551C65.1296 11.7277 64.8995 11.8902 64.6399 12.0425C63.4583 12.7316 61.6673 13.04 59.6776 12.8775L59.6757 12.8788ZM53.4525 4.35428L48.9153 1.22594L44.3781 4.35428L48.9153 7.4826L53.4525 4.35428ZM49.4362 0.148485L55.0152 3.99512C55.3024 4.1931 55.3024 4.51418 55.0152 4.71343L49.4362 8.56007C49.1491 8.75805 48.6834 8.75805 48.3944 8.56007L42.8154 4.71343C42.5283 4.51545 42.5283 4.19437 42.8154 3.99512L48.3944 0.148485C48.6816 -0.0494938 49.1472 -0.0494938 49.4362 0.148485Z" fill="#CC8A21"/>
</svg>
