<svg width="60" height="60" viewBox="0 0 60 60" fill="none" xmlns="http://www.w3.org/2000/svg">
<circle cx="30" cy="30" r="30" fill="#003C43"/>
<path fill-rule="evenodd" clip-rule="evenodd" d="M48.9996 18.0357C48.9981 20.8665 47.6666 23.5325 45.4048 25.236C43.1429 26.9397 40.2129 27.4827 37.4919 26.7033C37.5788 26.1161 37.6246 25.5228 37.6291 24.9279C39.5539 25.5868 41.6664 25.4084 43.4554 24.4399C45.2445 23.4698 46.5455 21.7967 47.0442 19.8247C47.5445 17.8526 47.1968 15.7617 46.0849 14.0566C44.973 12.3529 43.1992 11.1923 41.1937 10.8537C39.1881 10.5166 37.1322 11.0321 35.5232 12.2782C33.9156 13.5243 32.9014 15.3865 32.7275 17.4134H30.9857C31.1962 14.2684 33.0341 11.4622 35.8328 10.0116C38.6315 8.56117 41.984 8.67706 44.6746 10.3167C47.3665 11.9578 49.0059 14.8828 48.9996 18.0357ZM39.0783 22.8402C39.9888 21.9327 40.2618 20.5646 39.7707 19.378C39.2796 18.1899 38.1204 17.4136 36.8347 17.4136H33.8148C33.9902 15.6733 34.8946 14.0902 36.3024 13.0514C37.7086 12.0143 39.4901 11.6208 41.2045 11.967C42.9189 12.3133 44.4059 13.3672 45.2996 14.8695C46.1949 16.3734 46.4115 18.1838 45.899 19.8556C45.385 21.5272 44.1892 22.9045 42.6061 23.6457C41.0229 24.3884 39.2003 24.4266 37.5868 23.7525C37.5838 23.7281 37.5822 23.7067 37.5807 23.6823C38.1481 23.5435 38.6665 23.2535 39.0783 22.8402ZM42.1332 19.9027L42.1348 19.9042C42.3925 20.0537 42.7235 19.9652 42.873 19.706C43.0224 19.4467 42.934 19.1157 42.6762 18.9662L40.5226 17.7262V13.5976C40.5226 13.2987 40.2816 13.0562 39.9827 13.0562C39.6838 13.0562 39.4413 13.2987 39.4413 13.5976V18.0359C39.4397 18.2433 39.5587 18.4339 39.7463 18.5239L42.1332 19.9027ZM38.3142 44.4875C38.9136 45.0869 39.092 45.9868 38.7687 46.7692C38.4453 47.5517 37.6812 48.0626 36.8347 48.0641H20.0941C18.938 48.0641 18 47.1261 18 45.9685C18 44.8124 18.938 43.8744 20.0941 43.8744H20.57C20.2329 42.0319 20.3443 40.1361 20.8949 38.3456C21.5126 36.4467 22.5573 34.7141 23.9468 33.2818C22.5573 31.8481 21.5126 30.1155 20.8949 28.2149C20.3442 26.4259 20.2329 24.53 20.57 22.6892H20.0941C18.9487 22.6725 18.0274 21.739 18.0274 20.5936C18.0274 19.4467 18.9487 18.5132 20.0941 18.498H36.8347C37.9802 18.5132 38.9014 19.4467 38.9014 20.5936C38.9014 21.739 37.9802 22.6725 36.8347 22.6892H36.3588C36.6959 24.5301 36.5846 26.426 36.0355 28.2149C35.4163 30.1153 34.373 31.848 32.9821 33.2818C34.373 34.714 35.4178 36.4466 36.037 38.3456C36.5876 40.1362 36.6974 42.032 36.3604 43.8744H36.8363C37.3914 43.8744 37.9221 44.094 38.3142 44.4875ZM35.0029 38.669C34.3761 36.7686 33.2932 35.0513 31.8488 33.6666L31.8473 33.6635C31.6383 33.4515 31.6383 33.1098 31.8488 32.8994C33.2932 31.5145 34.3761 29.7956 35.0029 27.8954C35.52 26.2085 35.6084 24.4194 35.2607 22.6899H21.6683C21.3205 24.4194 21.4105 26.2085 21.9276 27.8954C22.5529 29.7958 23.6358 31.5131 25.0817 32.8978V32.9009V32.8994C25.2891 33.1129 25.2891 33.453 25.0817 33.665C23.6358 35.0499 22.5529 36.7673 21.9276 38.669C21.4105 40.3559 21.3205 42.1449 21.6683 43.8745H35.2607C35.6084 42.1449 35.52 40.3559 35.0029 38.669ZM29.3671 33.2819C30.8222 31.8284 32.1781 30.6098 33.0932 28.7019L23.8352 28.7004C24.7519 30.6099 26.1062 31.8286 27.5613 33.2804C24.8724 35.9648 22.6775 38.1962 22.9672 42.392H33.9608C34.2506 38.1978 32.0558 35.9663 29.3668 33.282L29.3671 33.2819Z" fill="#E9EFEC"/>
</svg>
