<svg width="50" height="50" viewBox="0 0 50 50" fill="none" xmlns="http://www.w3.org/2000/svg">
<path d="M40.0181 23.6872H48.6431V15.9702C48.6431 14.4697 47.4288 13.2549 45.9288 13.2549H27.8395C27.3217 21.4186 20.536 27.903 12.2502 27.903C9.10739 27.903 6.19667 26.9741 3.75024 25.3664V44.5518C3.75024 47.5529 6.17882 50.0002 9.19667 50.0002H45.9288C47.4288 50.0002 48.6431 48.7855 48.6431 47.285V40.4968H40.0181C35.3931 40.4968 31.6252 36.7276 31.6252 32.101C31.6252 27.4564 35.3931 23.6872 40.0181 23.6872ZM44.5538 9.16419V6.43108C44.5538 4.93054 43.3395 3.71582 41.8395 3.71582H25.3574C26.4288 5.3414 27.1967 7.18134 27.5895 9.16419H44.5538Z" fill="#003C43"/>
<path d="M12.25 0C5.48214 0 0 5.4841 0 12.2365C0 19.0068 5.48214 24.4909 12.25 24.4909C19.0179 24.4909 24.5 19.0068 24.5 12.2365C24.4821 5.4841 19 0 12.25 0ZM11.6429 9.89639L14.4107 11.3255C16.0536 12.1829 16.9464 13.9157 16.6429 15.7735C16.4107 17.2026 15.5 18.3458 14.25 18.8996V19.2747C14.25 20.2215 13.4821 20.9718 12.5536 20.9718C11.6071 20.9718 10.8571 20.2036 10.8571 19.2747V19.0068C9.53571 18.5602 8.41071 17.5777 7.82143 16.2379C7.44643 15.3805 7.83929 14.3801 8.69643 14.005C9.57143 13.6299 10.5536 14.0229 10.9286 14.8803C11.2143 15.5234 11.875 15.9343 12.5714 15.8628C13.1071 15.7735 13.2321 15.4877 13.2679 15.2376C13.2857 15.0947 13.3214 14.6124 12.8393 14.3623L10.0714 12.9332C8.41071 12.0757 7.51786 10.2537 7.85714 8.39586C8.17857 6.77027 9.32143 5.53769 10.8571 5.12683V4.44802C10.8571 3.50125 11.625 2.75098 12.5536 2.75098C13.5 2.75098 14.25 3.51911 14.25 4.44802V5.50197C15.3214 6.02001 16.1786 6.87746 16.6786 8.00286C17.0536 8.86031 16.6607 9.86066 15.8036 10.2358C14.9286 10.6109 13.9286 10.2179 13.5536 9.36049C13.2857 8.7174 12.6071 8.3244 11.9107 8.37799C11.4107 8.43158 11.2679 8.80672 11.2321 9.02108C11.1964 9.19971 11.1607 9.6463 11.6429 9.89639ZM49.3214 27.0811H40.0179C37.2679 27.0811 35.0357 29.314 35.0357 32.065C35.0357 34.816 37.2679 37.0489 40.0179 37.0489H49.3214C49.6964 37.0489 50 36.7453 50 36.3701V27.7421C50 27.3848 49.6964 27.0811 49.3214 27.0811ZM41.1607 34.1193C40.0357 34.1193 39.125 33.2083 39.125 32.0829C39.125 30.9575 40.0357 30.0464 41.1607 30.0464C42.2857 30.0464 43.1964 30.9575 43.1964 32.0829C43.1964 33.2083 42.2857 34.1193 41.1607 34.1193Z" fill="#003C43"/>
</svg>
