<svg width="1440" height="222" viewBox="0 0 1440 222" fill="none" xmlns="http://www.w3.org/2000/svg">
<path d="M174.043 3.62698L-548.331 89.9488C-576.097 93.2667 -597 116.816 -597 144.779C-597 175.277 -572.277 200 -541.779 200H2028.79C2081.92 200 2125 156.925 2125 103.789C2125 46.6973 2075.57 2.16512 2018.79 8.09873L1231.68 90.3492C1197.23 93.9497 1162.49 93.9595 1128.04 90.3786L285.053 2.7732C248.132 -1.06367 210.9 -0.777314 174.043 3.62698Z" fill="#EAEAEA" fill-opacity="0.4"/>
<path d="M991.17 46.2901L178.86 111.747C150.698 114.016 129 137.533 129 165.786C129 195.727 153.272 220 183.214 220H2754.79C2807.92 220 2851 176.925 2851 123.789C2851 66.6973 2801.57 22.1651 2744.79 28.0987L1952.54 110.886C1921.49 114.131 1890.2 114.461 1859.09 111.87L1072.82 46.3991C1045.65 44.1368 1018.34 44.1004 991.17 46.2901Z" fill="#EAEAEA" fill-opacity="0.3"/>
<path d="M388 61.5C125.085 3.39037 -220.395 76.568 -340.576 106.015C-366.36 112.333 -384 135.584 -384 162.131C-384 194.92 -357.42 221.5 -324.631 221.5H2231.48C2290.31 221.5 2338 173.811 2338 114.985C2338 54.0648 2287 5.55477 2226.16 8.60259L1799 30L1649 43.0001C1360.36 82.7646 711.5 133 388 61.5Z" fill="#E6F9F9"/>
</svg>
