<svg width="120" height="120" viewBox="0 0 120 120" fill="none" xmlns="http://www.w3.org/2000/svg">
<rect width="120" height="120" rx="60" fill="white"/>
<path d="M34.611 87.7335V88.2335H35.111H84.8889H85.3889V87.7335V84.178C85.3889 83.5093 84.8465 82.9669 84.1778 82.9669H35.8221C35.1535 82.9669 34.611 83.5093 34.611 84.178V87.7335ZM88.6556 84.178V89.8669C88.6556 90.7683 87.9237 91.5002 87.0223 91.5002H32.9777C32.0762 91.5002 31.3444 90.7683 31.3444 89.8669V84.178C31.3444 81.7037 33.3504 79.7002 35.8221 79.7002H84.1778C86.6496 79.7002 88.6556 81.7037 88.6556 84.178Z" fill="black" stroke="black"/>
<path d="M38.8778 79.2001V79.7001H39.3778H80.6223H81.1223V79.2001V75.6445C81.1223 74.9759 80.5799 74.4334 79.9112 74.4334H40.0889C39.4202 74.4334 38.8778 74.9759 38.8778 75.6445V79.2001ZM84.389 75.6445V81.3334C84.389 82.2349 83.6571 82.9668 82.7556 82.9668H37.2444C36.343 82.9668 35.6111 82.2349 35.6111 81.3334V75.6445C35.6111 73.1729 37.6173 71.1667 40.0889 71.1667H79.9112C82.3828 71.1667 84.389 73.1729 84.389 75.6445Z" fill="black" stroke="black"/>
<path d="M45.0269 34.3796H45.2002L45.3364 34.2723C50.2512 30.3988 55.1522 28.5167 59.9961 28.5001C64.8443 28.4835 69.7487 30.3368 74.6696 34.2702L74.8065 34.3796H74.9818H75.6446C76.8313 34.3796 77.97 34.8528 78.8096 35.6924L78.8101 35.6929C79.6515 36.5317 80.1223 37.67 80.1223 38.8574V72.8002C80.1223 73.7017 79.3905 74.4336 78.489 74.4336H41.5111C40.6097 74.4336 39.8778 73.7017 39.8778 72.8002V38.8574C39.8778 37.67 40.3486 36.5317 41.19 35.6929L41.1906 35.6923C42.0301 34.8528 43.1689 34.3796 44.3556 34.3796H45.0269ZM73.1779 37.2679L73.177 37.2672C68.8254 33.6422 64.4487 31.7521 60.0041 31.7668C55.5524 31.7815 51.1721 33.7026 46.8147 37.2761L46.8145 37.2762C46.5234 37.5152 46.155 37.6463 45.7778 37.6463H44.3556C44.0328 37.6463 43.7264 37.7773 43.5024 37.9966L43.5024 37.9966L43.4986 38.0004C43.2696 38.2293 43.1445 38.5392 43.1445 38.8574V70.6669V71.1669H43.6445H76.3557H76.8557V70.6669V38.8574C76.8557 38.5392 76.7305 38.2293 76.5016 38.0003L76.4978 37.9966C76.2737 37.7773 75.9673 37.6463 75.6446 37.6463H74.2223C73.8408 37.6463 73.4711 37.5133 73.1779 37.2679Z" fill="black" stroke="black"/>
<path d="M52.889 45.9891C51.9875 45.9891 51.2556 45.2572 51.2556 44.3558C51.2556 43.4543 51.9875 42.7224 52.889 42.7224H67.1112C68.0127 42.7224 68.7445 43.4543 68.7445 44.3558C68.7445 45.2572 68.0127 45.9891 67.1112 45.9891H52.889Z" fill="black" stroke="black"/>
<path d="M52.889 54.5223C51.9875 54.5223 51.2556 53.7904 51.2556 52.889C51.2556 51.9875 51.9875 51.2556 52.889 51.2556H67.1112C68.0127 51.2556 68.7445 51.9875 68.7445 52.889C68.7445 53.7904 68.0127 54.5223 67.1112 54.5223H52.889Z" fill="black" stroke="black"/>
<path d="M55.7332 63.0557C54.8317 63.0557 54.0999 62.3239 54.0999 61.4224C54.0999 60.5209 54.8317 59.7891 55.7332 59.7891H64.2665C65.168 59.7891 65.8999 60.5209 65.8999 61.4224C65.8999 62.3239 65.168 63.0557 64.2665 63.0557H55.7332Z" fill="black" stroke="black"/>
</svg>
