<svg width="120" height="120" viewBox="0 0 120 120" fill="none" xmlns="http://www.w3.org/2000/svg">
<rect width="120" height="120" rx="60" fill="white"/>
<path d="M46.1015 61.1471C46.1015 61.7935 45.8703 62.3853 45.4854 62.8469C45.3783 62.8255 45.2686 62.8143 45.1568 62.8144C45.1568 62.8144 45.1568 62.8144 45.1568 62.8144C45.1566 62.8144 45.1564 62.8144 45.1563 62.8144L41.3718 62.8144C41.0022 62.3572 40.7809 61.7784 40.7809 61.1471C40.7809 59.6777 41.9721 58.4868 43.4412 58.4868C44.9106 58.4868 46.1015 59.6777 46.1015 61.1471Z" stroke="black"/>
<path d="M42.1286 74.0107H42.6286H43.1703H43.6703V74.5107V81.9149C43.6703 82.4366 44.0934 82.8596 44.6151 82.8596C45.1368 82.8596 45.5598 82.4366 45.5598 81.9149V66.8154L46.5053 66.5884C47.0378 67.6338 47.5923 69.5181 47.7563 72.7659L47.7563 72.7659C47.7695 73.0289 47.9872 73.2338 48.2476 73.234L42.1286 74.0107ZM42.1286 74.0107V74.5107M42.1286 74.0107V74.5107M42.1286 74.5107V81.9149C42.1286 82.4366 41.7055 82.8596 41.184 82.8596C40.6623 82.8596 40.2393 82.4366 40.2393 81.9149V66.8141L39.2933 66.5882C38.7629 67.6353 38.2067 69.516 38.0432 72.7661C38.0299 73.029 37.8123 73.234 37.5513 73.234C37.5414 73.234 37.5334 73.2337 37.5269 73.2334L37.5259 73.2333M42.1286 74.5107L37.5259 73.2333M48.2731 73.2334L48.2739 73.2333C48.5454 73.2196 48.755 72.9879 48.7411 72.7157C48.5431 68.8769 47.8347 66.8168 47.1104 65.6536L47.1088 65.6511L47.1088 65.6511C46.757 65.0785 46.3837 64.7371 46.0867 64.5382C45.9374 64.4381 45.8067 64.3736 45.7067 64.3338C45.6566 64.3138 45.6153 64.3005 45.5843 64.2921C45.5688 64.2878 45.5566 64.285 45.5477 64.2832C45.5393 64.2815 45.5352 64.281 45.5352 64.281L45.522 64.2794L45.5216 64.2794L45.5206 64.2793C45.5134 64.2784 45.5026 64.277 45.4899 64.2748L45.4118 64.2614L45.3416 64.2246C45.2777 64.1909 45.2165 64.1753 45.157 64.1753H40.6423C40.5828 64.1753 40.5214 64.191 40.4573 64.2247L40.3818 64.2645L40.2973 64.2769C40.2901 64.2779 40.2838 64.2787 40.2788 64.2793L40.2306 64.2878C40.226 64.289 40.221 64.2903 40.2156 64.2917C40.1845 64.3003 40.1431 64.3136 40.093 64.3336C39.9928 64.3735 39.862 64.4381 39.7127 64.5381C39.4157 64.7371 39.0424 65.0784 38.6906 65.6507L38.6891 65.6531L38.6891 65.6531C37.9647 66.8168 37.2563 68.8767 37.0583 72.716L48.2731 73.2334ZM48.2731 73.2334C48.2706 73.2335 48.268 73.2336 48.2653 73.2337M48.2731 73.2334L48.2653 73.2337M37.5259 73.2333C37.2535 73.2194 37.0444 72.9876 37.0583 72.7161L37.5259 73.2333ZM48.2653 73.2337C48.26 73.2339 48.2543 73.234 48.2478 73.234L48.2653 73.2337ZM40.2638 64.2809L40.264 64.2809L40.2638 64.2809Z" stroke="black"/>
<path d="M77.842 61.8645C77.842 62.3548 77.6937 62.8097 77.4393 63.1892C76.9605 63.1047 76.4161 63.0635 75.8134 63.0635C74.9392 63.0635 74.1795 63.1488 73.5675 63.333C73.2511 62.9276 73.063 62.4183 73.063 61.8645C73.063 60.5447 74.133 59.4751 75.4524 59.4751C76.7724 59.4751 77.842 60.5447 77.842 61.8645Z" stroke="black"/>
<path d="M69.9012 72.3663L69.9012 72.3664C69.876 72.5873 70.0347 72.7872 70.2563 72.8125L70.2563 72.8125C70.2724 72.8144 70.2881 72.8152 70.3029 72.8152C70.5039 72.8152 70.6785 72.6632 70.7022 72.4578L69.9012 72.3663ZM69.9012 72.3663C70.2905 68.9494 71.2332 67.0272 72.1181 65.9535L72.1187 65.9527C72.9111 64.9875 73.6648 64.7208 73.8497 64.6706L73.8633 64.6669L73.8766 64.6625C74.2232 64.5471 74.8224 64.4246 75.813 64.4246C76.8037 64.4246 77.4029 64.5471 77.7495 64.6625L77.7627 64.6669L77.7761 64.6705C77.9612 64.7209 78.715 64.988 79.507 65.9529L79.5077 65.9538C80.3931 67.0272 81.3357 68.949 81.725 72.3665L81.725 72.3665C81.7503 72.5876 81.5915 72.7873 81.3704 72.8125L81.3701 72.8125C81.3539 72.8144 81.3384 72.8152 81.3237 72.8152C81.1219 72.8152 80.9475 72.6628 80.9241 72.4578M69.9012 72.3663L80.9241 72.4578M72.0484 67.5198L72.9825 67.84C72.5757 70.183 72.1233 73.2624 72.1146 75.3788C72.1422 75.4058 72.194 75.4469 72.2816 75.4976C72.4884 75.6172 72.8037 75.7385 73.1943 75.848L73.5592 75.9504V76.3295V81.9716C73.5592 82.3438 73.8609 82.6454 74.2331 82.6454C74.6052 82.6454 74.9069 82.3438 74.9069 81.9716V76.719V76.1892L75.4358 76.2198C75.5717 76.2277 75.6987 76.2318 75.8132 76.2318C75.9278 76.2318 76.0548 76.2277 76.1906 76.2198L76.7196 76.1892V76.719V81.9716C76.7196 82.3438 77.0212 82.6454 77.3934 82.6454C77.7657 82.6454 78.0674 82.3437 78.0674 81.9716V76.3295V75.9505L78.4322 75.8481C78.8228 75.7384 79.1382 75.6171 79.345 75.4975C79.4326 75.4468 79.4844 75.4057 79.512 75.3787C79.5033 73.262 79.0506 70.1816 78.6436 67.8386L79.5777 67.5183C80.1319 68.5606 80.6579 70.1237 80.9241 72.4578M72.0484 67.5198L80.9241 72.4578M72.0484 67.5198C71.4938 68.5626 70.969 70.1225 70.7023 72.4576L72.0484 67.5198Z" stroke="black"/>
<path d="M39.4592 36.4285V35.4333H79.8139V36.4285H39.4592Z" stroke="black"/>
<path d="M67.2661 52.7058H81.4048C81.4365 52.7752 81.4721 52.8453 81.5119 52.9156H67.4138C67.3649 52.8435 67.3156 52.7736 67.2661 52.7058Z" stroke="black"/>
<path d="M36.1676 52.9158V52.7058H52.0133C51.9628 52.7745 51.9132 52.8445 51.8644 52.9158H36.1676Z" stroke="black"/>
<path d="M38.2856 49.7991L38.2856 49.7991L38.2907 49.7964C38.8563 49.4905 39.3011 49.1381 39.6658 48.6906C40.0098 48.2755 40.2571 47.7623 40.3778 47.2305V48.1477V48.6477H40.8778H43.3199H44.3818H54.756C54.9515 49.2863 55.2686 49.8716 55.6803 50.3767C55.301 50.4202 54.8286 50.5278 54.3111 50.7632H36.8295V50.3709C37.2993 50.2374 37.7942 50.0576 38.2856 49.7991ZM40.4609 46.474C40.4609 46.4732 40.4609 46.4723 40.4609 46.4714L40.3778 46.4724V46.2321H40.4524C40.458 46.3125 40.4608 46.3932 40.4609 46.474ZM59.6371 42.0496C57.1362 42.0496 55.0523 43.856 54.6168 46.2321L39.2718 43.6215V39.6892V39.1892H38.7718H36.7941V38.1941H82.4798V39.1892H80.5019H80.0019V39.6892V48.113V48.3774L80.2204 48.5263L81.568 49.4443C81.4415 49.8523 81.3057 50.3341 81.2218 50.7632H64.9619C64.4422 50.5269 63.9694 50.4195 63.5941 50.3764C64.0056 49.8714 64.3227 49.2862 64.5182 48.6477H74.8919H75.9536H78.3957H78.8957V48.1477V46.7321V46.2321H78.3957H75.9536H74.8919H64.6574C64.2219 43.856 62.1378 42.0496 59.6371 42.0496Z" stroke="black"/>
<path d="M86.1209 43.711L86.1208 43.711C85.8288 44.9647 86.2759 46.2189 87.1797 47.0159C87.9673 46.7213 89.1189 46.3895 90.1579 46.1231C90.747 45.972 91.3094 45.8395 91.762 45.7444C92.0879 45.6759 92.3911 45.6191 92.6064 45.5959C92.6461 45.4821 92.6802 45.365 92.7082 45.2448C93.1316 43.4258 92.0002 41.6079 90.1818 41.1841L86.1209 43.711ZM86.1209 43.711C86.5444 41.8922 88.3624 40.7608 90.1816 41.1841L86.1209 43.711ZM92.9431 46.0969L92.9965 45.5998L92.9214 45.5917C92.9214 45.5917 92.9214 45.5917 92.9214 45.5917L92.8701 46.0636L92.8674 46.0888M92.9431 46.0969L92.8702 46.0636L92.8674 46.0888M92.9431 46.0969L92.8674 46.0888M92.9431 46.0969L87.0909 47.5875C88.5714 46.9777 92.2238 46.0847 92.7804 46.0847C92.8136 46.0847 92.8425 46.0861 92.8674 46.0888" stroke="black"/>
<path d="M84.8548 45.79C84.9748 46.2058 85.1529 46.6071 85.3871 46.9838L84.8548 45.79ZM84.8548 45.79C84.1866 47.0813 83.6988 48.1213 83.3532 48.9648C82.8983 50.0997 82.6941 50.788 82.6816 51.4335C82.6848 51.7271 82.7291 52.0123 82.9445 52.2931C83.044 52.42 83.1928 52.5312 83.3371 52.5904L83.3408 52.592C83.4913 52.6551 83.6404 52.6765 83.7749 52.6769C84.0782 52.6721 84.2961 52.5957 84.547 52.4898C84.9671 52.3023 85.3631 52.0372 85.7913 51.7191C85.97 51.5846 86.1492 51.4423 86.3263 51.2969L87.3446 50.461L87.1373 51.7621C86.7485 54.2029 86.1662 57.4557 85.4434 60.2807C85.0822 61.6921 84.6826 63.0101 84.2496 64.0715C84.0331 64.6022 83.8042 65.0786 83.5622 65.4744C83.4248 65.6991 83.2776 65.907 83.1191 66.0869C83.4496 66.4445 83.92 66.7515 84.5239 67.004C85.2996 67.3284 86.2602 67.5479 87.3356 67.6747L87.777 67.7268V68.1713V76.3352C87.777 77.0564 88.3617 77.6411 89.0829 77.6411C89.8039 77.6411 90.3888 77.0564 90.3888 76.3352V68.2877V67.8063L90.8699 67.7881C91.067 67.7806 91.2644 67.7711 91.4617 67.7595L91.9909 67.7285V68.2587V76.335C91.9909 77.0562 92.5756 77.6409 93.2968 77.6409C94.0176 77.6409 94.6027 77.0561 94.6027 76.335V67.8453V67.4238L95.0181 67.3525C96.9643 67.0183 98.5565 66.5491 99.3975 66.097C99.6195 62.8858 98.5674 58.6281 97.3842 55.0231L97.283 54.7149L97.5233 54.4969C98.0021 54.0625 98.386 53.6483 98.687 53.2445L84.8548 45.79ZM84.7892 49.0278C85.0063 48.5281 85.2754 47.9523 85.6017 47.2955C85.5273 47.1968 85.4552 47.0932 85.3872 46.9838L84.7892 49.0278ZM84.7892 49.0278L84.7772 49.0238L84.6034 49.4649C84.5997 49.4743 84.5967 49.4826 84.5946 49.4889M84.7892 49.0278L84.5946 49.4889M84.5946 49.4889C84.5348 49.6321 84.4806 49.7686 84.4317 49.8978L83.7953 51.5801L85.2086 50.4676C85.2949 50.3997 85.3826 50.3294 85.4701 50.2574M84.5946 49.4889L98.6872 53.2441C99.2212 52.5264 99.4987 51.823 99.4999 51.1382L99.4999 51.1372C99.5017 50.6746 99.3619 50.2289 99.1414 49.867C98.7385 49.2115 98.1381 48.7763 97.4636 48.4173C96.4513 47.8891 95.3125 47.5855 94.3802 47.388M85.4701 50.2574C85.47 50.2575 85.4699 50.2575 85.4698 50.2576L85.3982 50.1703M85.4701 50.2574C85.4702 50.2573 85.4703 50.2572 85.4704 50.2571L85.3984 50.1696C85.3984 50.1699 85.3983 50.1701 85.3982 50.1703M85.4701 50.2574C85.856 49.9409 86.1771 49.6366 86.4581 49.3667C86.4862 49.3397 86.5138 49.3132 86.5408 49.2872C86.79 49.0474 86.9994 48.846 87.2077 48.6748L87.2078 48.6747C87.207 48.6754 87.2082 48.6747 87.2117 48.6728C87.2284 48.6635 87.2981 48.6247 87.4562 48.5602C87.6249 48.4915 87.8483 48.4111 88.1129 48.3234C88.6409 48.1484 89.3094 47.9515 89.9821 47.7679C90.6545 47.5843 91.3248 47.4156 91.8556 47.2965C92.1215 47.2368 92.3478 47.1905 92.5198 47.161C92.606 47.1462 92.6737 47.1365 92.7232 47.1311C92.754 47.1278 92.7701 47.1271 92.7752 47.1269M85.3982 50.1703L85.3969 50.1687L85.3634 50.2503M85.3982 50.1703C85.3875 50.1978 85.3772 50.2249 85.367 50.2517L85.3634 50.2503M92.7752 47.1269C92.8837 47.1385 93.5269 47.2101 94.3802 47.388M92.7752 47.1269C92.7764 47.1268 92.777 47.1268 92.777 47.1267C92.777 47.1266 92.7722 47.1265 92.7639 47.1257L92.8137 46.6282M92.7752 47.1269C92.77 47.1263 92.766 47.1259 92.7633 47.1256C92.7615 47.1254 92.7602 47.1253 92.7596 47.1252L92.8137 46.6282M94.3802 47.388C94.3805 47.388 94.3808 47.3881 94.381 47.3882L94.4831 46.8987M94.3802 47.388C94.38 47.3879 94.3797 47.3879 94.3795 47.3878L94.4831 46.8987M94.4831 46.8987C93.5668 46.7076 92.8852 46.6357 92.8183 46.6286C92.8161 46.6284 92.8146 46.6283 92.8137 46.6282M94.4831 46.8987C95.4312 47.0995 96.6235 47.4146 97.6967 47.975L92.8137 46.6282M92.8137 46.6282C92.3104 46.5778 87.3894 47.878 86.8902 48.2885C86.6659 48.4729 86.4418 48.6886 86.1959 48.9252C86.0509 49.0646 85.8984 49.2114 85.7339 49.3633C85.6605 49.531 85.5934 49.6891 85.5323 49.8382L92.8137 46.6282ZM85.3634 50.2503L84.9243 50.0842L84.9233 50.0837M85.3634 50.2503L85.355 50.2708L84.9465 50.1345L84.9114 50.1228L84.9103 50.1225L84.9183 50.0987L84.9233 50.0837M84.9233 50.0837L84.8994 50.0747M84.9233 50.0837L84.9359 50.0459C84.9237 50.0556 84.9115 50.0652 84.8994 50.0747M84.8994 50.0747L84.5901 49.6818C84.6478 49.6364 84.7057 49.5902 84.7635 49.5434L84.8994 50.0747ZM84.5891 49.5053L84.5891 49.5054L84.5891 49.5053ZM97.38 52.7216C97.4569 52.6308 97.5356 52.5351 97.6051 52.4407C98.0239 51.8755 98.1546 51.4462 98.1519 51.1346L98.1519 51.1346L98.1518 51.1293C98.148 50.9316 98.1047 50.7782 98.0102 50.6029L98.0103 50.6029L98.0066 50.5963C97.9096 50.4228 97.7539 50.2422 97.5455 50.0701C97.2003 49.7803 96.6904 49.5132 96.1569 49.3017L95.0623 48.8675L95.5102 49.9566C95.8031 50.6689 96.156 51.5599 96.5293 52.5716L96.826 53.3759L97.38 52.7216Z" stroke="black"/>
<path d="M59.637 43.5913C61.605 43.5913 63.2003 45.1867 63.2003 47.1546C63.2003 48.5537 62.3937 49.7644 61.2185 50.3475H58.0555C56.8803 49.7642 56.0737 48.5535 56.0737 47.1546C56.0737 45.1867 57.669 43.5913 59.637 43.5913Z" stroke="black"/>
<path d="M64.4511 52.2261L64.4493 52.2252C63.9212 51.9591 63.464 51.899 63.1988 51.8937L63.1891 51.8935L63.1794 51.8929L63.1544 51.8913L63.1372 51.8902C63.1283 51.8897 63.1255 51.8896 63.1255 51.8896H56.1485C56.1485 51.8897 56.1457 51.8897 56.137 51.8902L56.1199 51.8913L56.0951 51.8929L56.0853 51.8935L56.0755 51.8937C55.8098 51.899 55.3525 51.959 54.824 52.2253L54.821 52.2268L54.821 52.2268C53.9831 52.6421 53.0106 53.5869 52.3133 55.3638L52.3128 55.3651C51.6028 57.16 51.1083 59.8011 51.1056 63.8576C51.106 64.9046 51.1396 66.0445 51.2125 67.2878L51.2126 67.288C51.2418 67.7897 51.658 68.1773 52.154 68.1773C52.1741 68.1773 52.1922 68.1768 52.2089 68.1758L52.2109 68.1756C52.7314 68.1452 53.1289 67.6985 53.0986 67.1774L64.4511 52.2261ZM64.4511 52.2261C65.007 52.5033 65.6359 53.018 66.1853 53.8511C67.2948 55.5463 68.1608 58.4485 68.1682 63.8582L64.4511 52.2261ZM54.3037 55.5266L55.253 55.746V82.8339C55.253 83.7911 56.029 84.5666 56.9856 84.5666C57.9427 84.5666 58.7186 83.7911 58.7186 82.8339V66.5319V66.0319H59.2186H60.0557H60.5557V66.5319V82.8339C60.5557 83.7911 61.3316 84.5666 62.2883 84.5666C63.2454 84.5666 64.0213 83.7911 64.0213 82.8339V55.7531L64.9707 55.5339C65.0859 55.7702 65.2007 56.0386 65.313 56.3484L65.3133 56.3492C65.8484 57.8331 66.28 60.2106 66.2784 63.8574L54.3037 55.5266ZM54.3037 55.5266C53.631 56.9044 52.9892 59.4463 52.9954 63.8577M54.3037 55.5266L52.9954 63.8577M66.1757 67.1776L66.1757 67.1776C66.1452 67.6983 66.5426 68.1451 67.0636 68.1756C67.0838 68.1768 67.1026 68.1773 67.1203 68.1773L66.1757 67.1776ZM66.1757 67.1776C66.2463 65.9679 66.2784 64.8639 66.2784 63.8576L66.1757 67.1776ZM52.9954 63.8577C52.9954 64.864 53.0277 65.9676 53.0986 67.1772L52.9954 63.8577Z" stroke="black"/>
<path d="M35.9339 46.5359C35.9175 46.541 35.9009 46.5461 35.8841 46.551M35.9339 46.5359L21.2421 50.7864C21.9746 48.9193 23.0218 47.8654 23.9932 47.3839C24.596 47.08 25.1269 47.0061 25.4549 46.9993C25.4632 46.9988 25.4714 46.9982 25.4797 46.9977C25.5005 46.9963 25.5213 46.9949 25.5425 46.9949H32.5199C32.537 46.9949 32.5535 46.996 32.5701 46.9972C32.5785 46.9977 32.5869 46.9983 32.5954 46.9987C32.6467 46.9974 32.7112 46.9956 32.7879 46.9927M35.9339 46.5359C35.9649 46.5731 35.9903 46.6059 36.0106 46.6337L36.4149 46.3396L36.1841 45.896C36.1515 45.913 36.1137 45.9314 36.0714 45.9503C36.0656 45.9446 36.0597 45.9388 36.0537 45.933M35.9339 46.5359L32.8064 47.4924L32.7879 46.9927M35.8841 46.551C35.2476 46.7527 34.3587 46.8801 33.6598 46.9384M35.8841 46.551L36.0352 47.0277C36.0335 47.0282 36.0319 47.0287 36.0303 47.0292M35.8841 46.551L36.0253 47.0307C36.0269 47.0302 36.0286 47.0297 36.0303 47.0292M33.6598 46.9384C33.3093 46.9689 33.0028 46.9848 32.7879 46.9927M33.6598 46.9384L33.7032 47.4365C33.7029 47.4365 33.7026 47.4366 33.7023 47.4366M33.6598 46.9384L33.7014 47.4367C33.7017 47.4366 33.702 47.4366 33.7023 47.4366M32.7879 46.9927L32.8067 47.4924M21.6343 64.2802C21.6054 64.2819 21.5769 64.2828 21.5486 64.2828C20.7892 64.2828 20.1522 63.6904 20.1075 62.9226C20.0338 61.6707 20 60.5204 20 59.4628L22.9918 62.7537C23.0386 63.5499 22.4306 64.2337 21.6343 64.2802ZM21.6343 64.2802L21.6051 63.7811C22.1257 63.7506 22.5233 63.3035 22.4927 62.783L22.4927 62.783C22.4217 61.5733 22.3896 60.4696 22.3896 59.4632M21.6343 64.2802L22.3896 59.4632M36.0537 45.933L36.4045 45.5768C36.4041 45.5764 36.4037 45.576 36.4033 45.5755M36.0537 45.933L36.402 45.5743C36.4024 45.5747 36.4028 45.5751 36.4033 45.5755M36.0537 45.933C35.7016 45.5863 35.1347 45.1404 34.3273 44.6176M36.4033 45.5755C36.5876 45.7546 36.7243 45.915 36.8192 46.0454L37.1609 46.515L36.6457 46.7831C36.4925 46.8628 36.2806 46.9552 36.0303 47.0292M36.4033 45.5755C36.0791 45.2566 35.6051 44.8759 34.9735 44.4463M36.0303 47.0292C35.3417 47.2466 34.4128 47.3772 33.7023 47.4366M33.7023 47.4366C33.3425 47.4679 33.0281 47.4842 32.8067 47.4924M32.8067 47.4924C32.7272 47.4954 32.6605 47.4973 32.6077 47.4986L32.5891 47.499L32.5704 47.4981L32.5435 47.4965L32.5263 47.4953C32.5218 47.4951 32.5194 47.495 32.5186 47.4949M32.8067 47.4924L20.5 59.4628C20.5022 55.4065 20.9968 52.7653 21.707 50.9704L21.7076 50.969C22.4046 49.1922 23.3773 48.2472 24.2152 47.8319L24.2152 47.8319L24.2183 47.8304C24.744 47.5653 25.1994 47.5047 25.4654 47.4991L25.4741 47.499L25.4828 47.4985L25.5098 47.4968L25.5287 47.4956L25.5394 47.495C25.5415 47.4949 25.5424 47.4949 25.5425 47.4949H32.5186M34.9735 44.4463C34.9096 44.5893 34.839 44.7288 34.7623 44.8642L34.3273 44.6176M34.9735 44.4463C35.2442 43.8413 35.3968 43.1719 35.4002 42.4683M34.9735 44.4463C34.8543 44.3653 34.7295 44.2824 34.599 44.1979L34.3273 44.6176M34.3273 44.6176C34.6913 43.9753 34.9003 43.2338 34.9003 42.4442C34.9003 42.347 34.8971 42.2504 34.8908 42.1547C35.0537 42.2527 35.2107 42.3492 35.362 42.4442C35.3748 42.4523 35.3875 42.4603 35.4002 42.4683M35.4002 42.4683C35.4003 42.4603 35.4003 42.4522 35.4003 42.4442C35.4003 42.2457 35.3883 42.0501 35.3652 41.8578M35.4002 42.4683C36.077 42.8951 36.6385 43.2936 37.1042 43.6736M35.3652 41.8578L22.3896 59.4628C22.3896 59.4629 22.3896 59.4631 22.3896 59.4632M35.3652 41.8578C36.1906 42.3636 36.8674 42.835 37.4211 43.2869M35.3652 41.8578L39.0213 45.059M37.1042 43.6736C37.797 44.2437 38.2689 44.7471 38.5859 45.3048M37.1042 43.6736C37.1045 43.6738 37.1047 43.674 37.105 43.6742L37.4211 43.2869M37.1042 43.6736C37.1039 43.6734 37.1037 43.6732 37.1034 43.673L37.4211 43.2869M38.5859 45.3048C38.7906 45.6696 38.9189 46.0664 38.9192 46.4775L38.9191 46.4775L38.9192 46.4825C38.9241 46.9416 38.7322 47.4011 38.4779 47.7074L38.4748 47.7111C38.2088 48.0379 37.8965 48.2566 37.5597 48.4389M38.5859 45.3048C38.5862 45.3052 38.5864 45.3056 38.5866 45.3059L39.0213 45.059M38.5859 45.3048C38.5858 45.3045 38.5856 45.3042 38.5854 45.3038L39.0213 45.059M37.5597 48.4389C36.88 48.796 36.1433 48.9804 35.3891 49.1211C34.8524 49.2173 34.3277 49.2787 33.8718 49.3185L33.4153 49.3584V49.8166V78.4396C33.4153 79.3967 32.6394 80.1722 31.6823 80.1722C30.7257 80.1722 29.9497 79.3967 29.9497 78.4396V62.1374V61.6374H29.4497H28.6127H28.1127V62.1374V78.4396C28.1127 79.3967 27.3368 80.1722 26.3797 80.1722C25.423 80.1722 24.6471 79.3967 24.6471 78.4396V51.3516L23.6978 51.1322C23.0249 52.5099 22.3835 55.0518 22.3896 59.4632M37.5597 48.4389C37.5589 48.4393 37.558 48.4398 37.5572 48.4402L37.795 48.8801L37.5621 48.4376C37.5613 48.438 37.5605 48.4385 37.5597 48.4389ZM39.0213 45.059C38.6616 44.4257 38.1377 43.8765 37.4211 43.2869M32.5186 47.4949H32.5199C32.5189 47.4949 32.5183 47.4949 32.5183 47.4949C32.5183 47.4949 32.5184 47.4949 32.5186 47.4949Z" stroke="black"/>
<path d="M34.0391 42.4444C34.0391 44.4123 32.4438 46.0076 30.4759 46.0076C28.5079 46.0076 26.9126 44.4123 26.9126 42.4444C26.9126 40.4764 28.5079 38.8811 30.4759 38.8811C32.4438 38.8811 34.0391 40.4764 34.0391 42.4444Z" stroke="black"/>
</svg>
