<svg width="120" height="120" viewBox="0 0 120 120" fill="none" xmlns="http://www.w3.org/2000/svg">
<rect width="120" height="120" rx="60" fill="white"/>
<path d="M89.4556 64.4497L89.4267 64.4409L89.0835 64.3366C89.0832 64.3365 89.0829 64.3364 89.0825 64.3363C88.852 64.2669 88.6047 64.3143 88.4106 64.4738L88.4069 64.4768L74.5784 75.7638C74.2342 76.489 73.7719 77.1602 73.2034 77.744L73.2034 77.7441C71.8572 79.1264 70.0195 79.9126 68.0983 79.9126H51.5733C50.3984 79.9126 49.5129 78.9453 49.5129 77.8372C49.5129 76.731 50.3937 75.7589 51.5733 75.7589H68.0983C68.9038 75.7589 69.6816 75.4324 70.2601 74.8364C70.8424 74.2365 71.1781 73.4157 71.1781 72.556C71.1781 71.6942 70.8438 70.875 70.2618 70.2773C69.6811 69.681 68.9017 69.3531 68.0983 69.3531H55.5931C54.2335 69.3531 52.9295 68.8481 51.916 67.9428L51.9152 67.9421L44.079 60.9327L89.4556 64.4497ZM89.4556 64.4497C89.4669 64.4591 89.4817 64.4763 89.4926 64.5066M89.4556 64.4497L89.4926 64.5066M89.4926 64.5066C89.5074 64.5521 89.4992 64.6014 89.4761 64.6358L89.4754 64.6368L79.1038 80.1262L79.1035 80.1266C77.9497 81.8509 76.2993 83.1494 74.3975 83.8436L74.3973 83.8437C70.3917 85.3064 63.9237 87.6677 59.8768 89.1446L59.8763 89.1448C58.0447 89.814 56.028 89.7186 54.2594 88.8766C54.2592 88.8765 54.259 88.8764 54.2588 88.8763L38.3471 81.2908L38.344 81.2893C38.0768 81.1627 37.8009 81.1018 37.533 81.0919L37.5232 81.0916L37.5134 81.0913L30.5 80.9259V64.439L33.4092 64.4433H33.4114C33.6745 64.4433 33.9447 64.3934 34.2044 64.2839L42.81 60.7084L42.8108 60.7081C43.2291 60.534 43.7194 60.6125 44.0778 60.9317L89.4926 64.5066ZM78.1883 62.1684C78.3098 62.0852 78.4373 62.0142 78.5691 61.9555L72.3942 66.6582C72.2726 66.5658 72.1483 66.4775 72.0216 66.3933L78.1883 62.1684ZM74.8435 69.9954L78.6189 67.1202L74.8999 70.1562C74.8817 70.1024 74.8629 70.0488 74.8435 69.9954ZM74.2714 70.4312L74.2772 70.4267C74.2753 70.4282 74.2733 70.4297 74.2714 70.4312ZM68.7393 57.9589C68.7362 57.956 68.7332 57.9531 68.7301 57.9501C68.5467 57.774 68.2783 57.5149 67.9403 57.185C67.264 56.5251 66.3099 55.5825 65.2009 54.4542C62.9788 52.1937 60.1519 49.2053 57.695 46.2606L57.6942 46.2597C56.2647 44.5493 55.4235 42.1844 55.4235 39.6779C55.4235 37.166 56.2647 34.804 57.6941 33.094L57.6953 33.0926C59.1634 31.3317 61.1073 30.4146 63.0665 30.4146C64.7225 30.4146 66.3655 31.072 67.7251 32.3392L68.7382 33.2835L69.7602 32.3487C72.7352 29.6274 76.942 29.817 79.761 33.0742L79.8665 33.2006C82.831 36.7545 82.831 42.6047 79.8665 46.1587C77.4037 49.1108 74.5552 52.1258 72.3128 54.4111C71.1936 55.5518 70.2297 56.5064 69.5461 57.1752C69.2045 57.5095 68.933 57.7723 68.7476 57.9509C68.7448 57.9536 68.742 57.9563 68.7393 57.9589ZM79.8645 33.1958L79.8676 33.1996L79.8645 33.1958Z" stroke="black" stroke-width="3"/>
</svg>
