<svg width="120" height="120" viewBox="0 0 120 120" fill="none" xmlns="http://www.w3.org/2000/svg">
<rect width="120" height="120" rx="60" fill="white"/>
<path d="M39.1592 32.0371L40.5057 33.5406C41.0277 34.1238 41.0319 34.0153 40.4988 34.5873L30.7933 45.0037C30.3102 45.5223 30.3944 45.4287 29.9257 44.9057L28.3246 43.1184C27.1841 41.8451 27.2347 39.7955 28.4266 38.5765L34.9273 31.9271C36.1185 30.7089 38.0186 30.7638 39.1592 32.0371ZM60.2069 32.4843L64.3238 28.036C65.1025 27.1951 66.1924 27.4626 67.1633 28.0256L75.8248 33.0541C76.7047 33.5652 77.2322 33.9752 77.9404 34.7322L91.9099 49.6481C92.6927 50.4838 92.6975 51.8551 91.9195 52.6961L85.568 59.5594C84.79 60.4003 83.5112 60.4055 82.7285 59.5698L60.2165 35.5323C59.4338 34.6958 59.4283 33.3252 60.2069 32.4843ZM79.4771 31.5461C80.4836 30.6829 81.9717 30.7512 82.9105 31.7466L88.4424 37.6115C89.3927 38.6189 89.457 40.2331 88.6415 41.331C88.1789 41.8362 88.2603 41.7522 87.8019 41.2523L83.6559 36.7335L79.5099 32.2146C79.1644 31.8387 79.1083 31.9034 79.4771 31.5461ZM35.7114 78.8656L45.8774 67.7264C46.3947 67.1596 46.2948 67.1566 46.8073 67.7294L54.6525 76.4884C55.3709 77.2907 55.4236 77.1444 54.6956 77.9415L44.9312 88.6409C43.9343 89.7329 42.2799 89.7404 41.2659 88.6654L35.734 82.8005C34.7193 81.7241 34.7138 79.9583 35.7114 78.8656ZM60.6592 51.5186L65.9632 45.7332C66.3546 45.3061 66.28 45.289 66.6762 45.7124L75.0331 54.6357C75.5805 55.2203 75.5497 55.1104 75.0092 55.6995L69.8933 61.2798C69.1934 62.0428 69.3247 61.9677 68.6371 61.2004L60.7406 52.3826C60.3191 51.9124 60.2288 51.9881 60.6592 51.5186ZM43.1502 36.4928L44.9873 38.5438C45.4259 39.0334 45.4122 38.9427 44.9654 39.4219L35.2051 49.897C34.7576 50.3776 34.8425 50.3947 34.4032 49.9037L32.5613 47.8467C32.1159 47.349 32.0741 47.4396 32.5305 46.95L42.2956 36.469C42.7732 35.9564 42.6822 35.9705 43.1502 36.4928ZM47.5435 41.3971L79.551 77.1318C80.4719 78.1599 80.8017 78.1636 79.3471 78.1636H78.147C77.6626 78.1257 75.3226 78.0848 75.3226 80.826V83.3109C75.3226 83.6459 75.1604 84.1273 74.6048 84.1273H72.245C69.6908 84.1273 69.7298 86.6389 69.7647 87.1582C69.7647 89.5405 70.05 89.7025 68.4366 87.901L36.9136 52.7072C36.4723 52.214 36.5119 52.3038 36.9608 51.8217L46.6506 41.4217C47.0707 40.9707 47.1316 40.9373 47.5435 41.3971ZM81.4148 80.9449L83.1246 90.2923C83.4079 92.122 81.6871 92.6279 81.0836 92.4741L72.6849 90.4528C71.6025 90.192 71.8173 90.1356 71.8146 88.9492L71.8098 87.02C71.8098 87.02 71.7304 86.3314 72.2443 86.3314H75.1508C76.6629 86.3314 77.3396 85.4934 77.3752 83.946V80.826C77.3752 80.2741 78.0163 80.3595 78.0163 80.3595L80.7217 80.3662C81.3382 80.3677 81.2957 80.2964 81.4148 80.9449Z" stroke="black" stroke-width="1.8"/>
</svg>
