<svg width="120" height="120" viewBox="0 0 120 120" fill="none" xmlns="http://www.w3.org/2000/svg">
<rect width="120" height="120" rx="60" fill="white"/>
<mask id="path-2-inside-1_881_1821" fill="white">
<path d="M94.1819 43.8618C92.7508 43.8618 91.4855 44.7631 91.0331 46.1044L90.5794 47.448H89.0323V42.6663H83.602C81.7464 42.6663 79.9379 42.3089 78.2274 41.6036C70.3065 38.3425 61.9403 36.6892 53.3601 36.6892C46.3972 36.6892 39.5202 37.7926 32.9153 39.9683L30.5782 40.7381L31.0548 41.9156C31.1661 42.1918 31.2653 42.4703 31.3694 42.7476C28.4177 43.1421 26.129 45.6214 26.129 48.6435C26.129 49.5209 26.3323 50.3493 26.6782 51.1001C24.3242 51.4228 22.5 53.4025 22.5 55.816C22.5 58.4531 24.6702 60.5977 27.3387 60.5977C28.2242 60.5977 29.0431 60.3443 29.7581 59.9331V75.3995C29.0141 76.2399 28.5484 77.3265 28.5484 78.5291C28.5484 81.1662 30.7185 83.3108 33.3871 83.3108C36.0556 83.3108 38.2258 81.1662 38.2258 78.5291C38.2258 77.3265 37.7601 76.2399 37.0161 75.3995V73.7474H84.1936V75.3995C83.4496 76.2399 82.9839 77.3265 82.9839 78.5291C82.9839 81.1662 85.154 83.3108 87.8226 83.3108C90.4911 83.3108 92.6613 81.1662 92.6613 78.5291C92.6613 77.3265 92.1956 76.2399 91.4516 75.3995V59.4023H97.5V53.4252V52.2297V47.1408C97.5 45.3321 96.0121 43.8618 94.1819 43.8618ZM53.3601 39.0801C61.6198 39.0801 69.6726 40.6724 77.296 43.8104C79.3028 44.6376 81.4246 45.0572 83.602 45.0572H86.6129V57.7921C86.6129 59.9988 84.796 61.7932 82.5629 61.7932C81.571 61.7932 80.6153 61.4345 79.8726 60.783L72.0278 53.8902C70.8097 52.8203 69.2395 52.2297 67.6077 52.2297H48.5081C44.8403 52.2297 41.8548 55.1789 41.8548 58.8046C41.8548 60.4519 40.4988 61.7932 38.8306 61.7932C37.1625 61.7932 35.8065 60.4519 35.8065 58.8046V53.8854C35.8065 49.8843 35.1169 45.9633 33.756 42.2109C40.0887 40.1332 46.6839 39.0801 53.3601 39.0801ZM84.1936 66.5749H37.0161V63.8541C37.5859 64.0549 38.1907 64.184 38.8306 64.184C41.625 64.184 43.9077 62.0848 44.2125 59.4023H74.6601L78.2661 62.5702C79.4504 63.6102 80.977 64.184 82.5629 64.184C83.129 64.184 83.6686 64.0884 84.1936 63.9533V66.5749ZM33.3871 73.7474C32.9673 73.7474 32.5669 73.8168 32.1774 73.9172V59.4023H33.4488C33.5661 60.4352 33.9726 61.3724 34.5968 62.1446V73.9172C34.2073 73.8168 33.8069 73.7474 33.3871 73.7474ZM32.0056 54.6206H32.1774H33.3871V57.0115H32.0056C32.1073 56.6265 32.1774 56.2308 32.1774 55.816C32.1774 55.4012 32.1073 55.0055 32.0056 54.6206ZM44.6988 57.0115C45.381 55.6032 46.8254 54.6206 48.5081 54.6206H67.6077C68.6456 54.6206 69.6448 54.996 70.4202 55.6774L71.9383 57.0115H44.6988ZM32.1375 45.0608C32.8125 47.3978 33.2165 49.7947 33.3423 52.2297H32.1774C30.1766 52.2297 28.5484 50.6207 28.5484 48.6435C28.5484 46.6794 30.1548 45.0835 32.1375 45.0608ZM27.3387 58.2069C26.0044 58.2069 24.9194 57.1346 24.9194 55.816C24.9194 54.4975 26.0044 53.4252 27.3387 53.4252C28.673 53.4252 29.7581 54.4975 29.7581 55.816C29.7581 57.1346 28.673 58.2069 27.3387 58.2069ZM33.3871 80.92C32.0528 80.92 30.9677 79.8477 30.9677 78.5291C30.9677 77.2106 32.0528 76.1383 33.3871 76.1383C34.7214 76.1383 35.8065 77.2106 35.8065 78.5291C35.8065 79.8477 34.7214 80.92 33.3871 80.92ZM37.0161 71.3566V68.9657H84.1936V71.3566H37.0161ZM87.8226 80.92C86.4883 80.92 85.4032 79.8477 85.4032 78.5291C85.4032 77.2106 86.4883 76.1383 87.8226 76.1383C89.1569 76.1383 90.2419 77.2106 90.2419 78.5291C90.2419 79.8477 89.1569 80.92 87.8226 80.92ZM89.0323 73.9172C88.6427 73.8168 88.2423 73.7474 87.8226 73.7474C87.4028 73.7474 87.0024 73.8168 86.6129 73.9172V62.7364C87.6677 61.8912 88.4444 60.7376 88.7988 59.4023H89.0323V73.9172ZM95.0806 57.0115H89.0323V54.6206H95.0806V57.0115ZM89.0323 52.2297V49.8389H92.3238L93.3278 46.8599C93.45 46.4965 93.7948 46.2526 94.1819 46.2526C94.6778 46.2526 95.0806 46.6507 95.0806 47.1408V52.2297H89.0323Z"/>
</mask>
<path d="M94.1819 43.8618C92.7508 43.8618 91.4855 44.7631 91.0331 46.1044L90.5794 47.448H89.0323V42.6663H83.602C81.7464 42.6663 79.9379 42.3089 78.2274 41.6036C70.3065 38.3425 61.9403 36.6892 53.3601 36.6892C46.3972 36.6892 39.5202 37.7926 32.9153 39.9683L30.5782 40.7381L31.0548 41.9156C31.1661 42.1918 31.2653 42.4703 31.3694 42.7476C28.4177 43.1421 26.129 45.6214 26.129 48.6435C26.129 49.5209 26.3323 50.3493 26.6782 51.1001C24.3242 51.4228 22.5 53.4025 22.5 55.816C22.5 58.4531 24.6702 60.5977 27.3387 60.5977C28.2242 60.5977 29.0431 60.3443 29.7581 59.9331V75.3995C29.0141 76.2399 28.5484 77.3265 28.5484 78.5291C28.5484 81.1662 30.7185 83.3108 33.3871 83.3108C36.0556 83.3108 38.2258 81.1662 38.2258 78.5291C38.2258 77.3265 37.7601 76.2399 37.0161 75.3995V73.7474H84.1936V75.3995C83.4496 76.2399 82.9839 77.3265 82.9839 78.5291C82.9839 81.1662 85.154 83.3108 87.8226 83.3108C90.4911 83.3108 92.6613 81.1662 92.6613 78.5291C92.6613 77.3265 92.1956 76.2399 91.4516 75.3995V59.4023H97.5V53.4252V52.2297V47.1408C97.5 45.3321 96.0121 43.8618 94.1819 43.8618ZM53.3601 39.0801C61.6198 39.0801 69.6726 40.6724 77.296 43.8104C79.3028 44.6376 81.4246 45.0572 83.602 45.0572H86.6129V57.7921C86.6129 59.9988 84.796 61.7932 82.5629 61.7932C81.571 61.7932 80.6153 61.4345 79.8726 60.783L72.0278 53.8902C70.8097 52.8203 69.2395 52.2297 67.6077 52.2297H48.5081C44.8403 52.2297 41.8548 55.1789 41.8548 58.8046C41.8548 60.4519 40.4988 61.7932 38.8306 61.7932C37.1625 61.7932 35.8065 60.4519 35.8065 58.8046V53.8854C35.8065 49.8843 35.1169 45.9633 33.756 42.2109C40.0887 40.1332 46.6839 39.0801 53.3601 39.0801ZM84.1936 66.5749H37.0161V63.8541C37.5859 64.0549 38.1907 64.184 38.8306 64.184C41.625 64.184 43.9077 62.0848 44.2125 59.4023H74.6601L78.2661 62.5702C79.4504 63.6102 80.977 64.184 82.5629 64.184C83.129 64.184 83.6686 64.0884 84.1936 63.9533V66.5749ZM33.3871 73.7474C32.9673 73.7474 32.5669 73.8168 32.1774 73.9172V59.4023H33.4488C33.5661 60.4352 33.9726 61.3724 34.5968 62.1446V73.9172C34.2073 73.8168 33.8069 73.7474 33.3871 73.7474ZM32.0056 54.6206H32.1774H33.3871V57.0115H32.0056C32.1073 56.6265 32.1774 56.2308 32.1774 55.816C32.1774 55.4012 32.1073 55.0055 32.0056 54.6206ZM44.6988 57.0115C45.381 55.6032 46.8254 54.6206 48.5081 54.6206H67.6077C68.6456 54.6206 69.6448 54.996 70.4202 55.6774L71.9383 57.0115H44.6988ZM32.1375 45.0608C32.8125 47.3978 33.2165 49.7947 33.3423 52.2297H32.1774C30.1766 52.2297 28.5484 50.6207 28.5484 48.6435C28.5484 46.6794 30.1548 45.0835 32.1375 45.0608ZM27.3387 58.2069C26.0044 58.2069 24.9194 57.1346 24.9194 55.816C24.9194 54.4975 26.0044 53.4252 27.3387 53.4252C28.673 53.4252 29.7581 54.4975 29.7581 55.816C29.7581 57.1346 28.673 58.2069 27.3387 58.2069ZM33.3871 80.92C32.0528 80.92 30.9677 79.8477 30.9677 78.5291C30.9677 77.2106 32.0528 76.1383 33.3871 76.1383C34.7214 76.1383 35.8065 77.2106 35.8065 78.5291C35.8065 79.8477 34.7214 80.92 33.3871 80.92ZM37.0161 71.3566V68.9657H84.1936V71.3566H37.0161ZM87.8226 80.92C86.4883 80.92 85.4032 79.8477 85.4032 78.5291C85.4032 77.2106 86.4883 76.1383 87.8226 76.1383C89.1569 76.1383 90.2419 77.2106 90.2419 78.5291C90.2419 79.8477 89.1569 80.92 87.8226 80.92ZM89.0323 73.9172C88.6427 73.8168 88.2423 73.7474 87.8226 73.7474C87.4028 73.7474 87.0024 73.8168 86.6129 73.9172V62.7364C87.6677 61.8912 88.4444 60.7376 88.7988 59.4023H89.0323V73.9172ZM95.0806 57.0115H89.0323V54.6206H95.0806V57.0115ZM89.0323 52.2297V49.8389H92.3238L93.3278 46.8599C93.45 46.4965 93.7948 46.2526 94.1819 46.2526C94.6778 46.2526 95.0806 46.6507 95.0806 47.1408V52.2297H89.0323Z" fill="black" stroke="black" stroke-width="2" mask="url(#path-2-inside-1_881_1821)"/>
</svg>
