<svg width="120" height="120" viewBox="0 0 120 120" fill="none" xmlns="http://www.w3.org/2000/svg">
<rect width="120" height="120" rx="60" fill="white"/>
<path d="M79.0053 92.2226H40.9947C37.9724 92.2226 35.4999 89.7501 35.4999 86.7278V33.2721C35.4999 30.2491 37.96 27.7773 40.9947 27.7773H79.0053C82.0276 27.7773 84.5001 30.2498 84.5001 33.2721V86.7278C84.5001 89.7508 82.04 92.2226 79.0053 92.2226ZM40.9947 29.3952C38.8599 29.3952 37.1177 31.1373 37.1177 33.2721V86.7278C37.1177 88.8626 38.8599 90.6048 40.9947 90.6048H79.0053C81.1401 90.6048 82.8823 88.8626 82.8823 86.7278V33.2721C82.8823 31.1373 81.1401 29.3952 79.0053 29.3952H40.9947Z" fill="black" stroke="black"/>
<path d="M42.8533 34.6308H42.3533V35.1308V77.2252V77.7252H42.8533H77.1466H77.6466V77.2252V35.1308V34.6308H77.1466H42.8533ZM78.4555 79.343H41.5444C41.1006 79.343 40.7355 78.9778 40.7355 78.5341V33.8218C40.7355 33.3781 41.1006 33.0129 41.5444 33.0129H78.4555C78.8993 33.0129 79.2644 33.3781 79.2644 33.8218V78.5341C79.2644 78.9778 78.8993 79.343 78.4555 79.343Z" fill="black" stroke="black"/>
<path d="M64.7229 56.8968L63.9899 57.4203L64.8219 57.7655C69.4064 59.6673 72.6289 64.1755 72.6418 69.4376C72.6416 69.8812 72.2765 70.2461 71.8329 70.2461H48.181C47.7372 70.2461 47.3721 69.8809 47.3721 69.4372C47.3721 64.1757 50.594 59.6674 55.1789 57.7655L56.0109 57.4203L55.2779 56.8968C53.2036 55.4151 51.8485 52.9979 51.8485 50.2617C51.8485 45.773 55.4995 42.1099 60.0004 42.1099C64.4892 42.1099 68.1523 45.7609 68.1523 50.2617C68.1523 52.9979 66.7972 55.4151 64.7229 56.8968ZM49.0722 68.0669L49.0027 68.6283H49.5684H70.4324H70.9981L70.9286 68.0669C70.2565 62.6357 65.6088 58.4267 60.0004 58.4267C54.392 58.4267 49.7442 62.6357 49.0722 68.0669ZM60.0004 43.7277C56.3996 43.7277 53.4663 46.661 53.4663 50.2617C53.4663 53.8763 56.4003 56.7958 60.0004 56.7958C63.6012 56.7958 66.5345 53.8625 66.5345 50.2617C66.5345 46.661 63.6012 43.7277 60.0004 43.7277Z" fill="black" stroke="black"/>
</svg>
