<svg width="120" height="120" viewBox="0 0 120 120" fill="none" xmlns="http://www.w3.org/2000/svg">
<rect width="120" height="120" rx="60" fill="white"/>
<path d="M90.1049 32.0005C89.8848 31.9998 89.6666 32.0479 89.4673 32.1415C84.209 34.5283 79.3945 37.7897 75.2267 41.7869V37.464C75.2268 36.5919 74.8807 35.7552 74.2661 35.1364C73.6516 34.5176 72.8181 34.167 71.9461 34.161H33.3897C32.7309 34.1575 32.0783 34.2842 31.4685 34.5339C30.8588 34.7835 30.3052 35.1512 29.838 35.6158C29.3708 36.0804 28.9999 36.6327 28.7468 37.241C28.4937 37.8494 28.3622 38.5016 28.362 39.1605V46.5364H37.4625V82.8682C37.4627 84.229 38.0044 85.5343 38.9666 86.4966C39.9288 87.4589 41.2333 87.9997 42.5942 88H76.3306C77.5397 87.9947 78.6967 87.5104 79.5495 86.6534C80.4023 85.7963 80.8815 84.6363 80.8808 83.4273V80.7559H75.1987V67.588V67.5678C75.3624 67.5321 75.515 67.4577 75.6439 67.3506C75.7727 67.2436 75.8737 67.1072 75.9388 66.9528C78.9456 59.9266 82.8559 53.3219 87.5686 47.3053C87.6515 47.1988 87.7035 47.0718 87.7203 46.9379C87.7371 46.8039 87.7167 46.668 87.6627 46.5443C87.6086 46.4206 87.5224 46.3138 87.4127 46.2351C87.303 46.1565 87.175 46.1089 87.0405 46.0973L87.2456 46.0829C86.5264 45.9928 85.8017 45.9573 85.0772 45.9766C86.1157 45.3584 87.2153 44.8483 88.3579 44.4542C88.8533 44.2811 89.3012 43.9959 89.6682 43.6207C90.0351 43.2455 90.3108 42.7905 90.4729 42.2914C91.4133 39.4237 91.7905 36.4011 91.5824 33.3904C91.5578 33.0147 91.3916 32.6623 91.1175 32.4043C90.8434 32.1463 90.4813 32.0024 90.1049 32.0005ZM90.1485 32.9471C90.2905 32.9488 90.4257 33.0026 90.5305 33.0984C90.6352 33.1942 90.7015 33.3254 90.7158 33.4667C90.9188 36.3591 90.5599 39.2633 89.6597 42.0195C89.5425 42.3843 89.3435 42.7172 89.0769 42.9924C88.8103 43.2676 88.4842 43.4777 88.1233 43.6065C86.7287 44.0945 85.3975 44.747 84.1573 45.5502L84.0843 45.5186C83.932 45.6085 83.817 45.7493 83.7585 45.9162C83.6999 46.0831 83.7027 46.2654 83.7655 46.4307C83.8283 46.596 83.9466 46.7338 84.1011 46.8197C84.2557 46.9057 84.4359 46.9344 84.6095 46.9005C85.3857 46.8509 86.1649 46.8687 86.938 46.9537C82.2539 52.9729 78.3638 59.5696 75.363 66.5815C75.3702 66.5984 75.3742 66.6164 75.3742 66.6347C75.3742 66.653 75.3702 66.6711 75.363 66.6879L67.1781 68.3002C73.1127 57.8927 79.747 47.8996 87.0335 38.3895C87.1073 38.2913 87.1379 38.1677 87.1206 38.0461C87.1033 37.9245 87.039 37.8148 86.9408 37.741C86.8426 37.6672 86.7197 37.6356 86.5982 37.6529C86.4766 37.6702 86.3658 37.735 86.292 37.8332C78.9734 47.3867 72.3127 57.4261 66.3538 67.8818L62.9678 59.3148C65.3208 55.6671 67.8531 52.1377 70.5543 48.7397L72.5654 52.3576C72.626 52.4606 72.7101 52.5475 72.8112 52.6113C72.9122 52.6751 73.0278 52.7138 73.1468 52.7242C73.2659 52.7346 73.3859 52.7164 73.4965 52.6712C73.6071 52.6259 73.704 52.5549 73.7816 52.464L74.3097 51.9022C74.3519 51.8067 74.3743 51.7034 74.3743 51.5989C74.3743 51.4944 74.3519 51.3911 74.3097 51.2955L73.144 45.3578C77.8085 40.1052 83.5242 35.8909 89.921 32.9878C89.9922 32.9591 90.0688 32.9449 90.1457 32.946L90.1485 32.9471ZM35.9766 35.0284H71.6582C72.2908 35.0331 72.896 35.2875 73.342 35.7362C73.7881 36.1849 74.0391 36.7916 74.04 37.4243V42.6346C73.3497 43.3231 72.6787 44.0312 72.0289 44.7581C71.9808 44.8589 71.9559 44.9693 71.9559 45.0811C71.9559 45.1929 71.9808 45.3032 72.0289 45.4041L73.2465 51.3447V51.6621L71.234 48.0444C71.1734 47.9414 71.0893 47.8545 70.9883 47.7907C70.8872 47.7269 70.7717 47.6882 70.6526 47.6778C70.5336 47.6674 70.4149 47.6856 70.3043 47.7308C70.1938 47.7761 70.0954 47.8471 70.0178 47.938L69.8437 47.964C67.0827 51.425 64.4957 55.0219 62.0942 58.7413C62.0197 58.888 61.9819 59.0501 61.9819 59.2146C61.9819 59.3791 62.0197 59.5412 62.0942 59.6879L65.5856 68.6198C65.5785 68.6899 65.5785 68.7605 65.5856 68.8305C64.9243 69.9931 64.2714 71.1607 63.6278 72.3331C63.5885 72.3857 63.5615 72.4461 63.5478 72.5104C63.534 72.5746 63.5335 72.6409 63.5478 72.7051C63.5621 72.7692 63.5909 72.8295 63.6306 72.8818C63.6704 72.9341 63.7201 72.9771 63.7781 73.0081C63.8361 73.039 63.9007 73.057 63.9663 73.0609C64.0319 73.0648 64.0975 73.0545 64.1587 73.0307C64.2199 73.0069 64.2745 72.9701 64.3202 72.9229C64.3659 72.8757 64.4009 72.8192 64.4227 72.7572C65.0654 71.5866 65.7174 70.421 66.3776 69.2602C66.3777 69.2545 66.3777 69.2486 66.3776 69.2429L74.0456 67.7291V80.7198H46.5504V82.8292C46.5504 83.9511 46.105 85.0271 45.3117 85.8204C44.5184 86.6137 43.4422 87.0592 42.3203 87.0592C41.1984 87.0592 40.1223 86.6137 39.3289 85.8204C38.5356 85.0271 38.0903 83.9511 38.0903 82.8292V39.1242C38.0921 38.3221 37.9006 37.5312 37.5327 36.8185C37.1648 36.1058 36.6316 35.4914 35.9766 35.0284ZM33.1636 35.155C33.7113 35.1252 34.2585 35.2056 34.7745 35.3914C35.2905 35.5773 35.7648 35.8649 36.1676 36.2371C36.5705 36.6093 36.8938 37.0585 37.1198 37.5583C37.3459 38.058 37.47 38.598 37.4836 39.1463V45.6177H29.2875V39.1463C29.313 38.1155 29.7264 37.1322 30.4447 36.3924C31.1631 35.6527 32.134 35.2108 33.1636 35.155ZM47.7469 81.6462H80.0031V83.4129C80.0028 84.3825 79.6187 85.3125 78.9344 85.9994C78.2501 86.6864 77.3213 87.0744 76.3517 87.0784H45.5251C46.2104 86.6066 46.77 85.9752 47.1571 85.2388C47.5441 84.5024 47.7469 83.683 47.7469 82.8511V81.6462Z" fill="black" stroke="black" stroke-width="2"/>
<path d="M45.102 44.8228H67.6184C67.739 44.8228 67.8542 44.7748 67.9395 44.6895C68.0248 44.6041 68.0722 44.4883 68.0722 44.3677C68.0722 44.247 68.0248 44.1312 67.9395 44.0459C67.8542 43.9605 67.739 43.9128 67.6184 43.9128H45.102C44.9813 43.9128 44.8649 43.9605 44.7795 44.0459C44.6942 44.1312 44.6469 44.247 44.6469 44.3677C44.6469 44.4883 44.6942 44.6041 44.7795 44.6895C44.8649 44.7748 44.9813 44.8228 45.102 44.8228Z" fill="black" stroke="black" stroke-width="2"/>
<path d="M45.1019 51.054H56.3601C56.4801 51.053 56.5954 51.0046 56.6799 50.9193C56.7644 50.8341 56.8113 50.7189 56.8113 50.5989C56.8113 50.4789 56.7644 50.3639 56.6799 50.2787C56.5954 50.1935 56.4801 50.145 56.3601 50.144H45.1019C44.9819 50.145 44.8666 50.1935 44.7821 50.2787C44.6976 50.3639 44.6508 50.4789 44.6508 50.5989C44.6508 50.7189 44.6976 50.8341 44.7821 50.9193C44.8666 51.0046 44.9819 51.053 45.1019 51.054Z" fill="black" stroke="black" stroke-width="2"/>
<path d="M45.102 57.285H56.3602C56.4809 57.285 56.596 57.2369 56.6813 57.1516C56.7666 57.0663 56.8153 56.9505 56.8153 56.8298C56.8153 56.7092 56.7666 56.5934 56.6813 56.508C56.596 56.4227 56.4809 56.375 56.3602 56.375H45.102C44.9813 56.375 44.8649 56.4227 44.7795 56.508C44.6942 56.5934 44.6469 56.7092 44.6469 56.8298C44.6469 56.9505 44.6942 57.0663 44.7795 57.1516C44.8649 57.2369 44.9813 57.285 45.102 57.285Z" fill="black" stroke="black" stroke-width="2"/>
<path d="M45.102 63.5172H56.3602C56.4809 63.5172 56.596 63.4691 56.6813 63.3838C56.7666 63.2985 56.8153 63.183 56.8153 63.0623C56.8153 62.9417 56.7666 62.8259 56.6813 62.7405C56.596 62.6552 56.4809 62.6072 56.3602 62.6072H45.102C44.9813 62.6072 44.8649 62.6552 44.7795 62.7405C44.6942 62.8259 44.6469 62.9417 44.6469 63.0623C44.6469 63.183 44.6942 63.2985 44.7795 63.3838C44.8649 63.4691 44.9813 63.5172 45.102 63.5172Z" fill="black" stroke="black" stroke-width="2"/>
<path d="M45.1019 69.7484H56.3601C56.4801 69.7474 56.5954 69.6989 56.6799 69.6137C56.7644 69.5285 56.8113 69.4132 56.8113 69.2932C56.8113 69.1732 56.7644 69.058 56.6799 68.9727C56.5954 68.8875 56.4801 68.8394 56.3601 68.8384H45.1019C44.9819 68.8394 44.8666 68.8875 44.7821 68.9727C44.6976 69.058 44.6508 69.1732 44.6508 69.2932C44.6508 69.4132 44.6976 69.5285 44.7821 69.6137C44.8666 69.6989 44.9819 69.7474 45.1019 69.7484Z" fill="black" stroke="black" stroke-width="2"/>
<path d="M45.1019 75.9792H67.6183C67.7383 75.9782 67.8523 75.9301 67.9368 75.8449C68.0213 75.7597 68.0695 75.6444 68.0695 75.5244C68.0695 75.4044 68.0213 75.2892 67.9368 75.2039C67.8523 75.1187 67.7383 75.0706 67.6183 75.0696H45.1019C44.9819 75.0706 44.8666 75.1187 44.7821 75.2039C44.6976 75.2892 44.6508 75.4044 44.6508 75.5244C44.6508 75.6444 44.6976 75.7597 44.7821 75.8449C44.8666 75.9301 44.9819 75.9782 45.1019 75.9792Z" fill="black" stroke="black" stroke-width="2"/>
</svg>
