<svg width="120" height="120" viewBox="0 0 120 120" fill="none" xmlns="http://www.w3.org/2000/svg">
<rect width="120" height="120" rx="60" fill="white"/>
<mask id="path-2-inside-1_889_1921" fill="white">
<path fill-rule="evenodd" clip-rule="evenodd" d="M69.8787 35.6477C69.8787 36.2297 69.4046 36.702 68.8165 36.702H50.0227C49.4355 36.702 48.9606 36.2297 48.9606 35.6477C48.9606 35.0657 49.4355 34.5934 50.0227 34.5934H68.8165C69.4046 34.5934 69.8787 35.0657 69.8787 35.6477ZM48.9606 28.0063C48.9606 27.4243 49.4355 26.952 50.0227 26.952H57.5622C58.1485 26.952 58.6243 27.4234 58.6243 28.0063C58.6243 28.5883 58.1494 29.0606 57.5622 29.0606H50.0227C49.4355 29.0606 48.9606 28.5883 48.9606 28.0063ZM67.7544 29.4806H64.7821V26.5303H67.7544V29.4806ZM68.8165 24.4217H63.72C63.1337 24.4217 62.6587 24.8931 62.6587 25.476V30.5349C62.6587 31.1169 63.1337 31.5891 63.72 31.5891H68.8165C69.4046 31.5891 69.8787 31.1169 69.8787 30.5349V25.476C69.8787 24.894 69.4046 24.4217 68.8165 24.4217ZM80.8757 36.3291L73.8526 34.128V28.662L80.8757 26.4986V36.3291ZM71.7284 38.9306V23.8534C71.7284 23.4437 71.3907 23.1086 70.9762 23.1086H47.5867C47.1722 23.1086 46.8354 23.4437 46.8354 23.8534V38.9306C46.8354 39.336 47.1791 39.6754 47.5867 39.6754H70.9762C71.3847 39.6763 71.7284 39.336 71.7284 38.9306ZM62.3073 43.7906H56.2548V41.784H62.3073V43.7906ZM43.4366 29.4274V26.6091H44.7112V29.4274H43.4366ZM70.4987 74.6691L60.3436 80.484V57.5794L70.4987 74.6691ZM48.0642 74.6691L58.2193 57.5794V80.484L48.0642 74.6691ZM82.0959 24.6797C81.5709 24.3531 80.9526 24.2743 80.3524 24.4603L73.8526 26.4557V23.8534C73.8526 22.2814 72.5625 21 70.9762 21H47.5867C46.0013 21 44.7112 22.2814 44.7112 23.8534V24.5006H42.3744C41.7881 24.5006 41.3123 24.9729 41.3123 25.5549V30.4817C41.3123 31.0637 41.7881 31.536 42.3744 31.536H44.7112V38.9306C44.7112 40.5043 46.0013 41.784 47.5867 41.784H54.1322V44.8449C54.1322 45.4269 54.6072 45.8991 55.1935 45.8991H58.2202V48.7783H57.0976C56.5113 48.7783 56.0363 49.2506 56.0363 49.8326C56.0363 50.4146 56.5113 50.8869 57.0976 50.8869H58.2202V53.4309L37.1475 88.8917C36.8496 89.3931 37.0171 90.0394 37.5223 90.3343C37.6915 90.4337 37.8781 90.4809 38.0611 90.4809C38.4247 90.4809 38.7787 90.2966 38.9765 89.9631L46.9857 76.4854L58.2193 82.9191V97.9457C58.2193 98.5277 58.6943 99 59.2815 99C59.8687 99 60.3427 98.5277 60.3427 97.9457V82.9183L71.5772 76.4846L79.5856 89.9623C79.7834 90.2957 80.1383 90.48 80.5018 90.48C80.6849 90.48 80.8705 90.4329 81.0406 90.3334C81.5458 90.0377 81.7133 89.3923 81.4154 88.8909L60.3436 53.4309V50.8869H61.4653C62.0517 50.8869 62.5275 50.4146 62.5275 49.8326C62.5275 49.2506 62.0525 48.7783 61.4653 48.7783H60.3436V45.8991H63.3703C63.9566 45.8991 64.4324 45.4269 64.4324 44.8449V41.784H70.9771C72.5625 41.784 73.8535 40.5043 73.8535 38.9306V36.3377L80.3412 38.3717C80.5579 38.4394 80.7773 38.472 80.9932 38.472C81.3783 38.472 81.7548 38.3666 82.0942 38.1583C82.6693 37.8034 83 37.2291 83 36.5811V26.2543C82.9983 25.608 82.6701 25.0346 82.0959 24.6797Z"/>
</mask>
<path fill-rule="evenodd" clip-rule="evenodd" d="M69.8787 35.6477C69.8787 36.2297 69.4046 36.702 68.8165 36.702H50.0227C49.4355 36.702 48.9606 36.2297 48.9606 35.6477C48.9606 35.0657 49.4355 34.5934 50.0227 34.5934H68.8165C69.4046 34.5934 69.8787 35.0657 69.8787 35.6477ZM48.9606 28.0063C48.9606 27.4243 49.4355 26.952 50.0227 26.952H57.5622C58.1485 26.952 58.6243 27.4234 58.6243 28.0063C58.6243 28.5883 58.1494 29.0606 57.5622 29.0606H50.0227C49.4355 29.0606 48.9606 28.5883 48.9606 28.0063ZM67.7544 29.4806H64.7821V26.5303H67.7544V29.4806ZM68.8165 24.4217H63.72C63.1337 24.4217 62.6587 24.8931 62.6587 25.476V30.5349C62.6587 31.1169 63.1337 31.5891 63.72 31.5891H68.8165C69.4046 31.5891 69.8787 31.1169 69.8787 30.5349V25.476C69.8787 24.894 69.4046 24.4217 68.8165 24.4217ZM80.8757 36.3291L73.8526 34.128V28.662L80.8757 26.4986V36.3291ZM71.7284 38.9306V23.8534C71.7284 23.4437 71.3907 23.1086 70.9762 23.1086H47.5867C47.1722 23.1086 46.8354 23.4437 46.8354 23.8534V38.9306C46.8354 39.336 47.1791 39.6754 47.5867 39.6754H70.9762C71.3847 39.6763 71.7284 39.336 71.7284 38.9306ZM62.3073 43.7906H56.2548V41.784H62.3073V43.7906ZM43.4366 29.4274V26.6091H44.7112V29.4274H43.4366ZM70.4987 74.6691L60.3436 80.484V57.5794L70.4987 74.6691ZM48.0642 74.6691L58.2193 57.5794V80.484L48.0642 74.6691ZM82.0959 24.6797C81.5709 24.3531 80.9526 24.2743 80.3524 24.4603L73.8526 26.4557V23.8534C73.8526 22.2814 72.5625 21 70.9762 21H47.5867C46.0013 21 44.7112 22.2814 44.7112 23.8534V24.5006H42.3744C41.7881 24.5006 41.3123 24.9729 41.3123 25.5549V30.4817C41.3123 31.0637 41.7881 31.536 42.3744 31.536H44.7112V38.9306C44.7112 40.5043 46.0013 41.784 47.5867 41.784H54.1322V44.8449C54.1322 45.4269 54.6072 45.8991 55.1935 45.8991H58.2202V48.7783H57.0976C56.5113 48.7783 56.0363 49.2506 56.0363 49.8326C56.0363 50.4146 56.5113 50.8869 57.0976 50.8869H58.2202V53.4309L37.1475 88.8917C36.8496 89.3931 37.0171 90.0394 37.5223 90.3343C37.6915 90.4337 37.8781 90.4809 38.0611 90.4809C38.4247 90.4809 38.7787 90.2966 38.9765 89.9631L46.9857 76.4854L58.2193 82.9191V97.9457C58.2193 98.5277 58.6943 99 59.2815 99C59.8687 99 60.3427 98.5277 60.3427 97.9457V82.9183L71.5772 76.4846L79.5856 89.9623C79.7834 90.2957 80.1383 90.48 80.5018 90.48C80.6849 90.48 80.8705 90.4329 81.0406 90.3334C81.5458 90.0377 81.7133 89.3923 81.4154 88.8909L60.3436 53.4309V50.8869H61.4653C62.0517 50.8869 62.5275 50.4146 62.5275 49.8326C62.5275 49.2506 62.0525 48.7783 61.4653 48.7783H60.3436V45.8991H63.3703C63.9566 45.8991 64.4324 45.4269 64.4324 44.8449V41.784H70.9771C72.5625 41.784 73.8535 40.5043 73.8535 38.9306V36.3377L80.3412 38.3717C80.5579 38.4394 80.7773 38.472 80.9932 38.472C81.3783 38.472 81.7548 38.3666 82.0942 38.1583C82.6693 37.8034 83 37.2291 83 36.5811V26.2543C82.9983 25.608 82.6701 25.0346 82.0959 24.6797Z" fill="black" stroke="black" stroke-width="2" mask="url(#path-2-inside-1_889_1921)"/>
</svg>
