<svg width="120" height="120" viewBox="0 0 120 120" fill="none" xmlns="http://www.w3.org/2000/svg">
<rect width="120" height="120" rx="60" fill="white"/>
<path d="M85.1735 37.8649V38.3649H85.6735H88.3303C88.5501 38.3649 88.7159 38.5307 88.7159 38.7505V95.4287C88.7159 95.6552 88.5435 95.8143 88.348 95.8143H31.6697C31.4499 95.8143 31.2841 95.6485 31.2841 95.4287V38.8332C31.286 38.8261 31.2878 38.8186 31.2895 38.8108C31.2957 38.7824 31.3009 38.748 31.3017 38.7088C31.3019 38.7082 31.3021 38.7075 31.3023 38.7067L31.306 38.6953L31.3116 38.6783L31.3382 38.5986L31.352 38.5571L31.3549 38.5531C31.359 38.5477 31.3638 38.5411 31.3692 38.5336C31.3762 38.5257 31.3825 38.5183 31.388 38.5118C31.401 38.4964 31.4132 38.4811 31.4214 38.4709L31.4225 38.4695C31.4262 38.4649 31.4292 38.4612 31.4317 38.4581L31.4402 38.4526C31.4518 38.4452 31.4681 38.4349 31.4866 38.4226C31.5004 38.4134 31.5106 38.4066 31.5203 38.4003C31.5295 38.3944 31.5358 38.3905 31.5404 38.3878L31.6387 38.355L31.6562 38.3375L84.6865 24.1961C84.7855 24.1697 84.9119 24.193 85.0168 24.2706C85.1259 24.3555 85.1735 24.4582 85.1735 24.5809V37.8649ZM31.3377 38.5766C31.3375 38.577 31.3373 38.5772 31.3373 38.5772C31.3373 38.5771 31.3374 38.577 31.3376 38.5767L31.3377 38.5766ZM84.4023 25.7322V25.0814L83.7735 25.2491L38.2714 37.3817L38.4003 38.3649H83.9023H84.4023V37.8649V25.7322ZM87.4447 95.0431H87.9447V94.5431V39.6361V39.1361H87.4447H32.5376H32.0376V39.6361V94.5431V95.0431H32.5376H87.4447Z" fill="black" stroke="black"/>
<path d="M36.0088 47.9265L35.58 47.9882V48.4214V85.7405V86.1738L36.0088 86.2354C38.4991 86.5935 40.4697 88.5641 40.8278 91.0544L40.8895 91.4833H41.3227H78.6418H79.0751L79.1367 91.0544C79.4948 88.5641 81.4654 86.5935 83.9557 86.2354L84.3846 86.1738V85.7405V48.4214V47.9882L83.9557 47.9265C81.4654 47.5684 79.4948 45.5978 79.1367 43.1075L79.0751 42.6787H78.6418H41.3227H40.8895L40.8278 43.1075C40.4697 45.5978 38.4991 47.5684 36.0088 47.9265ZM40.1224 91.8866C40.1224 89.1662 37.9148 86.9586 35.1944 86.9586C34.9746 86.9586 34.8088 86.7928 34.8088 86.573V47.6067C34.8088 47.3869 34.9746 47.2211 35.1944 47.2211C37.9148 47.2211 40.1224 45.0135 40.1224 42.2931C40.1224 42.0733 40.2882 41.9075 40.508 41.9075H79.4743C79.6941 41.9075 79.8599 42.0733 79.8599 42.2931C79.8599 45.0135 82.0675 47.2211 84.7879 47.2211C85.0077 47.2211 85.1735 47.3869 85.1735 47.6067V86.573C85.1735 86.7928 85.0077 86.9586 84.7879 86.9586C82.0675 86.9586 79.8599 89.1662 79.8599 91.8866C79.8599 92.1064 79.6941 92.2722 79.4743 92.2722H40.508C40.2882 92.2722 40.1224 92.1064 40.1224 91.8866Z" fill="black" stroke="black"/>
<path d="M36.08 42.6787H35.58V43.1787V44.0643C35.58 44.2841 35.4142 44.4499 35.1944 44.4499C34.9746 44.4499 34.8088 44.2841 34.8088 44.0643V42.2931C34.8088 42.0733 34.9746 41.9075 35.1944 41.9075H36.9656C37.1854 41.9075 37.3512 42.0733 37.3512 42.2931C37.3512 42.5129 37.1854 42.6787 36.9656 42.6787H36.08Z" fill="black" stroke="black"/>
<path d="M84.4022 43.1787V42.6787H83.9022H83.0166C82.7968 42.6787 82.631 42.5129 82.631 42.2931C82.631 42.0733 82.7968 41.9075 83.0166 41.9075H84.7878C85.0076 41.9075 85.1734 42.0733 85.1734 42.2931V44.0643C85.1734 44.2841 85.0076 44.4499 84.7878 44.4499C84.568 44.4499 84.4022 44.2841 84.4022 44.0643V43.1787Z" fill="black" stroke="black"/>
<path d="M83.9022 91.5009H84.4022V91.0009V90.1153C84.4022 89.8955 84.568 89.7297 84.7878 89.7297C85.0076 89.7297 85.1734 89.8955 85.1734 90.1153V91.8865C85.1734 92.1063 85.0076 92.2721 84.7878 92.2721H83.0166C82.7968 92.2721 82.631 92.1063 82.631 91.8865C82.631 91.6667 82.7968 91.5009 83.0166 91.5009H83.9022Z" fill="black" stroke="black"/>
<path d="M35.58 91.0009V91.5009H36.08H36.9656C37.1854 91.5009 37.3512 91.6667 37.3512 91.8865C37.3512 92.1063 37.1854 92.2721 36.9656 92.2721H35.1944C34.9746 92.2721 34.8088 92.1063 34.8088 91.8865V90.1153C34.8088 89.8955 34.9746 89.7297 35.1944 89.7297C35.4142 89.7297 35.58 89.8955 35.58 90.1153V91.0009Z" fill="black" stroke="black"/>
<path d="M44.9359 53.3056H44.4359V53.8056V59.1192V59.6192H44.9359H75.0463H75.5463V59.1192V53.8056V53.3056H75.0463H44.9359ZM75.9319 60.3904H44.0503C43.8305 60.3904 43.6647 60.2246 43.6647 60.0048V52.92C43.6647 52.7002 43.8305 52.5344 44.0503 52.5344H75.9319C76.1517 52.5344 76.3175 52.7002 76.3175 52.92V60.0048C76.3175 60.2246 76.1517 60.3904 75.9319 60.3904Z" fill="black" stroke="black"/>
<path d="M75.9319 67.4753H44.0503C43.8305 67.4753 43.6647 67.3095 43.6647 67.0897C43.6647 66.8699 43.8305 66.7041 44.0503 66.7041H75.9319C76.1517 66.7041 76.3175 66.8699 76.3175 67.0897C76.3175 67.3095 76.1517 67.4753 75.9319 67.4753Z" fill="black" stroke="black"/>
<path d="M75.9319 71.0175H44.0503C43.8305 71.0175 43.6647 70.8517 43.6647 70.6319C43.6647 70.4121 43.8305 70.2463 44.0503 70.2463H75.9319C76.1517 70.2463 76.3175 70.4121 76.3175 70.6319C76.3175 70.8517 76.1517 71.0175 75.9319 71.0175Z" fill="black" stroke="black"/>
<path d="M75.9319 74.5603H44.0503C43.8305 74.5603 43.6647 74.3945 43.6647 74.1747C43.6647 73.9549 43.8305 73.7891 44.0503 73.7891H75.9319C76.1517 73.7891 76.3175 73.9549 76.3175 74.1747C76.3175 74.3945 76.1517 74.5603 75.9319 74.5603Z" fill="black" stroke="black"/>
</svg>
