<svg width="120" height="120" viewBox="0 0 120 120" fill="none" xmlns="http://www.w3.org/2000/svg">
<rect width="120" height="120" rx="60" fill="white"/>
<mask id="path-2-inside-1_881_1823" fill="white">
<path d="M26 74.6733V43.1352C26.0011 42.1175 26.202 41.11 26.5913 40.1702C26.9806 39.2305 27.5506 38.377 28.2687 37.6585C28.9868 36.94 29.839 36.3707 30.7765 35.983C31.7141 35.5953 32.7185 35.3968 33.7325 35.399H35.2018V31.5597C35.2018 31.0134 35.418 30.4895 35.8029 30.1033C36.1877 29.717 36.7097 29.5 37.254 29.5C37.7982 29.5 38.3202 29.717 38.7051 30.1033C39.0899 30.4895 39.3061 31.0134 39.3061 31.5597V35.399H53.2607V31.5597C53.2607 31.0134 53.477 30.4895 53.8618 30.1033C54.2467 29.717 54.7686 29.5 55.3129 29.5C55.8572 29.5 56.3791 29.717 56.764 30.1033C57.1488 30.4895 57.365 31.0134 57.365 31.5597V35.399H71.3197V31.5597C71.3197 31.2892 71.3727 31.0214 71.4759 30.7715C71.579 30.5216 71.7302 30.2945 71.9207 30.1033C72.1113 29.912 72.3375 29.7603 72.5865 29.6568C72.8355 29.5533 73.1023 29.5 73.3718 29.5C73.6413 29.5 73.9082 29.5533 74.1571 29.6568C74.4061 29.7603 74.6323 29.912 74.8229 30.1033C75.0135 30.2945 75.1646 30.5216 75.2677 30.7715C75.3709 31.0214 75.424 31.2892 75.424 31.5597V35.399H79.1342C81.1778 35.4012 83.1371 36.2169 84.5821 37.6673C86.0272 39.1176 86.8399 41.0841 86.8421 43.1352V50.2123C86.8421 50.7586 86.6259 51.2825 86.241 51.6687C85.8562 52.055 85.3342 52.272 84.79 52.272C84.2457 52.272 83.7237 52.055 83.3389 51.6687C82.954 51.2825 82.7378 50.7586 82.7378 50.2123V43.1352C82.7356 42.1766 82.3553 41.2579 81.68 40.5801C81.0046 39.9023 80.0893 39.5205 79.1342 39.5184H75.3993V43.7037C75.3993 44.2499 75.1831 44.7738 74.7983 45.1601C74.4134 45.5464 73.8914 45.7634 73.3472 45.7634C72.8029 45.7634 72.2809 45.5464 71.8961 45.1601C71.5112 44.7738 71.295 44.2499 71.295 43.7037V39.5184H57.3404V43.7037C57.3404 44.2499 57.1242 44.7738 56.7394 45.1601C56.3545 45.5464 55.8325 45.7634 55.2883 45.7634C54.744 45.7634 54.222 45.5464 53.8372 45.1601C53.4523 44.7738 53.2361 44.2499 53.2361 43.7037V39.5184H39.2815V43.7037C39.2815 44.2499 39.0653 44.7738 38.6804 45.1601C38.2956 45.5464 37.7736 45.7634 37.2294 45.7634C36.6851 45.7634 36.1631 45.5464 35.7783 45.1601C35.3934 44.7738 35.1772 44.2499 35.1772 43.7037V39.5184H33.7325C32.7782 39.5206 31.8637 39.9026 31.1897 40.5806C30.5157 41.2587 30.1371 42.1774 30.1371 43.1352V74.6733C30.1371 75.6303 30.5159 76.5482 31.1902 77.225C31.8645 77.9017 32.7789 78.2819 33.7325 78.2819H52.4317C52.9759 78.2819 53.4979 78.4989 53.8828 78.8852C54.2676 79.2714 54.4838 79.7953 54.4838 80.3416C54.4838 80.8878 54.2676 81.4117 53.8828 81.798C53.4979 82.1843 52.9759 82.4013 52.4317 82.4013H33.7325C32.7189 82.4045 31.7146 82.2071 30.7772 81.8203C29.8397 81.4335 28.9874 80.8649 28.2692 80.1471C27.5509 79.4292 26.9808 78.5763 26.5914 77.637C26.2021 76.6977 26.0011 75.6906 26 74.6733ZM94 74.4756C94 77.6459 93.063 80.7451 91.3076 83.3808C89.5522 86.0166 87.0572 88.0705 84.1384 89.2826C81.2196 90.4947 78.0082 90.8106 74.9105 90.1903C71.8127 89.57 68.968 88.0413 66.7361 85.7978C64.5042 83.5543 62.9856 80.6967 62.3723 77.5866C61.7591 74.4765 62.0788 71.2538 63.291 68.3261C64.5032 65.3985 66.5533 62.8975 69.1821 61.1397C71.8109 59.3819 74.9001 58.4462 78.0589 58.4511C82.2877 58.462 86.3398 60.1546 89.3277 63.1581C92.3156 66.1616 93.9957 70.2312 94 74.4756ZM89.8957 74.4756C89.8989 72.1192 89.2054 69.8149 87.903 67.8544C86.6005 65.8939 84.7477 64.3655 82.5791 63.4626C80.4106 62.5598 78.0239 62.3231 75.7212 62.7826C73.4186 63.2421 71.3036 64.3771 69.6441 66.0439C67.9846 67.7107 66.8552 69.8342 66.399 72.1456C65.9428 74.4571 66.1802 76.8524 67.0813 79.0283C67.9823 81.2042 69.5065 83.0628 71.4607 84.3687C73.4149 85.6746 75.7112 86.369 78.0589 86.3641C81.197 86.3554 84.2039 85.0998 86.4221 82.8719C88.6403 80.6441 89.8892 77.6252 89.8957 74.4756ZM84.2482 68.5683C84.0345 68.4037 83.7905 68.2831 83.5302 68.2134C83.2699 68.1437 82.9985 68.1264 82.7315 68.1623C82.4645 68.1983 82.2072 68.2869 81.9744 68.4231C81.7417 68.5592 81.538 68.7402 81.3752 68.9556L77.7224 73.7588L76.3679 71.8968C76.2252 71.6432 76.0306 71.4229 75.7968 71.2504C75.563 71.0778 75.2954 70.957 75.0117 70.8959C74.728 70.8348 74.4346 70.8348 74.1509 70.8958C73.8672 70.9569 73.5996 71.0777 73.3658 71.2501C73.1319 71.4226 72.9372 71.6429 72.7945 71.8965C72.6517 72.15 72.5642 72.4311 72.5376 72.7211C72.511 73.0111 72.546 73.3035 72.6403 73.5789C72.7346 73.8544 72.886 74.1066 73.0845 74.319L76.056 78.4384C76.2467 78.6947 76.4945 78.9027 76.7795 79.0457C77.0646 79.1888 77.379 79.2629 77.6977 79.2623C78.0162 79.2617 78.3302 79.1869 78.615 79.044C78.8999 78.901 79.1479 78.6938 79.3395 78.4384L84.6258 71.4519C84.7903 71.238 84.911 70.9935 84.9811 70.7325C85.0512 70.4716 85.0692 70.1993 85.0341 69.9314C84.999 69.6634 84.9115 69.4051 84.7766 69.1712C84.6418 68.9372 84.4622 68.7324 84.2482 68.5683ZM42.5403 52.5109H39.971C39.4268 52.5109 38.9048 52.7279 38.5199 53.1142C38.1351 53.5005 37.9189 54.0244 37.9189 54.5706C37.9189 55.1169 38.1351 55.6408 38.5199 56.0271C38.9048 56.4133 39.4268 56.6303 39.971 56.6303H42.5403C43.0846 56.6303 43.6066 56.4133 43.9914 56.0271C44.3763 55.6408 44.5925 55.1169 44.5925 54.5706C44.5925 54.0244 44.3763 53.5005 43.9914 53.1142C43.6066 52.7279 43.0846 52.5109 42.5403 52.5109ZM42.5403 66.5169H39.971C39.4268 66.5169 38.9048 66.7339 38.5199 67.1202C38.1351 67.5064 37.9189 68.0303 37.9189 68.5766C37.9189 69.1229 38.1351 69.6467 38.5199 70.033C38.9048 70.4193 39.4268 70.6363 39.971 70.6363H42.5403C43.0846 70.6363 43.6066 70.4193 43.9914 70.033C44.3763 69.6467 44.5925 69.1229 44.5925 68.5766C44.5925 68.0303 44.3763 67.5064 43.9914 67.1202C43.6066 66.7339 43.0846 66.5169 42.5403 66.5169ZM54.7711 52.5109H52.2018C51.6576 52.5109 51.1356 52.7279 50.7507 53.1142C50.3659 53.5005 50.1497 54.0244 50.1497 54.5706C50.1497 55.1169 50.3659 55.6408 50.7507 56.0271C51.1356 56.4133 51.6576 56.6303 52.2018 56.6303H54.7711C55.3154 56.6303 55.8374 56.4133 56.2222 56.0271C56.6071 55.6408 56.8233 55.1169 56.8233 54.5706C56.8233 54.0244 56.6071 53.5005 56.2222 53.1142C55.8374 52.7279 55.3154 52.5109 54.7711 52.5109ZM65.2207 52.5109C64.6764 52.5109 64.1544 52.7279 63.7696 53.1142C63.3847 53.5005 63.1685 54.0244 63.1685 54.5706C63.1685 55.1169 63.3847 55.6408 63.7696 56.0271C64.1544 56.4133 64.6764 56.6303 65.2207 56.6303H67.7982C68.3424 56.6303 68.8644 56.4133 69.2493 56.0271C69.6341 55.6408 69.8503 55.1169 69.8503 54.5706C69.8503 54.0244 69.6341 53.5005 69.2493 53.1142C68.8644 52.7279 68.3424 52.5109 67.7982 52.5109H65.2207ZM54.7711 66.5169H52.2018C51.6576 66.5169 51.1356 66.7339 50.7507 67.1202C50.3659 67.5064 50.1497 68.0303 50.1497 68.5766C50.1497 69.1229 50.3659 69.6467 50.7507 70.033C51.1356 70.4193 51.6576 70.6363 52.2018 70.6363H54.7711C55.3154 70.6363 55.8374 70.4193 56.2222 70.033C56.6071 69.6467 56.8233 69.1229 56.8233 68.5766C56.8233 68.0303 56.6071 67.5064 56.2222 67.1202C55.8374 66.7339 55.3154 66.5169 54.7711 66.5169Z"/>
</mask>
<path d="M26 74.6733V43.1352C26.0011 42.1175 26.202 41.11 26.5913 40.1702C26.9806 39.2305 27.5506 38.377 28.2687 37.6585C28.9868 36.94 29.839 36.3707 30.7765 35.983C31.7141 35.5953 32.7185 35.3968 33.7325 35.399H35.2018V31.5597C35.2018 31.0134 35.418 30.4895 35.8029 30.1033C36.1877 29.717 36.7097 29.5 37.254 29.5C37.7982 29.5 38.3202 29.717 38.7051 30.1033C39.0899 30.4895 39.3061 31.0134 39.3061 31.5597V35.399H53.2607V31.5597C53.2607 31.0134 53.477 30.4895 53.8618 30.1033C54.2467 29.717 54.7686 29.5 55.3129 29.5C55.8572 29.5 56.3791 29.717 56.764 30.1033C57.1488 30.4895 57.365 31.0134 57.365 31.5597V35.399H71.3197V31.5597C71.3197 31.2892 71.3727 31.0214 71.4759 30.7715C71.579 30.5216 71.7302 30.2945 71.9207 30.1033C72.1113 29.912 72.3375 29.7603 72.5865 29.6568C72.8355 29.5533 73.1023 29.5 73.3718 29.5C73.6413 29.5 73.9082 29.5533 74.1571 29.6568C74.4061 29.7603 74.6323 29.912 74.8229 30.1033C75.0135 30.2945 75.1646 30.5216 75.2677 30.7715C75.3709 31.0214 75.424 31.2892 75.424 31.5597V35.399H79.1342C81.1778 35.4012 83.1371 36.2169 84.5821 37.6673C86.0272 39.1176 86.8399 41.0841 86.8421 43.1352V50.2123C86.8421 50.7586 86.6259 51.2825 86.241 51.6687C85.8562 52.055 85.3342 52.272 84.79 52.272C84.2457 52.272 83.7237 52.055 83.3389 51.6687C82.954 51.2825 82.7378 50.7586 82.7378 50.2123V43.1352C82.7356 42.1766 82.3553 41.2579 81.68 40.5801C81.0046 39.9023 80.0893 39.5205 79.1342 39.5184H75.3993V43.7037C75.3993 44.2499 75.1831 44.7738 74.7983 45.1601C74.4134 45.5464 73.8914 45.7634 73.3472 45.7634C72.8029 45.7634 72.2809 45.5464 71.8961 45.1601C71.5112 44.7738 71.295 44.2499 71.295 43.7037V39.5184H57.3404V43.7037C57.3404 44.2499 57.1242 44.7738 56.7394 45.1601C56.3545 45.5464 55.8325 45.7634 55.2883 45.7634C54.744 45.7634 54.222 45.5464 53.8372 45.1601C53.4523 44.7738 53.2361 44.2499 53.2361 43.7037V39.5184H39.2815V43.7037C39.2815 44.2499 39.0653 44.7738 38.6804 45.1601C38.2956 45.5464 37.7736 45.7634 37.2294 45.7634C36.6851 45.7634 36.1631 45.5464 35.7783 45.1601C35.3934 44.7738 35.1772 44.2499 35.1772 43.7037V39.5184H33.7325C32.7782 39.5206 31.8637 39.9026 31.1897 40.5806C30.5157 41.2587 30.1371 42.1774 30.1371 43.1352V74.6733C30.1371 75.6303 30.5159 76.5482 31.1902 77.225C31.8645 77.9017 32.7789 78.2819 33.7325 78.2819H52.4317C52.9759 78.2819 53.4979 78.4989 53.8828 78.8852C54.2676 79.2714 54.4838 79.7953 54.4838 80.3416C54.4838 80.8878 54.2676 81.4117 53.8828 81.798C53.4979 82.1843 52.9759 82.4013 52.4317 82.4013H33.7325C32.7189 82.4045 31.7146 82.2071 30.7772 81.8203C29.8397 81.4335 28.9874 80.8649 28.2692 80.1471C27.5509 79.4292 26.9808 78.5763 26.5914 77.637C26.2021 76.6977 26.0011 75.6906 26 74.6733ZM94 74.4756C94 77.6459 93.063 80.7451 91.3076 83.3808C89.5522 86.0166 87.0572 88.0705 84.1384 89.2826C81.2196 90.4947 78.0082 90.8106 74.9105 90.1903C71.8127 89.57 68.968 88.0413 66.7361 85.7978C64.5042 83.5543 62.9856 80.6967 62.3723 77.5866C61.7591 74.4765 62.0788 71.2538 63.291 68.3261C64.5032 65.3985 66.5533 62.8975 69.1821 61.1397C71.8109 59.3819 74.9001 58.4462 78.0589 58.4511C82.2877 58.462 86.3398 60.1546 89.3277 63.1581C92.3156 66.1616 93.9957 70.2312 94 74.4756ZM89.8957 74.4756C89.8989 72.1192 89.2054 69.8149 87.903 67.8544C86.6005 65.8939 84.7477 64.3655 82.5791 63.4626C80.4106 62.5598 78.0239 62.3231 75.7212 62.7826C73.4186 63.2421 71.3036 64.3771 69.6441 66.0439C67.9846 67.7107 66.8552 69.8342 66.399 72.1456C65.9428 74.4571 66.1802 76.8524 67.0813 79.0283C67.9823 81.2042 69.5065 83.0628 71.4607 84.3687C73.4149 85.6746 75.7112 86.369 78.0589 86.3641C81.197 86.3554 84.2039 85.0998 86.4221 82.8719C88.6403 80.6441 89.8892 77.6252 89.8957 74.4756ZM84.2482 68.5683C84.0345 68.4037 83.7905 68.2831 83.5302 68.2134C83.2699 68.1437 82.9985 68.1264 82.7315 68.1623C82.4645 68.1983 82.2072 68.2869 81.9744 68.4231C81.7417 68.5592 81.538 68.7402 81.3752 68.9556L77.7224 73.7588L76.3679 71.8968C76.2252 71.6432 76.0306 71.4229 75.7968 71.2504C75.563 71.0778 75.2954 70.957 75.0117 70.8959C74.728 70.8348 74.4346 70.8348 74.1509 70.8958C73.8672 70.9569 73.5996 71.0777 73.3658 71.2501C73.1319 71.4226 72.9372 71.6429 72.7945 71.8965C72.6517 72.15 72.5642 72.4311 72.5376 72.7211C72.511 73.0111 72.546 73.3035 72.6403 73.5789C72.7346 73.8544 72.886 74.1066 73.0845 74.319L76.056 78.4384C76.2467 78.6947 76.4945 78.9027 76.7795 79.0457C77.0646 79.1888 77.379 79.2629 77.6977 79.2623C78.0162 79.2617 78.3302 79.1869 78.615 79.044C78.8999 78.901 79.1479 78.6938 79.3395 78.4384L84.6258 71.4519C84.7903 71.238 84.911 70.9935 84.9811 70.7325C85.0512 70.4716 85.0692 70.1993 85.0341 69.9314C84.999 69.6634 84.9115 69.4051 84.7766 69.1712C84.6418 68.9372 84.4622 68.7324 84.2482 68.5683ZM42.5403 52.5109H39.971C39.4268 52.5109 38.9048 52.7279 38.5199 53.1142C38.1351 53.5005 37.9189 54.0244 37.9189 54.5706C37.9189 55.1169 38.1351 55.6408 38.5199 56.0271C38.9048 56.4133 39.4268 56.6303 39.971 56.6303H42.5403C43.0846 56.6303 43.6066 56.4133 43.9914 56.0271C44.3763 55.6408 44.5925 55.1169 44.5925 54.5706C44.5925 54.0244 44.3763 53.5005 43.9914 53.1142C43.6066 52.7279 43.0846 52.5109 42.5403 52.5109ZM42.5403 66.5169H39.971C39.4268 66.5169 38.9048 66.7339 38.5199 67.1202C38.1351 67.5064 37.9189 68.0303 37.9189 68.5766C37.9189 69.1229 38.1351 69.6467 38.5199 70.033C38.9048 70.4193 39.4268 70.6363 39.971 70.6363H42.5403C43.0846 70.6363 43.6066 70.4193 43.9914 70.033C44.3763 69.6467 44.5925 69.1229 44.5925 68.5766C44.5925 68.0303 44.3763 67.5064 43.9914 67.1202C43.6066 66.7339 43.0846 66.5169 42.5403 66.5169ZM54.7711 52.5109H52.2018C51.6576 52.5109 51.1356 52.7279 50.7507 53.1142C50.3659 53.5005 50.1497 54.0244 50.1497 54.5706C50.1497 55.1169 50.3659 55.6408 50.7507 56.0271C51.1356 56.4133 51.6576 56.6303 52.2018 56.6303H54.7711C55.3154 56.6303 55.8374 56.4133 56.2222 56.0271C56.6071 55.6408 56.8233 55.1169 56.8233 54.5706C56.8233 54.0244 56.6071 53.5005 56.2222 53.1142C55.8374 52.7279 55.3154 52.5109 54.7711 52.5109ZM65.2207 52.5109C64.6764 52.5109 64.1544 52.7279 63.7696 53.1142C63.3847 53.5005 63.1685 54.0244 63.1685 54.5706C63.1685 55.1169 63.3847 55.6408 63.7696 56.0271C64.1544 56.4133 64.6764 56.6303 65.2207 56.6303H67.7982C68.3424 56.6303 68.8644 56.4133 69.2493 56.0271C69.6341 55.6408 69.8503 55.1169 69.8503 54.5706C69.8503 54.0244 69.6341 53.5005 69.2493 53.1142C68.8644 52.7279 68.3424 52.5109 67.7982 52.5109H65.2207ZM54.7711 66.5169H52.2018C51.6576 66.5169 51.1356 66.7339 50.7507 67.1202C50.3659 67.5064 50.1497 68.0303 50.1497 68.5766C50.1497 69.1229 50.3659 69.6467 50.7507 70.033C51.1356 70.4193 51.6576 70.6363 52.2018 70.6363H54.7711C55.3154 70.6363 55.8374 70.4193 56.2222 70.033C56.6071 69.6467 56.8233 69.1229 56.8233 68.5766C56.8233 68.0303 56.6071 67.5064 56.2222 67.1202C55.8374 66.7339 55.3154 66.5169 54.7711 66.5169Z" fill="black" stroke="black" stroke-width="2" mask="url(#path-2-inside-1_881_1823)"/>
</svg>
