<svg width="120" height="120" viewBox="0 0 120 120" fill="none" xmlns="http://www.w3.org/2000/svg">
<rect width="120" height="120" rx="60" fill="white"/>
<mask id="path-2-inside-1_881_1827" fill="white">
<path d="M95.5469 30.5345C95.2653 30.3127 94.8966 30.2368 94.5482 30.3244L88.7418 31.8539L86.4192 29.5188H86.3495L86.2334 29.4137L86.0824 29.3437H85.8269C82.2153 28.2462 65.8061 32.4726 60 37.8784C57.5033 35.5433 53.2646 33.6169 49.9435 32.391C48.3061 31.7955 46.7151 31.2234 45.2287 30.8615C43.7422 30.4178 36.6237 28.4564 34.2431 29.1452H34.0341C33.947 29.1773 33.8657 29.2211 33.7902 29.2736H33.6509L31.2238 31.8772L25.4174 30.3245C25.0661 30.2311 24.6916 30.3099 24.4071 30.5346C24.14 30.7652 23.989 31.1038 24.0006 31.457V46.0509C24.0006 46.6959 24.5203 47.2184 25.1619 47.2184C25.8035 47.2184 26.3232 46.6959 26.3232 46.0509V32.9746L29.3309 33.7919L28.9825 34.1305C28.7648 34.3494 28.6429 34.65 28.6458 34.9594V62.98V63.0618C28.6342 63.1231 28.6342 63.1873 28.6458 63.2486C28.64 63.2865 28.64 63.3274 28.6458 63.3653C28.6661 63.4266 28.6922 63.485 28.7271 63.5405L28.7967 63.6455C28.8316 63.701 28.8751 63.7535 28.9245 63.7973L29.0174 63.879L29.2032 63.9841H29.2729L53.7293 72.2969L56.4119 73.3127C56.5425 73.3594 56.679 73.3827 56.8183 73.3827H58.839V76.4183L58.2003 76.1848L40.8743 70.2654L26.3236 64.5212V49.5537C26.3236 48.9086 25.8039 48.3862 25.1623 48.3862C24.5207 48.3862 24.001 48.9086 24.001 49.5537V65.3155C24.001 65.7942 24.2913 66.2232 24.7326 66.4012L37.1005 71.2815L27.1131 74.714C26.6196 74.8804 26.2973 75.3591 26.3235 75.8816V78.742C26.3235 79.0514 26.4454 79.3491 26.6631 79.568C26.8809 79.787 27.177 79.9095 27.4848 79.9095C28.768 79.9095 29.8073 80.9544 29.8073 82.2446C29.8073 83.5347 28.768 84.5796 27.4848 84.5796C26.8432 84.5796 26.3235 85.1021 26.3235 85.7472V89.8335C26.3235 90.213 26.5093 90.5691 26.817 90.788C27.1277 91.0069 27.5225 91.0594 27.8796 90.931L58.8392 79.8161V81.2873C57.4515 81.7805 56.5195 83.0998 56.5166 84.5796V89.2497C56.5166 89.5591 56.6386 89.8569 56.8563 90.0758C57.0741 90.2947 57.3702 90.4173 57.6779 90.4173H62.3231C62.6308 90.4173 62.9269 90.2947 63.1447 90.0758C63.3625 89.8569 63.4844 89.5592 63.4844 89.2497V84.5796C63.4844 83.6514 63.1157 82.7612 62.4624 82.1045C62.0937 81.7396 61.6495 81.4623 61.1618 81.2872V79.8161L73.6108 84.2877C74.2175 84.5037 74.8823 84.1855 75.0972 83.5755C75.3121 82.9655 74.9956 82.2971 74.3888 82.0811L63.4843 78.1815L79.5096 72.6007L91.3551 76.6637V77.7262C89.3112 78.2632 87.8857 80.1196 87.8857 82.2445C87.8857 84.3694 89.3112 86.2257 91.3551 86.7628V88.1755L77.5936 83.2369C77.2975 83.1084 76.9636 83.1084 76.6704 83.2398C76.3771 83.3682 76.1478 83.6134 76.0404 83.917C75.9329 84.2205 75.9533 84.5562 76.1013 84.8422C76.2494 85.1312 76.5078 85.3443 76.8155 85.4318L92.1214 90.9309C92.4785 91.0593 92.8733 91.0068 93.184 90.7879C93.4917 90.569 93.6775 90.2129 93.6775 89.8335V85.7471C93.6775 85.4377 93.5556 85.14 93.3378 84.921C93.1201 84.7021 92.824 84.5795 92.5162 84.5795C91.233 84.5795 90.1937 83.5346 90.1937 82.2445C90.1937 80.9543 91.233 79.9094 92.5162 79.9094C92.824 79.9094 93.1201 79.7868 93.3378 79.5679C93.5556 79.349 93.6775 79.0513 93.6775 78.7419V75.8231C93.7037 75.3006 93.3814 74.822 92.8878 74.6556L82.9005 71.223L95.2684 66.3428C95.6923 66.1735 95.9768 65.7736 96 65.3154V31.4575C96 31.0956 95.8314 30.7564 95.5469 30.5345ZM61.1611 67.8139L61.463 67.8956L61.6488 67.9657L62.0669 68.1408L62.3224 68.2342L62.6707 68.4561L62.8682 68.5962C62.9843 68.6867 63.0975 68.7859 63.2049 68.8881L63.3443 69.0165C63.501 69.1683 63.6433 69.3317 63.7739 69.5068C63.8901 69.6674 63.9946 69.8337 64.0875 70.0089C64.0875 70.0789 64.0875 70.1373 64.1804 70.1957C64.2239 70.2862 64.2617 70.3796 64.2965 70.4759L62.6359 71.0947H61.161L61.1611 67.8139ZM66.4797 69.752C66.4391 69.6616 66.3926 69.5711 66.3404 69.4835C66.2474 69.2529 66.14 69.0311 66.0152 68.818C65.9455 68.6896 65.8642 68.5728 65.7829 68.4444C65.7016 68.316 65.5158 68.0591 65.3649 67.8723L65.0629 67.5338C64.9004 67.3615 64.732 67.1981 64.552 67.0434L64.2268 66.7632C64.0062 66.5997 63.7739 66.448 63.5417 66.3078C63.472 66.2582 63.3965 66.2115 63.321 66.1677C63.5765 65.9693 63.8436 65.7941 64.1107 65.619C64.3778 65.4439 64.3778 65.4205 64.5287 65.3271L64.6333 65.2571C65.0397 65.0002 65.4694 64.755 65.9107 64.5215H65.9804L66.2242 64.3931C66.6888 64.1479 67.1765 63.9144 67.6642 63.6926L68.1636 63.4824L69.3249 63.0154L69.9984 62.7702L71.0319 62.3966L71.7635 62.1631L72.7623 61.8596L73.5055 61.6494L74.4694 61.3926L75.2242 61.2058L76.1532 60.9839L76.8848 60.8205L77.779 60.6337L78.4758 60.5052L79.3119 60.3535L79.9622 60.2367L80.7519 60.1083L81.3325 60.0265L82.0409 59.9215L82.5635 59.8514L83.2254 59.7113H83.6319L84.2009 59.6529H85.0602L87.9982 62.6185L66.4797 69.752ZM86.7094 57.8317V33.1033L87.5687 33.979L89.032 35.4384V60.1668L86.7094 57.8317ZM84.3869 57.2363H81.3095L80.9146 57.2946H80.5663L80.1598 57.3647H80.0901L79.7417 57.4231L79.2656 57.5048L78.8824 57.5748H78.4411L78.0231 57.6566L77.5237 57.75H77.1056L76.5831 57.8667L76.1534 57.9601L75.6773 58.0652H75.5844L75.1779 58.1703L74.6321 58.2987L74.1792 58.4155H73.8889L73.587 58.4972L73.1224 58.6139L72.565 58.7774L72.2979 58.8475H72.1237L71.6128 59.7114L71.1367 59.8632L70.6489 60.0266L70.4515 60.0616L70.0334 60.2017L69.476 60.4002L69.0115 60.5753H68.7793L68.4657 60.6921L68.0012 60.8789L67.467 61.1007L67.1767 61.2292H67.0373L66.5148 61.4743L66.0619 61.6845L65.6206 61.8947L65.4812 61.9647L65.098 62.1632L64.6103 62.4317L64.169 62.6769L64.0645 62.7353H63.9716L63.7045 62.8987C63.5535 62.9805 63.4141 63.0739 63.2748 63.1673L62.8219 63.4591L62.5548 63.6343L62.4619 63.7043L62.0438 64.0079L61.649 64.3114L61.3122 64.58L61.2309 64.6383V40.0616C65.6902 35.053 80.6825 31.4335 84.4566 31.305L84.3869 57.2363ZM46.0649 33.5472C46.8197 33.7808 47.5978 34.0376 48.3875 34.3178V47.9082L48.0391 47.5579C47.8214 47.3419 47.531 47.2193 47.2262 47.2193C46.9184 47.2164 46.6194 47.339 46.4016 47.5579L46.0765 47.8965L46.0649 33.5472ZM43.7424 37.0498C42.4737 36.9243 41.1962 36.8834 39.9218 36.9331C39.6024 36.9331 39.2976 37.0644 39.0798 37.295C38.8592 37.5285 38.746 37.8379 38.7605 38.1589C38.775 38.4683 38.9114 38.7602 39.1408 38.9674C39.3702 39.1747 39.6721 39.2827 39.9798 39.2681C41.2166 39.2155 42.4533 39.2593 43.6843 39.3965V45.2341C42.4157 45.1086 41.1382 45.0678 39.8637 45.1174C39.5444 45.1174 39.2395 45.2487 39.0218 45.4793C38.8012 45.7128 38.6879 46.0222 38.7025 46.3432C38.717 46.6526 38.8534 46.9445 39.0828 47.1517C39.3121 47.359 39.6141 47.467 39.9218 47.4524C41.1586 47.3998 42.3953 47.4436 43.6263 47.5808V50.7214C43.6292 51.1914 43.9137 51.6175 44.3463 51.7955C44.7789 51.9794 45.2782 51.8802 45.6121 51.5504L47.2263 50.0326L48.7359 51.5504C48.8346 51.6496 48.9537 51.7255 49.0843 51.7722H49.1888C49.2904 51.7839 49.3891 51.7839 49.4907 51.7722H49.5488C49.6853 51.7722 49.8188 51.7459 49.9436 51.6905C50.3617 51.5416 50.6607 51.1651 50.7101 50.7214V49.3787C52.1123 50.0063 53.442 50.7885 54.67 51.7138C54.8761 51.8422 55.1142 51.9035 55.3552 51.8889C55.8603 51.8918 56.3074 51.5649 56.4642 51.0833C56.621 50.6017 56.4497 50.0734 56.0403 49.7757C54.3943 48.579 52.6029 47.6012 50.71 46.8686V41.2061C52.1123 41.8337 53.442 42.6159 54.67 43.5412C54.8761 43.6696 55.1142 43.7309 55.3551 43.7163C55.8603 43.7192 56.3074 43.3923 56.4642 42.9107C56.621 42.4291 56.4497 41.9008 56.0403 41.6031C54.3942 40.4064 52.6029 39.4285 50.71 38.696V35.1934C54.5655 36.7579 57.4106 38.4508 58.8394 40.062V64.8837L58.7581 64.8254L58.4213 64.5568L58.0265 64.2533L57.6084 63.9497H57.5503L57.4574 63.8797L57.1903 63.7045L56.7374 63.4127C56.5981 63.3193 56.4587 63.2259 56.3078 63.1441L56.0407 62.9807H55.9478L55.8432 62.9223L55.3555 62.5837L54.8678 62.3152L54.4845 62.1167L54.3452 62.0467L53.9039 61.8365L53.451 61.6264L53.0329 61.3812H52.8936L52.5104 61.2294L51.9762 61.0076L51.5117 60.8208L51.1981 60.704H50.9659L50.5014 60.5289L49.9439 60.3304L49.5491 60.0619H49.433L48.9452 59.8984L48.4691 59.7466L47.9233 59.5832H47.7491L47.482 59.5131L46.9246 59.3497L46.4601 59.2329L46.0652 59.0578H45.8214L45.3685 58.941L44.904 58.7542L44.4975 58.6492H44.4046L43.9285 58.5441L43.4988 58.4507L42.9762 58.3339H42.5582L42.0588 58.2405L41.6408 58.1588H41.1995L40.8163 58.0887L40.2588 57.8319L39.9105 57.7268H39.0975L38.7027 57.6684H35.6137V31.2939C38.3688 31.545 41.0921 32.0733 43.7431 32.8701L43.7424 37.0498ZM33.2912 57.8314L30.9686 60.1665V35.4381L32.397 34.0137L33.2912 33.103V57.8314ZM34.8937 59.5127H35.7647L36.3221 59.571H36.7286L37.3673 59.6528L37.8782 59.7228L38.5866 59.8279L39.1673 59.9096L39.9569 60.038L40.6073 60.1548L41.455 60.3066L42.1401 60.435L43.046 60.6218L43.766 60.7853L44.7066 61.0071L45.4382 61.1939L46.4253 61.4508L47.1569 61.6609L48.1672 61.9761L48.8756 62.198C49.2356 62.3147 49.584 62.4548 49.9324 62.5833L50.5827 62.8168L51.744 63.2954L52.1736 63.4823H52.2549C52.7427 63.7041 53.2304 63.9376 53.6949 64.1828L53.9388 64.3112C54.3917 64.5564 54.833 64.8132 55.2626 65.0701L55.3787 65.1518C55.5181 65.2335 55.6342 65.3269 55.7736 65.4203C55.9129 65.5137 56.3194 65.7823 56.5748 65.9808L56.389 66.0975C56.1365 66.2464 55.8926 66.4098 55.6574 66.5879C55.5471 66.6725 55.4426 66.7601 55.3439 66.8564C55.1552 67.0169 54.9752 67.1862 54.8097 67.3701C54.7081 67.4781 54.6094 67.5919 54.5194 67.7087C54.3684 67.8926 54.2262 68.0881 54.1013 68.2925C54.0142 68.4121 53.9329 68.5376 53.8574 68.6661C53.7384 68.885 53.6281 69.1126 53.5323 69.3432C53.48 69.4337 53.4336 69.5271 53.3929 69.6234L31.9555 62.4782L34.8937 59.5127ZM57.1903 71.1879L55.7039 70.5691C55.7387 70.4699 55.7765 70.3736 55.82 70.2772C55.82 70.2189 55.8781 70.1488 55.9129 70.0788C56.0174 69.889 56.1336 69.7052 56.2613 69.53C56.3832 69.3695 56.5168 69.2177 56.6561 69.0747C56.6561 69.0163 56.7607 68.9813 56.8071 68.9229C56.9145 68.8237 57.0278 68.7303 57.1439 68.6427L57.3413 68.5026C57.4487 68.4063 57.5619 68.3158 57.6781 68.2341L57.8871 68.129L58.3052 67.9422L58.5026 67.8721L58.8045 67.7904V71.1529L57.1903 71.1879ZM28.6462 88.1751V86.7624C30.6901 86.2254 32.1156 84.369 32.1156 82.2441C32.1156 80.1192 30.6901 78.2629 28.6462 77.7258V76.6633L40.4679 72.6003L56.517 78.1811L28.6462 88.1751ZM61.1621 84.5792V88.0817H58.8395V84.5792C58.8395 83.9341 59.3592 83.4116 60.0008 83.4116C60.6424 83.4116 61.1621 83.9341 61.1621 84.5792ZM93.678 64.5209L79.1503 70.2651L61.1621 76.523V73.4875H62.8228C62.9621 73.4875 63.0986 73.4641 63.2292 73.4174L66.0743 72.355L90.5657 64.0892H90.6354L90.8212 63.9842C90.8473 63.9521 90.8792 63.9229 90.9141 63.9024C90.9634 63.8587 91.007 63.8061 91.0418 63.7507L91.1115 63.6573C91.1434 63.596 91.1696 63.5347 91.1928 63.4705C91.1986 63.4325 91.1986 63.3916 91.1928 63.3537C91.2044 63.2866 91.2044 63.2224 91.1928 63.1552V63.0852V35.0646C91.1957 34.7552 91.0737 34.4545 90.856 34.2356L90.4844 33.8737L93.6779 32.9629L93.678 64.5209ZM63.7054 43.2372C63.5225 42.9861 63.447 42.6738 63.4964 42.3673C63.5428 42.0608 63.7112 41.7836 63.9609 41.6026C68.6467 38.2431 74.334 36.5969 80.0799 36.9325C80.7215 36.9646 81.215 37.5134 81.1831 38.1584C81.1512 38.8034 80.6054 39.2996 79.9638 39.2676C74.7496 38.9552 69.5847 40.4467 65.3312 43.494C65.1309 43.6399 64.8929 43.7158 64.6461 43.7158C64.2745 43.7158 63.926 43.5378 63.7054 43.2372ZM63.7054 51.4102C63.5225 51.1592 63.447 50.8469 63.4964 50.5404C63.5428 50.2339 63.7112 49.9566 63.9609 49.7757C68.6467 46.4161 74.334 44.7699 80.0799 45.1056C80.7215 45.1377 81.215 45.6864 81.1831 46.3315C81.1512 46.9765 80.6054 47.4727 79.9638 47.4406C74.7496 47.1283 69.5847 48.6198 65.3312 51.667C65.1309 51.813 64.8929 51.8889 64.6461 51.8889C64.2745 51.8889 63.926 51.7108 63.7054 51.4102ZM63.7054 58.4154C63.5225 58.1643 63.447 57.852 63.4964 57.5455C63.5428 57.2391 63.7112 56.9618 63.9609 56.7808C68.6467 53.4213 74.334 51.7751 80.0799 52.1107C80.7215 52.1428 81.215 52.6916 81.1831 53.3366C81.1512 53.9816 80.6054 54.4778 79.9638 54.4458C74.7496 54.1335 69.5847 55.625 65.3312 58.6722C65.1309 58.8181 64.8929 58.894 64.6461 58.894C64.2745 58.894 63.926 58.716 63.7054 58.4154ZM38.8306 53.3483C38.7986 52.7062 39.2864 52.1604 39.9222 52.1225C45.6677 51.7839 51.3552 53.433 56.0412 56.7926C56.4389 57.0932 56.6044 57.6157 56.4476 58.0914C56.2938 58.5672 55.8525 58.8883 55.356 58.8941C55.1092 58.8941 54.8712 58.8182 54.6708 58.6723C50.4176 55.625 45.2527 54.1335 40.0383 54.4459C39.4054 54.4721 38.8683 53.9847 38.8306 53.3483Z"/>
</mask>
<path d="M95.5469 30.5345C95.2653 30.3127 94.8966 30.2368 94.5482 30.3244L88.7418 31.8539L86.4192 29.5188H86.3495L86.2334 29.4137L86.0824 29.3437H85.8269C82.2153 28.2462 65.8061 32.4726 60 37.8784C57.5033 35.5433 53.2646 33.6169 49.9435 32.391C48.3061 31.7955 46.7151 31.2234 45.2287 30.8615C43.7422 30.4178 36.6237 28.4564 34.2431 29.1452H34.0341C33.947 29.1773 33.8657 29.2211 33.7902 29.2736H33.6509L31.2238 31.8772L25.4174 30.3245C25.0661 30.2311 24.6916 30.3099 24.4071 30.5346C24.14 30.7652 23.989 31.1038 24.0006 31.457V46.0509C24.0006 46.6959 24.5203 47.2184 25.1619 47.2184C25.8035 47.2184 26.3232 46.6959 26.3232 46.0509V32.9746L29.3309 33.7919L28.9825 34.1305C28.7648 34.3494 28.6429 34.65 28.6458 34.9594V62.98V63.0618C28.6342 63.1231 28.6342 63.1873 28.6458 63.2486C28.64 63.2865 28.64 63.3274 28.6458 63.3653C28.6661 63.4266 28.6922 63.485 28.7271 63.5405L28.7967 63.6455C28.8316 63.701 28.8751 63.7535 28.9245 63.7973L29.0174 63.879L29.2032 63.9841H29.2729L53.7293 72.2969L56.4119 73.3127C56.5425 73.3594 56.679 73.3827 56.8183 73.3827H58.839V76.4183L58.2003 76.1848L40.8743 70.2654L26.3236 64.5212V49.5537C26.3236 48.9086 25.8039 48.3862 25.1623 48.3862C24.5207 48.3862 24.001 48.9086 24.001 49.5537V65.3155C24.001 65.7942 24.2913 66.2232 24.7326 66.4012L37.1005 71.2815L27.1131 74.714C26.6196 74.8804 26.2973 75.3591 26.3235 75.8816V78.742C26.3235 79.0514 26.4454 79.3491 26.6631 79.568C26.8809 79.787 27.177 79.9095 27.4848 79.9095C28.768 79.9095 29.8073 80.9544 29.8073 82.2446C29.8073 83.5347 28.768 84.5796 27.4848 84.5796C26.8432 84.5796 26.3235 85.1021 26.3235 85.7472V89.8335C26.3235 90.213 26.5093 90.5691 26.817 90.788C27.1277 91.0069 27.5225 91.0594 27.8796 90.931L58.8392 79.8161V81.2873C57.4515 81.7805 56.5195 83.0998 56.5166 84.5796V89.2497C56.5166 89.5591 56.6386 89.8569 56.8563 90.0758C57.0741 90.2947 57.3702 90.4173 57.6779 90.4173H62.3231C62.6308 90.4173 62.9269 90.2947 63.1447 90.0758C63.3625 89.8569 63.4844 89.5592 63.4844 89.2497V84.5796C63.4844 83.6514 63.1157 82.7612 62.4624 82.1045C62.0937 81.7396 61.6495 81.4623 61.1618 81.2872V79.8161L73.6108 84.2877C74.2175 84.5037 74.8823 84.1855 75.0972 83.5755C75.3121 82.9655 74.9956 82.2971 74.3888 82.0811L63.4843 78.1815L79.5096 72.6007L91.3551 76.6637V77.7262C89.3112 78.2632 87.8857 80.1196 87.8857 82.2445C87.8857 84.3694 89.3112 86.2257 91.3551 86.7628V88.1755L77.5936 83.2369C77.2975 83.1084 76.9636 83.1084 76.6704 83.2398C76.3771 83.3682 76.1478 83.6134 76.0404 83.917C75.9329 84.2205 75.9533 84.5562 76.1013 84.8422C76.2494 85.1312 76.5078 85.3443 76.8155 85.4318L92.1214 90.9309C92.4785 91.0593 92.8733 91.0068 93.184 90.7879C93.4917 90.569 93.6775 90.2129 93.6775 89.8335V85.7471C93.6775 85.4377 93.5556 85.14 93.3378 84.921C93.1201 84.7021 92.824 84.5795 92.5162 84.5795C91.233 84.5795 90.1937 83.5346 90.1937 82.2445C90.1937 80.9543 91.233 79.9094 92.5162 79.9094C92.824 79.9094 93.1201 79.7868 93.3378 79.5679C93.5556 79.349 93.6775 79.0513 93.6775 78.7419V75.8231C93.7037 75.3006 93.3814 74.822 92.8878 74.6556L82.9005 71.223L95.2684 66.3428C95.6923 66.1735 95.9768 65.7736 96 65.3154V31.4575C96 31.0956 95.8314 30.7564 95.5469 30.5345ZM61.1611 67.8139L61.463 67.8956L61.6488 67.9657L62.0669 68.1408L62.3224 68.2342L62.6707 68.4561L62.8682 68.5962C62.9843 68.6867 63.0975 68.7859 63.2049 68.8881L63.3443 69.0165C63.501 69.1683 63.6433 69.3317 63.7739 69.5068C63.8901 69.6674 63.9946 69.8337 64.0875 70.0089C64.0875 70.0789 64.0875 70.1373 64.1804 70.1957C64.2239 70.2862 64.2617 70.3796 64.2965 70.4759L62.6359 71.0947H61.161L61.1611 67.8139ZM66.4797 69.752C66.4391 69.6616 66.3926 69.5711 66.3404 69.4835C66.2474 69.2529 66.14 69.0311 66.0152 68.818C65.9455 68.6896 65.8642 68.5728 65.7829 68.4444C65.7016 68.316 65.5158 68.0591 65.3649 67.8723L65.0629 67.5338C64.9004 67.3615 64.732 67.1981 64.552 67.0434L64.2268 66.7632C64.0062 66.5997 63.7739 66.448 63.5417 66.3078C63.472 66.2582 63.3965 66.2115 63.321 66.1677C63.5765 65.9693 63.8436 65.7941 64.1107 65.619C64.3778 65.4439 64.3778 65.4205 64.5287 65.3271L64.6333 65.2571C65.0397 65.0002 65.4694 64.755 65.9107 64.5215H65.9804L66.2242 64.3931C66.6888 64.1479 67.1765 63.9144 67.6642 63.6926L68.1636 63.4824L69.3249 63.0154L69.9984 62.7702L71.0319 62.3966L71.7635 62.1631L72.7623 61.8596L73.5055 61.6494L74.4694 61.3926L75.2242 61.2058L76.1532 60.9839L76.8848 60.8205L77.779 60.6337L78.4758 60.5052L79.3119 60.3535L79.9622 60.2367L80.7519 60.1083L81.3325 60.0265L82.0409 59.9215L82.5635 59.8514L83.2254 59.7113H83.6319L84.2009 59.6529H85.0602L87.9982 62.6185L66.4797 69.752ZM86.7094 57.8317V33.1033L87.5687 33.979L89.032 35.4384V60.1668L86.7094 57.8317ZM84.3869 57.2363H81.3095L80.9146 57.2946H80.5663L80.1598 57.3647H80.0901L79.7417 57.4231L79.2656 57.5048L78.8824 57.5748H78.4411L78.0231 57.6566L77.5237 57.75H77.1056L76.5831 57.8667L76.1534 57.9601L75.6773 58.0652H75.5844L75.1779 58.1703L74.6321 58.2987L74.1792 58.4155H73.8889L73.587 58.4972L73.1224 58.6139L72.565 58.7774L72.2979 58.8475H72.1237L71.6128 59.7114L71.1367 59.8632L70.6489 60.0266L70.4515 60.0616L70.0334 60.2017L69.476 60.4002L69.0115 60.5753H68.7793L68.4657 60.6921L68.0012 60.8789L67.467 61.1007L67.1767 61.2292H67.0373L66.5148 61.4743L66.0619 61.6845L65.6206 61.8947L65.4812 61.9647L65.098 62.1632L64.6103 62.4317L64.169 62.6769L64.0645 62.7353H63.9716L63.7045 62.8987C63.5535 62.9805 63.4141 63.0739 63.2748 63.1673L62.8219 63.4591L62.5548 63.6343L62.4619 63.7043L62.0438 64.0079L61.649 64.3114L61.3122 64.58L61.2309 64.6383V40.0616C65.6902 35.053 80.6825 31.4335 84.4566 31.305L84.3869 57.2363ZM46.0649 33.5472C46.8197 33.7808 47.5978 34.0376 48.3875 34.3178V47.9082L48.0391 47.5579C47.8214 47.3419 47.531 47.2193 47.2262 47.2193C46.9184 47.2164 46.6194 47.339 46.4016 47.5579L46.0765 47.8965L46.0649 33.5472ZM43.7424 37.0498C42.4737 36.9243 41.1962 36.8834 39.9218 36.9331C39.6024 36.9331 39.2976 37.0644 39.0798 37.295C38.8592 37.5285 38.746 37.8379 38.7605 38.1589C38.775 38.4683 38.9114 38.7602 39.1408 38.9674C39.3702 39.1747 39.6721 39.2827 39.9798 39.2681C41.2166 39.2155 42.4533 39.2593 43.6843 39.3965V45.2341C42.4157 45.1086 41.1382 45.0678 39.8637 45.1174C39.5444 45.1174 39.2395 45.2487 39.0218 45.4793C38.8012 45.7128 38.6879 46.0222 38.7025 46.3432C38.717 46.6526 38.8534 46.9445 39.0828 47.1517C39.3121 47.359 39.6141 47.467 39.9218 47.4524C41.1586 47.3998 42.3953 47.4436 43.6263 47.5808V50.7214C43.6292 51.1914 43.9137 51.6175 44.3463 51.7955C44.7789 51.9794 45.2782 51.8802 45.6121 51.5504L47.2263 50.0326L48.7359 51.5504C48.8346 51.6496 48.9537 51.7255 49.0843 51.7722H49.1888C49.2904 51.7839 49.3891 51.7839 49.4907 51.7722H49.5488C49.6853 51.7722 49.8188 51.7459 49.9436 51.6905C50.3617 51.5416 50.6607 51.1651 50.7101 50.7214V49.3787C52.1123 50.0063 53.442 50.7885 54.67 51.7138C54.8761 51.8422 55.1142 51.9035 55.3552 51.8889C55.8603 51.8918 56.3074 51.5649 56.4642 51.0833C56.621 50.6017 56.4497 50.0734 56.0403 49.7757C54.3943 48.579 52.6029 47.6012 50.71 46.8686V41.2061C52.1123 41.8337 53.442 42.6159 54.67 43.5412C54.8761 43.6696 55.1142 43.7309 55.3551 43.7163C55.8603 43.7192 56.3074 43.3923 56.4642 42.9107C56.621 42.4291 56.4497 41.9008 56.0403 41.6031C54.3942 40.4064 52.6029 39.4285 50.71 38.696V35.1934C54.5655 36.7579 57.4106 38.4508 58.8394 40.062V64.8837L58.7581 64.8254L58.4213 64.5568L58.0265 64.2533L57.6084 63.9497H57.5503L57.4574 63.8797L57.1903 63.7045L56.7374 63.4127C56.5981 63.3193 56.4587 63.2259 56.3078 63.1441L56.0407 62.9807H55.9478L55.8432 62.9223L55.3555 62.5837L54.8678 62.3152L54.4845 62.1167L54.3452 62.0467L53.9039 61.8365L53.451 61.6264L53.0329 61.3812H52.8936L52.5104 61.2294L51.9762 61.0076L51.5117 60.8208L51.1981 60.704H50.9659L50.5014 60.5289L49.9439 60.3304L49.5491 60.0619H49.433L48.9452 59.8984L48.4691 59.7466L47.9233 59.5832H47.7491L47.482 59.5131L46.9246 59.3497L46.4601 59.2329L46.0652 59.0578H45.8214L45.3685 58.941L44.904 58.7542L44.4975 58.6492H44.4046L43.9285 58.5441L43.4988 58.4507L42.9762 58.3339H42.5582L42.0588 58.2405L41.6408 58.1588H41.1995L40.8163 58.0887L40.2588 57.8319L39.9105 57.7268H39.0975L38.7027 57.6684H35.6137V31.2939C38.3688 31.545 41.0921 32.0733 43.7431 32.8701L43.7424 37.0498ZM33.2912 57.8314L30.9686 60.1665V35.4381L32.397 34.0137L33.2912 33.103V57.8314ZM34.8937 59.5127H35.7647L36.3221 59.571H36.7286L37.3673 59.6528L37.8782 59.7228L38.5866 59.8279L39.1673 59.9096L39.9569 60.038L40.6073 60.1548L41.455 60.3066L42.1401 60.435L43.046 60.6218L43.766 60.7853L44.7066 61.0071L45.4382 61.1939L46.4253 61.4508L47.1569 61.6609L48.1672 61.9761L48.8756 62.198C49.2356 62.3147 49.584 62.4548 49.9324 62.5833L50.5827 62.8168L51.744 63.2954L52.1736 63.4823H52.2549C52.7427 63.7041 53.2304 63.9376 53.6949 64.1828L53.9388 64.3112C54.3917 64.5564 54.833 64.8132 55.2626 65.0701L55.3787 65.1518C55.5181 65.2335 55.6342 65.3269 55.7736 65.4203C55.9129 65.5137 56.3194 65.7823 56.5748 65.9808L56.389 66.0975C56.1365 66.2464 55.8926 66.4098 55.6574 66.5879C55.5471 66.6725 55.4426 66.7601 55.3439 66.8564C55.1552 67.0169 54.9752 67.1862 54.8097 67.3701C54.7081 67.4781 54.6094 67.5919 54.5194 67.7087C54.3684 67.8926 54.2262 68.0881 54.1013 68.2925C54.0142 68.4121 53.9329 68.5376 53.8574 68.6661C53.7384 68.885 53.6281 69.1126 53.5323 69.3432C53.48 69.4337 53.4336 69.5271 53.3929 69.6234L31.9555 62.4782L34.8937 59.5127ZM57.1903 71.1879L55.7039 70.5691C55.7387 70.4699 55.7765 70.3736 55.82 70.2772C55.82 70.2189 55.8781 70.1488 55.9129 70.0788C56.0174 69.889 56.1336 69.7052 56.2613 69.53C56.3832 69.3695 56.5168 69.2177 56.6561 69.0747C56.6561 69.0163 56.7607 68.9813 56.8071 68.9229C56.9145 68.8237 57.0278 68.7303 57.1439 68.6427L57.3413 68.5026C57.4487 68.4063 57.5619 68.3158 57.6781 68.2341L57.8871 68.129L58.3052 67.9422L58.5026 67.8721L58.8045 67.7904V71.1529L57.1903 71.1879ZM28.6462 88.1751V86.7624C30.6901 86.2254 32.1156 84.369 32.1156 82.2441C32.1156 80.1192 30.6901 78.2629 28.6462 77.7258V76.6633L40.4679 72.6003L56.517 78.1811L28.6462 88.1751ZM61.1621 84.5792V88.0817H58.8395V84.5792C58.8395 83.9341 59.3592 83.4116 60.0008 83.4116C60.6424 83.4116 61.1621 83.9341 61.1621 84.5792ZM93.678 64.5209L79.1503 70.2651L61.1621 76.523V73.4875H62.8228C62.9621 73.4875 63.0986 73.4641 63.2292 73.4174L66.0743 72.355L90.5657 64.0892H90.6354L90.8212 63.9842C90.8473 63.9521 90.8792 63.9229 90.9141 63.9024C90.9634 63.8587 91.007 63.8061 91.0418 63.7507L91.1115 63.6573C91.1434 63.596 91.1696 63.5347 91.1928 63.4705C91.1986 63.4325 91.1986 63.3916 91.1928 63.3537C91.2044 63.2866 91.2044 63.2224 91.1928 63.1552V63.0852V35.0646C91.1957 34.7552 91.0737 34.4545 90.856 34.2356L90.4844 33.8737L93.6779 32.9629L93.678 64.5209ZM63.7054 43.2372C63.5225 42.9861 63.447 42.6738 63.4964 42.3673C63.5428 42.0608 63.7112 41.7836 63.9609 41.6026C68.6467 38.2431 74.334 36.5969 80.0799 36.9325C80.7215 36.9646 81.215 37.5134 81.1831 38.1584C81.1512 38.8034 80.6054 39.2996 79.9638 39.2676C74.7496 38.9552 69.5847 40.4467 65.3312 43.494C65.1309 43.6399 64.8929 43.7158 64.6461 43.7158C64.2745 43.7158 63.926 43.5378 63.7054 43.2372ZM63.7054 51.4102C63.5225 51.1592 63.447 50.8469 63.4964 50.5404C63.5428 50.2339 63.7112 49.9566 63.9609 49.7757C68.6467 46.4161 74.334 44.7699 80.0799 45.1056C80.7215 45.1377 81.215 45.6864 81.1831 46.3315C81.1512 46.9765 80.6054 47.4727 79.9638 47.4406C74.7496 47.1283 69.5847 48.6198 65.3312 51.667C65.1309 51.813 64.8929 51.8889 64.6461 51.8889C64.2745 51.8889 63.926 51.7108 63.7054 51.4102ZM63.7054 58.4154C63.5225 58.1643 63.447 57.852 63.4964 57.5455C63.5428 57.2391 63.7112 56.9618 63.9609 56.7808C68.6467 53.4213 74.334 51.7751 80.0799 52.1107C80.7215 52.1428 81.215 52.6916 81.1831 53.3366C81.1512 53.9816 80.6054 54.4778 79.9638 54.4458C74.7496 54.1335 69.5847 55.625 65.3312 58.6722C65.1309 58.8181 64.8929 58.894 64.6461 58.894C64.2745 58.894 63.926 58.716 63.7054 58.4154ZM38.8306 53.3483C38.7986 52.7062 39.2864 52.1604 39.9222 52.1225C45.6677 51.7839 51.3552 53.433 56.0412 56.7926C56.4389 57.0932 56.6044 57.6157 56.4476 58.0914C56.2938 58.5672 55.8525 58.8883 55.356 58.8941C55.1092 58.8941 54.8712 58.8182 54.6708 58.6723C50.4176 55.625 45.2527 54.1335 40.0383 54.4459C39.4054 54.4721 38.8683 53.9847 38.8306 53.3483Z" fill="white" stroke="black" stroke-width="8" mask="url(#path-2-inside-1_881_1827)"/>
</svg>
