<svg width="120" height="120" viewBox="0 0 120 120" fill="none" xmlns="http://www.w3.org/2000/svg">
<rect width="120" height="120" rx="60" fill="white"/>
<g filter="url(#filter0_d_870_1996)">
<path d="M82.4999 35H37.5C30.6094 35 25 40.6094 25 47.5001V72.5002C25 73.997 25.3094 75.4158 25.7938 76.7502C25.8031 76.7939 25.8188 76.8314 25.8312 76.8752C27.6125 81.6065 32.1531 85 37.5 85H82.5C87.8468 85 92.3872 81.6062 94.1687 76.872C94.1813 76.8313 94.1969 76.7907 94.2062 76.747C94.6906 75.4157 95 73.997 95 72.5001V47.5C95 40.6093 89.3905 35 82.4999 35ZM81.5999 40L61.8527 61.7473C61.3746 62.2754 60.7183 62.566 60.0059 62.566H60.0027C59.2902 62.566 58.634 62.2723 58.1527 61.7473L38.4024 40H81.5999ZM82.4999 80.0002H37.5C35.0156 80.0002 32.8281 78.772 31.4625 76.9095L45.3408 66.5815C46.4502 65.7565 46.6784 64.1877 45.8565 63.0815C45.0315 61.9752 43.4627 61.7439 42.3565 62.5658L30.0005 71.7627V47.5002C30.0005 45.0471 31.2005 42.8877 33.0255 41.5189L54.4534 65.1062C55.869 66.6687 57.8941 67.5655 60.0034 67.5687H60.0065C62.1159 67.5687 64.1378 66.6749 65.5534 65.1155L86.975 41.5186C88.7999 42.8874 89.9999 45.0468 89.9999 47.4999V71.7625L77.6407 62.5656C76.5376 61.7469 74.9689 61.9781 74.1408 63.0812C73.3189 64.1875 73.547 65.7531 74.6564 66.5812L88.5348 76.9093C87.1723 78.7718 84.9843 80.0002 82.4999 80.0002Z" fill="black"/>
</g>
<defs>
<filter id="filter0_d_870_1996" x="21" y="35" width="78" height="58" filterUnits="userSpaceOnUse" color-interpolation-filters="sRGB">
<feFlood flood-opacity="0" result="BackgroundImageFix"/>
<feColorMatrix in="SourceAlpha" type="matrix" values="0 0 0 0 0 0 0 0 0 0 0 0 0 0 0 0 0 0 127 0" result="hardAlpha"/>
<feOffset dy="4"/>
<feGaussianBlur stdDeviation="2"/>
<feComposite in2="hardAlpha" operator="out"/>
<feColorMatrix type="matrix" values="0 0 0 0 0 0 0 0 0 0 0 0 0 0 0 0 0 0 0.25 0"/>
<feBlend mode="normal" in2="BackgroundImageFix" result="effect1_dropShadow_870_1996"/>
<feBlend mode="normal" in="SourceGraphic" in2="effect1_dropShadow_870_1996" result="shape"/>
</filter>
</defs>
</svg>
